%TF.GenerationSoftware,KiCad,Pcbnew,8.0.4*%
%TF.CreationDate,2024-08-05T15:05:38+01:00*%
%TF.ProjectId,XBox button board_no_LAN-HDD,58426f78-2062-4757-9474-6f6e20626f61,rev?*%
%TF.SameCoordinates,Original*%
%TF.FileFunction,Legend,Bot*%
%TF.FilePolarity,Positive*%
%FSLAX46Y46*%
G04 Gerber Fmt 4.6, Leading zero omitted, Abs format (unit mm)*
G04 Created by KiCad (PCBNEW 8.0.4) date 2024-08-05 15:05:38*
%MOMM*%
%LPD*%
G01*
G04 APERTURE LIST*
%ADD10C,0.203200*%
%ADD11C,0.200000*%
%ADD12C,0.150000*%
%ADD13C,2.000000*%
%ADD14R,1.800000X1.800000*%
%ADD15C,1.800000*%
%ADD16R,2.000000X1.400000*%
%ADD17O,2.000000X1.400000*%
G04 APERTURE END LIST*
D10*
X181234270Y-85376800D02*
X181511130Y-85468240D01*
X181696550Y-85468240D02*
X181973410Y-85376800D01*
X181881970Y-83621660D02*
X181605110Y-83530220D01*
X181823550Y-99913220D02*
X181823550Y-101851240D01*
X181605110Y-83530220D02*
X181511130Y-83530220D01*
X182158830Y-84175380D02*
X182158830Y-84083940D01*
X181605110Y-84729100D02*
X181881970Y-84637660D01*
X180957410Y-84637660D02*
X181051390Y-85099940D01*
X181511130Y-84729100D02*
X181605110Y-84729100D01*
X181234270Y-84637660D02*
X181511130Y-84729100D01*
X182067390Y-84452240D02*
X182158830Y-84175380D01*
X181051390Y-83807080D02*
X180957410Y-84175380D01*
X181051390Y-85099940D02*
X181234270Y-85376800D01*
X181881970Y-84637660D02*
X182067390Y-84452240D01*
X180957410Y-84175380D02*
X180957410Y-84637660D01*
X181051390Y-84452240D02*
X181234270Y-84637660D01*
X182285830Y-100281520D02*
X182100410Y-100190080D01*
X181511130Y-85468240D02*
X181696550Y-85468240D01*
X181973410Y-85376800D02*
X182067390Y-85191380D01*
X182158830Y-84083940D02*
X182067390Y-83807080D01*
X181511130Y-83530220D02*
X181234270Y-83621660D01*
X182100410Y-100190080D02*
X181823550Y-99913220D01*
X181234270Y-83621660D02*
X181051390Y-83807080D01*
X180957410Y-84175380D02*
X181051390Y-84452240D01*
X182067390Y-83807080D02*
X181881970Y-83621660D01*
D11*
X148053061Y-87247219D02*
X147386394Y-87247219D01*
X147100680Y-88294838D02*
X148053061Y-88294838D01*
X148053061Y-88294838D02*
X148053061Y-86294838D01*
X148053061Y-86294838D02*
X147100680Y-86294838D01*
X145672108Y-86294838D02*
X145672108Y-87723409D01*
X145672108Y-87723409D02*
X145767347Y-88009123D01*
X145767347Y-88009123D02*
X145957823Y-88199600D01*
X145957823Y-88199600D02*
X146243537Y-88294838D01*
X146243537Y-88294838D02*
X146434013Y-88294838D01*
X144719727Y-87247219D02*
X144053060Y-87247219D01*
X143767346Y-88294838D02*
X144719727Y-88294838D01*
X144719727Y-88294838D02*
X144719727Y-86294838D01*
X144719727Y-86294838D02*
X143767346Y-86294838D01*
X141767346Y-88104361D02*
X141862584Y-88199600D01*
X141862584Y-88199600D02*
X142148298Y-88294838D01*
X142148298Y-88294838D02*
X142338774Y-88294838D01*
X142338774Y-88294838D02*
X142624489Y-88199600D01*
X142624489Y-88199600D02*
X142814965Y-88009123D01*
X142814965Y-88009123D02*
X142910203Y-87818647D01*
X142910203Y-87818647D02*
X143005441Y-87437695D01*
X143005441Y-87437695D02*
X143005441Y-87151980D01*
X143005441Y-87151980D02*
X142910203Y-86771028D01*
X142910203Y-86771028D02*
X142814965Y-86580552D01*
X142814965Y-86580552D02*
X142624489Y-86390076D01*
X142624489Y-86390076D02*
X142338774Y-86294838D01*
X142338774Y-86294838D02*
X142148298Y-86294838D01*
X142148298Y-86294838D02*
X141862584Y-86390076D01*
X141862584Y-86390076D02*
X141767346Y-86485314D01*
X141195917Y-86294838D02*
X140053060Y-86294838D01*
X140624489Y-88294838D02*
X140624489Y-86294838D01*
D12*
X148735955Y-108747438D02*
X148735955Y-106747438D01*
X148735955Y-106747438D02*
X147974050Y-106747438D01*
X147974050Y-106747438D02*
X147783574Y-106842676D01*
X147783574Y-106842676D02*
X147688336Y-106937914D01*
X147688336Y-106937914D02*
X147593098Y-107128390D01*
X147593098Y-107128390D02*
X147593098Y-107414104D01*
X147593098Y-107414104D02*
X147688336Y-107604580D01*
X147688336Y-107604580D02*
X147783574Y-107699819D01*
X147783574Y-107699819D02*
X147974050Y-107795057D01*
X147974050Y-107795057D02*
X148735955Y-107795057D01*
X146355003Y-106747438D02*
X145974050Y-106747438D01*
X145974050Y-106747438D02*
X145783574Y-106842676D01*
X145783574Y-106842676D02*
X145593098Y-107033152D01*
X145593098Y-107033152D02*
X145497860Y-107414104D01*
X145497860Y-107414104D02*
X145497860Y-108080771D01*
X145497860Y-108080771D02*
X145593098Y-108461723D01*
X145593098Y-108461723D02*
X145783574Y-108652200D01*
X145783574Y-108652200D02*
X145974050Y-108747438D01*
X145974050Y-108747438D02*
X146355003Y-108747438D01*
X146355003Y-108747438D02*
X146545479Y-108652200D01*
X146545479Y-108652200D02*
X146735955Y-108461723D01*
X146735955Y-108461723D02*
X146831193Y-108080771D01*
X146831193Y-108080771D02*
X146831193Y-107414104D01*
X146831193Y-107414104D02*
X146735955Y-107033152D01*
X146735955Y-107033152D02*
X146545479Y-106842676D01*
X146545479Y-106842676D02*
X146355003Y-106747438D01*
X144831193Y-106747438D02*
X144355003Y-108747438D01*
X144355003Y-108747438D02*
X143974050Y-107318866D01*
X143974050Y-107318866D02*
X143593098Y-108747438D01*
X143593098Y-108747438D02*
X143116908Y-106747438D01*
X142355003Y-107699819D02*
X141688336Y-107699819D01*
X141402622Y-108747438D02*
X142355003Y-108747438D01*
X142355003Y-108747438D02*
X142355003Y-106747438D01*
X142355003Y-106747438D02*
X141402622Y-106747438D01*
X139402622Y-108747438D02*
X140069289Y-107795057D01*
X140545479Y-108747438D02*
X140545479Y-106747438D01*
X140545479Y-106747438D02*
X139783574Y-106747438D01*
X139783574Y-106747438D02*
X139593098Y-106842676D01*
X139593098Y-106842676D02*
X139497860Y-106937914D01*
X139497860Y-106937914D02*
X139402622Y-107128390D01*
X139402622Y-107128390D02*
X139402622Y-107414104D01*
X139402622Y-107414104D02*
X139497860Y-107604580D01*
X139497860Y-107604580D02*
X139593098Y-107699819D01*
X139593098Y-107699819D02*
X139783574Y-107795057D01*
X139783574Y-107795057D02*
X140545479Y-107795057D01*
%LPC*%
D13*
%TO.C,EJECT*%
X147510830Y-94700000D03*
X141010830Y-94700000D03*
X147510830Y-90200000D03*
X141010830Y-90200000D03*
%TD*%
D14*
%TO.C,D1*%
X112308830Y-90279000D03*
D15*
X112308830Y-92819000D03*
X112308830Y-95359000D03*
%TD*%
D16*
%TO.C,J1*%
X184317830Y-100693000D03*
D17*
X184317830Y-98693000D03*
X184317830Y-96693000D03*
X184317830Y-94693000D03*
X184317830Y-92693000D03*
X184317830Y-90693000D03*
X184317830Y-88693000D03*
X184317830Y-86693000D03*
X184317830Y-84693000D03*
%TD*%
D13*
%TO.C,POWER*%
X140910830Y-110750000D03*
X147410830Y-110750000D03*
X140910830Y-115250000D03*
X147410830Y-115250000D03*
%TD*%
D14*
%TO.C,D2*%
X176250000Y-95330000D03*
D15*
X176250000Y-92790000D03*
X176250000Y-90250000D03*
%TD*%
%LPD*%
M02*
