<?xml version="1.0" encoding="UTF-8" standalone="no"?>
<svg
   version="1.1"
   width="84.4804mm"
   height="42.7990mm"
   viewBox="0.0000 0.0000 84.4804 42.7990"
   id="svg34"
   xmlns="http://www.w3.org/2000/svg"
   xmlns:svg="http://www.w3.org/2000/svg"
   xmlns:rdf="http://www.w3.org/1999/02/22-rdf-syntax-ns#"
   xmlns:cc="http://creativecommons.org/ns#"
   xmlns:dc="http://purl.org/dc/elements/1.1/">
  <defs
     id="defs34" />
  <title
     id="title1">SVG Image created as XBox button board_no_LAN-HDD_all tracks front-User_Eco2.svg date 2024/08/05 14:57:03 </title>
  <desc
     id="desc1">Image generated by PCBNEW </desc>
  <g
     style="fill:#000000; fill-opacity:1.0000;stroke:#000000; stroke-opacity:1.0000; stroke-linecap:round; stroke-linejoin:round;"
     transform="translate(0 0) scale(1 1)"
     id="g1" />
  <g
     style="fill:none;  stroke:#000000; stroke-width:0.1500; stroke-opacity:1;  stroke-linecap:round; stroke-linejoin:round;"
     id="g34">
    <path
       d="M18.8412 13.4000 A2.8000 2.8000 0.0 0 0 13.2412 13.4000"
       id="path1" />
    <path
       d="M3.2412 2.4500 L20.2412 2.4500 "
       id="path2" />
    <path
       d="M69.2262 25.2849 A2.1000 2.1000 0.0 0 0 67.1262 27.3849"
       id="path3" />
    <path
       d="M13.2412 17.0500 A2.8000 2.8000 0.0 0 0 18.8412 17.0500"
       id="path4" />
    <path
       d="M60.6912 2.1000 L60.6912 5.1000 "
       id="path5" />
    <path
       d="M78.1912 10.1171 L71.0762 10.1151 "
       id="path6" />
    <path
       d="M68.9762 8.0151 L68.9744 5.1017 "
       id="path7" />
    <path
       d="M3.2412 2.4500 L3.2412 25.9500 "
       id="path8" />
    <path
       d="M34.9412 5.1000 L34.9412 2.1000 "
       id="path9" />
    <path
       d="M78.1912 19.5996 L80.9912 19.6000 "
       id="path10" />
    <path
       d="M18.8412 13.4000 L18.8412 17.0500 "
       id="path11" />
    <path
       d="M78.1912 10.1171 L78.1912 19.5996 "
       id="path12" />
    <path
       d="M20.2412 5.1508 A3.2000 3.2000 0.0 0 0 26.6412 5.1500"
       id="path13" />
    <path
       d="M68.9762 8.0151 A2.1000 2.1000 0.0 0 0 71.0762 10.1151"
       id="path14" />
    <path
       d="M13.2412 13.4000 L13.2412 17.0500 "
       id="path15" />
    <path
       d="M53.1912 31.6000 L53.1912 40.7500 "
       id="path16" />
    <path
       d="M68.9744 5.1017 L60.6912 5.1000 "
       id="path17" />
    <path
       style="fill:none;  stroke:#000000; stroke-width:0.1500; stroke-opacity:1;  stroke-linecap:round; stroke-linejoin:round;fill:none"
       d="M 9.7912,5.2000 6.2912,5.2000 6.2912,24.4000 9.7912,24.4000 Z"
       id="path18" />
    <path
       d="M67.1285 40.7395 L53.1912 40.7500 "
       id="path19" />
    <path
       d="M29.2412 40.7500 L43.1912 40.7500 "
       id="path20" />
    <path
       d="M27.1412 25.9500 L3.2412 25.9500 "
       id="path21" />
    <path
       d="M43.1912 31.6000 L43.1912 40.7500 "
       id="path22" />
    <path
       d="M26.6412 5.1000 L34.9412 5.1000 "
       id="path23" />
    <path
       d="M29.2412 28.0500 A2.1000 2.1000 0.0 0 0 27.1412 25.9500"
       id="path24" />
    <path
       d="M69.2262 25.2849 L82.9412 25.2834 "
       id="path25" />
    <path
       d="M34.9412 2.1000 L60.6912 2.1000 "
       id="path26" />
    <path
       d="M67.1262 27.3849 L67.1285 40.7395 "
       id="path27" />
    <path
       d="M82.9412 25.2834 L82.9425 10.1177 "
       id="path28" />
    <path
       d="M80.9912 10.1175 L80.9912 19.6000 "
       id="path29" />
    <path
       d="M82.9425 10.1177 L80.9912 10.1175 "
       id="path30" />
    <path
       d="M29.2412 28.0500 L29.2412 40.7500 "
       id="path31" />
    <path
       style="fill:none;  stroke:#000000; stroke-width:0.1500; stroke-opacity:1;  stroke-linecap:round; stroke-linejoin:round;fill:none"
       d="M 53.0912,11.1000 43.0912,11.1000 43.0912,18.6000 53.0912,18.6000 Z"
       id="path32" />
    <path
       d="M20.2412 2.4500 L20.2412 5.1508 "
       id="path33" />
    <path
       d="M53.1912 31.6000 L43.1912 31.6000 "
       id="path34" />
  </g>
  <metadata
     id="metadata34">
    <rdf:RDF>
      <cc:Work
         rdf:about="">
        <dc:title>SVG Image created as XBox button board_no_LAN-HDD_all tracks front-User_Eco2.svg date 2024/08/05 14:57:03 </dc:title>
      </cc:Work>
    </rdf:RDF>
  </metadata>
</svg>
