M48
INCH
T1C0.0315
T2C0.0354
T3C0.0433
%
G90
G05
T1
X7.1697Y-3.1535
X7.2485Y-3.1535
X7.2566Y-3.3344
X7.2566Y-3.4131
X7.2566Y-3.4919
X7.2566Y-3.5706
X7.2566Y-3.6493
X7.2566Y-3.7281
X7.2566Y-3.8068
X7.2566Y-3.8856
X7.2566Y-3.9643
X7.3272Y-3.1535
T2
X4.4216Y-3.5543
X4.4216Y-3.6543
X4.4216Y-3.7543
X6.939Y-3.5531
X6.939Y-3.6531
X6.939Y-3.7531
T3
X5.5477Y-4.3602
X5.5477Y-4.5374
X5.5516Y-3.5512
X5.5516Y-3.7283
X5.8036Y-4.3602
X5.8036Y-4.5374
X5.8075Y-3.5512
X5.8075Y-3.7283
M30
