%TF.GenerationSoftware,KiCad,Pcbnew,8.0.3*%
%TF.CreationDate,2024-07-05T17:04:29+01:00*%
%TF.ProjectId,XBox button board,58426f78-2062-4757-9474-6f6e20626f61,rev?*%
%TF.SameCoordinates,Original*%
%TF.FileFunction,Profile,NP*%
%FSLAX46Y46*%
G04 Gerber Fmt 4.6, Leading zero omitted, Abs format (unit mm)*
G04 Created by KiCad (PCBNEW 8.0.3) date 2024-07-05 17:04:29*
%MOMM*%
%LPD*%
G01*
G04 APERTURE LIST*
%TA.AperFunction,Profile*%
%ADD10C,0.100000*%
%TD*%
G04 APERTURE END LIST*
D10*
X171912000Y-82780731D02*
G75*
G02*
X165892400Y-82819269I-3009800J-19269D01*
G01*
X125050000Y-118600000D02*
X163235830Y-118600000D01*
X165892353Y-82819269D02*
X165902830Y-79611000D01*
X123230830Y-79611000D02*
X165902830Y-79611000D01*
X171912688Y-77959696D02*
X189270830Y-77960000D01*
X163235830Y-105741000D02*
X163235830Y-118600000D01*
X117500000Y-94100000D02*
G75*
G02*
X114500000Y-94100000I-1500000J0D01*
G01*
X189270830Y-77960000D02*
X189270830Y-103741000D01*
X174050000Y-94050000D02*
G75*
G02*
X171050000Y-94050000I-1500000J0D01*
G01*
X125050000Y-118600000D02*
X125056000Y-105100000D01*
X174050000Y-94050000D02*
X174050000Y-91550000D01*
X171050000Y-91550000D02*
G75*
G02*
X174050000Y-91550000I1500000J0D01*
G01*
X109260830Y-103106000D02*
X109260830Y-87612000D01*
X109260830Y-87612000D02*
X121153908Y-87625500D01*
X114500000Y-94100000D02*
X114500000Y-91600000D01*
X163235830Y-105741000D02*
G75*
G02*
X165235830Y-103741030I1999970J0D01*
G01*
X123236330Y-85556921D02*
G75*
G02*
X121153908Y-87625530I-2075530J6921D01*
G01*
X123230830Y-79611000D02*
X123236330Y-85556921D01*
X189270830Y-103741000D02*
X165235830Y-103741000D01*
X123056000Y-103100000D02*
G75*
G02*
X125056000Y-105100000I-100J-2000100D01*
G01*
X171912000Y-82780731D02*
X171912688Y-77959696D01*
X171050000Y-94050000D02*
X171050000Y-91550000D01*
X117500000Y-94100000D02*
X117500000Y-91600000D01*
X109260830Y-103106000D02*
X123056000Y-103100000D01*
X114500000Y-91600000D02*
G75*
G02*
X117500000Y-91600000I1500000J0D01*
G01*
M02*
