%TF.GenerationSoftware,KiCad,Pcbnew,8.0.4*%
%TF.CreationDate,2024-08-22T22:34:45+01:00*%
%TF.ProjectId,XBox button board,58426f78-2062-4757-9474-6f6e20626f61,rev?*%
%TF.SameCoordinates,Original*%
%TF.FileFunction,Legend,Top*%
%TF.FilePolarity,Positive*%
%FSLAX46Y46*%
G04 Gerber Fmt 4.6, Leading zero omitted, Abs format (unit mm)*
G04 Created by KiCad (PCBNEW 8.0.4) date 2024-08-22 22:34:45*
%MOMM*%
%LPD*%
G01*
G04 APERTURE LIST*
G04 Aperture macros list*
%AMRoundRect*
0 Rectangle with rounded corners*
0 $1 Rounding radius*
0 $2 $3 $4 $5 $6 $7 $8 $9 X,Y pos of 4 corners*
0 Add a 4 corners polygon primitive as box body*
4,1,4,$2,$3,$4,$5,$6,$7,$8,$9,$2,$3,0*
0 Add four circle primitives for the rounded corners*
1,1,$1+$1,$2,$3*
1,1,$1+$1,$4,$5*
1,1,$1+$1,$6,$7*
1,1,$1+$1,$8,$9*
0 Add four rect primitives between the rounded corners*
20,1,$1+$1,$2,$3,$4,$5,0*
20,1,$1+$1,$4,$5,$6,$7,0*
20,1,$1+$1,$6,$7,$8,$9,0*
20,1,$1+$1,$8,$9,$2,$3,0*%
G04 Aperture macros list end*
%ADD10C,0.254000*%
%ADD11C,0.152400*%
%ADD12C,0.203200*%
%ADD13C,0.150000*%
%ADD14C,0.120000*%
%ADD15C,0.000000*%
%ADD16C,2.000000*%
%ADD17RoundRect,0.237500X-0.237500X0.250000X-0.237500X-0.250000X0.237500X-0.250000X0.237500X0.250000X0*%
%ADD18R,1.800000X1.800000*%
%ADD19C,1.800000*%
%ADD20R,1.350000X1.350000*%
%ADD21O,1.350000X1.350000*%
%ADD22RoundRect,0.218750X-0.256250X0.218750X-0.256250X-0.218750X0.256250X-0.218750X0.256250X0.218750X0*%
%ADD23R,2.000000X1.400000*%
%ADD24O,2.000000X1.400000*%
G04 APERTURE END LIST*
D10*
X162497230Y-84431400D02*
X164224430Y-84431400D01*
D11*
X175060830Y-79352400D02*
X175060830Y-80114400D01*
D10*
X142738030Y-90466960D02*
G75*
G02*
X141722030Y-90466960I-508000J0D01*
G01*
X141722030Y-90466960D02*
G75*
G02*
X142738030Y-90466960I508000J0D01*
G01*
X125266430Y-80845330D02*
X126282430Y-80845330D01*
X126638030Y-82369330D02*
X126638030Y-81200930D01*
X141087030Y-109913200D02*
X147284630Y-109913200D01*
X145582830Y-113012000D02*
G75*
G02*
X142788830Y-113012000I-1397000J0D01*
G01*
X142788830Y-113012000D02*
G75*
G02*
X145582830Y-113012000I1397000J0D01*
G01*
X124910830Y-84426730D02*
X126638030Y-84426730D01*
D11*
X177215990Y-82226200D02*
X177063590Y-82073800D01*
D10*
X162852830Y-80850000D02*
X163868830Y-80850000D01*
D12*
X163353210Y-82742300D02*
X163353210Y-82567040D01*
D11*
X173892430Y-82233400D02*
X173740030Y-82081000D01*
X177060830Y-79354460D02*
X177060830Y-80116460D01*
D10*
X162497230Y-84431400D02*
X162497230Y-82958200D01*
D11*
X174908430Y-79200000D02*
X175060830Y-79352400D01*
D10*
X141157020Y-95613223D02*
X147357160Y-95613223D01*
X162497230Y-82348600D02*
X162497230Y-81205600D01*
D11*
X173892430Y-79200000D02*
X174908430Y-79200000D01*
D10*
X146802030Y-90466960D02*
G75*
G02*
X145786030Y-90466960I-508000J0D01*
G01*
X145786030Y-90466960D02*
G75*
G02*
X146802030Y-90466960I508000J0D01*
G01*
X147287170Y-116113340D02*
X147287170Y-109913200D01*
D11*
X177063590Y-82073800D02*
X177063590Y-81311800D01*
D10*
X163868830Y-80850000D02*
X164224430Y-81205600D01*
X124910830Y-81200930D02*
X125266430Y-80845330D01*
X142661830Y-115044000D02*
G75*
G02*
X141645830Y-115044000I-508000J0D01*
G01*
X141645830Y-115044000D02*
G75*
G02*
X142661830Y-115044000I508000J0D01*
G01*
X126638030Y-84426730D02*
X126638030Y-82953530D01*
X162497230Y-81205600D02*
X162852830Y-80850000D01*
X141160690Y-89400160D02*
X147360830Y-89400160D01*
X164224430Y-84431400D02*
X164224430Y-82958200D01*
D11*
X173740030Y-79352400D02*
X173740030Y-80114400D01*
D10*
X124910830Y-82343930D02*
X124910830Y-81200930D01*
X126282430Y-80845330D02*
X126638030Y-81200930D01*
D12*
X162954430Y-82742300D02*
X163741830Y-82742300D01*
D11*
X173740030Y-82081000D02*
X173740030Y-81319000D01*
X178229230Y-79202060D02*
X178381630Y-79354460D01*
D10*
X141160690Y-89400160D02*
X141160690Y-95600300D01*
X164224430Y-82374000D02*
X164224430Y-81205600D01*
X142738030Y-94530960D02*
G75*
G02*
X141722030Y-94530960I-508000J0D01*
G01*
X141722030Y-94530960D02*
G75*
G02*
X142738030Y-94530960I508000J0D01*
G01*
X145659030Y-92498960D02*
G75*
G02*
X142865030Y-92498960I-1397000J0D01*
G01*
X142865030Y-92498960D02*
G75*
G02*
X145659030Y-92498960I1397000J0D01*
G01*
D12*
X125368030Y-82737630D02*
X126155430Y-82737630D01*
D10*
X146725830Y-110980000D02*
G75*
G02*
X145709830Y-110980000I-508000J0D01*
G01*
X145709830Y-110980000D02*
G75*
G02*
X146725830Y-110980000I508000J0D01*
G01*
X141087030Y-109913200D02*
X141087030Y-116110800D01*
D11*
X175060830Y-82081000D02*
X174908430Y-82233400D01*
D10*
X142661830Y-110980000D02*
G75*
G02*
X141645830Y-110980000I-508000J0D01*
G01*
X141645830Y-110980000D02*
G75*
G02*
X142661830Y-110980000I508000J0D01*
G01*
D11*
X177060830Y-79354460D02*
X177213230Y-79202060D01*
X178381630Y-79354460D02*
X178381630Y-80116460D01*
X173740030Y-79352400D02*
X173892430Y-79200000D01*
X178231990Y-82226200D02*
X177215990Y-82226200D01*
X177213230Y-79202060D02*
X178229230Y-79202060D01*
D10*
X147284630Y-116110800D02*
X141087030Y-116110800D01*
D11*
X178384390Y-82073800D02*
X178384390Y-81311800D01*
X178384390Y-82073800D02*
X178231990Y-82226200D01*
D12*
X125766810Y-82737630D02*
X125766810Y-82562370D01*
D10*
X146725830Y-115044000D02*
G75*
G02*
X145709830Y-115044000I-508000J0D01*
G01*
X145709830Y-115044000D02*
G75*
G02*
X146725830Y-115044000I508000J0D01*
G01*
D11*
X175060830Y-82081000D02*
X175060830Y-81319000D01*
D10*
X146802030Y-94530960D02*
G75*
G02*
X145786030Y-94530960I-508000J0D01*
G01*
X145786030Y-94530960D02*
G75*
G02*
X146802030Y-94530960I508000J0D01*
G01*
X124910830Y-84426730D02*
X124910830Y-82953530D01*
X147363370Y-95600300D02*
X147363370Y-89400160D01*
D11*
X174908430Y-82233400D02*
X173892430Y-82233400D01*
D13*
X162147609Y-85969819D02*
X162147609Y-84969819D01*
X162147609Y-85446009D02*
X162719037Y-85446009D01*
X162719037Y-85969819D02*
X162719037Y-84969819D01*
X163195228Y-85969819D02*
X163195228Y-84969819D01*
X163195228Y-84969819D02*
X163433323Y-84969819D01*
X163433323Y-84969819D02*
X163576180Y-85017438D01*
X163576180Y-85017438D02*
X163671418Y-85112676D01*
X163671418Y-85112676D02*
X163719037Y-85207914D01*
X163719037Y-85207914D02*
X163766656Y-85398390D01*
X163766656Y-85398390D02*
X163766656Y-85541247D01*
X163766656Y-85541247D02*
X163719037Y-85731723D01*
X163719037Y-85731723D02*
X163671418Y-85826961D01*
X163671418Y-85826961D02*
X163576180Y-85922200D01*
X163576180Y-85922200D02*
X163433323Y-85969819D01*
X163433323Y-85969819D02*
X163195228Y-85969819D01*
X164195228Y-85969819D02*
X164195228Y-84969819D01*
X164195228Y-84969819D02*
X164433323Y-84969819D01*
X164433323Y-84969819D02*
X164576180Y-85017438D01*
X164576180Y-85017438D02*
X164671418Y-85112676D01*
X164671418Y-85112676D02*
X164719037Y-85207914D01*
X164719037Y-85207914D02*
X164766656Y-85398390D01*
X164766656Y-85398390D02*
X164766656Y-85541247D01*
X164766656Y-85541247D02*
X164719037Y-85731723D01*
X164719037Y-85731723D02*
X164671418Y-85826961D01*
X164671418Y-85826961D02*
X164576180Y-85922200D01*
X164576180Y-85922200D02*
X164433323Y-85969819D01*
X164433323Y-85969819D02*
X164195228Y-85969819D01*
X125173799Y-85869819D02*
X124697609Y-85869819D01*
X124697609Y-85869819D02*
X124697609Y-84869819D01*
X125459514Y-85584104D02*
X125935704Y-85584104D01*
X125364276Y-85869819D02*
X125697609Y-84869819D01*
X125697609Y-84869819D02*
X126030942Y-85869819D01*
X126364276Y-85869819D02*
X126364276Y-84869819D01*
X126364276Y-84869819D02*
X126935704Y-85869819D01*
X126935704Y-85869819D02*
X126935704Y-84869819D01*
X142332258Y-96631009D02*
X142665591Y-96631009D01*
X142808448Y-97154819D02*
X142332258Y-97154819D01*
X142332258Y-97154819D02*
X142332258Y-96154819D01*
X142332258Y-96154819D02*
X142808448Y-96154819D01*
X143522734Y-96154819D02*
X143522734Y-96869104D01*
X143522734Y-96869104D02*
X143475115Y-97011961D01*
X143475115Y-97011961D02*
X143379877Y-97107200D01*
X143379877Y-97107200D02*
X143237020Y-97154819D01*
X143237020Y-97154819D02*
X143141782Y-97154819D01*
X143998925Y-96631009D02*
X144332258Y-96631009D01*
X144475115Y-97154819D02*
X143998925Y-97154819D01*
X143998925Y-97154819D02*
X143998925Y-96154819D01*
X143998925Y-96154819D02*
X144475115Y-96154819D01*
X145475115Y-97059580D02*
X145427496Y-97107200D01*
X145427496Y-97107200D02*
X145284639Y-97154819D01*
X145284639Y-97154819D02*
X145189401Y-97154819D01*
X145189401Y-97154819D02*
X145046544Y-97107200D01*
X145046544Y-97107200D02*
X144951306Y-97011961D01*
X144951306Y-97011961D02*
X144903687Y-96916723D01*
X144903687Y-96916723D02*
X144856068Y-96726247D01*
X144856068Y-96726247D02*
X144856068Y-96583390D01*
X144856068Y-96583390D02*
X144903687Y-96392914D01*
X144903687Y-96392914D02*
X144951306Y-96297676D01*
X144951306Y-96297676D02*
X145046544Y-96202438D01*
X145046544Y-96202438D02*
X145189401Y-96154819D01*
X145189401Y-96154819D02*
X145284639Y-96154819D01*
X145284639Y-96154819D02*
X145427496Y-96202438D01*
X145427496Y-96202438D02*
X145475115Y-96250057D01*
X145760830Y-96154819D02*
X146332258Y-96154819D01*
X146046544Y-97154819D02*
X146046544Y-96154819D01*
X176297093Y-80894452D02*
X175820902Y-81227785D01*
X176297093Y-81465880D02*
X175297093Y-81465880D01*
X175297093Y-81465880D02*
X175297093Y-81084928D01*
X175297093Y-81084928D02*
X175344712Y-80989690D01*
X175344712Y-80989690D02*
X175392331Y-80942071D01*
X175392331Y-80942071D02*
X175487569Y-80894452D01*
X175487569Y-80894452D02*
X175630426Y-80894452D01*
X175630426Y-80894452D02*
X175725664Y-80942071D01*
X175725664Y-80942071D02*
X175773283Y-80989690D01*
X175773283Y-80989690D02*
X175820902Y-81084928D01*
X175820902Y-81084928D02*
X175820902Y-81465880D01*
X176297093Y-79942071D02*
X176297093Y-80513499D01*
X176297093Y-80227785D02*
X175297093Y-80227785D01*
X175297093Y-80227785D02*
X175439950Y-80323023D01*
X175439950Y-80323023D02*
X175535188Y-80418261D01*
X175535188Y-80418261D02*
X175582807Y-80513499D01*
X183984496Y-102207819D02*
X183984496Y-102922104D01*
X183984496Y-102922104D02*
X183936877Y-103064961D01*
X183936877Y-103064961D02*
X183841639Y-103160200D01*
X183841639Y-103160200D02*
X183698782Y-103207819D01*
X183698782Y-103207819D02*
X183603544Y-103207819D01*
X184984496Y-103207819D02*
X184413068Y-103207819D01*
X184698782Y-103207819D02*
X184698782Y-102207819D01*
X184698782Y-102207819D02*
X184603544Y-102350676D01*
X184603544Y-102350676D02*
X184508306Y-102445914D01*
X184508306Y-102445914D02*
X184413068Y-102493533D01*
X141851306Y-109204819D02*
X141851306Y-108204819D01*
X141851306Y-108204819D02*
X142232258Y-108204819D01*
X142232258Y-108204819D02*
X142327496Y-108252438D01*
X142327496Y-108252438D02*
X142375115Y-108300057D01*
X142375115Y-108300057D02*
X142422734Y-108395295D01*
X142422734Y-108395295D02*
X142422734Y-108538152D01*
X142422734Y-108538152D02*
X142375115Y-108633390D01*
X142375115Y-108633390D02*
X142327496Y-108681009D01*
X142327496Y-108681009D02*
X142232258Y-108728628D01*
X142232258Y-108728628D02*
X141851306Y-108728628D01*
X143041782Y-108204819D02*
X143232258Y-108204819D01*
X143232258Y-108204819D02*
X143327496Y-108252438D01*
X143327496Y-108252438D02*
X143422734Y-108347676D01*
X143422734Y-108347676D02*
X143470353Y-108538152D01*
X143470353Y-108538152D02*
X143470353Y-108871485D01*
X143470353Y-108871485D02*
X143422734Y-109061961D01*
X143422734Y-109061961D02*
X143327496Y-109157200D01*
X143327496Y-109157200D02*
X143232258Y-109204819D01*
X143232258Y-109204819D02*
X143041782Y-109204819D01*
X143041782Y-109204819D02*
X142946544Y-109157200D01*
X142946544Y-109157200D02*
X142851306Y-109061961D01*
X142851306Y-109061961D02*
X142803687Y-108871485D01*
X142803687Y-108871485D02*
X142803687Y-108538152D01*
X142803687Y-108538152D02*
X142851306Y-108347676D01*
X142851306Y-108347676D02*
X142946544Y-108252438D01*
X142946544Y-108252438D02*
X143041782Y-108204819D01*
X143803687Y-108204819D02*
X144041782Y-109204819D01*
X144041782Y-109204819D02*
X144232258Y-108490533D01*
X144232258Y-108490533D02*
X144422734Y-109204819D01*
X144422734Y-109204819D02*
X144660830Y-108204819D01*
X145041782Y-108681009D02*
X145375115Y-108681009D01*
X145517972Y-109204819D02*
X145041782Y-109204819D01*
X145041782Y-109204819D02*
X145041782Y-108204819D01*
X145041782Y-108204819D02*
X145517972Y-108204819D01*
X146517972Y-109204819D02*
X146184639Y-108728628D01*
X145946544Y-109204819D02*
X145946544Y-108204819D01*
X145946544Y-108204819D02*
X146327496Y-108204819D01*
X146327496Y-108204819D02*
X146422734Y-108252438D01*
X146422734Y-108252438D02*
X146470353Y-108300057D01*
X146470353Y-108300057D02*
X146517972Y-108395295D01*
X146517972Y-108395295D02*
X146517972Y-108538152D01*
X146517972Y-108538152D02*
X146470353Y-108633390D01*
X146470353Y-108633390D02*
X146422734Y-108681009D01*
X146422734Y-108681009D02*
X146327496Y-108728628D01*
X146327496Y-108728628D02*
X145946544Y-108728628D01*
X179599983Y-80893094D02*
X179123792Y-81226427D01*
X179599983Y-81464522D02*
X178599983Y-81464522D01*
X178599983Y-81464522D02*
X178599983Y-81083570D01*
X178599983Y-81083570D02*
X178647602Y-80988332D01*
X178647602Y-80988332D02*
X178695221Y-80940713D01*
X178695221Y-80940713D02*
X178790459Y-80893094D01*
X178790459Y-80893094D02*
X178933316Y-80893094D01*
X178933316Y-80893094D02*
X179028554Y-80940713D01*
X179028554Y-80940713D02*
X179076173Y-80988332D01*
X179076173Y-80988332D02*
X179123792Y-81083570D01*
X179123792Y-81083570D02*
X179123792Y-81464522D01*
X178695221Y-80512141D02*
X178647602Y-80464522D01*
X178647602Y-80464522D02*
X178599983Y-80369284D01*
X178599983Y-80369284D02*
X178599983Y-80131189D01*
X178599983Y-80131189D02*
X178647602Y-80035951D01*
X178647602Y-80035951D02*
X178695221Y-79988332D01*
X178695221Y-79988332D02*
X178790459Y-79940713D01*
X178790459Y-79940713D02*
X178885697Y-79940713D01*
X178885697Y-79940713D02*
X179028554Y-79988332D01*
X179028554Y-79988332D02*
X179599983Y-80559760D01*
X179599983Y-80559760D02*
X179599983Y-79940713D01*
D14*
%TO.C,EJECT*%
X140760830Y-91700000D02*
X140760830Y-93200000D01*
X142010830Y-95700000D02*
X146510830Y-95700000D01*
X146510830Y-89200000D02*
X142010830Y-89200000D01*
X147760830Y-93200000D02*
X147760830Y-91700000D01*
%TO.C,R1*%
X173889774Y-80473062D02*
X173889774Y-80982510D01*
X174934774Y-80473062D02*
X174934774Y-80982510D01*
%TO.C,D1*%
X111228830Y-91259000D02*
X111072830Y-91259000D01*
X113544830Y-91259000D02*
X113388830Y-91259000D01*
X111228993Y-93860130D02*
G75*
G02*
X111228830Y-91778039I1079837J1041130D01*
G01*
X111230222Y-94491335D02*
G75*
G02*
X111073314Y-91259000I1078608J1672335D01*
G01*
X113388830Y-91778039D02*
G75*
G02*
X113388667Y-93860130I-1080000J-1040961D01*
G01*
X113544346Y-91259000D02*
G75*
G02*
X113387438Y-94491335I-1235516J-1560000D01*
G01*
D15*
%TO.C,G\u002A\u002A\u002A*%
G36*
X116688336Y-114251910D02*
G01*
X116734507Y-114254282D01*
X116764988Y-114259762D01*
X116786430Y-114269597D01*
X116805483Y-114285036D01*
X116807095Y-114286543D01*
X116844492Y-114321690D01*
X116844492Y-114702167D01*
X116844159Y-114805322D01*
X116843223Y-114899652D01*
X116841773Y-114981049D01*
X116839902Y-115045407D01*
X116837702Y-115088619D01*
X116835486Y-115106112D01*
X116810352Y-115137255D01*
X116761865Y-115158172D01*
X116688486Y-115169324D01*
X116616873Y-115171560D01*
X116555575Y-115169608D01*
X116502799Y-115164788D01*
X116467218Y-115158003D01*
X116460303Y-115155260D01*
X116441294Y-115144045D01*
X116426390Y-115131340D01*
X116415090Y-115113725D01*
X116406896Y-115087779D01*
X116401310Y-115050081D01*
X116397832Y-114997212D01*
X116395964Y-114925751D01*
X116395207Y-114832277D01*
X116395063Y-114713371D01*
X116395063Y-114707830D01*
X116395063Y-114321690D01*
X116432510Y-114286543D01*
X116451683Y-114270604D01*
X116472712Y-114260368D01*
X116502249Y-114254587D01*
X116546946Y-114252013D01*
X116613454Y-114251398D01*
X116619827Y-114251396D01*
X116688336Y-114251910D01*
G37*
G36*
X117268866Y-114248970D02*
G01*
X117333366Y-114262312D01*
X117380304Y-114282483D01*
X117403975Y-114307600D01*
X117410293Y-114326722D01*
X117415000Y-114349474D01*
X117418355Y-114380295D01*
X117420617Y-114423628D01*
X117422044Y-114483912D01*
X117422894Y-114565589D01*
X117423292Y-114639210D01*
X117424401Y-114896544D01*
X117692609Y-114896544D01*
X117960816Y-114896544D01*
X117961030Y-114624712D01*
X117961968Y-114511593D01*
X117964659Y-114425515D01*
X117969216Y-114364571D01*
X117975755Y-114326852D01*
X117979530Y-114316636D01*
X118013836Y-114280621D01*
X118074174Y-114257056D01*
X118160623Y-114245915D01*
X118194241Y-114244965D01*
X118285845Y-114250206D01*
X118351922Y-114267629D01*
X118392067Y-114297112D01*
X118397920Y-114306197D01*
X118403599Y-114330927D01*
X118408720Y-114379617D01*
X118413192Y-114447234D01*
X118416920Y-114528747D01*
X118419810Y-114619123D01*
X118421771Y-114713331D01*
X118422708Y-114806338D01*
X118422528Y-114893113D01*
X118421137Y-114968623D01*
X118418443Y-115027836D01*
X118414352Y-115065720D01*
X118412165Y-115074135D01*
X118389088Y-115108631D01*
X118353518Y-115140052D01*
X118348992Y-115142945D01*
X118336261Y-115150032D01*
X118321659Y-115155858D01*
X118302394Y-115160548D01*
X118275675Y-115164223D01*
X118238711Y-115167007D01*
X118188712Y-115169023D01*
X118122886Y-115170394D01*
X118038442Y-115171243D01*
X117932591Y-115171694D01*
X117802540Y-115171868D01*
X117692609Y-115171893D01*
X117543449Y-115171840D01*
X117420494Y-115171600D01*
X117320953Y-115171050D01*
X117242034Y-115170066D01*
X117180947Y-115168526D01*
X117134900Y-115166306D01*
X117101103Y-115163284D01*
X117076766Y-115159335D01*
X117059096Y-115154338D01*
X117045303Y-115148169D01*
X117036225Y-115142945D01*
X117000678Y-115113836D01*
X116976311Y-115080785D01*
X116974610Y-115076815D01*
X116969632Y-115048663D01*
X116965746Y-114996797D01*
X116962934Y-114926481D01*
X116961181Y-114842974D01*
X116960470Y-114751540D01*
X116960784Y-114657439D01*
X116962108Y-114565933D01*
X116964425Y-114482284D01*
X116967718Y-114411752D01*
X116971971Y-114359601D01*
X116976933Y-114331737D01*
X117002224Y-114290906D01*
X117046568Y-114263469D01*
X117112777Y-114248284D01*
X117192437Y-114244147D01*
X117268866Y-114248970D01*
G37*
G36*
X112636530Y-114247452D02*
G01*
X112908362Y-114251396D01*
X112912784Y-114337242D01*
X112912363Y-114425414D01*
X112904052Y-114525311D01*
X112889378Y-114624970D01*
X112869870Y-114712431D01*
X112861200Y-114740895D01*
X112813478Y-114850673D01*
X112745670Y-114962277D01*
X112664032Y-115065413D01*
X112664013Y-115065434D01*
X112593636Y-115143132D01*
X112672847Y-115222343D01*
X112721871Y-115278364D01*
X112770710Y-115345431D01*
X112804588Y-115401519D01*
X112846740Y-115492765D01*
X112875382Y-115583639D01*
X112892081Y-115682036D01*
X112898402Y-115795853D01*
X112897931Y-115872056D01*
X112893864Y-116049113D01*
X112629281Y-116053064D01*
X112364698Y-116057016D01*
X112364698Y-115890679D01*
X112360104Y-115754215D01*
X112345853Y-115642626D01*
X112321239Y-115553207D01*
X112285557Y-115483256D01*
X112246502Y-115437550D01*
X112183545Y-115395354D01*
X112117746Y-115380130D01*
X112052741Y-115390589D01*
X111992163Y-115425438D01*
X111939648Y-115483388D01*
X111899757Y-115560690D01*
X111885849Y-115603249D01*
X111875753Y-115650781D01*
X111868583Y-115709872D01*
X111863449Y-115787108D01*
X111860799Y-115849769D01*
X111853280Y-116056362D01*
X111587071Y-116056362D01*
X111320862Y-116056362D01*
X111321114Y-115878765D01*
X111327334Y-115725264D01*
X111346620Y-115593624D01*
X111380615Y-115479054D01*
X111430962Y-115376763D01*
X111499305Y-115281961D01*
X111542171Y-115234377D01*
X111629449Y-115143485D01*
X111569033Y-115077942D01*
X111473860Y-114956952D01*
X111398305Y-114823864D01*
X111356097Y-114716633D01*
X111338355Y-114654217D01*
X111326798Y-114595086D01*
X111320060Y-114529221D01*
X111316773Y-114446604D01*
X111316384Y-114425542D01*
X111313613Y-114251396D01*
X111583465Y-114247459D01*
X111853318Y-114243522D01*
X111861407Y-114457676D01*
X111866375Y-114562090D01*
X111873175Y-114642596D01*
X111883035Y-114704274D01*
X111897182Y-114752205D01*
X111916843Y-114791471D01*
X111943244Y-114827151D01*
X111953434Y-114838771D01*
X112016967Y-114891977D01*
X112084679Y-114917659D01*
X112153547Y-114915599D01*
X112220549Y-114885580D01*
X112252208Y-114860205D01*
X112292216Y-114813298D01*
X112322485Y-114754449D01*
X112343904Y-114680005D01*
X112357366Y-114586315D01*
X112363760Y-114469728D01*
X112364588Y-114399678D01*
X112364698Y-114243507D01*
X112636530Y-114247452D01*
G37*
G36*
X116147497Y-114249282D02*
G01*
X116213467Y-114264287D01*
X116254731Y-114288564D01*
X116263870Y-114300805D01*
X116267444Y-114321329D01*
X116270897Y-114366849D01*
X116274074Y-114433365D01*
X116276819Y-114516877D01*
X116278976Y-114613386D01*
X116280388Y-114718890D01*
X116280452Y-114726221D01*
X116281210Y-114851967D01*
X116281040Y-114951477D01*
X116279842Y-115027498D01*
X116277517Y-115082778D01*
X116273966Y-115120063D01*
X116269091Y-115142102D01*
X116265199Y-115149513D01*
X116252400Y-115158861D01*
X116229149Y-115165265D01*
X116190834Y-115169192D01*
X116132844Y-115171111D01*
X116050566Y-115171491D01*
X116048967Y-115171487D01*
X115953055Y-115169793D01*
X115880851Y-115165376D01*
X115834379Y-115158395D01*
X115820242Y-115153365D01*
X115801572Y-115139496D01*
X115764251Y-115109031D01*
X115711354Y-115064580D01*
X115645954Y-115008752D01*
X115571123Y-114944156D01*
X115489937Y-114873400D01*
X115474987Y-114860300D01*
X115393921Y-114789485D01*
X115319527Y-114725026D01*
X115254695Y-114669386D01*
X115202315Y-114625029D01*
X115165280Y-114594416D01*
X115146479Y-114580011D01*
X115145112Y-114579273D01*
X115135850Y-114587129D01*
X115137303Y-114621370D01*
X115138638Y-114630015D01*
X115143435Y-114673919D01*
X115146850Y-114733427D01*
X115148100Y-114791436D01*
X115148259Y-114896544D01*
X115301392Y-114896544D01*
X115454524Y-114896544D01*
X115573224Y-115000521D01*
X115634640Y-115055137D01*
X115676064Y-115094533D01*
X115699949Y-115121844D01*
X115708748Y-115140205D01*
X115704914Y-115152752D01*
X115697235Y-115159008D01*
X115677958Y-115162320D01*
X115633679Y-115165278D01*
X115568388Y-115167765D01*
X115486076Y-115169662D01*
X115390736Y-115170851D01*
X115286358Y-115171212D01*
X115285988Y-115171212D01*
X115159400Y-115170737D01*
X115058797Y-115169469D01*
X114981173Y-115167268D01*
X114923525Y-115163993D01*
X114882848Y-115159505D01*
X114856139Y-115153665D01*
X114848573Y-115150867D01*
X114812132Y-115128654D01*
X114787456Y-115102546D01*
X114786958Y-115101645D01*
X114781565Y-115076350D01*
X114777248Y-115023521D01*
X114774064Y-114944603D01*
X114772070Y-114841040D01*
X114771323Y-114714277D01*
X114771319Y-114703067D01*
X114771319Y-114333711D01*
X114815924Y-114296178D01*
X114836822Y-114279685D01*
X114857363Y-114268166D01*
X114882856Y-114260886D01*
X114918611Y-114257111D01*
X114969936Y-114256108D01*
X115042142Y-114257143D01*
X115090268Y-114258256D01*
X115171862Y-114261855D01*
X115230821Y-114268673D01*
X115273413Y-114279642D01*
X115293236Y-114288348D01*
X115319495Y-114305437D01*
X115363739Y-114338023D01*
X115421815Y-114382882D01*
X115489566Y-114436789D01*
X115562838Y-114496520D01*
X115583191Y-114513361D01*
X115822403Y-114711966D01*
X115829652Y-114517925D01*
X115833247Y-114444559D01*
X115837965Y-114380828D01*
X115843244Y-114332774D01*
X115848522Y-114306438D01*
X115849544Y-114304283D01*
X115881906Y-114277559D01*
X115936937Y-114257644D01*
X116008767Y-114246223D01*
X116058986Y-114244147D01*
X116147497Y-114249282D01*
G37*
G36*
X114619170Y-114279151D02*
G01*
X114648335Y-114326922D01*
X114657482Y-114384775D01*
X114646579Y-114442016D01*
X114619752Y-114484018D01*
X114584166Y-114519604D01*
X114097834Y-114519604D01*
X113966382Y-114519650D01*
X113861038Y-114519905D01*
X113778912Y-114520540D01*
X113717116Y-114521727D01*
X113672761Y-114523639D01*
X113642959Y-114526448D01*
X113624821Y-114530325D01*
X113615459Y-114535444D01*
X113611984Y-114541977D01*
X113611501Y-114548599D01*
X113612275Y-114556389D01*
X113616510Y-114562642D01*
X113627075Y-114567527D01*
X113646840Y-114571213D01*
X113678673Y-114573868D01*
X113725444Y-114575662D01*
X113790022Y-114576763D01*
X113875276Y-114577339D01*
X113984075Y-114577560D01*
X114104424Y-114577595D01*
X114237159Y-114577659D01*
X114343941Y-114577966D01*
X114427815Y-114578683D01*
X114491824Y-114579980D01*
X114539009Y-114582026D01*
X114572416Y-114584991D01*
X114595087Y-114589042D01*
X114610065Y-114594350D01*
X114620393Y-114601083D01*
X114626341Y-114606590D01*
X114646480Y-114643707D01*
X114655346Y-114695892D01*
X114652559Y-114751340D01*
X114637740Y-114798247D01*
X114632768Y-114806332D01*
X114610200Y-114838554D01*
X114110850Y-114838554D01*
X113977473Y-114838598D01*
X113870241Y-114838842D01*
X113786302Y-114839451D01*
X113722807Y-114840590D01*
X113676904Y-114842426D01*
X113645743Y-114845123D01*
X113626473Y-114848847D01*
X113616243Y-114853764D01*
X113612203Y-114860039D01*
X113611501Y-114867549D01*
X113612286Y-114875405D01*
X113616570Y-114881697D01*
X113627250Y-114886598D01*
X113647223Y-114890281D01*
X113679384Y-114892921D01*
X113726631Y-114894692D01*
X113791858Y-114895765D01*
X113877963Y-114896316D01*
X113987842Y-114896518D01*
X114095220Y-114896544D01*
X114226586Y-114896607D01*
X114332092Y-114896916D01*
X114414872Y-114897650D01*
X114478059Y-114898992D01*
X114524789Y-114901120D01*
X114558195Y-114904216D01*
X114581413Y-114908460D01*
X114597577Y-114914033D01*
X114609821Y-114921114D01*
X114617137Y-114926592D01*
X114640100Y-114948981D01*
X114651544Y-114976050D01*
X114655200Y-115018369D01*
X114655337Y-115034760D01*
X114652396Y-115086804D01*
X114641579Y-115120428D01*
X114623608Y-115142441D01*
X114615121Y-115149584D01*
X114604641Y-115155473D01*
X114589482Y-115160229D01*
X114566962Y-115163972D01*
X114534398Y-115166824D01*
X114489105Y-115168905D01*
X114428401Y-115170337D01*
X114349603Y-115171239D01*
X114250026Y-115171733D01*
X114126987Y-115171939D01*
X113977804Y-115171979D01*
X113967586Y-115171978D01*
X113815163Y-115171887D01*
X113688992Y-115171555D01*
X113586328Y-115170879D01*
X113504428Y-115169757D01*
X113440548Y-115168086D01*
X113391944Y-115165761D01*
X113355874Y-115162681D01*
X113329592Y-115158741D01*
X113310355Y-115153839D01*
X113295419Y-115147871D01*
X113292840Y-115146607D01*
X113250322Y-115116693D01*
X113213005Y-115077028D01*
X113209479Y-115071997D01*
X113198525Y-115054369D01*
X113190316Y-115035935D01*
X113184455Y-115012435D01*
X113180548Y-114979606D01*
X113178202Y-114933187D01*
X113177021Y-114868918D01*
X113176610Y-114782536D01*
X113176570Y-114716577D01*
X113177129Y-114601094D01*
X113179416Y-114510733D01*
X113184344Y-114441633D01*
X113192825Y-114389932D01*
X113205773Y-114351769D01*
X113224100Y-114323282D01*
X113248720Y-114300609D01*
X113279693Y-114280391D01*
X113292761Y-114273375D01*
X113307848Y-114267560D01*
X113327706Y-114262810D01*
X113355084Y-114258991D01*
X113392733Y-114255967D01*
X113443404Y-114253605D01*
X113509847Y-114251768D01*
X113594812Y-114250321D01*
X113701051Y-114249130D01*
X113831314Y-114248059D01*
X113955900Y-114247190D01*
X114583004Y-114242985D01*
X114619170Y-114279151D01*
G37*
G36*
X118841551Y-114245934D02*
G01*
X118921167Y-114251673D01*
X118991624Y-114262595D01*
X119043816Y-114278317D01*
X119049218Y-114280916D01*
X119077136Y-114298721D01*
X119122271Y-114331388D01*
X119179631Y-114375140D01*
X119244226Y-114426196D01*
X119287357Y-114461206D01*
X119385760Y-114541239D01*
X119464479Y-114603559D01*
X119525583Y-114649626D01*
X119571140Y-114680901D01*
X119603217Y-114698845D01*
X119623883Y-114704917D01*
X119630855Y-114703848D01*
X119647275Y-114692576D01*
X119682395Y-114665597D01*
X119732634Y-114625761D01*
X119794411Y-114575915D01*
X119864145Y-114518909D01*
X119887509Y-114499659D01*
X119961263Y-114439573D01*
X120030488Y-114384656D01*
X120091039Y-114338082D01*
X120138767Y-114303027D01*
X120169524Y-114282666D01*
X120174156Y-114280206D01*
X120218157Y-114266779D01*
X120282134Y-114256290D01*
X120357171Y-114249241D01*
X120434354Y-114246135D01*
X120504765Y-114247472D01*
X120559488Y-114253755D01*
X120574686Y-114257665D01*
X120618589Y-114279489D01*
X120654553Y-114309244D01*
X120657165Y-114312391D01*
X120666323Y-114325592D01*
X120673343Y-114341462D01*
X120678508Y-114363770D01*
X120682100Y-114396283D01*
X120684401Y-114442769D01*
X120685694Y-114506997D01*
X120686262Y-114592733D01*
X120686387Y-114702098D01*
X120685639Y-114836050D01*
X120683408Y-114942631D01*
X120679712Y-115021414D01*
X120674568Y-115071974D01*
X120669881Y-115090883D01*
X120657741Y-115113441D01*
X120642019Y-115131418D01*
X120619574Y-115145286D01*
X120587269Y-115155520D01*
X120541965Y-115162592D01*
X120480523Y-115166976D01*
X120399804Y-115169146D01*
X120296670Y-115169574D01*
X120167982Y-115168734D01*
X120154543Y-115168608D01*
X120025883Y-115167368D01*
X119924389Y-115165667D01*
X119848236Y-115162439D01*
X119795598Y-115156616D01*
X119764653Y-115147129D01*
X119753576Y-115132911D01*
X119760543Y-115112894D01*
X119783729Y-115086012D01*
X119821310Y-115051195D01*
X119871463Y-115007377D01*
X119874515Y-115004715D01*
X119997746Y-114897186D01*
X120153596Y-114896865D01*
X120309446Y-114896544D01*
X120309446Y-114736214D01*
X120308728Y-114664112D01*
X120306282Y-114617379D01*
X120301672Y-114592419D01*
X120294462Y-114585634D01*
X120291324Y-114586839D01*
X120274704Y-114599826D01*
X120240582Y-114628573D01*
X120193086Y-114669532D01*
X120136345Y-114719153D01*
X120099230Y-114751919D01*
X119982740Y-114853929D01*
X119880281Y-114941207D01*
X119793174Y-115012700D01*
X119722742Y-115067352D01*
X119670308Y-115104109D01*
X119637194Y-115121916D01*
X119634011Y-115122879D01*
X119595771Y-115121540D01*
X119547944Y-115098442D01*
X119541319Y-115094151D01*
X119487009Y-115055456D01*
X119415452Y-115000245D01*
X119330625Y-114931761D01*
X119236504Y-114853245D01*
X119137067Y-114767939D01*
X119082431Y-114720077D01*
X119025229Y-114670099D01*
X118975699Y-114627781D01*
X118937870Y-114596493D01*
X118915770Y-114579602D01*
X118911988Y-114577595D01*
X118908653Y-114591097D01*
X118906582Y-114627661D01*
X118905976Y-114681374D01*
X118906698Y-114733445D01*
X118910417Y-114889296D01*
X119069892Y-114893457D01*
X119229367Y-114897619D01*
X119359846Y-115019799D01*
X119415020Y-115072425D01*
X119450770Y-115109334D01*
X119469638Y-115133730D01*
X119474171Y-115148818D01*
X119468579Y-115156768D01*
X119446154Y-115162110D01*
X119399424Y-115166301D01*
X119333054Y-115169376D01*
X119251710Y-115171366D01*
X119160059Y-115172304D01*
X119062765Y-115172223D01*
X118964494Y-115171157D01*
X118869914Y-115169137D01*
X118783688Y-115166196D01*
X118710484Y-115162368D01*
X118654966Y-115157686D01*
X118621801Y-115152181D01*
X118617776Y-115150781D01*
X118589304Y-115136540D01*
X118567101Y-115119204D01*
X118550513Y-115095333D01*
X118538889Y-115061486D01*
X118531575Y-115014223D01*
X118527920Y-114950102D01*
X118527271Y-114865683D01*
X118528975Y-114757526D01*
X118530569Y-114690966D01*
X118534326Y-114566547D01*
X118538628Y-114469239D01*
X118543613Y-114397162D01*
X118549421Y-114348435D01*
X118556191Y-114321178D01*
X118558115Y-114317391D01*
X118583000Y-114293742D01*
X118622924Y-114270434D01*
X118638816Y-114263651D01*
X118691268Y-114251540D01*
X118761882Y-114245762D01*
X118841551Y-114245934D01*
G37*
D14*
%TO.C,J2*%
X181050830Y-81160000D02*
X181050830Y-80100000D01*
X182110830Y-81160000D02*
X181050830Y-81160000D01*
X183110830Y-79040000D02*
X187170830Y-79040000D01*
X183110830Y-81160000D02*
X183110830Y-79040000D01*
X183110830Y-81160000D02*
X187170830Y-81160000D01*
X187170830Y-81160000D02*
X187170830Y-79040000D01*
%TO.C,HDD_LED1*%
X162618210Y-81169670D02*
X162618210Y-83454670D01*
X164088210Y-81169670D02*
X162618210Y-81169670D01*
X164088210Y-83454670D02*
X164088210Y-81169670D01*
D15*
%TO.C,G\u002A\u002A\u002A*%
G36*
X177065513Y-110824090D02*
G01*
X178198695Y-110829446D01*
X178295950Y-110991651D01*
X178414537Y-111228881D01*
X178494131Y-111480025D01*
X178534773Y-111745237D01*
X178540538Y-111895609D01*
X178522801Y-112160778D01*
X178470704Y-112414666D01*
X178385920Y-112651285D01*
X178270120Y-112864644D01*
X178269908Y-112864968D01*
X178185092Y-112994454D01*
X177057337Y-112994454D01*
X175929583Y-112994454D01*
X175860209Y-112885685D01*
X175791122Y-112771641D01*
X175737206Y-112666876D01*
X175690314Y-112554037D01*
X175648652Y-112435074D01*
X175626672Y-112365937D01*
X175610981Y-112306122D01*
X175600500Y-112246203D01*
X175594147Y-112176751D01*
X175590843Y-112088342D01*
X175589506Y-111971549D01*
X175589288Y-111917129D01*
X175589328Y-111906770D01*
X175950816Y-111906770D01*
X175959581Y-112091466D01*
X175988197Y-112254522D01*
X176040147Y-112412365D01*
X176074934Y-112492264D01*
X176135301Y-112621966D01*
X177050820Y-112616570D01*
X177966338Y-112611175D01*
X178005184Y-112559138D01*
X178064079Y-112454222D01*
X178110743Y-112319020D01*
X178143990Y-112163183D01*
X178162634Y-111996361D01*
X178165488Y-111828205D01*
X178151366Y-111668366D01*
X178128313Y-111557523D01*
X178099423Y-111463800D01*
X178065417Y-111370280D01*
X178033469Y-111296631D01*
X178032330Y-111294367D01*
X177980460Y-111192007D01*
X177057779Y-111192007D01*
X176135099Y-111192007D01*
X176074833Y-111321493D01*
X176010285Y-111482740D01*
X175970767Y-111641293D01*
X175952803Y-111813555D01*
X175950816Y-111906770D01*
X175589328Y-111906770D01*
X175589826Y-111776465D01*
X175592876Y-111668440D01*
X175599140Y-111584300D01*
X175609323Y-111515287D01*
X175624127Y-111452647D01*
X175627556Y-111440620D01*
X175673696Y-111304588D01*
X175732884Y-111162311D01*
X175798185Y-111029048D01*
X175862667Y-110920059D01*
X175866992Y-110913701D01*
X175932331Y-110818734D01*
X177065513Y-110824090D01*
G37*
G36*
X179804933Y-111243481D02*
G01*
X180326016Y-111669029D01*
X180401833Y-111608170D01*
X180437867Y-111579027D01*
X180500935Y-111527785D01*
X180585982Y-111458561D01*
X180687953Y-111375473D01*
X180801795Y-111282636D01*
X180922451Y-111184166D01*
X180923083Y-111183651D01*
X181368515Y-110819990D01*
X181658564Y-110819999D01*
X181772662Y-110820241D01*
X181850641Y-110821477D01*
X181897818Y-110824486D01*
X181919512Y-110830049D01*
X181921037Y-110838944D01*
X181907712Y-110851950D01*
X181902853Y-110855803D01*
X181805970Y-110932362D01*
X181694690Y-111021596D01*
X181572931Y-111120245D01*
X181444610Y-111225048D01*
X181313644Y-111332742D01*
X181183952Y-111440066D01*
X181059449Y-111543759D01*
X180944055Y-111640559D01*
X180841687Y-111727204D01*
X180756261Y-111800434D01*
X180691696Y-111856985D01*
X180651909Y-111893598D01*
X180640512Y-111906770D01*
X180657003Y-111923278D01*
X180701803Y-111962816D01*
X180771108Y-112022225D01*
X180861119Y-112098344D01*
X180968034Y-112188013D01*
X181088051Y-112288073D01*
X181217371Y-112395364D01*
X181352191Y-112506725D01*
X181488710Y-112618997D01*
X181623128Y-112729019D01*
X181751642Y-112833632D01*
X181870453Y-112929675D01*
X181886460Y-112942550D01*
X181948613Y-112992508D01*
X181658564Y-112992665D01*
X181368515Y-112992822D01*
X180912724Y-112618918D01*
X180791504Y-112519570D01*
X180677666Y-112426451D01*
X180576042Y-112343497D01*
X180491461Y-112274646D01*
X180428754Y-112223836D01*
X180392751Y-112195003D01*
X180390818Y-112193490D01*
X180324704Y-112141965D01*
X179803191Y-112568209D01*
X179281678Y-112994454D01*
X179004338Y-112994454D01*
X178902562Y-112993810D01*
X178817573Y-112992048D01*
X178756954Y-112989417D01*
X178728285Y-112986167D01*
X178726998Y-112985283D01*
X178742515Y-112970617D01*
X178786743Y-112932750D01*
X178856199Y-112874569D01*
X178947401Y-112798958D01*
X179056867Y-112708802D01*
X179181112Y-112606987D01*
X179316655Y-112496399D01*
X179343352Y-112474671D01*
X179482461Y-112361380D01*
X179612548Y-112255214D01*
X179729846Y-112159264D01*
X179830586Y-112076622D01*
X179911002Y-112010378D01*
X179967326Y-111963625D01*
X179995790Y-111939453D01*
X179997368Y-111938018D01*
X180005379Y-111928255D01*
X180007199Y-111916369D01*
X180000110Y-111899853D01*
X179981394Y-111876199D01*
X179948334Y-111842902D01*
X179898212Y-111797455D01*
X179828309Y-111737350D01*
X179735908Y-111660082D01*
X179618292Y-111563142D01*
X179472742Y-111444026D01*
X179377318Y-111366127D01*
X178719605Y-110829446D01*
X179001728Y-110823690D01*
X179283851Y-110817934D01*
X179804933Y-111243481D01*
G37*
G36*
X169706241Y-111124674D02*
G01*
X169823322Y-111220172D01*
X169939255Y-111314772D01*
X170046943Y-111402680D01*
X170139287Y-111478101D01*
X170209190Y-111535240D01*
X170227637Y-111550335D01*
X170374299Y-111670408D01*
X170895520Y-111244747D01*
X171416741Y-110819087D01*
X171694871Y-110819087D01*
X171796803Y-110819708D01*
X171881957Y-110821410D01*
X171942764Y-110823953D01*
X171971653Y-110827093D01*
X171973002Y-110827967D01*
X171957483Y-110842541D01*
X171913180Y-110880441D01*
X171843467Y-110938869D01*
X171751721Y-111015024D01*
X171641320Y-111106110D01*
X171515639Y-111209327D01*
X171378056Y-111321875D01*
X171319211Y-111369888D01*
X171152314Y-111506362D01*
X171015473Y-111619257D01*
X170906269Y-111710727D01*
X170822282Y-111782929D01*
X170761094Y-111838016D01*
X170720286Y-111878146D01*
X170697437Y-111905473D01*
X170690130Y-111922151D01*
X170692498Y-111928239D01*
X170714097Y-111946546D01*
X170764234Y-111988041D01*
X170839300Y-112049768D01*
X170935688Y-112128770D01*
X171049789Y-112222092D01*
X171177994Y-112326777D01*
X171316697Y-112439868D01*
X171358598Y-112474001D01*
X171997620Y-112994454D01*
X171708405Y-112994454D01*
X171419190Y-112994454D01*
X170897746Y-112567747D01*
X170376302Y-112141041D01*
X170133583Y-112337654D01*
X170028055Y-112423343D01*
X169903729Y-112524620D01*
X169773793Y-112630725D01*
X169651430Y-112730899D01*
X169611175Y-112763929D01*
X169331484Y-112993591D01*
X169042471Y-112994022D01*
X168934482Y-112992976D01*
X168849761Y-112989732D01*
X168793884Y-112984658D01*
X168772428Y-112978121D01*
X168773140Y-112976260D01*
X168793068Y-112959551D01*
X168841575Y-112919596D01*
X168915106Y-112859302D01*
X169010105Y-112781580D01*
X169123014Y-112689337D01*
X169250278Y-112585483D01*
X169388340Y-112472927D01*
X169430616Y-112438482D01*
X169570405Y-112324296D01*
X169699657Y-112218128D01*
X169814942Y-112122840D01*
X169912829Y-112041295D01*
X169989886Y-111976354D01*
X170042683Y-111930881D01*
X170067789Y-111907737D01*
X170069414Y-111905537D01*
X170054100Y-111889986D01*
X170009968Y-111851200D01*
X169940406Y-111792010D01*
X169848804Y-111715251D01*
X169738549Y-111623756D01*
X169613031Y-111520359D01*
X169475637Y-111407893D01*
X169421261Y-111363565D01*
X169279954Y-111248477D01*
X169148826Y-111141636D01*
X169031320Y-111045853D01*
X168930881Y-110963938D01*
X168850955Y-110898700D01*
X168794985Y-110852948D01*
X168766417Y-110829493D01*
X168763472Y-110827020D01*
X168779724Y-110824170D01*
X168830270Y-110821774D01*
X168907969Y-110820034D01*
X169005680Y-110819154D01*
X169043174Y-110819087D01*
X169331508Y-110819087D01*
X169706241Y-111124674D01*
G37*
G36*
X173671528Y-110819268D02*
G01*
X174800979Y-110819449D01*
X174877555Y-110938395D01*
X174993947Y-111150624D01*
X175080717Y-111382251D01*
X175101067Y-111454748D01*
X175128465Y-111567437D01*
X175141550Y-111648103D01*
X175139647Y-111703851D01*
X175122080Y-111741786D01*
X175088174Y-111769011D01*
X175070310Y-111778291D01*
X175024341Y-111804390D01*
X175003429Y-111834870D01*
X174997907Y-111886303D01*
X174997798Y-111902598D01*
X175001174Y-111961090D01*
X175017747Y-111994870D01*
X175057184Y-112020509D01*
X175070310Y-112026905D01*
X175110617Y-112050861D01*
X175134162Y-112081244D01*
X175142087Y-112126024D01*
X175135537Y-112193174D01*
X175115656Y-112290663D01*
X175111046Y-112310767D01*
X175067112Y-112464284D01*
X175007386Y-112621887D01*
X174938514Y-112767638D01*
X174877848Y-112870147D01*
X174800979Y-112984095D01*
X173671860Y-112989228D01*
X172542741Y-112994361D01*
X172461280Y-112867803D01*
X172379898Y-112722679D01*
X172307398Y-112558344D01*
X172250514Y-112391806D01*
X172218184Y-112253793D01*
X172192817Y-112103589D01*
X172570175Y-112103589D01*
X172584695Y-112191640D01*
X172603967Y-112270936D01*
X172636096Y-112367569D01*
X172674741Y-112464847D01*
X172713561Y-112546077D01*
X172729747Y-112573481D01*
X172761233Y-112621534D01*
X173670648Y-112621534D01*
X174580063Y-112621534D01*
X174621632Y-112554201D01*
X174647485Y-112503265D01*
X174678501Y-112429225D01*
X174710457Y-112343981D01*
X174739133Y-112259437D01*
X174760306Y-112187493D01*
X174769755Y-112140052D01*
X174769902Y-112136192D01*
X174766685Y-112128989D01*
X174754894Y-112122919D01*
X174731325Y-112117886D01*
X174692768Y-112113797D01*
X174636018Y-112110556D01*
X174557867Y-112108068D01*
X174455108Y-112106238D01*
X174324536Y-112104970D01*
X174162941Y-112104171D01*
X173967119Y-112103744D01*
X173733861Y-112103594D01*
X173670039Y-112103589D01*
X172570175Y-112103589D01*
X172192817Y-112103589D01*
X172020756Y-112103589D01*
X171848695Y-112103589D01*
X171848695Y-111906770D01*
X171848695Y-111709951D01*
X172024796Y-111709951D01*
X172568521Y-111709951D01*
X173669212Y-111709951D01*
X173914074Y-111709828D01*
X174120619Y-111709401D01*
X174291964Y-111708585D01*
X174431226Y-111707296D01*
X174541522Y-111705449D01*
X174625971Y-111702958D01*
X174687688Y-111699738D01*
X174729793Y-111695705D01*
X174755401Y-111690774D01*
X174767631Y-111684859D01*
X174769902Y-111679944D01*
X174762563Y-111636409D01*
X174743293Y-111566677D01*
X174716214Y-111482753D01*
X174685446Y-111396641D01*
X174655110Y-111320345D01*
X174629327Y-111265869D01*
X174625508Y-111259340D01*
X174584051Y-111192007D01*
X173671860Y-111192007D01*
X172759668Y-111192007D01*
X172718375Y-111259340D01*
X172671232Y-111351091D01*
X172626949Y-111462425D01*
X172593310Y-111572381D01*
X172581739Y-111627295D01*
X172568521Y-111709951D01*
X172024796Y-111709951D01*
X172110112Y-111709393D01*
X172162187Y-111706216D01*
X172189214Y-111698164D01*
X172199384Y-111682982D01*
X172200897Y-111661471D01*
X172211601Y-111565713D01*
X172241193Y-111445507D01*
X172285890Y-111311088D01*
X172341911Y-111172692D01*
X172405474Y-111040554D01*
X172472798Y-110924912D01*
X172473300Y-110924144D01*
X172542077Y-110819087D01*
X173671528Y-110819268D01*
G37*
D14*
%TO.C,J1*%
X183257830Y-99693000D02*
X183257830Y-83633000D01*
X185377830Y-83633000D02*
X183257830Y-83633000D01*
X185377830Y-99693000D02*
X183257830Y-99693000D01*
X185377830Y-99693000D02*
X185377830Y-83633000D01*
X185377830Y-100693000D02*
X185377830Y-101753000D01*
X185377830Y-101753000D02*
X184317830Y-101753000D01*
D15*
%TO.C,G*%
G36*
X160065996Y-81087125D02*
G01*
X160162152Y-81087327D01*
X160253977Y-81087650D01*
X160339481Y-81088093D01*
X160416675Y-81088656D01*
X160483571Y-81089340D01*
X160538178Y-81090145D01*
X160578507Y-81091069D01*
X160602571Y-81092115D01*
X160608531Y-81092852D01*
X160620352Y-81106280D01*
X160623779Y-81128105D01*
X160618812Y-81149083D01*
X160608531Y-81159147D01*
X160596289Y-81160166D01*
X160566503Y-81161069D01*
X160521153Y-81161856D01*
X160462221Y-81162528D01*
X160391685Y-81163086D01*
X160311527Y-81163530D01*
X160223727Y-81163862D01*
X160130266Y-81164083D01*
X160033124Y-81164192D01*
X159934282Y-81164191D01*
X159835720Y-81164081D01*
X159739418Y-81163862D01*
X159647358Y-81163536D01*
X159561520Y-81163103D01*
X159483884Y-81162563D01*
X159416430Y-81161919D01*
X159361140Y-81161170D01*
X159319994Y-81160317D01*
X159294971Y-81159362D01*
X159288041Y-81158607D01*
X159278258Y-81145698D01*
X159276160Y-81124216D01*
X159281294Y-81103350D01*
X159291282Y-81092852D01*
X159303803Y-81091730D01*
X159333873Y-81090727D01*
X159379503Y-81089845D01*
X159438703Y-81089083D01*
X159509485Y-81088442D01*
X159589859Y-81087922D01*
X159677836Y-81087521D01*
X159771428Y-81087242D01*
X159868645Y-81087082D01*
X159967497Y-81087043D01*
X160065996Y-81087125D01*
G37*
G36*
X158733492Y-80995135D02*
G01*
X158756064Y-81000270D01*
X158775196Y-81012629D01*
X158794532Y-81030912D01*
X158815382Y-81053378D01*
X158826389Y-81072519D01*
X158830665Y-81096373D01*
X158831330Y-81126000D01*
X158830290Y-81160122D01*
X158825155Y-81182701D01*
X158812899Y-81201705D01*
X158795630Y-81219989D01*
X158768750Y-81243240D01*
X158742784Y-81254847D01*
X158712592Y-81259140D01*
X158680236Y-81259466D01*
X158653398Y-81256285D01*
X158645714Y-81253926D01*
X158626736Y-81241442D01*
X158603445Y-81220979D01*
X158596868Y-81214296D01*
X158579849Y-81193777D01*
X158571036Y-81173461D01*
X158567849Y-81145536D01*
X158567567Y-81126000D01*
X158640830Y-81126000D01*
X158643908Y-81152769D01*
X158651430Y-81171608D01*
X158652553Y-81172892D01*
X158671838Y-81181506D01*
X158700307Y-81184264D01*
X158728504Y-81181168D01*
X158746337Y-81172892D01*
X158754234Y-81155761D01*
X158758007Y-81129420D01*
X158758060Y-81126000D01*
X158753404Y-81092736D01*
X158737492Y-81074226D01*
X158707408Y-81067554D01*
X158699445Y-81067384D01*
X158666181Y-81072041D01*
X158647671Y-81087953D01*
X158641000Y-81118037D01*
X158640830Y-81126000D01*
X158567567Y-81126000D01*
X158567560Y-81125521D01*
X158568610Y-81091586D01*
X158573863Y-81069046D01*
X158586475Y-81049785D01*
X158604358Y-81030912D01*
X158626824Y-81010063D01*
X158645965Y-80999055D01*
X158669818Y-80994780D01*
X158699445Y-80994115D01*
X158733492Y-80995135D01*
G37*
G36*
X158733492Y-84043135D02*
G01*
X158756064Y-84048270D01*
X158775196Y-84060629D01*
X158794532Y-84078912D01*
X158815382Y-84101378D01*
X158826389Y-84120519D01*
X158830665Y-84144373D01*
X158831330Y-84174000D01*
X158830290Y-84208122D01*
X158825155Y-84230701D01*
X158812899Y-84249705D01*
X158795630Y-84267989D01*
X158768750Y-84291240D01*
X158742784Y-84302847D01*
X158712592Y-84307140D01*
X158680236Y-84307466D01*
X158653398Y-84304285D01*
X158645714Y-84301926D01*
X158626736Y-84289442D01*
X158603445Y-84268979D01*
X158596868Y-84262296D01*
X158579849Y-84241777D01*
X158571036Y-84221461D01*
X158567849Y-84193536D01*
X158567567Y-84174000D01*
X158640830Y-84174000D01*
X158645486Y-84207263D01*
X158661398Y-84225773D01*
X158691482Y-84232445D01*
X158699445Y-84232615D01*
X158726214Y-84229537D01*
X158745054Y-84222014D01*
X158746337Y-84220892D01*
X158754234Y-84203761D01*
X158758007Y-84177420D01*
X158758060Y-84174000D01*
X158753404Y-84140736D01*
X158737492Y-84122226D01*
X158707408Y-84115554D01*
X158699445Y-84115384D01*
X158666181Y-84120041D01*
X158647671Y-84135953D01*
X158641000Y-84166037D01*
X158640830Y-84174000D01*
X158567567Y-84174000D01*
X158567560Y-84173521D01*
X158568610Y-84139586D01*
X158573863Y-84117046D01*
X158586475Y-84097785D01*
X158604358Y-84078912D01*
X158626824Y-84058063D01*
X158645965Y-84047055D01*
X158669818Y-84042780D01*
X158699445Y-84042115D01*
X158733492Y-84043135D01*
G37*
G36*
X161156262Y-80995135D02*
G01*
X161178833Y-81000270D01*
X161197965Y-81012629D01*
X161217301Y-81030912D01*
X161238151Y-81053378D01*
X161249158Y-81072519D01*
X161253434Y-81096373D01*
X161254099Y-81126000D01*
X161253060Y-81160122D01*
X161247925Y-81182701D01*
X161235668Y-81201705D01*
X161218400Y-81219989D01*
X161191520Y-81243240D01*
X161165553Y-81254847D01*
X161135361Y-81259140D01*
X161103005Y-81259466D01*
X161076168Y-81256285D01*
X161068483Y-81253926D01*
X161049505Y-81241442D01*
X161026214Y-81220979D01*
X161019637Y-81214296D01*
X161002618Y-81193777D01*
X160993805Y-81173461D01*
X160990619Y-81145536D01*
X160990349Y-81126862D01*
X161063950Y-81126862D01*
X161067046Y-81155059D01*
X161075322Y-81172892D01*
X161094607Y-81181506D01*
X161123077Y-81184264D01*
X161151273Y-81181168D01*
X161169107Y-81172892D01*
X161177720Y-81153607D01*
X161180479Y-81125137D01*
X161177383Y-81096941D01*
X161169106Y-81079107D01*
X161151976Y-81071210D01*
X161125635Y-81067438D01*
X161122214Y-81067384D01*
X161095445Y-81070462D01*
X161076605Y-81077985D01*
X161075322Y-81079107D01*
X161066708Y-81098393D01*
X161063950Y-81126862D01*
X160990349Y-81126862D01*
X160990330Y-81125521D01*
X160991379Y-81091586D01*
X160996632Y-81069046D01*
X161009244Y-81049785D01*
X161027127Y-81030912D01*
X161049593Y-81010063D01*
X161068734Y-80999055D01*
X161092587Y-80994780D01*
X161122214Y-80994115D01*
X161156262Y-80995135D01*
G37*
G36*
X159956942Y-82327600D02*
G01*
X160025174Y-82347323D01*
X160031895Y-82350301D01*
X160100978Y-82392282D01*
X160159526Y-82448855D01*
X160203763Y-82516354D01*
X160204593Y-82518029D01*
X160228756Y-82587169D01*
X160235213Y-82656772D01*
X160225621Y-82724662D01*
X160201634Y-82788663D01*
X160164907Y-82846600D01*
X160117095Y-82896295D01*
X160059851Y-82935573D01*
X159994832Y-82962257D01*
X159923692Y-82974173D01*
X159860040Y-82971121D01*
X159795315Y-82952355D01*
X159733174Y-82917092D01*
X159677358Y-82868339D01*
X159631608Y-82809104D01*
X159611131Y-82771065D01*
X159589580Y-82702897D01*
X159586328Y-82647553D01*
X159737785Y-82647553D01*
X159744559Y-82698128D01*
X159767030Y-82747275D01*
X159802770Y-82785306D01*
X159848075Y-82810782D01*
X159899240Y-82822263D01*
X159952561Y-82818311D01*
X160002756Y-82798421D01*
X160043248Y-82764748D01*
X160069379Y-82722057D01*
X160081644Y-82674019D01*
X160080538Y-82624306D01*
X160066554Y-82576590D01*
X160040188Y-82534544D01*
X160001934Y-82501839D01*
X159960428Y-82484125D01*
X159902734Y-82477369D01*
X159850008Y-82487450D01*
X159804699Y-82511938D01*
X159769259Y-82548404D01*
X159746137Y-82594419D01*
X159737785Y-82647553D01*
X159586328Y-82647553D01*
X159585587Y-82634938D01*
X159597246Y-82569096D01*
X159622649Y-82507276D01*
X159659891Y-82451385D01*
X159707064Y-82403330D01*
X159762262Y-82365017D01*
X159823579Y-82338354D01*
X159889108Y-82325246D01*
X159956942Y-82327600D01*
G37*
G36*
X161156262Y-84043135D02*
G01*
X161178833Y-84048270D01*
X161197965Y-84060629D01*
X161217301Y-84078912D01*
X161238151Y-84101378D01*
X161249158Y-84120519D01*
X161253434Y-84144373D01*
X161254099Y-84174000D01*
X161253060Y-84208122D01*
X161247925Y-84230701D01*
X161235668Y-84249705D01*
X161218400Y-84267989D01*
X161191520Y-84291240D01*
X161165553Y-84302847D01*
X161135361Y-84307140D01*
X161103005Y-84307466D01*
X161076168Y-84304285D01*
X161068483Y-84301926D01*
X161049505Y-84289442D01*
X161026214Y-84268979D01*
X161019637Y-84262296D01*
X161002618Y-84241777D01*
X160993805Y-84221461D01*
X160990619Y-84193536D01*
X160990349Y-84174862D01*
X161063950Y-84174862D01*
X161067046Y-84203059D01*
X161075322Y-84220892D01*
X161092453Y-84228789D01*
X161118793Y-84232561D01*
X161122214Y-84232615D01*
X161148983Y-84229537D01*
X161167823Y-84222014D01*
X161169107Y-84220892D01*
X161177720Y-84201607D01*
X161180479Y-84173137D01*
X161177383Y-84144941D01*
X161169106Y-84127107D01*
X161151976Y-84119210D01*
X161125635Y-84115438D01*
X161122214Y-84115384D01*
X161095445Y-84118462D01*
X161076605Y-84125985D01*
X161075322Y-84127107D01*
X161066708Y-84146393D01*
X161063950Y-84174862D01*
X160990349Y-84174862D01*
X160990330Y-84173521D01*
X160991379Y-84139586D01*
X160996632Y-84117046D01*
X161009244Y-84097785D01*
X161027127Y-84078912D01*
X161049593Y-84058063D01*
X161068734Y-84047055D01*
X161092587Y-84042780D01*
X161122214Y-84042115D01*
X161156262Y-84043135D01*
G37*
G36*
X160139076Y-82988596D02*
G01*
X160164601Y-83004579D01*
X160198984Y-83032195D01*
X160244066Y-83072473D01*
X160270403Y-83096942D01*
X160340602Y-83163157D01*
X160412189Y-83231519D01*
X160483596Y-83300465D01*
X160553257Y-83368433D01*
X160619605Y-83433859D01*
X160681072Y-83495180D01*
X160736092Y-83550834D01*
X160783098Y-83599258D01*
X160820522Y-83638890D01*
X160846798Y-83668165D01*
X160860037Y-83685008D01*
X160876573Y-83714899D01*
X160884979Y-83743630D01*
X160887682Y-83780438D01*
X160887753Y-83790513D01*
X160882692Y-83847950D01*
X160865805Y-83894983D01*
X160834538Y-83938407D01*
X160830464Y-83942875D01*
X160783232Y-83980150D01*
X160727362Y-84002143D01*
X160667425Y-84007972D01*
X160607992Y-83996753D01*
X160589791Y-83989402D01*
X160557830Y-83970715D01*
X160528858Y-83947706D01*
X160524390Y-83943212D01*
X160508097Y-83920711D01*
X160484832Y-83880522D01*
X160454559Y-83822573D01*
X160417245Y-83746795D01*
X160372854Y-83653115D01*
X160321353Y-83541463D01*
X160262706Y-83411767D01*
X160219614Y-83315226D01*
X160182234Y-83230634D01*
X160166860Y-83195232D01*
X160255050Y-83195232D01*
X160258228Y-83205923D01*
X160268582Y-83232022D01*
X160285079Y-83271207D01*
X160306687Y-83321153D01*
X160332375Y-83379540D01*
X160361110Y-83444042D01*
X160391860Y-83512339D01*
X160423594Y-83582106D01*
X160455280Y-83651020D01*
X160485884Y-83716760D01*
X160501049Y-83748961D01*
X160534168Y-83815352D01*
X160563095Y-83865014D01*
X160589235Y-83899937D01*
X160613993Y-83922110D01*
X160628868Y-83930165D01*
X160671656Y-83938478D01*
X160716021Y-83931540D01*
X160730480Y-83925383D01*
X160754046Y-83909072D01*
X160780287Y-83885162D01*
X160788610Y-83876197D01*
X160813308Y-83835930D01*
X160819115Y-83792223D01*
X160806155Y-83743921D01*
X160803366Y-83737807D01*
X160793740Y-83724885D01*
X160772555Y-83701005D01*
X160741591Y-83667929D01*
X160702630Y-83627419D01*
X160657451Y-83581235D01*
X160607834Y-83531141D01*
X160555560Y-83478897D01*
X160502410Y-83426265D01*
X160450164Y-83375008D01*
X160400601Y-83326886D01*
X160355503Y-83283662D01*
X160316650Y-83247097D01*
X160285822Y-83218953D01*
X160264800Y-83200992D01*
X160255363Y-83194976D01*
X160255050Y-83195232D01*
X160166860Y-83195232D01*
X160152484Y-83162129D01*
X160129733Y-83108090D01*
X160113353Y-83066897D01*
X160102714Y-83036929D01*
X160097186Y-83016565D01*
X160096140Y-83004185D01*
X160097260Y-83000168D01*
X160107245Y-82987419D01*
X160120571Y-82983218D01*
X160139076Y-82988596D01*
G37*
G36*
X159963537Y-81539066D02*
G01*
X160103583Y-81553255D01*
X160235554Y-81584152D01*
X160362425Y-81632679D01*
X160487171Y-81699758D01*
X160492489Y-81703046D01*
X160550375Y-81743149D01*
X160613850Y-81793999D01*
X160677599Y-81850802D01*
X160736310Y-81908763D01*
X160784670Y-81963089D01*
X160794564Y-81975598D01*
X160875428Y-82096550D01*
X160938927Y-82224810D01*
X160985021Y-82358649D01*
X161013667Y-82496337D01*
X161024823Y-82636144D01*
X161018448Y-82776341D01*
X160994500Y-82915197D01*
X160952937Y-83050983D01*
X160893717Y-83181970D01*
X160826406Y-83292705D01*
X160800382Y-83328465D01*
X160774525Y-83360673D01*
X160753397Y-83383733D01*
X160748752Y-83387955D01*
X160713450Y-83408100D01*
X160678068Y-83411625D01*
X160646870Y-83398593D01*
X160634462Y-83386259D01*
X160617746Y-83356280D01*
X160617312Y-83326515D01*
X160633501Y-83292850D01*
X160643357Y-83279125D01*
X160700205Y-83201769D01*
X160745199Y-83132887D01*
X160780908Y-83067773D01*
X160809900Y-83001721D01*
X160834745Y-82930023D01*
X160835854Y-82926435D01*
X160845329Y-82894348D01*
X160852246Y-82866184D01*
X160857016Y-82837877D01*
X160860050Y-82805356D01*
X160861761Y-82764553D01*
X160862558Y-82711400D01*
X160862809Y-82659769D01*
X160862740Y-82592736D01*
X160861865Y-82541107D01*
X160859835Y-82500752D01*
X160856306Y-82467540D01*
X160850928Y-82437343D01*
X160843357Y-82406030D01*
X160840661Y-82396000D01*
X160795622Y-82266627D01*
X160734410Y-82147101D01*
X160658226Y-82038626D01*
X160568270Y-81942412D01*
X160465744Y-81859664D01*
X160351849Y-81791590D01*
X160227786Y-81739397D01*
X160169714Y-81721619D01*
X160111023Y-81709480D01*
X160039217Y-81700540D01*
X159960502Y-81695083D01*
X159881083Y-81693396D01*
X159807166Y-81695763D01*
X159746739Y-81702179D01*
X159617603Y-81732705D01*
X159494819Y-81781521D01*
X159379316Y-81848147D01*
X159272024Y-81932104D01*
X159235917Y-81966153D01*
X159144452Y-82068464D01*
X159071310Y-82176777D01*
X159016096Y-82292053D01*
X158978411Y-82415255D01*
X158957858Y-82547343D01*
X158953445Y-82650000D01*
X158961921Y-82789708D01*
X158987536Y-82920230D01*
X159030573Y-83042257D01*
X159091316Y-83156482D01*
X159170046Y-83263596D01*
X159231047Y-83329782D01*
X159332624Y-83419215D01*
X159441348Y-83490938D01*
X159559055Y-83545940D01*
X159687580Y-83585207D01*
X159718562Y-83592055D01*
X159786292Y-83602045D01*
X159864128Y-83607073D01*
X159945568Y-83607217D01*
X160024109Y-83602558D01*
X160093247Y-83593177D01*
X160120868Y-83587101D01*
X160173418Y-83573816D01*
X160210754Y-83565285D01*
X160236500Y-83561077D01*
X160254280Y-83560762D01*
X160267717Y-83563908D01*
X160277503Y-83568482D01*
X160301034Y-83591153D01*
X160313139Y-83623894D01*
X160311887Y-83655350D01*
X160294583Y-83684709D01*
X160258792Y-83709447D01*
X160205044Y-83729411D01*
X160133874Y-83744452D01*
X160045813Y-83754420D01*
X159945022Y-83759093D01*
X159889882Y-83759895D01*
X159840061Y-83760049D01*
X159799544Y-83759584D01*
X159772314Y-83758532D01*
X159764291Y-83757686D01*
X159676714Y-83739278D01*
X159599467Y-83718894D01*
X159546705Y-83701372D01*
X159408638Y-83639357D01*
X159281443Y-83561862D01*
X159166230Y-83470024D01*
X159064111Y-83364981D01*
X158976198Y-83247867D01*
X158903603Y-83119821D01*
X158849717Y-82988734D01*
X158817705Y-82867640D01*
X158800448Y-82738537D01*
X158797946Y-82606220D01*
X158810199Y-82475489D01*
X158837206Y-82351142D01*
X158849717Y-82311265D01*
X158905213Y-82176618D01*
X158976749Y-82051959D01*
X159065321Y-81935705D01*
X159128606Y-81867776D01*
X159205196Y-81796153D01*
X159280130Y-81737336D01*
X159360095Y-81686466D01*
X159427253Y-81650673D01*
X159540453Y-81600662D01*
X159651034Y-81565880D01*
X159764133Y-81545258D01*
X159884883Y-81537728D01*
X159963537Y-81539066D01*
G37*
G36*
X160745325Y-80697614D02*
G01*
X160865980Y-80697856D01*
X160971713Y-80698234D01*
X161063294Y-80698752D01*
X161141491Y-80699414D01*
X161207075Y-80700226D01*
X161260814Y-80701193D01*
X161303478Y-80702318D01*
X161335836Y-80703607D01*
X161358657Y-80705065D01*
X161372712Y-80706696D01*
X161376214Y-80707442D01*
X161414540Y-80725114D01*
X161455458Y-80755505D01*
X161493701Y-80793450D01*
X161523996Y-80833781D01*
X161540231Y-80868248D01*
X161541777Y-80883241D01*
X161543225Y-80916560D01*
X161544574Y-80966995D01*
X161545823Y-81033333D01*
X161546974Y-81114365D01*
X161548026Y-81208878D01*
X161548979Y-81315660D01*
X161549833Y-81433502D01*
X161550587Y-81561190D01*
X161551243Y-81697515D01*
X161551800Y-81841264D01*
X161552258Y-81991226D01*
X161552618Y-82146190D01*
X161552878Y-82304944D01*
X161553039Y-82466277D01*
X161553101Y-82628978D01*
X161553064Y-82791835D01*
X161552929Y-82953637D01*
X161552694Y-83113172D01*
X161552361Y-83269229D01*
X161551928Y-83420598D01*
X161551397Y-83566065D01*
X161550766Y-83704421D01*
X161550037Y-83834453D01*
X161549208Y-83954951D01*
X161548281Y-84064702D01*
X161547255Y-84162496D01*
X161546130Y-84247121D01*
X161544905Y-84317366D01*
X161543582Y-84372019D01*
X161542160Y-84409869D01*
X161540639Y-84429705D01*
X161540231Y-84431751D01*
X161522751Y-84467569D01*
X161492864Y-84506677D01*
X161455763Y-84543880D01*
X161416642Y-84573985D01*
X161380693Y-84591798D01*
X161379965Y-84592016D01*
X161364807Y-84593611D01*
X161331468Y-84595087D01*
X161281284Y-84596445D01*
X161215591Y-84597685D01*
X161135723Y-84598808D01*
X161043015Y-84599813D01*
X160938802Y-84600702D01*
X160824420Y-84601474D01*
X160701204Y-84602130D01*
X160570488Y-84602671D01*
X160433608Y-84603097D01*
X160291898Y-84603408D01*
X160146695Y-84603605D01*
X159999332Y-84603688D01*
X159851144Y-84603657D01*
X159703468Y-84603513D01*
X159557638Y-84603257D01*
X159414989Y-84602888D01*
X159276856Y-84602408D01*
X159144574Y-84601816D01*
X159019478Y-84601113D01*
X158902904Y-84600299D01*
X158796186Y-84599375D01*
X158700659Y-84598341D01*
X158617659Y-84597198D01*
X158548520Y-84595946D01*
X158494578Y-84594585D01*
X158457168Y-84593116D01*
X158437624Y-84591539D01*
X158435676Y-84591125D01*
X158402055Y-84573699D01*
X158364941Y-84543863D01*
X158329280Y-84506828D01*
X158300017Y-84467804D01*
X158282097Y-84432005D01*
X158280896Y-84428000D01*
X158279347Y-84418114D01*
X158277941Y-84399932D01*
X158276676Y-84372756D01*
X158275547Y-84335889D01*
X158274551Y-84288633D01*
X158273685Y-84230291D01*
X158272944Y-84160163D01*
X158272326Y-84077554D01*
X158271826Y-83981765D01*
X158271442Y-83872098D01*
X158271169Y-83747855D01*
X158271004Y-83608340D01*
X158270944Y-83452853D01*
X158270985Y-83280698D01*
X158271123Y-83091177D01*
X158271354Y-82883592D01*
X158271676Y-82657245D01*
X158271687Y-82650000D01*
X158425907Y-82650000D01*
X158425909Y-82867404D01*
X158425922Y-83066121D01*
X158425956Y-83246999D01*
X158426019Y-83410889D01*
X158426122Y-83558642D01*
X158426272Y-83691107D01*
X158426481Y-83809135D01*
X158426756Y-83913575D01*
X158427108Y-84005279D01*
X158427545Y-84085095D01*
X158428078Y-84153875D01*
X158428715Y-84212468D01*
X158429465Y-84261725D01*
X158430339Y-84302496D01*
X158431345Y-84335631D01*
X158432493Y-84361980D01*
X158433792Y-84382394D01*
X158435252Y-84397722D01*
X158436881Y-84408815D01*
X158438690Y-84416523D01*
X158440687Y-84421696D01*
X158442882Y-84425184D01*
X158445284Y-84427838D01*
X158445445Y-84428000D01*
X158448341Y-84430652D01*
X158452093Y-84433052D01*
X158457639Y-84435214D01*
X158465920Y-84437149D01*
X158477875Y-84438870D01*
X158494445Y-84440390D01*
X158516570Y-84441721D01*
X158545188Y-84442875D01*
X158581240Y-84443866D01*
X158625666Y-84444705D01*
X158679406Y-84445406D01*
X158743399Y-84445980D01*
X158818585Y-84446441D01*
X158905905Y-84446801D01*
X159006298Y-84447072D01*
X159120703Y-84447267D01*
X159250061Y-84447398D01*
X159395312Y-84447478D01*
X159557395Y-84447520D01*
X159737250Y-84447536D01*
X159910830Y-84447538D01*
X160107089Y-84447535D01*
X160284749Y-84447516D01*
X160444751Y-84447471D01*
X160588034Y-84447385D01*
X160715538Y-84447247D01*
X160828202Y-84447043D01*
X160926967Y-84446762D01*
X161012773Y-84446391D01*
X161086558Y-84445917D01*
X161149264Y-84445328D01*
X161201830Y-84444612D01*
X161245196Y-84443755D01*
X161280301Y-84442745D01*
X161308086Y-84441570D01*
X161329490Y-84440217D01*
X161345453Y-84438673D01*
X161356915Y-84436927D01*
X161364816Y-84434965D01*
X161370096Y-84432775D01*
X161373694Y-84430345D01*
X161376214Y-84428000D01*
X161378630Y-84425370D01*
X161380838Y-84421961D01*
X161382847Y-84416922D01*
X161384667Y-84409402D01*
X161386308Y-84398552D01*
X161387778Y-84383521D01*
X161389087Y-84363459D01*
X161390244Y-84337517D01*
X161391259Y-84304843D01*
X161392141Y-84264587D01*
X161392900Y-84215900D01*
X161393544Y-84157931D01*
X161394083Y-84089830D01*
X161394526Y-84010747D01*
X161394883Y-83919832D01*
X161395163Y-83816235D01*
X161395375Y-83699104D01*
X161395529Y-83567591D01*
X161395635Y-83420845D01*
X161395700Y-83258015D01*
X161395735Y-83078253D01*
X161395750Y-82880706D01*
X161395753Y-82664526D01*
X161395753Y-82650000D01*
X161395750Y-82432595D01*
X161395737Y-82233879D01*
X161395703Y-82053000D01*
X161395640Y-81889110D01*
X161395538Y-81741357D01*
X161395387Y-81608892D01*
X161395179Y-81490865D01*
X161394903Y-81386424D01*
X161394551Y-81294721D01*
X161394114Y-81214904D01*
X161393581Y-81146124D01*
X161392944Y-81087531D01*
X161392194Y-81038274D01*
X161391320Y-80997503D01*
X161390314Y-80964368D01*
X161389166Y-80938019D01*
X161387867Y-80917605D01*
X161386407Y-80902277D01*
X161384778Y-80891184D01*
X161382969Y-80883476D01*
X161380972Y-80878303D01*
X161378778Y-80874815D01*
X161376376Y-80872161D01*
X161376214Y-80872000D01*
X161373318Y-80869347D01*
X161369567Y-80866947D01*
X161364020Y-80864785D01*
X161355739Y-80862850D01*
X161343784Y-80861129D01*
X161327214Y-80859609D01*
X161305090Y-80858278D01*
X161276471Y-80857124D01*
X161240419Y-80856133D01*
X161195993Y-80855294D01*
X161142253Y-80854593D01*
X161078260Y-80854019D01*
X161003074Y-80853558D01*
X160915754Y-80853198D01*
X160815362Y-80852927D01*
X160700956Y-80852733D01*
X160571598Y-80852601D01*
X160426347Y-80852521D01*
X160264265Y-80852479D01*
X160084409Y-80852463D01*
X159910830Y-80852461D01*
X159714570Y-80852464D01*
X159536910Y-80852483D01*
X159376908Y-80852528D01*
X159233625Y-80852614D01*
X159106122Y-80852752D01*
X158993457Y-80852956D01*
X158894692Y-80853237D01*
X158808887Y-80853608D01*
X158735101Y-80854082D01*
X158672395Y-80854671D01*
X158619829Y-80855388D01*
X158576464Y-80856245D01*
X158541358Y-80857254D01*
X158513574Y-80858429D01*
X158492170Y-80859782D01*
X158476206Y-80861326D01*
X158464744Y-80863072D01*
X158456843Y-80865034D01*
X158451563Y-80867224D01*
X158447965Y-80869654D01*
X158445445Y-80872000D01*
X158443029Y-80874629D01*
X158440822Y-80878038D01*
X158438812Y-80883077D01*
X158436992Y-80890597D01*
X158435351Y-80901447D01*
X158433881Y-80916478D01*
X158432572Y-80936540D01*
X158431415Y-80962483D01*
X158430400Y-80995157D01*
X158429518Y-81035412D01*
X158428759Y-81084099D01*
X158428115Y-81142068D01*
X158427576Y-81210169D01*
X158427133Y-81289252D01*
X158426776Y-81380167D01*
X158426496Y-81483765D01*
X158426284Y-81600895D01*
X158426130Y-81732408D01*
X158426025Y-81879154D01*
X158425959Y-82041984D01*
X158425924Y-82221747D01*
X158425909Y-82419293D01*
X158425907Y-82635473D01*
X158425907Y-82650000D01*
X158271687Y-82650000D01*
X158271710Y-82635473D01*
X158271718Y-82630461D01*
X158272067Y-82412996D01*
X158272406Y-82214212D01*
X158272744Y-82033252D01*
X158273090Y-81869259D01*
X158273455Y-81721376D01*
X158273849Y-81588746D01*
X158274280Y-81470511D01*
X158274760Y-81365815D01*
X158275298Y-81273801D01*
X158275904Y-81193610D01*
X158276587Y-81124387D01*
X158277358Y-81065274D01*
X158278226Y-81015414D01*
X158279201Y-80973949D01*
X158280293Y-80940023D01*
X158281511Y-80912778D01*
X158282866Y-80891358D01*
X158284368Y-80874905D01*
X158286025Y-80862562D01*
X158287849Y-80853472D01*
X158289849Y-80846778D01*
X158292034Y-80841623D01*
X158292228Y-80841230D01*
X158321924Y-80796672D01*
X158362898Y-80754579D01*
X158407571Y-80722531D01*
X158414675Y-80718782D01*
X158420224Y-80716364D01*
X158427313Y-80714171D01*
X158436892Y-80712190D01*
X158449911Y-80710409D01*
X158467318Y-80708814D01*
X158490064Y-80707392D01*
X158519098Y-80706130D01*
X158555370Y-80705014D01*
X158599830Y-80704031D01*
X158653426Y-80703168D01*
X158717109Y-80702413D01*
X158791828Y-80701751D01*
X158878532Y-80701169D01*
X158978172Y-80700655D01*
X159091697Y-80700195D01*
X159220056Y-80699776D01*
X159364199Y-80699385D01*
X159525076Y-80699008D01*
X159703636Y-80698633D01*
X159891291Y-80698264D01*
X160098097Y-80697901D01*
X160286133Y-80697650D01*
X160456171Y-80697516D01*
X160608978Y-80697502D01*
X160745325Y-80697614D01*
G37*
%TO.C,G\u002A\u002A\u002A*%
G36*
X129698734Y-80835656D02*
G01*
X129794063Y-80843195D01*
X129981998Y-80871770D01*
X130163012Y-80918476D01*
X130336452Y-80983012D01*
X130501668Y-81065080D01*
X130658009Y-81164379D01*
X130804821Y-81280610D01*
X130864395Y-81335275D01*
X130998409Y-81475984D01*
X131114316Y-81624020D01*
X131212167Y-81779496D01*
X131292013Y-81942522D01*
X131353904Y-82113211D01*
X131397890Y-82291675D01*
X131424023Y-82478025D01*
X131430935Y-82587437D01*
X131428503Y-82777067D01*
X131407201Y-82961662D01*
X131367069Y-83141103D01*
X131308149Y-83315271D01*
X131230479Y-83484046D01*
X131134101Y-83647310D01*
X131019268Y-83804679D01*
X130904295Y-83932784D01*
X130774289Y-84050528D01*
X130631618Y-84156443D01*
X130478647Y-84249060D01*
X130317743Y-84326910D01*
X130151271Y-84388524D01*
X130022233Y-84423646D01*
X129909186Y-84444452D01*
X129784460Y-84458452D01*
X129654796Y-84465350D01*
X129526937Y-84464846D01*
X129407627Y-84456643D01*
X129372579Y-84452374D01*
X129188915Y-84417520D01*
X129010928Y-84364241D01*
X128839799Y-84293128D01*
X128676709Y-84204772D01*
X128522840Y-84099761D01*
X128379375Y-83978688D01*
X128331650Y-83932438D01*
X128235986Y-83826143D01*
X128548677Y-83826143D01*
X128596724Y-83868849D01*
X128646176Y-83909046D01*
X128707725Y-83953364D01*
X128775608Y-83998000D01*
X128844062Y-84039155D01*
X128903195Y-84070976D01*
X128948387Y-84092347D01*
X128998608Y-84114104D01*
X129050790Y-84135153D01*
X129101866Y-84154401D01*
X129148771Y-84170755D01*
X129188437Y-84183123D01*
X129217797Y-84190410D01*
X129233785Y-84191525D01*
X129235810Y-84189534D01*
X129234863Y-84187911D01*
X129997810Y-84187911D01*
X130000137Y-84192075D01*
X130009078Y-84192455D01*
X130027567Y-84188400D01*
X130058542Y-84179260D01*
X130104937Y-84164384D01*
X130106832Y-84163766D01*
X130228219Y-84117560D01*
X130352458Y-84058019D01*
X130472486Y-83988642D01*
X130510694Y-83963697D01*
X130562572Y-83927817D01*
X130607535Y-83894947D01*
X130643496Y-83866762D01*
X130668364Y-83844940D01*
X130680049Y-83831159D01*
X130680146Y-83827654D01*
X130664565Y-83818001D01*
X130634704Y-83803047D01*
X130594199Y-83784321D01*
X130546686Y-83763352D01*
X130495800Y-83741668D01*
X130445178Y-83720800D01*
X130398454Y-83702275D01*
X130359266Y-83687622D01*
X130331248Y-83678371D01*
X130319244Y-83675887D01*
X130309855Y-83684190D01*
X130294007Y-83706848D01*
X130273746Y-83740627D01*
X130251119Y-83782290D01*
X130247609Y-83789095D01*
X130193813Y-83888895D01*
X130137169Y-83984515D01*
X130080882Y-84070737D01*
X130040247Y-84126854D01*
X130019387Y-84154833D01*
X130004242Y-84176541D01*
X129997852Y-84187605D01*
X129997810Y-84187911D01*
X129234863Y-84187911D01*
X129230527Y-84180482D01*
X129216093Y-84158615D01*
X129194625Y-84127081D01*
X129168244Y-84089025D01*
X129164373Y-84083489D01*
X129116483Y-84012161D01*
X129068867Y-83935944D01*
X129024519Y-83859960D01*
X128986435Y-83789333D01*
X128958821Y-83731942D01*
X128942498Y-83700174D01*
X128927537Y-83680417D01*
X128919070Y-83675769D01*
X128898793Y-83679852D01*
X128863411Y-83691459D01*
X128815417Y-83709627D01*
X128757303Y-83733392D01*
X128691563Y-83761791D01*
X128660224Y-83775794D01*
X128548677Y-83826143D01*
X128235986Y-83826143D01*
X128206505Y-83793386D01*
X128097894Y-83644971D01*
X128005965Y-83488470D01*
X127930866Y-83325160D01*
X127872745Y-83156320D01*
X127831749Y-82983228D01*
X127808026Y-82807161D01*
X127806610Y-82767230D01*
X128031918Y-82767230D01*
X128038711Y-82833173D01*
X128062345Y-82979927D01*
X128102445Y-83129321D01*
X128157292Y-83276846D01*
X128225169Y-83417998D01*
X128304356Y-83548270D01*
X128320007Y-83570677D01*
X128345348Y-83605490D01*
X128366629Y-83633475D01*
X128381296Y-83651347D01*
X128386537Y-83656158D01*
X128396811Y-83652076D01*
X128421303Y-83640803D01*
X128456754Y-83623883D01*
X128463006Y-83620837D01*
X129157819Y-83620837D01*
X129162859Y-83636462D01*
X129176550Y-83665389D01*
X129197101Y-83704404D01*
X129222721Y-83750294D01*
X129251617Y-83799849D01*
X129281999Y-83849853D01*
X129310594Y-83894830D01*
X129333983Y-83929562D01*
X129361970Y-83969438D01*
X129392251Y-84011376D01*
X129422525Y-84052298D01*
X129450489Y-84089123D01*
X129473839Y-84118772D01*
X129490272Y-84138166D01*
X129497137Y-84144298D01*
X129497752Y-84135031D01*
X129498310Y-84108623D01*
X129498791Y-84067473D01*
X129499175Y-84013977D01*
X129499442Y-83950533D01*
X129499570Y-83879540D01*
X129499578Y-83857005D01*
X129499579Y-83855058D01*
X129499579Y-83565425D01*
X129414206Y-83571987D01*
X129359509Y-83577230D01*
X129305217Y-83584261D01*
X129254759Y-83592425D01*
X129211563Y-83601069D01*
X129179058Y-83609541D01*
X129160671Y-83617187D01*
X129157819Y-83620837D01*
X128463006Y-83620837D01*
X128499906Y-83602858D01*
X128518422Y-83593729D01*
X128574630Y-83566866D01*
X128577847Y-83565411D01*
X129734040Y-83565411D01*
X129734040Y-83857005D01*
X129734296Y-83929686D01*
X129735021Y-83995144D01*
X129736148Y-84051087D01*
X129737614Y-84095221D01*
X129739352Y-84125253D01*
X129741299Y-84138889D01*
X129742059Y-84139319D01*
X129751983Y-84127545D01*
X129770454Y-84105411D01*
X129793560Y-84077604D01*
X129794635Y-84076307D01*
X129835231Y-84024001D01*
X129880940Y-83959602D01*
X129928221Y-83888533D01*
X129973535Y-83816221D01*
X130013344Y-83748090D01*
X130034919Y-83707978D01*
X130084917Y-83610643D01*
X129990075Y-83594144D01*
X129936839Y-83585790D01*
X129879102Y-83578157D01*
X129827192Y-83572577D01*
X129814637Y-83571528D01*
X129734040Y-83565411D01*
X128577847Y-83565411D01*
X128635221Y-83539461D01*
X128693045Y-83514662D01*
X128740954Y-83495617D01*
X128742463Y-83495057D01*
X128782566Y-83480110D01*
X128815095Y-83467799D01*
X128836182Y-83459600D01*
X128839151Y-83458320D01*
X130390273Y-83458320D01*
X130492452Y-83495743D01*
X130543082Y-83515653D01*
X130603032Y-83541321D01*
X130664409Y-83569269D01*
X130713855Y-83593254D01*
X130758245Y-83615364D01*
X130796710Y-83634030D01*
X130825732Y-83647581D01*
X130841789Y-83654346D01*
X130843406Y-83654786D01*
X130853640Y-83648086D01*
X130871381Y-83629038D01*
X130893157Y-83601454D01*
X130897746Y-83595173D01*
X130988137Y-83455902D01*
X131063982Y-83309900D01*
X131124208Y-83159892D01*
X131167743Y-83008607D01*
X131193517Y-82858770D01*
X131195774Y-82836703D01*
X131202255Y-82766974D01*
X130861359Y-82769544D01*
X130520463Y-82772115D01*
X130513362Y-82860038D01*
X130495969Y-83009588D01*
X130468050Y-83165960D01*
X130431270Y-83320705D01*
X130404416Y-83413179D01*
X130390273Y-83458320D01*
X128839151Y-83458320D01*
X128842203Y-83457004D01*
X128840547Y-83447507D01*
X128834243Y-83424386D01*
X128824648Y-83392613D01*
X128824469Y-83392042D01*
X128791602Y-83274103D01*
X128762942Y-83145506D01*
X128740110Y-83014702D01*
X128724727Y-82890144D01*
X128721980Y-82857596D01*
X128715237Y-82767230D01*
X128940210Y-82767230D01*
X128946977Y-82847827D01*
X128973765Y-83051998D01*
X129019755Y-83254012D01*
X129036836Y-83312761D01*
X129061735Y-83394392D01*
X129092599Y-83389966D01*
X129115517Y-83386461D01*
X129151759Y-83380679D01*
X129195379Y-83373573D01*
X129221156Y-83369315D01*
X129276136Y-83361025D01*
X129336685Y-83353205D01*
X129392100Y-83347207D01*
X129406771Y-83345911D01*
X129494694Y-83338730D01*
X129497284Y-83052980D01*
X129499874Y-82767230D01*
X129733745Y-82767230D01*
X129736335Y-83052980D01*
X129738925Y-83338730D01*
X129834692Y-83346550D01*
X129889943Y-83352139D01*
X129953166Y-83360169D01*
X130013185Y-83369180D01*
X130030077Y-83372065D01*
X130084629Y-83381814D01*
X130123157Y-83387889D01*
X130148964Y-83389460D01*
X130165355Y-83385698D01*
X130175637Y-83375771D01*
X130183114Y-83358849D01*
X130191090Y-83334103D01*
X130191965Y-83331403D01*
X130226539Y-83210825D01*
X130255401Y-83081093D01*
X130276748Y-82951276D01*
X130287258Y-82852711D01*
X130293769Y-82767230D01*
X130013757Y-82767230D01*
X129733745Y-82767230D01*
X129499874Y-82767230D01*
X129220042Y-82767230D01*
X128940210Y-82767230D01*
X128715237Y-82767230D01*
X128373577Y-82767230D01*
X128031918Y-82767230D01*
X127806610Y-82767230D01*
X127801724Y-82629397D01*
X127807201Y-82542794D01*
X128031644Y-82542794D01*
X128065587Y-82542538D01*
X128940210Y-82542538D01*
X129219894Y-82542538D01*
X129499579Y-82542538D01*
X129499579Y-82255049D01*
X129734040Y-82255049D01*
X129734040Y-82542538D01*
X130012463Y-82542538D01*
X130290887Y-82542538D01*
X130290887Y-82500763D01*
X130288989Y-82459456D01*
X130283784Y-82404860D01*
X130276001Y-82342801D01*
X130266370Y-82279105D01*
X130255731Y-82220153D01*
X130246962Y-82179568D01*
X130235539Y-82131622D01*
X130222561Y-82080390D01*
X130209124Y-82029947D01*
X130196329Y-81984367D01*
X130185272Y-81947725D01*
X130177052Y-81924095D01*
X130174459Y-81918607D01*
X130167094Y-81912655D01*
X130152393Y-81911145D01*
X130126366Y-81914187D01*
X130089479Y-81921006D01*
X130046303Y-81928979D01*
X129998541Y-81936513D01*
X129942475Y-81944111D01*
X129874384Y-81952277D01*
X129790552Y-81961515D01*
X129790213Y-81961551D01*
X129734040Y-81967559D01*
X129734040Y-82255049D01*
X129499579Y-82255049D01*
X129499579Y-81967559D01*
X129443406Y-81961551D01*
X129359447Y-81952301D01*
X129291265Y-81944128D01*
X129235161Y-81936530D01*
X129187439Y-81929008D01*
X129144626Y-81921105D01*
X129108646Y-81914405D01*
X129081002Y-81910088D01*
X129066439Y-81908869D01*
X129065359Y-81909170D01*
X129061331Y-81919331D01*
X129052975Y-81943576D01*
X129041846Y-81977357D01*
X129037587Y-81990577D01*
X128994276Y-82150634D01*
X128962789Y-82322256D01*
X128946946Y-82461942D01*
X128940210Y-82542538D01*
X128065587Y-82542538D01*
X128372400Y-82540224D01*
X128713156Y-82537653D01*
X128715688Y-82503461D01*
X128717811Y-82480760D01*
X128721763Y-82443660D01*
X128726994Y-82397155D01*
X128732955Y-82346240D01*
X128733430Y-82342269D01*
X128748445Y-82235440D01*
X128768001Y-82131101D01*
X128793397Y-82023388D01*
X128825930Y-81906437D01*
X128840731Y-81857384D01*
X128838821Y-81847708D01*
X130390325Y-81847708D01*
X130414140Y-81924027D01*
X130445375Y-82036058D01*
X130472543Y-82156913D01*
X130494086Y-82278582D01*
X130508444Y-82393058D01*
X130510790Y-82420423D01*
X130514186Y-82460432D01*
X130517744Y-82495164D01*
X130520784Y-82518115D01*
X130521238Y-82520557D01*
X130525720Y-82542538D01*
X130862573Y-82542538D01*
X131199425Y-82542538D01*
X131199394Y-82505903D01*
X131197060Y-82471589D01*
X131190741Y-82423823D01*
X131181399Y-82368058D01*
X131169993Y-82309744D01*
X131157484Y-82254333D01*
X131149907Y-82224963D01*
X131101263Y-82079417D01*
X131035704Y-81933793D01*
X130955376Y-81792317D01*
X130863269Y-81660309D01*
X130856724Y-81653660D01*
X130848029Y-81651202D01*
X130834093Y-81653897D01*
X130811826Y-81662703D01*
X130778140Y-81678582D01*
X130733903Y-81700513D01*
X130679501Y-81726827D01*
X130620555Y-81753909D01*
X130564725Y-81778310D01*
X130525348Y-81794403D01*
X130483765Y-81810590D01*
X130447153Y-81824920D01*
X130420580Y-81835402D01*
X130411433Y-81839073D01*
X130390325Y-81847708D01*
X128838821Y-81847708D01*
X128837989Y-81843491D01*
X128818473Y-81834702D01*
X128786993Y-81824864D01*
X128742147Y-81808099D01*
X128688075Y-81786153D01*
X128628918Y-81760774D01*
X128588187Y-81742431D01*
X129734040Y-81742431D01*
X129795098Y-81736335D01*
X129834384Y-81731788D01*
X129883634Y-81725215D01*
X129933550Y-81717873D01*
X129944079Y-81716218D01*
X129986766Y-81709271D01*
X130024975Y-81702804D01*
X130052491Y-81697879D01*
X130058920Y-81696618D01*
X130085839Y-81691039D01*
X130039677Y-81601661D01*
X130007379Y-81543238D01*
X129966636Y-81475725D01*
X129920884Y-81404335D01*
X129873559Y-81334279D01*
X129828099Y-81270770D01*
X129787938Y-81219019D01*
X129785319Y-81215858D01*
X129734040Y-81154293D01*
X129734040Y-81448362D01*
X129734040Y-81742431D01*
X128588187Y-81742431D01*
X128568817Y-81733708D01*
X128511914Y-81706700D01*
X128494225Y-81697939D01*
X128471079Y-81686331D01*
X129155291Y-81686331D01*
X129159174Y-81692323D01*
X129169110Y-81695547D01*
X129169780Y-81695707D01*
X129191873Y-81699989D01*
X129228079Y-81705993D01*
X129273130Y-81712948D01*
X129321762Y-81720081D01*
X129368708Y-81726619D01*
X129408702Y-81731788D01*
X129436079Y-81734783D01*
X129464151Y-81737359D01*
X129484601Y-81739476D01*
X129487367Y-81739819D01*
X129490999Y-81736236D01*
X129493871Y-81723289D01*
X129496051Y-81699309D01*
X129497608Y-81662625D01*
X129498609Y-81611570D01*
X129499125Y-81544473D01*
X129499222Y-81459665D01*
X129499212Y-81450827D01*
X129499209Y-81448362D01*
X129498845Y-81160192D01*
X129464518Y-81199269D01*
X129411754Y-81264289D01*
X129354367Y-81343889D01*
X129294776Y-81434420D01*
X129235399Y-81532237D01*
X129188295Y-81615822D01*
X129169020Y-81651673D01*
X129158296Y-81673978D01*
X129155291Y-81686331D01*
X128471079Y-81686331D01*
X128387649Y-81644490D01*
X128354059Y-81685648D01*
X128281616Y-81786184D01*
X128215169Y-81901434D01*
X128156467Y-82027041D01*
X128107260Y-82158647D01*
X128069297Y-82291895D01*
X128044326Y-82422427D01*
X128038469Y-82471839D01*
X128031644Y-82542794D01*
X127807201Y-82542794D01*
X127812992Y-82451214D01*
X127841976Y-82273891D01*
X127888826Y-82098704D01*
X127953688Y-81926932D01*
X128036711Y-81759852D01*
X128073060Y-81697844D01*
X128141857Y-81596029D01*
X128224003Y-81491972D01*
X128242261Y-81471632D01*
X128550139Y-81471632D01*
X128616994Y-81505671D01*
X128644130Y-81518673D01*
X128681745Y-81535611D01*
X128726099Y-81554923D01*
X128773449Y-81575046D01*
X128820056Y-81594417D01*
X128862177Y-81611475D01*
X128896073Y-81624657D01*
X128918001Y-81632400D01*
X128923749Y-81633783D01*
X128930161Y-81625707D01*
X128942378Y-81604058D01*
X128958080Y-81573032D01*
X128962816Y-81563173D01*
X129049173Y-81399399D01*
X129151224Y-81237789D01*
X129194025Y-81177288D01*
X129215732Y-81146254D01*
X129230807Y-81122131D01*
X129235889Y-81111165D01*
X129999619Y-81111165D01*
X130003051Y-81120372D01*
X130015882Y-81141246D01*
X130035665Y-81169918D01*
X130044286Y-81181769D01*
X130110302Y-81275741D01*
X130169843Y-81370698D01*
X130227843Y-81474625D01*
X130242891Y-81503352D01*
X130265383Y-81546714D01*
X130284678Y-81583788D01*
X130298981Y-81611136D01*
X130306498Y-81625320D01*
X130307062Y-81626331D01*
X130318097Y-81626826D01*
X130344309Y-81620114D01*
X130383113Y-81607117D01*
X130431919Y-81588762D01*
X130488142Y-81565971D01*
X130547311Y-81540503D01*
X130601678Y-81516490D01*
X130639459Y-81498562D01*
X130661644Y-81484270D01*
X130669221Y-81471163D01*
X130663179Y-81456789D01*
X130644508Y-81438700D01*
X130614197Y-81414444D01*
X130602064Y-81404871D01*
X130469262Y-81310683D01*
X130325692Y-81229282D01*
X130176198Y-81163228D01*
X130085126Y-81131859D01*
X130048215Y-81121119D01*
X130019008Y-81113740D01*
X130002017Y-81110814D01*
X129999619Y-81111165D01*
X129235889Y-81111165D01*
X129237183Y-81108374D01*
X129236440Y-81106461D01*
X129223882Y-81109349D01*
X129196969Y-81117176D01*
X129159877Y-81128686D01*
X129123968Y-81140264D01*
X128960823Y-81203925D01*
X128805835Y-81285116D01*
X128660607Y-81382962D01*
X128616994Y-81417210D01*
X128550139Y-81471632D01*
X128242261Y-81471632D01*
X128315037Y-81390557D01*
X128410499Y-81296667D01*
X128505928Y-81215186D01*
X128532264Y-81195090D01*
X128690306Y-81089481D01*
X128854852Y-81002277D01*
X129026259Y-80933336D01*
X129204887Y-80882515D01*
X129391093Y-80849672D01*
X129407968Y-80847625D01*
X129512220Y-80837583D01*
X129606341Y-80833626D01*
X129698734Y-80835656D01*
G37*
D14*
%TO.C,POWER*%
X140660830Y-112250000D02*
X140660830Y-113750000D01*
X141910830Y-116250000D02*
X146410830Y-116250000D01*
X146410830Y-109750000D02*
X141910830Y-109750000D01*
X147660830Y-113750000D02*
X147660830Y-112250000D01*
%TO.C,LAN_LED1*%
X125031810Y-81165000D02*
X125031810Y-83450000D01*
X126501810Y-81165000D02*
X125031810Y-81165000D01*
X126501810Y-83450000D02*
X126501810Y-81165000D01*
D15*
%TO.C,G\u002A\u002A\u002A*%
G36*
X116276202Y-107770642D02*
G01*
X118373115Y-107771133D01*
X119255279Y-108542595D01*
X119408105Y-108676573D01*
X119552354Y-108803670D01*
X119685744Y-108921835D01*
X119805994Y-109029018D01*
X119910826Y-109123167D01*
X119997958Y-109202232D01*
X120065110Y-109264163D01*
X120110001Y-109306907D01*
X120130353Y-109328416D01*
X120131323Y-109330449D01*
X120116149Y-109346185D01*
X120076721Y-109381772D01*
X120016918Y-109433855D01*
X119940620Y-109499084D01*
X119851709Y-109574106D01*
X119777946Y-109635726D01*
X119681663Y-109715884D01*
X119594532Y-109788532D01*
X119520526Y-109850350D01*
X119463619Y-109898017D01*
X119427782Y-109928211D01*
X119417097Y-109937416D01*
X119426023Y-109952743D01*
X119458637Y-109988426D01*
X119511204Y-110040782D01*
X119579984Y-110106131D01*
X119661242Y-110180792D01*
X119695166Y-110211332D01*
X119986827Y-110472443D01*
X119986107Y-111322779D01*
X119985387Y-112173115D01*
X119590142Y-112473977D01*
X119469732Y-112565591D01*
X119344219Y-112661014D01*
X119220938Y-112754675D01*
X119107224Y-112841002D01*
X119010411Y-112914424D01*
X118959980Y-112952620D01*
X118725062Y-113130402D01*
X115946181Y-113130402D01*
X113167301Y-113130402D01*
X113167256Y-112642641D01*
X113166736Y-112483870D01*
X113165304Y-112310717D01*
X113163115Y-112134619D01*
X113160319Y-111967011D01*
X113157070Y-111819329D01*
X113155513Y-111762849D01*
X113145992Y-111443754D01*
X113273888Y-111443754D01*
X113284413Y-111934477D01*
X113287376Y-112083945D01*
X113290016Y-112238880D01*
X113292210Y-112390234D01*
X113293834Y-112528959D01*
X113294764Y-112646010D01*
X113294939Y-112704864D01*
X113294939Y-112984529D01*
X115979899Y-112983928D01*
X118664860Y-112983328D01*
X119257466Y-112531030D01*
X119850072Y-112078732D01*
X119854823Y-111305066D01*
X119859574Y-110531400D01*
X119549374Y-110234014D01*
X119239174Y-109936627D01*
X119590208Y-109644247D01*
X119686565Y-109563312D01*
X119773113Y-109489318D01*
X119846022Y-109425648D01*
X119901458Y-109375682D01*
X119935589Y-109342805D01*
X119944973Y-109331120D01*
X119932236Y-109315754D01*
X119894243Y-109278760D01*
X119833390Y-109222283D01*
X119752074Y-109148470D01*
X119652689Y-109059468D01*
X119537632Y-108957423D01*
X119409300Y-108844482D01*
X119270088Y-108722792D01*
X119133559Y-108604171D01*
X118318413Y-107897969D01*
X116257968Y-107897627D01*
X114197523Y-107897285D01*
X113750789Y-108254433D01*
X113624826Y-108355429D01*
X113524639Y-108436636D01*
X113447294Y-108500749D01*
X113389854Y-108550461D01*
X113349384Y-108588467D01*
X113322949Y-108617462D01*
X113307612Y-108640141D01*
X113300440Y-108659197D01*
X113298900Y-108669232D01*
X113298769Y-108681992D01*
X113302066Y-108695699D01*
X113310866Y-108712239D01*
X113327241Y-108733496D01*
X113353263Y-108761355D01*
X113391005Y-108797700D01*
X113442541Y-108844415D01*
X113509943Y-108903387D01*
X113595283Y-108976498D01*
X113700636Y-109065634D01*
X113828073Y-109172679D01*
X113979667Y-109299517D01*
X114133107Y-109427676D01*
X114283602Y-109553500D01*
X114425429Y-109672416D01*
X114556163Y-109782367D01*
X114673384Y-109881301D01*
X114774666Y-109967164D01*
X114857588Y-110037901D01*
X114919726Y-110091458D01*
X114958657Y-110125782D01*
X114971960Y-110138803D01*
X114957772Y-110151428D01*
X114917094Y-110184149D01*
X114852470Y-110234998D01*
X114766443Y-110302004D01*
X114661557Y-110383197D01*
X114540356Y-110476609D01*
X114405384Y-110580268D01*
X114259184Y-110692206D01*
X114122669Y-110796446D01*
X113273888Y-111443754D01*
X113145992Y-111443754D01*
X113143816Y-111370818D01*
X113843892Y-110830272D01*
X113987402Y-110719454D01*
X114125362Y-110612900D01*
X114254420Y-110513201D01*
X114371225Y-110422947D01*
X114472425Y-110344728D01*
X114554669Y-110281134D01*
X114614605Y-110234754D01*
X114647984Y-110208877D01*
X114751998Y-110128028D01*
X113950513Y-109445690D01*
X113149029Y-108763352D01*
X113153606Y-108677013D01*
X113158184Y-108590674D01*
X113668736Y-108180413D01*
X114179289Y-107770151D01*
X116276202Y-107770642D01*
G37*
G36*
X115301064Y-108189151D02*
G01*
X115440130Y-108189636D01*
X115562985Y-108190398D01*
X115665577Y-108191395D01*
X115743851Y-108192589D01*
X115793755Y-108193941D01*
X115811234Y-108195407D01*
X115797980Y-108208894D01*
X115762923Y-108238710D01*
X115713119Y-108278891D01*
X115703094Y-108286794D01*
X115648157Y-108330356D01*
X115573868Y-108389817D01*
X115489133Y-108458024D01*
X115402857Y-108527823D01*
X115384641Y-108542611D01*
X115174327Y-108713468D01*
X115894371Y-109221612D01*
X116038751Y-109323030D01*
X116174765Y-109417664D01*
X116299390Y-109503474D01*
X116409601Y-109578419D01*
X116502373Y-109640459D01*
X116574683Y-109687553D01*
X116623505Y-109717663D01*
X116645815Y-109728746D01*
X116646192Y-109728764D01*
X116669578Y-109719612D01*
X116720114Y-109694227D01*
X116793555Y-109654930D01*
X116885655Y-109604042D01*
X116992169Y-109543886D01*
X117108852Y-109476783D01*
X117138462Y-109459573D01*
X117598955Y-109191374D01*
X118219060Y-109196171D01*
X118839166Y-109200969D01*
X118200433Y-109672326D01*
X118066612Y-109771354D01*
X117942333Y-109863847D01*
X117830578Y-109947548D01*
X117734331Y-110020199D01*
X117656572Y-110079541D01*
X117600286Y-110123315D01*
X117568454Y-110149265D01*
X117562290Y-110155528D01*
X117576706Y-110168223D01*
X117617904Y-110200311D01*
X117683155Y-110249761D01*
X117769728Y-110314542D01*
X117874893Y-110392624D01*
X117995921Y-110481974D01*
X118130082Y-110580563D01*
X118274646Y-110686360D01*
X118337236Y-110732038D01*
X118485302Y-110840219D01*
X118624082Y-110942021D01*
X118750850Y-111035417D01*
X118862879Y-111118378D01*
X118957442Y-111188876D01*
X119031811Y-111244881D01*
X119083260Y-111284366D01*
X119109061Y-111305301D01*
X119111593Y-111308068D01*
X119097113Y-111321368D01*
X119057117Y-111350940D01*
X118996775Y-111393346D01*
X118921257Y-111445151D01*
X118835732Y-111502919D01*
X118745370Y-111563213D01*
X118655340Y-111622598D01*
X118570813Y-111677638D01*
X118496957Y-111724896D01*
X118438942Y-111760936D01*
X118401937Y-111782323D01*
X118391426Y-111786743D01*
X118373371Y-111776704D01*
X118327913Y-111747957D01*
X118257791Y-111702322D01*
X118165743Y-111641619D01*
X118054508Y-111567666D01*
X117926826Y-111482284D01*
X117785435Y-111387292D01*
X117633074Y-111284510D01*
X117508037Y-111199869D01*
X117349251Y-111092445D01*
X117199480Y-110991545D01*
X117061434Y-110898966D01*
X116937827Y-110816509D01*
X116831369Y-110745970D01*
X116744773Y-110689148D01*
X116680750Y-110647842D01*
X116642012Y-110623849D01*
X116631069Y-110618318D01*
X116613746Y-110628426D01*
X116568036Y-110655809D01*
X116496708Y-110698793D01*
X116402532Y-110755700D01*
X116288277Y-110824856D01*
X116156713Y-110904583D01*
X116010609Y-110993206D01*
X115852735Y-111089048D01*
X115704655Y-111179011D01*
X114790129Y-111734800D01*
X114790129Y-112232026D01*
X114790129Y-112729253D01*
X114179033Y-112729253D01*
X113567937Y-112729253D01*
X113572751Y-112151116D01*
X113577566Y-111572979D01*
X114705820Y-110860144D01*
X114889276Y-110743961D01*
X115063331Y-110633200D01*
X115225578Y-110529423D01*
X115373615Y-110434193D01*
X115505037Y-110349074D01*
X115617440Y-110275629D01*
X115708420Y-110215421D01*
X115775573Y-110170012D01*
X115816493Y-110140966D01*
X115828896Y-110129989D01*
X115813608Y-110116602D01*
X115771188Y-110083702D01*
X115704091Y-110033099D01*
X115614771Y-109966604D01*
X115505682Y-109886027D01*
X115379277Y-109793177D01*
X115238010Y-109689864D01*
X115084335Y-109577900D01*
X114920706Y-109459093D01*
X114846515Y-109405353D01*
X114678778Y-109283851D01*
X114519465Y-109168274D01*
X114371084Y-109060454D01*
X114236146Y-108962223D01*
X114117159Y-108875411D01*
X114016634Y-108801853D01*
X113937080Y-108743379D01*
X113881006Y-108701821D01*
X113850922Y-108679012D01*
X113846629Y-108675452D01*
X113844647Y-108663931D01*
X113857821Y-108644911D01*
X113889036Y-108616020D01*
X113941179Y-108574886D01*
X114017134Y-108519135D01*
X114119786Y-108446397D01*
X114156197Y-108420924D01*
X114488447Y-108188980D01*
X115149841Y-108188980D01*
X115301064Y-108189151D01*
G37*
D14*
%TO.C,D2*%
X175014000Y-94350000D02*
X175170000Y-94350000D01*
X177330000Y-94350000D02*
X177486000Y-94350000D01*
X175014484Y-94350000D02*
G75*
G02*
X175171392Y-91117665I1235516J1560000D01*
G01*
X175170000Y-93830961D02*
G75*
G02*
X175170163Y-91748870I1080000J1040961D01*
G01*
X177328608Y-91117665D02*
G75*
G02*
X177485516Y-94350000I-1078608J-1672335D01*
G01*
X177329837Y-91748870D02*
G75*
G02*
X177330000Y-93830961I-1079837J-1041130D01*
G01*
D15*
%TO.C,G\u002A\u002A\u002A*%
G36*
X113709927Y-104563289D02*
G01*
X113778306Y-104564303D01*
X113826530Y-104566252D01*
X113857643Y-104569347D01*
X113874693Y-104573801D01*
X113880726Y-104579825D01*
X113880878Y-104581242D01*
X113878346Y-104601345D01*
X113871534Y-104640585D01*
X113861620Y-104692420D01*
X113854625Y-104727080D01*
X113843522Y-104781525D01*
X113834744Y-104825489D01*
X113829429Y-104853216D01*
X113828372Y-104859791D01*
X113815891Y-104861326D01*
X113781033Y-104862678D01*
X113727671Y-104863771D01*
X113659682Y-104864534D01*
X113580939Y-104864892D01*
X113558392Y-104864910D01*
X113467687Y-104864772D01*
X113400020Y-104864171D01*
X113352177Y-104862827D01*
X113320943Y-104860459D01*
X113303103Y-104856785D01*
X113295443Y-104851526D01*
X113294748Y-104844400D01*
X113295393Y-104841938D01*
X113301001Y-104820188D01*
X113310110Y-104781544D01*
X113321217Y-104732774D01*
X113332821Y-104680645D01*
X113343420Y-104631924D01*
X113351511Y-104593378D01*
X113355594Y-104571774D01*
X113355814Y-104569700D01*
X113368285Y-104567663D01*
X113403080Y-104565875D01*
X113456268Y-104564437D01*
X113523921Y-104563448D01*
X113602108Y-104563010D01*
X113618346Y-104562998D01*
X113709927Y-104563289D01*
G37*
G36*
X123043985Y-105176144D02*
G01*
X123069509Y-105193075D01*
X123090791Y-105219646D01*
X123091940Y-105242531D01*
X123072335Y-105269910D01*
X123062927Y-105279610D01*
X123041783Y-105303403D01*
X123037840Y-105322216D01*
X123048840Y-105348692D01*
X123050137Y-105351210D01*
X123062449Y-105377514D01*
X123061075Y-105388068D01*
X123045962Y-105389974D01*
X123022883Y-105378209D01*
X123002963Y-105348731D01*
X122983689Y-105315918D01*
X122968056Y-105308379D01*
X122957285Y-105326150D01*
X122953819Y-105347313D01*
X122945929Y-105379069D01*
X122928737Y-105389871D01*
X122926076Y-105389974D01*
X122912788Y-105387283D01*
X122907758Y-105375037D01*
X122909885Y-105346982D01*
X122913955Y-105321060D01*
X122922128Y-105271958D01*
X122924143Y-105259782D01*
X122964496Y-105259782D01*
X122974947Y-105270076D01*
X122999135Y-105272023D01*
X123026317Y-105266751D01*
X123045746Y-105255389D01*
X123048457Y-105250960D01*
X123050539Y-105222735D01*
X123030346Y-105208178D01*
X123011069Y-105206202D01*
X122980892Y-105217419D01*
X122965510Y-105247391D01*
X122964496Y-105259782D01*
X122924143Y-105259782D01*
X122929712Y-105226130D01*
X122932448Y-105209483D01*
X122939280Y-105181900D01*
X122953314Y-105169788D01*
X122983231Y-105166859D01*
X122991344Y-105166822D01*
X123043985Y-105176144D01*
G37*
G36*
X123064157Y-105086010D02*
G01*
X123123300Y-105118889D01*
X123167300Y-105173062D01*
X123171240Y-105180419D01*
X123195248Y-105243900D01*
X123197203Y-105303478D01*
X123177281Y-105368176D01*
X123174997Y-105373295D01*
X123137881Y-105429498D01*
X123086107Y-105464952D01*
X123017891Y-105480707D01*
X122990749Y-105481762D01*
X122921350Y-105474290D01*
X122875128Y-105455287D01*
X122836289Y-105419249D01*
X122804291Y-105367327D01*
X122784617Y-105309851D01*
X122783961Y-105304038D01*
X122820247Y-105304038D01*
X122836552Y-105361180D01*
X122856390Y-105390793D01*
X122905970Y-105427893D01*
X122966863Y-105446118D01*
X123031144Y-105444451D01*
X123090886Y-105421878D01*
X123092297Y-105421009D01*
X123136233Y-105379055D01*
X123159621Y-105321154D01*
X123163583Y-105278398D01*
X123153169Y-105210838D01*
X123122747Y-105159910D01*
X123073541Y-105126813D01*
X123006779Y-105112741D01*
X122993390Y-105112324D01*
X122932341Y-105117252D01*
X122888459Y-105135478D01*
X122854560Y-105170492D01*
X122845703Y-105184068D01*
X122823150Y-105242154D01*
X122820247Y-105304038D01*
X122783961Y-105304038D01*
X122781011Y-105277898D01*
X122790793Y-105224770D01*
X122816915Y-105169808D01*
X122853482Y-105123108D01*
X122885531Y-105098878D01*
X122928800Y-105083522D01*
X122978992Y-105075347D01*
X122990749Y-105074935D01*
X123064157Y-105086010D01*
G37*
G36*
X113587605Y-105075464D02*
G01*
X113658725Y-105076939D01*
X113716249Y-105079197D01*
X113756296Y-105082074D01*
X113774984Y-105085405D01*
X113775865Y-105086328D01*
X113773183Y-105100917D01*
X113765463Y-105138851D01*
X113753196Y-105197811D01*
X113736872Y-105275477D01*
X113716981Y-105369529D01*
X113694013Y-105477647D01*
X113668459Y-105597513D01*
X113640809Y-105726807D01*
X113618413Y-105831263D01*
X113589489Y-105966177D01*
X113562281Y-106093402D01*
X113537279Y-106210626D01*
X113514972Y-106315535D01*
X113495852Y-106405817D01*
X113480408Y-106479157D01*
X113469131Y-106533243D01*
X113462510Y-106565762D01*
X113460893Y-106574651D01*
X113448386Y-106577575D01*
X113413462Y-106580154D01*
X113359958Y-106582250D01*
X113291709Y-106583727D01*
X113212552Y-106584448D01*
X113185168Y-106584496D01*
X113089015Y-106584147D01*
X113016469Y-106582993D01*
X112964891Y-106580875D01*
X112931641Y-106577635D01*
X112914080Y-106573112D01*
X112909509Y-106567863D01*
X112912304Y-106552316D01*
X112920348Y-106513490D01*
X112933130Y-106453720D01*
X112950140Y-106375342D01*
X112970867Y-106280689D01*
X112994800Y-106172097D01*
X113021427Y-106051901D01*
X113050239Y-105922435D01*
X113073591Y-105817899D01*
X113103687Y-105683313D01*
X113131999Y-105556545D01*
X113158018Y-105439883D01*
X113181237Y-105335612D01*
X113201148Y-105246019D01*
X113217242Y-105173391D01*
X113229011Y-105120013D01*
X113235946Y-105088172D01*
X113237674Y-105079752D01*
X113250154Y-105078305D01*
X113285005Y-105077032D01*
X113338346Y-105076003D01*
X113406297Y-105075286D01*
X113484974Y-105074951D01*
X113506770Y-105074935D01*
X113587605Y-105075464D01*
G37*
G36*
X114729650Y-105041335D02*
G01*
X114853730Y-105062945D01*
X114961637Y-105104815D01*
X115053049Y-105166796D01*
X115127647Y-105248737D01*
X115165115Y-105309127D01*
X115195325Y-105376615D01*
X115220800Y-105453538D01*
X115238609Y-105529458D01*
X115245822Y-105593937D01*
X115245852Y-105596718D01*
X115246046Y-105639380D01*
X115004895Y-105639380D01*
X114763744Y-105639380D01*
X114754691Y-105571140D01*
X114737335Y-105497540D01*
X114708020Y-105445097D01*
X114672251Y-105417346D01*
X114612403Y-105403615D01*
X114550336Y-105414500D01*
X114487930Y-105448685D01*
X114427067Y-105504856D01*
X114369628Y-105581697D01*
X114326472Y-105659070D01*
X114277585Y-105775111D01*
X114246733Y-105885731D01*
X114234298Y-105987873D01*
X114240662Y-106078482D01*
X114264832Y-106151818D01*
X114303039Y-106202741D01*
X114353155Y-106232310D01*
X114411487Y-106240289D01*
X114474345Y-106226441D01*
X114538037Y-106190528D01*
X114561855Y-106170899D01*
X114597332Y-106133797D01*
X114628043Y-106093363D01*
X114636220Y-106079784D01*
X114661319Y-106033178D01*
X114907989Y-106033178D01*
X115154660Y-106033178D01*
X115146874Y-106069277D01*
X115137726Y-106097259D01*
X115119995Y-106140953D01*
X115096894Y-106192614D01*
X115087010Y-106213484D01*
X115017484Y-106328267D01*
X114928004Y-106427254D01*
X114820691Y-106508863D01*
X114697665Y-106571508D01*
X114561047Y-106613606D01*
X114547607Y-106616445D01*
X114480690Y-106626412D01*
X114401300Y-106632695D01*
X114317737Y-106635168D01*
X114238301Y-106633705D01*
X114171291Y-106628182D01*
X114139453Y-106622622D01*
X114028008Y-106583649D01*
X113929883Y-106523705D01*
X113846436Y-106445189D01*
X113779027Y-106350499D01*
X113729014Y-106242036D01*
X113697756Y-106122199D01*
X113686613Y-105993387D01*
X113696945Y-105857999D01*
X113699042Y-105845179D01*
X113737253Y-105687542D01*
X113795792Y-105545630D01*
X113875822Y-105417226D01*
X113978506Y-105300115D01*
X113991445Y-105287627D01*
X114107342Y-105193930D01*
X114234664Y-105122721D01*
X114374944Y-105073363D01*
X114529717Y-105045221D01*
X114589715Y-105040135D01*
X114729650Y-105041335D01*
G37*
G36*
X111641126Y-104562979D02*
G01*
X111716684Y-104563263D01*
X111780005Y-104563773D01*
X111827241Y-104564519D01*
X111854542Y-104565513D01*
X111859775Y-104566279D01*
X111860839Y-104583936D01*
X111862701Y-104624265D01*
X111865227Y-104683699D01*
X111868282Y-104758673D01*
X111871731Y-104845621D01*
X111875440Y-104940979D01*
X111879273Y-105041180D01*
X111883095Y-105142659D01*
X111886771Y-105241851D01*
X111890168Y-105335189D01*
X111893149Y-105419109D01*
X111895580Y-105490045D01*
X111897326Y-105544431D01*
X111898252Y-105578702D01*
X111898364Y-105586217D01*
X111900201Y-105630902D01*
X111904830Y-105655683D01*
X111910704Y-105658414D01*
X111918654Y-105644322D01*
X111936666Y-105608938D01*
X111963554Y-105554694D01*
X111998133Y-105484020D01*
X112039220Y-105399347D01*
X112085628Y-105303106D01*
X112136172Y-105197727D01*
X112179136Y-105107752D01*
X112435624Y-104569561D01*
X112836649Y-104566089D01*
X112954273Y-104565285D01*
X113047938Y-104565178D01*
X113119932Y-104565844D01*
X113172543Y-104567358D01*
X113208059Y-104569794D01*
X113228766Y-104573228D01*
X113236953Y-104577734D01*
X113237313Y-104579216D01*
X113234466Y-104594380D01*
X113226335Y-104633172D01*
X113213357Y-104693598D01*
X113195969Y-104773665D01*
X113174607Y-104871379D01*
X113149710Y-104984746D01*
X113121714Y-105111772D01*
X113091056Y-105250464D01*
X113058174Y-105398826D01*
X113023505Y-105554867D01*
X113016383Y-105586873D01*
X112795815Y-106577933D01*
X112511370Y-106581471D01*
X112428150Y-106582062D01*
X112354537Y-106581736D01*
X112294305Y-106580579D01*
X112251228Y-106578679D01*
X112229080Y-106576122D01*
X112226926Y-106574907D01*
X112229651Y-106560276D01*
X112237426Y-106522798D01*
X112249650Y-106465265D01*
X112265723Y-106390469D01*
X112285043Y-106301201D01*
X112307011Y-106200253D01*
X112331025Y-106090417D01*
X112338958Y-106054236D01*
X112363401Y-105942076D01*
X112385798Y-105837818D01*
X112405570Y-105744270D01*
X112422140Y-105664238D01*
X112434928Y-105600529D01*
X112443354Y-105555951D01*
X112446841Y-105533310D01*
X112446825Y-105531172D01*
X112440402Y-105539964D01*
X112423666Y-105570089D01*
X112397779Y-105619266D01*
X112363904Y-105685216D01*
X112323204Y-105765660D01*
X112276841Y-105858318D01*
X112225978Y-105960910D01*
X112181367Y-106051587D01*
X111920075Y-106584496D01*
X111708064Y-106584496D01*
X111496052Y-106584496D01*
X111487380Y-106227945D01*
X111484949Y-106121306D01*
X111482748Y-106012025D01*
X111480880Y-105906251D01*
X111479449Y-105810135D01*
X111478557Y-105729826D01*
X111478309Y-105686472D01*
X111477453Y-105619686D01*
X111475362Y-105567335D01*
X111472277Y-105532959D01*
X111468441Y-105520097D01*
X111467015Y-105521240D01*
X111461574Y-105537909D01*
X111450591Y-105577268D01*
X111434795Y-105636515D01*
X111414912Y-105712845D01*
X111391672Y-105803457D01*
X111365800Y-105905547D01*
X111338025Y-106016311D01*
X111326471Y-106062713D01*
X111196822Y-106584496D01*
X110897139Y-106584496D01*
X110800933Y-106584377D01*
X110727919Y-106583861D01*
X110675035Y-106582705D01*
X110639218Y-106580672D01*
X110617409Y-106577519D01*
X110606545Y-106573007D01*
X110603564Y-106566895D01*
X110604533Y-106561525D01*
X110608304Y-106545770D01*
X110617146Y-106506973D01*
X110630529Y-106447525D01*
X110647926Y-106369816D01*
X110668807Y-106276236D01*
X110692643Y-106169174D01*
X110718906Y-106051022D01*
X110747066Y-105924170D01*
X110776595Y-105791006D01*
X110806963Y-105653922D01*
X110837642Y-105515308D01*
X110868103Y-105377554D01*
X110897816Y-105243049D01*
X110926254Y-105114185D01*
X110952886Y-104993351D01*
X110977185Y-104882937D01*
X110998621Y-104785334D01*
X111016666Y-104702931D01*
X111030789Y-104638119D01*
X111040464Y-104593288D01*
X111045159Y-104570828D01*
X111045529Y-104568676D01*
X111058014Y-104567444D01*
X111092903Y-104566336D01*
X111146348Y-104565362D01*
X111214498Y-104564535D01*
X111293505Y-104563864D01*
X111379520Y-104563362D01*
X111468695Y-104563039D01*
X111557180Y-104562908D01*
X111641126Y-104562979D01*
G37*
G36*
X121908777Y-104590684D02*
G01*
X121930906Y-104593850D01*
X121963605Y-104602057D01*
X121938966Y-104710512D01*
X121926774Y-104764154D01*
X121916188Y-104810683D01*
X121909052Y-104842002D01*
X121907912Y-104846992D01*
X121896701Y-104866698D01*
X121869986Y-104878644D01*
X121843811Y-104883667D01*
X121803297Y-104894096D01*
X121771736Y-104909719D01*
X121765349Y-104915274D01*
X121750666Y-104939980D01*
X121735936Y-104977804D01*
X121723462Y-105020355D01*
X121715547Y-105059242D01*
X121714495Y-105086077D01*
X121716850Y-105091959D01*
X121733863Y-105096550D01*
X121769727Y-105098965D01*
X121817098Y-105098752D01*
X121823334Y-105098523D01*
X121920093Y-105094625D01*
X121954143Y-104950233D01*
X121968829Y-104888241D01*
X121982171Y-104832429D01*
X121992507Y-104789730D01*
X121997473Y-104769742D01*
X122006753Y-104733644D01*
X122260284Y-104733644D01*
X122339170Y-104733973D01*
X122408742Y-104734890D01*
X122464859Y-104736289D01*
X122503382Y-104738064D01*
X122520171Y-104740109D01*
X122520477Y-104740305D01*
X122520325Y-104754900D01*
X122515174Y-104790086D01*
X122505880Y-104840862D01*
X122493298Y-104902226D01*
X122490806Y-104913754D01*
X122477686Y-104976873D01*
X122467683Y-105030688D01*
X122461670Y-105070057D01*
X122460514Y-105089836D01*
X122460853Y-105090865D01*
X122476302Y-105096183D01*
X122510361Y-105099910D01*
X122551782Y-105101189D01*
X122595017Y-105102167D01*
X122625496Y-105104724D01*
X122636330Y-105108097D01*
X122633314Y-105122734D01*
X122625070Y-105157803D01*
X122612805Y-105208282D01*
X122597724Y-105269152D01*
X122595326Y-105278743D01*
X122554321Y-105442481D01*
X122460052Y-105442481D01*
X122365783Y-105442481D01*
X122284227Y-105797312D01*
X122258980Y-105908560D01*
X122239744Y-105996840D01*
X122226078Y-106064630D01*
X122217541Y-106114412D01*
X122213691Y-106148664D01*
X122214089Y-106169866D01*
X122216499Y-106177984D01*
X122227334Y-106191506D01*
X122245977Y-106199358D01*
X122278672Y-106202983D01*
X122328317Y-106203824D01*
X122375250Y-106205322D01*
X122409924Y-106209284D01*
X122425908Y-106214909D01*
X122426305Y-106216006D01*
X122423489Y-106232703D01*
X122415781Y-106269817D01*
X122404289Y-106322205D01*
X122390123Y-106384725D01*
X122386925Y-106398604D01*
X122372377Y-106462110D01*
X122360255Y-106516074D01*
X122351659Y-106555521D01*
X122347689Y-106575476D01*
X122347545Y-106576759D01*
X122335108Y-106579228D01*
X122300558Y-106581372D01*
X122248031Y-106583054D01*
X122181667Y-106584140D01*
X122110844Y-106584496D01*
X122012419Y-106583754D01*
X121936111Y-106581047D01*
X121877814Y-106575655D01*
X121833422Y-106566860D01*
X121798827Y-106553942D01*
X121769925Y-106536180D01*
X121752186Y-106521644D01*
X121722227Y-106483715D01*
X121694956Y-106429882D01*
X121674587Y-106370449D01*
X121665334Y-106315720D01*
X121665165Y-106308837D01*
X121667947Y-106281524D01*
X121675851Y-106232267D01*
X121688174Y-106164723D01*
X121704215Y-106082548D01*
X121723270Y-105989396D01*
X121744638Y-105888924D01*
X121754700Y-105842842D01*
X121844288Y-105435917D01*
X121746454Y-105432055D01*
X121698869Y-105430709D01*
X121662841Y-105430695D01*
X121645162Y-105431994D01*
X121644492Y-105432321D01*
X121640869Y-105445581D01*
X121632147Y-105481882D01*
X121618920Y-105538636D01*
X121601779Y-105613256D01*
X121581316Y-105703152D01*
X121558124Y-105805738D01*
X121532795Y-105918425D01*
X121512202Y-106010473D01*
X121384041Y-106584496D01*
X121110128Y-106584496D01*
X121018682Y-106584362D01*
X120950298Y-106583774D01*
X120901783Y-106582460D01*
X120869947Y-106580143D01*
X120851598Y-106576549D01*
X120843546Y-106571404D01*
X120842597Y-106564431D01*
X120843349Y-106561525D01*
X120847674Y-106544786D01*
X120857217Y-106506108D01*
X120871218Y-106448656D01*
X120888918Y-106375598D01*
X120909559Y-106290097D01*
X120932382Y-106195322D01*
X120956627Y-106094437D01*
X120981537Y-105990608D01*
X121006351Y-105887001D01*
X121030311Y-105786783D01*
X121052659Y-105693118D01*
X121072635Y-105609174D01*
X121089480Y-105538115D01*
X121102436Y-105483109D01*
X121110743Y-105447320D01*
X121113643Y-105433927D01*
X121101548Y-105431811D01*
X121069388Y-105430214D01*
X121023350Y-105429404D01*
X121007746Y-105429354D01*
X120955335Y-105429916D01*
X120924370Y-105432343D01*
X120910053Y-105437750D01*
X120907587Y-105447251D01*
X120908808Y-105452326D01*
X120936810Y-105588861D01*
X120940899Y-105731067D01*
X120921362Y-105874437D01*
X120878488Y-106014467D01*
X120871826Y-106030742D01*
X120798917Y-106171214D01*
X120705909Y-106295362D01*
X120594275Y-106401822D01*
X120465491Y-106489228D01*
X120321030Y-106556218D01*
X120293230Y-106566086D01*
X120245469Y-106581154D01*
X120201728Y-106591635D01*
X120154806Y-106598522D01*
X120097508Y-106602808D01*
X120022634Y-106605486D01*
X120004444Y-106605927D01*
X119905684Y-106606642D01*
X119828801Y-106603519D01*
X119769670Y-106596324D01*
X119745609Y-106591161D01*
X119623350Y-106548059D01*
X119516884Y-106485447D01*
X119427907Y-106404991D01*
X119358119Y-106308358D01*
X119309219Y-106197214D01*
X119296149Y-106150181D01*
X119276443Y-106013071D01*
X119279251Y-105938692D01*
X119855038Y-105938692D01*
X119855810Y-106014122D01*
X119862687Y-106082764D01*
X119875420Y-106137261D01*
X119885157Y-106159101D01*
X119928160Y-106208941D01*
X119982405Y-106237109D01*
X120043114Y-106242728D01*
X120105505Y-106224921D01*
X120137951Y-106205447D01*
X120196303Y-106150129D01*
X120250551Y-106074172D01*
X120298156Y-105983143D01*
X120336575Y-105882611D01*
X120363268Y-105778142D01*
X120375143Y-105685735D01*
X120375559Y-105591930D01*
X120363261Y-105517548D01*
X120337186Y-105458485D01*
X120306493Y-105420302D01*
X120255208Y-105384970D01*
X120198519Y-105374285D01*
X120138765Y-105387812D01*
X120078289Y-105425114D01*
X120031054Y-105471671D01*
X119986489Y-105533892D01*
X119942782Y-105613230D01*
X119904264Y-105700782D01*
X119875269Y-105787643D01*
X119872814Y-105796899D01*
X119860623Y-105863832D01*
X119855038Y-105938692D01*
X119279251Y-105938692D01*
X119281708Y-105873614D01*
X119312117Y-105730635D01*
X119367840Y-105582962D01*
X119384206Y-105548310D01*
X119418427Y-105481578D01*
X119450220Y-105428891D01*
X119485862Y-105381493D01*
X119531624Y-105330626D01*
X119563946Y-105297426D01*
X119619346Y-105243245D01*
X119665805Y-105203190D01*
X119711361Y-105171367D01*
X119764054Y-105141878D01*
X119801157Y-105123473D01*
X119935847Y-105069879D01*
X120072806Y-105036676D01*
X120209102Y-105023332D01*
X120341806Y-105029314D01*
X120467986Y-105054089D01*
X120584713Y-105097124D01*
X120689057Y-105157887D01*
X120778086Y-105235843D01*
X120837417Y-105311929D01*
X120887379Y-105389230D01*
X120926205Y-105241928D01*
X120965032Y-105094625D01*
X121073699Y-105088062D01*
X121182366Y-105081499D01*
X121206680Y-104985551D01*
X121243999Y-104873351D01*
X121294033Y-104778067D01*
X121355039Y-104701991D01*
X121425274Y-104647415D01*
X121483255Y-104621877D01*
X121523164Y-104613222D01*
X121580937Y-104605284D01*
X121650030Y-104598473D01*
X121723903Y-104593197D01*
X121796013Y-104589868D01*
X121859818Y-104588894D01*
X121908777Y-104590684D01*
G37*
G36*
X117223631Y-105029314D02*
G01*
X117355983Y-105052272D01*
X117473133Y-105094965D01*
X117573951Y-105156414D01*
X117657307Y-105235642D01*
X117722068Y-105331673D01*
X117767104Y-105443528D01*
X117791284Y-105570231D01*
X117795295Y-105647609D01*
X117793863Y-105710439D01*
X117789431Y-105771796D01*
X117782860Y-105820897D01*
X117780629Y-105831503D01*
X117765254Y-105895591D01*
X117541938Y-105966795D01*
X117447005Y-105997858D01*
X117376340Y-106022751D01*
X117330175Y-106041371D01*
X117308740Y-106053614D01*
X117312269Y-106059378D01*
X117334985Y-106059111D01*
X117355384Y-106058523D01*
X117398620Y-106058072D01*
X117461277Y-106057767D01*
X117539938Y-106057616D01*
X117631188Y-106057628D01*
X117731610Y-106057811D01*
X117786804Y-106057979D01*
X118207612Y-106059432D01*
X118207612Y-106124523D01*
X118217269Y-106187141D01*
X118246648Y-106233655D01*
X118296369Y-106264533D01*
X118367048Y-106280240D01*
X118416770Y-106282584D01*
X118493798Y-106275419D01*
X118556189Y-106255489D01*
X118601751Y-106225143D01*
X118628291Y-106186728D01*
X118633617Y-106142593D01*
X118615537Y-106095086D01*
X118605301Y-106080630D01*
X118580920Y-106054807D01*
X118549530Y-106032872D01*
X118506631Y-106012785D01*
X118447722Y-105992509D01*
X118368305Y-105970004D01*
X118351036Y-105965442D01*
X118216013Y-105924926D01*
X118105198Y-105879869D01*
X118016731Y-105828859D01*
X117948755Y-105770484D01*
X117899411Y-105703333D01*
X117866841Y-105625996D01*
X117857883Y-105590915D01*
X117851298Y-105510050D01*
X117862110Y-105422014D01*
X117888816Y-105337863D01*
X117893731Y-105327035D01*
X117941558Y-105254956D01*
X118012325Y-105189448D01*
X118103132Y-105132423D01*
X118211083Y-105085793D01*
X118299494Y-105059305D01*
X118377370Y-105044676D01*
X118470889Y-105034629D01*
X118573016Y-105029229D01*
X118676717Y-105028539D01*
X118774956Y-105032626D01*
X118860699Y-105041552D01*
X118920711Y-105053595D01*
X119032729Y-105092975D01*
X119121387Y-105143184D01*
X119187613Y-105205090D01*
X119232338Y-105279561D01*
X119256454Y-105367223D01*
X119260353Y-105416065D01*
X119258836Y-105463053D01*
X119257110Y-105475210D01*
X119248474Y-105521240D01*
X118993100Y-105521240D01*
X118737726Y-105521240D01*
X118737726Y-105468941D01*
X118730619Y-105421992D01*
X118705617Y-105380909D01*
X118699884Y-105374289D01*
X118677086Y-105351386D01*
X118654309Y-105338073D01*
X118622906Y-105331186D01*
X118574229Y-105327557D01*
X118571899Y-105327440D01*
X118517702Y-105326516D01*
X118480071Y-105331340D01*
X118449656Y-105343490D01*
X118438768Y-105349902D01*
X118396334Y-105387221D01*
X118378684Y-105429500D01*
X118386497Y-105474940D01*
X118389337Y-105480828D01*
X118407477Y-105506252D01*
X118435490Y-105527786D01*
X118476999Y-105546934D01*
X118535627Y-105565201D01*
X118614997Y-105584092D01*
X118661331Y-105593784D01*
X118792455Y-105623112D01*
X118899979Y-105653927D01*
X118986558Y-105687980D01*
X119054842Y-105727021D01*
X119107487Y-105772803D01*
X119147143Y-105827075D01*
X119176465Y-105891589D01*
X119192397Y-105944308D01*
X119205857Y-106047632D01*
X119194899Y-106150836D01*
X119161196Y-106250871D01*
X119106421Y-106344690D01*
X119032245Y-106429246D01*
X118940341Y-106501490D01*
X118862955Y-106544732D01*
X118799591Y-106573471D01*
X118742994Y-106595072D01*
X118687582Y-106610518D01*
X118627774Y-106620793D01*
X118557988Y-106626882D01*
X118472643Y-106629768D01*
X118376744Y-106630439D01*
X118267689Y-106629282D01*
X118179235Y-106625154D01*
X118105804Y-106617074D01*
X118041819Y-106604060D01*
X117981703Y-106585130D01*
X117919878Y-106559302D01*
X117888633Y-106544495D01*
X117802698Y-106490153D01*
X117733121Y-106420612D01*
X117682602Y-106339836D01*
X117653843Y-106251787D01*
X117648094Y-106191597D01*
X117647970Y-106144755D01*
X117606887Y-106216951D01*
X117579181Y-106257988D01*
X117538648Y-106308667D01*
X117491904Y-106360985D01*
X117465899Y-106387600D01*
X117360192Y-106478522D01*
X117249115Y-106546718D01*
X117128668Y-106593846D01*
X116994852Y-106621570D01*
X116880310Y-106630734D01*
X116812961Y-106631696D01*
X116747550Y-106630271D01*
X116693233Y-106626768D01*
X116668199Y-106623522D01*
X116542558Y-106589093D01*
X116433004Y-106535145D01*
X116340345Y-106463509D01*
X116265384Y-106376014D01*
X116208929Y-106274487D01*
X116171784Y-106160759D01*
X116154756Y-106036658D01*
X116155902Y-105997620D01*
X116720055Y-105997620D01*
X116728084Y-106065449D01*
X116750069Y-106129421D01*
X116783146Y-106183667D01*
X116822677Y-106221344D01*
X116839859Y-106230486D01*
X116893585Y-106241477D01*
X116951928Y-106237359D01*
X116989937Y-106224522D01*
X117049716Y-106180865D01*
X117106307Y-106115901D01*
X117157530Y-106034561D01*
X117201206Y-105941771D01*
X117235157Y-105842461D01*
X117257203Y-105741558D01*
X117265165Y-105643990D01*
X117263783Y-105605169D01*
X117257270Y-105551674D01*
X117247150Y-105503195D01*
X117236119Y-105471422D01*
X117195867Y-105416695D01*
X117145424Y-105385070D01*
X117087579Y-105376830D01*
X117025124Y-105392259D01*
X116960850Y-105431640D01*
X116948297Y-105442175D01*
X116885183Y-105510932D01*
X116829246Y-105597289D01*
X116782626Y-105695191D01*
X116747461Y-105798583D01*
X116725891Y-105901411D01*
X116720055Y-105997620D01*
X116155902Y-105997620D01*
X116158651Y-105904014D01*
X116184273Y-105764655D01*
X116229501Y-105627641D01*
X116257906Y-105556832D01*
X116194857Y-105564299D01*
X116108111Y-105582794D01*
X116023080Y-105615482D01*
X115950215Y-105658056D01*
X115931422Y-105672852D01*
X115899474Y-105703252D01*
X115871837Y-105737462D01*
X115847393Y-105778523D01*
X115825029Y-105829477D01*
X115803628Y-105893364D01*
X115782075Y-105973225D01*
X115759254Y-106072101D01*
X115734052Y-106193033D01*
X115726185Y-106232425D01*
X115657690Y-106577933D01*
X115379672Y-106581476D01*
X115283540Y-106582374D01*
X115210942Y-106582213D01*
X115159179Y-106580863D01*
X115125549Y-106578198D01*
X115107351Y-106574089D01*
X115101882Y-106568410D01*
X115101883Y-106568349D01*
X115104855Y-106551751D01*
X115113214Y-106512706D01*
X115126305Y-106453999D01*
X115143471Y-106378417D01*
X115164058Y-106288745D01*
X115187412Y-106187770D01*
X115212876Y-106078277D01*
X115239795Y-105963053D01*
X115267516Y-105844883D01*
X115295381Y-105726554D01*
X115322737Y-105610853D01*
X115348928Y-105500563D01*
X115373299Y-105398473D01*
X115395194Y-105307368D01*
X115413960Y-105230034D01*
X115428940Y-105169256D01*
X115439480Y-105127822D01*
X115444923Y-105108517D01*
X115445397Y-105107488D01*
X115459520Y-105105156D01*
X115494928Y-105102028D01*
X115546726Y-105098362D01*
X115610017Y-105094416D01*
X115679905Y-105090449D01*
X115751493Y-105086719D01*
X115819884Y-105083485D01*
X115880183Y-105081006D01*
X115927493Y-105079539D01*
X115956917Y-105079343D01*
X115964245Y-105080097D01*
X115962690Y-105093074D01*
X115955762Y-105123880D01*
X115947992Y-105154306D01*
X115935332Y-105203721D01*
X115931092Y-105230224D01*
X115936652Y-105236194D01*
X115953394Y-105224011D01*
X115975997Y-105202568D01*
X116055139Y-105143271D01*
X116155492Y-105098029D01*
X116275783Y-105067340D01*
X116345400Y-105057344D01*
X116379222Y-105055379D01*
X116398763Y-105057683D01*
X116400720Y-105059776D01*
X116397733Y-105074953D01*
X116389823Y-105110988D01*
X116378047Y-105163175D01*
X116363459Y-105226810D01*
X116356077Y-105258708D01*
X116340818Y-105325473D01*
X116328248Y-105382439D01*
X116319331Y-105425076D01*
X116315030Y-105448853D01*
X116314885Y-105452233D01*
X116323810Y-105444252D01*
X116344993Y-105420218D01*
X116374456Y-105384706D01*
X116385863Y-105370569D01*
X116484400Y-105267131D01*
X116601130Y-105177624D01*
X116729946Y-105106042D01*
X116864741Y-105056380D01*
X116867183Y-105055712D01*
X116916458Y-105045350D01*
X116980964Y-105035919D01*
X117049682Y-105028922D01*
X117077209Y-105027068D01*
X117223631Y-105029314D01*
G37*
D14*
%TO.C,R2*%
X177192664Y-80471704D02*
X177192664Y-80981152D01*
X178237664Y-80471704D02*
X178237664Y-80981152D01*
%TD*%
%LPC*%
D16*
%TO.C,EJECT*%
X147510830Y-94700000D03*
X141010830Y-94700000D03*
X147510830Y-90200000D03*
X141010830Y-90200000D03*
%TD*%
D17*
%TO.C,R1*%
X174412274Y-79815286D03*
X174412274Y-81640286D03*
%TD*%
D18*
%TO.C,D1*%
X112308830Y-90279000D03*
D19*
X112308830Y-92819000D03*
X112308830Y-95359000D03*
%TD*%
D20*
%TO.C,J2*%
X182110830Y-80100000D03*
D21*
X184110830Y-80100000D03*
X186110830Y-80100000D03*
%TD*%
D22*
%TO.C,HDD_LED1*%
X163353210Y-81867170D03*
X163353210Y-83442170D03*
%TD*%
D23*
%TO.C,J1*%
X184317830Y-100693000D03*
D24*
X184317830Y-98693000D03*
X184317830Y-96693000D03*
X184317830Y-94693000D03*
X184317830Y-92693000D03*
X184317830Y-90693000D03*
X184317830Y-88693000D03*
X184317830Y-86693000D03*
X184317830Y-84693000D03*
%TD*%
D16*
%TO.C,POWER*%
X140910830Y-110750000D03*
X147410830Y-110750000D03*
X140910830Y-115250000D03*
X147410830Y-115250000D03*
%TD*%
D22*
%TO.C,LAN_LED1*%
X125766810Y-81862500D03*
X125766810Y-83437500D03*
%TD*%
D18*
%TO.C,D2*%
X176250000Y-95330000D03*
D19*
X176250000Y-92790000D03*
X176250000Y-90250000D03*
%TD*%
D17*
%TO.C,R2*%
X177715164Y-79813928D03*
X177715164Y-81638928D03*
%TD*%
%LPD*%
M02*
