%TF.GenerationSoftware,KiCad,Pcbnew,8.0.3*%
%TF.CreationDate,2024-07-06T14:58:55+01:00*%
%TF.ProjectId,XBox button board,58426f78-2062-4757-9474-6f6e20626f61,rev?*%
%TF.SameCoordinates,Original*%
%TF.FileFunction,Copper,L1,Top*%
%TF.FilePolarity,Positive*%
%FSLAX46Y46*%
G04 Gerber Fmt 4.6, Leading zero omitted, Abs format (unit mm)*
G04 Created by KiCad (PCBNEW 8.0.3) date 2024-07-06 14:58:55*
%MOMM*%
%LPD*%
G01*
G04 APERTURE LIST*
G04 Aperture macros list*
%AMRoundRect*
0 Rectangle with rounded corners*
0 $1 Rounding radius*
0 $2 $3 $4 $5 $6 $7 $8 $9 X,Y pos of 4 corners*
0 Add a 4 corners polygon primitive as box body*
4,1,4,$2,$3,$4,$5,$6,$7,$8,$9,$2,$3,0*
0 Add four circle primitives for the rounded corners*
1,1,$1+$1,$2,$3*
1,1,$1+$1,$4,$5*
1,1,$1+$1,$6,$7*
1,1,$1+$1,$8,$9*
0 Add four rect primitives between the rounded corners*
20,1,$1+$1,$2,$3,$4,$5,0*
20,1,$1+$1,$4,$5,$6,$7,0*
20,1,$1+$1,$6,$7,$8,$9,0*
20,1,$1+$1,$8,$9,$2,$3,0*%
G04 Aperture macros list end*
%TA.AperFunction,ComponentPad*%
%ADD10C,2.000000*%
%TD*%
%TA.AperFunction,SMDPad,CuDef*%
%ADD11RoundRect,0.237500X-0.237500X0.250000X-0.237500X-0.250000X0.237500X-0.250000X0.237500X0.250000X0*%
%TD*%
%TA.AperFunction,ComponentPad*%
%ADD12R,1.800000X1.800000*%
%TD*%
%TA.AperFunction,ComponentPad*%
%ADD13C,1.800000*%
%TD*%
%TA.AperFunction,ComponentPad*%
%ADD14R,1.350000X1.350000*%
%TD*%
%TA.AperFunction,ComponentPad*%
%ADD15O,1.350000X1.350000*%
%TD*%
%TA.AperFunction,SMDPad,CuDef*%
%ADD16RoundRect,0.218750X-0.256250X0.218750X-0.256250X-0.218750X0.256250X-0.218750X0.256250X0.218750X0*%
%TD*%
%TA.AperFunction,ComponentPad*%
%ADD17R,2.000000X1.400000*%
%TD*%
%TA.AperFunction,ComponentPad*%
%ADD18O,2.000000X1.400000*%
%TD*%
%TA.AperFunction,Conductor*%
%ADD19C,0.200000*%
%TD*%
%TA.AperFunction,Conductor*%
%ADD20C,0.250000*%
%TD*%
G04 APERTURE END LIST*
D10*
%TO.P,EJECT,1,1*%
%TO.N,GND*%
X147510830Y-94700000D03*
X141010830Y-94700000D03*
%TO.P,EJECT,2,2*%
%TO.N,Net-(J1-Pin_4)*%
X147510830Y-90200000D03*
X141010830Y-90200000D03*
%TD*%
D11*
%TO.P,R1,1*%
%TO.N,Net-(J2-Pin_1)*%
X174412274Y-79815286D03*
%TO.P,R1,2*%
%TO.N,Net-(HDD_LED1-A)*%
X174412274Y-81640286D03*
%TD*%
D12*
%TO.P,D1,1,A1*%
%TO.N,Net-(D1-A1)*%
X112308830Y-90279000D03*
D13*
%TO.P,D1,2,K*%
%TO.N,GND*%
X112308830Y-92819000D03*
%TO.P,D1,3,A2*%
%TO.N,Net-(D1-A2)*%
X112308830Y-95359000D03*
%TD*%
D14*
%TO.P,J2,1,Pin_1*%
%TO.N,Net-(J2-Pin_1)*%
X182110830Y-80100000D03*
D15*
%TO.P,J2,2,Pin_2*%
%TO.N,Net-(HDD_LED1-C)*%
X184110830Y-80100000D03*
%TO.P,J2,3,Pin_3*%
%TO.N,Net-(J2-Pin_3)*%
X186110830Y-80100000D03*
%TD*%
D16*
%TO.P,HDD_LED1,1,C*%
%TO.N,Net-(HDD_LED1-C)*%
X163353210Y-81867170D03*
%TO.P,HDD_LED1,2,A*%
%TO.N,Net-(HDD_LED1-A)*%
X163353210Y-83442170D03*
%TD*%
D17*
%TO.P,J1,1,Pin_1*%
%TO.N,GND*%
X184317830Y-100693000D03*
D18*
%TO.P,J1,2,Pin_2*%
%TO.N,Net-(J1-Pin_2)*%
X184317830Y-98693000D03*
%TO.P,J1,3,Pin_3*%
%TO.N,GND*%
X184317830Y-96693000D03*
%TO.P,J1,4,Pin_4*%
%TO.N,Net-(J1-Pin_4)*%
X184317830Y-94693000D03*
%TO.P,J1,5,Pin_5*%
%TO.N,Net-(D1-A1)*%
X184317830Y-92693000D03*
%TO.P,J1,6,Pin_6*%
%TO.N,Net-(D1-A2)*%
X184317830Y-90693000D03*
%TO.P,J1,7,Pin_7*%
%TO.N,Net-(D2-A2)*%
X184317830Y-88693000D03*
%TO.P,J1,8,Pin_8*%
%TO.N,Net-(D2-A1)*%
X184317830Y-86693000D03*
%TO.P,J1,9,Pin_9*%
%TO.N,unconnected-(J1-Pin_9-Pad9)*%
X184317830Y-84693000D03*
%TD*%
D10*
%TO.P,POWER,1,1*%
%TO.N,GND*%
X140910830Y-110750000D03*
X147410830Y-110750000D03*
%TO.P,POWER,2,2*%
%TO.N,Net-(J1-Pin_2)*%
X140910830Y-115250000D03*
X147410830Y-115250000D03*
%TD*%
D16*
%TO.P,LAN_LED1,1,C*%
%TO.N,Net-(J2-Pin_3)*%
X125766810Y-81862500D03*
%TO.P,LAN_LED1,2,A*%
%TO.N,Net-(LAN_LED1-A)*%
X125766810Y-83437500D03*
%TD*%
D12*
%TO.P,D2,1,A1*%
%TO.N,Net-(D2-A1)*%
X176250000Y-95330000D03*
D13*
%TO.P,D2,2,K*%
%TO.N,GND*%
X176250000Y-92790000D03*
%TO.P,D2,3,A2*%
%TO.N,Net-(D2-A2)*%
X176250000Y-90250000D03*
%TD*%
D11*
%TO.P,R2,1*%
%TO.N,Net-(J2-Pin_1)*%
X177715164Y-79813928D03*
%TO.P,R2,2*%
%TO.N,Net-(LAN_LED1-A)*%
X177715164Y-81638928D03*
%TD*%
D19*
%TO.N,Net-(J2-Pin_1)*%
X182110830Y-80100000D02*
X178001236Y-80100000D01*
X178001236Y-80100000D02*
X177715164Y-79813928D01*
D20*
X177715164Y-79813928D02*
X174413632Y-79813928D01*
X174413632Y-79813928D02*
X174412274Y-79815286D01*
D19*
%TO.N,Net-(HDD_LED1-C)*%
X184110830Y-79145406D02*
X183615424Y-78650000D01*
X164328210Y-82842170D02*
X163353210Y-81867170D01*
X164328210Y-83300000D02*
X164328210Y-82842170D01*
X170206571Y-86176709D02*
X167204919Y-86176709D01*
X183615424Y-78650000D02*
X173994830Y-78650000D01*
X172327830Y-80317000D02*
X173994830Y-78650000D01*
X172327830Y-84055450D02*
X170206571Y-86176709D01*
X172327830Y-80317000D02*
X172327830Y-84055450D01*
X184110830Y-80100000D02*
X184110830Y-79145406D01*
X167204919Y-86176709D02*
X164328210Y-83300000D01*
%TO.N,Net-(HDD_LED1-A)*%
X174412274Y-81640286D02*
X174412274Y-82997084D01*
X170582565Y-86826793D02*
X166687833Y-86826793D01*
X166687833Y-86776793D02*
X163353210Y-83442170D01*
X166687833Y-86826793D02*
X166687833Y-86776793D01*
X174412274Y-82997084D02*
X170582565Y-86826793D01*
D20*
%TO.N,Net-(LAN_LED1-A)*%
X176795853Y-81638928D02*
X171147805Y-87286975D01*
X177715164Y-81638928D02*
X176795853Y-81638928D01*
X129425123Y-87451793D02*
X129423330Y-87450000D01*
X127910830Y-87450000D02*
X125766810Y-85305980D01*
X125766810Y-85305980D02*
X125766810Y-83437500D01*
X171066856Y-87367925D02*
X170982988Y-87451793D01*
X129423330Y-87450000D02*
X127910830Y-87450000D01*
X170982988Y-87451793D02*
X129425123Y-87451793D01*
X171147805Y-87286975D02*
X171066856Y-87367925D01*
D19*
%TO.N,Net-(J2-Pin_3)*%
X183060830Y-83150000D02*
X176168665Y-83150000D01*
X176168665Y-83150000D02*
X171241872Y-88076793D01*
X124760830Y-82868480D02*
X125766810Y-81862500D01*
X186110830Y-80100000D02*
X183060830Y-83150000D01*
X171241872Y-88076793D02*
X127653739Y-88076793D01*
X124760830Y-85183884D02*
X124760830Y-82868480D01*
X127653739Y-88076793D02*
X124760830Y-85183884D01*
%TD*%
M02*
