%TF.GenerationSoftware,KiCad,Pcbnew,8.0.3*%
%TF.CreationDate,2024-07-06T19:28:05+01:00*%
%TF.ProjectId,XBox button board_no_LAN-HDD_all tracks front,58426f78-2062-4757-9474-6f6e20626f61,rev?*%
%TF.SameCoordinates,Original*%
%TF.FileFunction,Legend,Top*%
%TF.FilePolarity,Positive*%
%FSLAX46Y46*%
G04 Gerber Fmt 4.6, Leading zero omitted, Abs format (unit mm)*
G04 Created by KiCad (PCBNEW 8.0.3) date 2024-07-06 19:28:05*
%MOMM*%
%LPD*%
G01*
G04 APERTURE LIST*
%ADD10C,0.254000*%
%ADD11C,0.150000*%
%ADD12C,0.120000*%
%ADD13C,0.000000*%
%ADD14C,2.000000*%
%ADD15R,1.800000X1.800000*%
%ADD16C,1.800000*%
%ADD17R,2.000000X1.400000*%
%ADD18O,2.000000X1.400000*%
G04 APERTURE END LIST*
D10*
X142738030Y-90466960D02*
G75*
G02*
X141722030Y-90466960I-508000J0D01*
G01*
X141722030Y-90466960D02*
G75*
G02*
X142738030Y-90466960I508000J0D01*
G01*
X141087030Y-109913200D02*
X147284630Y-109913200D01*
X145582830Y-113012000D02*
G75*
G02*
X142788830Y-113012000I-1397000J0D01*
G01*
X142788830Y-113012000D02*
G75*
G02*
X145582830Y-113012000I1397000J0D01*
G01*
X141157020Y-95613223D02*
X147357160Y-95613223D01*
X146802030Y-90466960D02*
G75*
G02*
X145786030Y-90466960I-508000J0D01*
G01*
X145786030Y-90466960D02*
G75*
G02*
X146802030Y-90466960I508000J0D01*
G01*
X147287170Y-116113340D02*
X147287170Y-109913200D01*
X142661830Y-115044000D02*
G75*
G02*
X141645830Y-115044000I-508000J0D01*
G01*
X141645830Y-115044000D02*
G75*
G02*
X142661830Y-115044000I508000J0D01*
G01*
X141160690Y-89400160D02*
X147360830Y-89400160D01*
X141160690Y-89400160D02*
X141160690Y-95600300D01*
X142738030Y-94530960D02*
G75*
G02*
X141722030Y-94530960I-508000J0D01*
G01*
X141722030Y-94530960D02*
G75*
G02*
X142738030Y-94530960I508000J0D01*
G01*
X145659030Y-92498960D02*
G75*
G02*
X142865030Y-92498960I-1397000J0D01*
G01*
X142865030Y-92498960D02*
G75*
G02*
X145659030Y-92498960I1397000J0D01*
G01*
X146725830Y-110980000D02*
G75*
G02*
X145709830Y-110980000I-508000J0D01*
G01*
X145709830Y-110980000D02*
G75*
G02*
X146725830Y-110980000I508000J0D01*
G01*
X141087030Y-109913200D02*
X141087030Y-116110800D01*
X142661830Y-110980000D02*
G75*
G02*
X141645830Y-110980000I-508000J0D01*
G01*
X141645830Y-110980000D02*
G75*
G02*
X142661830Y-110980000I508000J0D01*
G01*
X147284630Y-116110800D02*
X141087030Y-116110800D01*
X146725830Y-115044000D02*
G75*
G02*
X145709830Y-115044000I-508000J0D01*
G01*
X145709830Y-115044000D02*
G75*
G02*
X146725830Y-115044000I508000J0D01*
G01*
X146802030Y-94530960D02*
G75*
G02*
X145786030Y-94530960I-508000J0D01*
G01*
X145786030Y-94530960D02*
G75*
G02*
X146802030Y-94530960I508000J0D01*
G01*
X147363370Y-95600300D02*
X147363370Y-89400160D01*
D11*
X142332258Y-96631009D02*
X142665591Y-96631009D01*
X142808448Y-97154819D02*
X142332258Y-97154819D01*
X142332258Y-97154819D02*
X142332258Y-96154819D01*
X142332258Y-96154819D02*
X142808448Y-96154819D01*
X143522734Y-96154819D02*
X143522734Y-96869104D01*
X143522734Y-96869104D02*
X143475115Y-97011961D01*
X143475115Y-97011961D02*
X143379877Y-97107200D01*
X143379877Y-97107200D02*
X143237020Y-97154819D01*
X143237020Y-97154819D02*
X143141782Y-97154819D01*
X143998925Y-96631009D02*
X144332258Y-96631009D01*
X144475115Y-97154819D02*
X143998925Y-97154819D01*
X143998925Y-97154819D02*
X143998925Y-96154819D01*
X143998925Y-96154819D02*
X144475115Y-96154819D01*
X145475115Y-97059580D02*
X145427496Y-97107200D01*
X145427496Y-97107200D02*
X145284639Y-97154819D01*
X145284639Y-97154819D02*
X145189401Y-97154819D01*
X145189401Y-97154819D02*
X145046544Y-97107200D01*
X145046544Y-97107200D02*
X144951306Y-97011961D01*
X144951306Y-97011961D02*
X144903687Y-96916723D01*
X144903687Y-96916723D02*
X144856068Y-96726247D01*
X144856068Y-96726247D02*
X144856068Y-96583390D01*
X144856068Y-96583390D02*
X144903687Y-96392914D01*
X144903687Y-96392914D02*
X144951306Y-96297676D01*
X144951306Y-96297676D02*
X145046544Y-96202438D01*
X145046544Y-96202438D02*
X145189401Y-96154819D01*
X145189401Y-96154819D02*
X145284639Y-96154819D01*
X145284639Y-96154819D02*
X145427496Y-96202438D01*
X145427496Y-96202438D02*
X145475115Y-96250057D01*
X145760830Y-96154819D02*
X146332258Y-96154819D01*
X146046544Y-97154819D02*
X146046544Y-96154819D01*
X183984496Y-102207819D02*
X183984496Y-102922104D01*
X183984496Y-102922104D02*
X183936877Y-103064961D01*
X183936877Y-103064961D02*
X183841639Y-103160200D01*
X183841639Y-103160200D02*
X183698782Y-103207819D01*
X183698782Y-103207819D02*
X183603544Y-103207819D01*
X184984496Y-103207819D02*
X184413068Y-103207819D01*
X184698782Y-103207819D02*
X184698782Y-102207819D01*
X184698782Y-102207819D02*
X184603544Y-102350676D01*
X184603544Y-102350676D02*
X184508306Y-102445914D01*
X184508306Y-102445914D02*
X184413068Y-102493533D01*
X141851306Y-109204819D02*
X141851306Y-108204819D01*
X141851306Y-108204819D02*
X142232258Y-108204819D01*
X142232258Y-108204819D02*
X142327496Y-108252438D01*
X142327496Y-108252438D02*
X142375115Y-108300057D01*
X142375115Y-108300057D02*
X142422734Y-108395295D01*
X142422734Y-108395295D02*
X142422734Y-108538152D01*
X142422734Y-108538152D02*
X142375115Y-108633390D01*
X142375115Y-108633390D02*
X142327496Y-108681009D01*
X142327496Y-108681009D02*
X142232258Y-108728628D01*
X142232258Y-108728628D02*
X141851306Y-108728628D01*
X143041782Y-108204819D02*
X143232258Y-108204819D01*
X143232258Y-108204819D02*
X143327496Y-108252438D01*
X143327496Y-108252438D02*
X143422734Y-108347676D01*
X143422734Y-108347676D02*
X143470353Y-108538152D01*
X143470353Y-108538152D02*
X143470353Y-108871485D01*
X143470353Y-108871485D02*
X143422734Y-109061961D01*
X143422734Y-109061961D02*
X143327496Y-109157200D01*
X143327496Y-109157200D02*
X143232258Y-109204819D01*
X143232258Y-109204819D02*
X143041782Y-109204819D01*
X143041782Y-109204819D02*
X142946544Y-109157200D01*
X142946544Y-109157200D02*
X142851306Y-109061961D01*
X142851306Y-109061961D02*
X142803687Y-108871485D01*
X142803687Y-108871485D02*
X142803687Y-108538152D01*
X142803687Y-108538152D02*
X142851306Y-108347676D01*
X142851306Y-108347676D02*
X142946544Y-108252438D01*
X142946544Y-108252438D02*
X143041782Y-108204819D01*
X143803687Y-108204819D02*
X144041782Y-109204819D01*
X144041782Y-109204819D02*
X144232258Y-108490533D01*
X144232258Y-108490533D02*
X144422734Y-109204819D01*
X144422734Y-109204819D02*
X144660830Y-108204819D01*
X145041782Y-108681009D02*
X145375115Y-108681009D01*
X145517972Y-109204819D02*
X145041782Y-109204819D01*
X145041782Y-109204819D02*
X145041782Y-108204819D01*
X145041782Y-108204819D02*
X145517972Y-108204819D01*
X146517972Y-109204819D02*
X146184639Y-108728628D01*
X145946544Y-109204819D02*
X145946544Y-108204819D01*
X145946544Y-108204819D02*
X146327496Y-108204819D01*
X146327496Y-108204819D02*
X146422734Y-108252438D01*
X146422734Y-108252438D02*
X146470353Y-108300057D01*
X146470353Y-108300057D02*
X146517972Y-108395295D01*
X146517972Y-108395295D02*
X146517972Y-108538152D01*
X146517972Y-108538152D02*
X146470353Y-108633390D01*
X146470353Y-108633390D02*
X146422734Y-108681009D01*
X146422734Y-108681009D02*
X146327496Y-108728628D01*
X146327496Y-108728628D02*
X145946544Y-108728628D01*
D12*
%TO.C,EJECT*%
X140760830Y-91700000D02*
X140760830Y-93200000D01*
X142010830Y-95700000D02*
X146510830Y-95700000D01*
X146510830Y-89200000D02*
X142010830Y-89200000D01*
X147760830Y-93200000D02*
X147760830Y-91700000D01*
%TO.C,D1*%
X111228830Y-91259000D02*
X111072830Y-91259000D01*
X113544830Y-91259000D02*
X113388830Y-91259000D01*
X111228993Y-93860130D02*
G75*
G02*
X111228830Y-91778039I1079837J1041130D01*
G01*
X111230222Y-94491335D02*
G75*
G02*
X111073314Y-91259000I1078608J1672335D01*
G01*
X113388830Y-91778039D02*
G75*
G02*
X113388667Y-93860130I-1080000J-1040961D01*
G01*
X113544346Y-91259000D02*
G75*
G02*
X113387438Y-94491335I-1235516J-1560000D01*
G01*
D13*
%TO.C,G\u002A\u002A\u002A*%
G36*
X118988336Y-113951910D02*
G01*
X119034507Y-113954282D01*
X119064988Y-113959762D01*
X119086430Y-113969597D01*
X119105483Y-113985036D01*
X119107095Y-113986543D01*
X119144492Y-114021690D01*
X119144492Y-114402167D01*
X119144159Y-114505322D01*
X119143223Y-114599652D01*
X119141773Y-114681049D01*
X119139902Y-114745407D01*
X119137702Y-114788619D01*
X119135486Y-114806112D01*
X119110352Y-114837255D01*
X119061865Y-114858172D01*
X118988486Y-114869324D01*
X118916873Y-114871560D01*
X118855575Y-114869608D01*
X118802799Y-114864788D01*
X118767218Y-114858003D01*
X118760303Y-114855260D01*
X118741294Y-114844045D01*
X118726390Y-114831340D01*
X118715090Y-114813725D01*
X118706896Y-114787779D01*
X118701310Y-114750081D01*
X118697832Y-114697212D01*
X118695964Y-114625751D01*
X118695207Y-114532277D01*
X118695063Y-114413371D01*
X118695063Y-114407830D01*
X118695063Y-114021690D01*
X118732510Y-113986543D01*
X118751683Y-113970604D01*
X118772712Y-113960368D01*
X118802249Y-113954587D01*
X118846946Y-113952013D01*
X118913454Y-113951398D01*
X118919827Y-113951396D01*
X118988336Y-113951910D01*
G37*
G36*
X119568866Y-113948970D02*
G01*
X119633366Y-113962312D01*
X119680304Y-113982483D01*
X119703975Y-114007600D01*
X119710293Y-114026722D01*
X119715000Y-114049474D01*
X119718355Y-114080295D01*
X119720617Y-114123628D01*
X119722044Y-114183912D01*
X119722894Y-114265589D01*
X119723292Y-114339210D01*
X119724401Y-114596544D01*
X119992609Y-114596544D01*
X120260816Y-114596544D01*
X120261030Y-114324712D01*
X120261968Y-114211593D01*
X120264659Y-114125515D01*
X120269216Y-114064571D01*
X120275755Y-114026852D01*
X120279530Y-114016636D01*
X120313836Y-113980621D01*
X120374174Y-113957056D01*
X120460623Y-113945915D01*
X120494241Y-113944965D01*
X120585845Y-113950206D01*
X120651922Y-113967629D01*
X120692067Y-113997112D01*
X120697920Y-114006197D01*
X120703599Y-114030927D01*
X120708720Y-114079617D01*
X120713192Y-114147234D01*
X120716920Y-114228747D01*
X120719810Y-114319123D01*
X120721771Y-114413331D01*
X120722708Y-114506338D01*
X120722528Y-114593113D01*
X120721137Y-114668623D01*
X120718443Y-114727836D01*
X120714352Y-114765720D01*
X120712165Y-114774135D01*
X120689088Y-114808631D01*
X120653518Y-114840052D01*
X120648992Y-114842945D01*
X120636261Y-114850032D01*
X120621659Y-114855858D01*
X120602394Y-114860548D01*
X120575675Y-114864223D01*
X120538711Y-114867007D01*
X120488712Y-114869023D01*
X120422886Y-114870394D01*
X120338442Y-114871243D01*
X120232591Y-114871694D01*
X120102540Y-114871868D01*
X119992609Y-114871893D01*
X119843449Y-114871840D01*
X119720494Y-114871600D01*
X119620953Y-114871050D01*
X119542034Y-114870066D01*
X119480947Y-114868526D01*
X119434900Y-114866306D01*
X119401103Y-114863284D01*
X119376766Y-114859335D01*
X119359096Y-114854338D01*
X119345303Y-114848169D01*
X119336225Y-114842945D01*
X119300678Y-114813836D01*
X119276311Y-114780785D01*
X119274610Y-114776815D01*
X119269632Y-114748663D01*
X119265746Y-114696797D01*
X119262934Y-114626481D01*
X119261181Y-114542974D01*
X119260470Y-114451540D01*
X119260784Y-114357439D01*
X119262108Y-114265933D01*
X119264425Y-114182284D01*
X119267718Y-114111752D01*
X119271971Y-114059601D01*
X119276933Y-114031737D01*
X119302224Y-113990906D01*
X119346568Y-113963469D01*
X119412777Y-113948284D01*
X119492437Y-113944147D01*
X119568866Y-113948970D01*
G37*
G36*
X114936530Y-113947452D02*
G01*
X115208362Y-113951396D01*
X115212784Y-114037242D01*
X115212363Y-114125414D01*
X115204052Y-114225311D01*
X115189378Y-114324970D01*
X115169870Y-114412431D01*
X115161200Y-114440895D01*
X115113478Y-114550673D01*
X115045670Y-114662277D01*
X114964032Y-114765413D01*
X114964013Y-114765434D01*
X114893636Y-114843132D01*
X114972847Y-114922343D01*
X115021871Y-114978364D01*
X115070710Y-115045431D01*
X115104588Y-115101519D01*
X115146740Y-115192765D01*
X115175382Y-115283639D01*
X115192081Y-115382036D01*
X115198402Y-115495853D01*
X115197931Y-115572056D01*
X115193864Y-115749113D01*
X114929281Y-115753064D01*
X114664698Y-115757016D01*
X114664698Y-115590679D01*
X114660104Y-115454215D01*
X114645853Y-115342626D01*
X114621239Y-115253207D01*
X114585557Y-115183256D01*
X114546502Y-115137550D01*
X114483545Y-115095354D01*
X114417746Y-115080130D01*
X114352741Y-115090589D01*
X114292163Y-115125438D01*
X114239648Y-115183388D01*
X114199757Y-115260690D01*
X114185849Y-115303249D01*
X114175753Y-115350781D01*
X114168583Y-115409872D01*
X114163449Y-115487108D01*
X114160799Y-115549769D01*
X114153280Y-115756362D01*
X113887071Y-115756362D01*
X113620862Y-115756362D01*
X113621114Y-115578765D01*
X113627334Y-115425264D01*
X113646620Y-115293624D01*
X113680615Y-115179054D01*
X113730962Y-115076763D01*
X113799305Y-114981961D01*
X113842171Y-114934377D01*
X113929449Y-114843485D01*
X113869033Y-114777942D01*
X113773860Y-114656952D01*
X113698305Y-114523864D01*
X113656097Y-114416633D01*
X113638355Y-114354217D01*
X113626798Y-114295086D01*
X113620060Y-114229221D01*
X113616773Y-114146604D01*
X113616384Y-114125542D01*
X113613613Y-113951396D01*
X113883465Y-113947459D01*
X114153318Y-113943522D01*
X114161407Y-114157676D01*
X114166375Y-114262090D01*
X114173175Y-114342596D01*
X114183035Y-114404274D01*
X114197182Y-114452205D01*
X114216843Y-114491471D01*
X114243244Y-114527151D01*
X114253434Y-114538771D01*
X114316967Y-114591977D01*
X114384679Y-114617659D01*
X114453547Y-114615599D01*
X114520549Y-114585580D01*
X114552208Y-114560205D01*
X114592216Y-114513298D01*
X114622485Y-114454449D01*
X114643904Y-114380005D01*
X114657366Y-114286315D01*
X114663760Y-114169728D01*
X114664588Y-114099678D01*
X114664698Y-113943507D01*
X114936530Y-113947452D01*
G37*
G36*
X118447497Y-113949282D02*
G01*
X118513467Y-113964287D01*
X118554731Y-113988564D01*
X118563870Y-114000805D01*
X118567444Y-114021329D01*
X118570897Y-114066849D01*
X118574074Y-114133365D01*
X118576819Y-114216877D01*
X118578976Y-114313386D01*
X118580388Y-114418890D01*
X118580452Y-114426221D01*
X118581210Y-114551967D01*
X118581040Y-114651477D01*
X118579842Y-114727498D01*
X118577517Y-114782778D01*
X118573966Y-114820063D01*
X118569091Y-114842102D01*
X118565199Y-114849513D01*
X118552400Y-114858861D01*
X118529149Y-114865265D01*
X118490834Y-114869192D01*
X118432844Y-114871111D01*
X118350566Y-114871491D01*
X118348967Y-114871487D01*
X118253055Y-114869793D01*
X118180851Y-114865376D01*
X118134379Y-114858395D01*
X118120242Y-114853365D01*
X118101572Y-114839496D01*
X118064251Y-114809031D01*
X118011354Y-114764580D01*
X117945954Y-114708752D01*
X117871123Y-114644156D01*
X117789937Y-114573400D01*
X117774987Y-114560300D01*
X117693921Y-114489485D01*
X117619527Y-114425026D01*
X117554695Y-114369386D01*
X117502315Y-114325029D01*
X117465280Y-114294416D01*
X117446479Y-114280011D01*
X117445112Y-114279273D01*
X117435850Y-114287129D01*
X117437303Y-114321370D01*
X117438638Y-114330015D01*
X117443435Y-114373919D01*
X117446850Y-114433427D01*
X117448100Y-114491436D01*
X117448259Y-114596544D01*
X117601392Y-114596544D01*
X117754524Y-114596544D01*
X117873224Y-114700521D01*
X117934640Y-114755137D01*
X117976064Y-114794533D01*
X117999949Y-114821844D01*
X118008748Y-114840205D01*
X118004914Y-114852752D01*
X117997235Y-114859008D01*
X117977958Y-114862320D01*
X117933679Y-114865278D01*
X117868388Y-114867765D01*
X117786076Y-114869662D01*
X117690736Y-114870851D01*
X117586358Y-114871212D01*
X117585988Y-114871212D01*
X117459400Y-114870737D01*
X117358797Y-114869469D01*
X117281173Y-114867268D01*
X117223525Y-114863993D01*
X117182848Y-114859505D01*
X117156139Y-114853665D01*
X117148573Y-114850867D01*
X117112132Y-114828654D01*
X117087456Y-114802546D01*
X117086958Y-114801645D01*
X117081565Y-114776350D01*
X117077248Y-114723521D01*
X117074064Y-114644603D01*
X117072070Y-114541040D01*
X117071323Y-114414277D01*
X117071319Y-114403067D01*
X117071319Y-114033711D01*
X117115924Y-113996178D01*
X117136822Y-113979685D01*
X117157363Y-113968166D01*
X117182856Y-113960886D01*
X117218611Y-113957111D01*
X117269936Y-113956108D01*
X117342142Y-113957143D01*
X117390268Y-113958256D01*
X117471862Y-113961855D01*
X117530821Y-113968673D01*
X117573413Y-113979642D01*
X117593236Y-113988348D01*
X117619495Y-114005437D01*
X117663739Y-114038023D01*
X117721815Y-114082882D01*
X117789566Y-114136789D01*
X117862838Y-114196520D01*
X117883191Y-114213361D01*
X118122403Y-114411966D01*
X118129652Y-114217925D01*
X118133247Y-114144559D01*
X118137965Y-114080828D01*
X118143244Y-114032774D01*
X118148522Y-114006438D01*
X118149544Y-114004283D01*
X118181906Y-113977559D01*
X118236937Y-113957644D01*
X118308767Y-113946223D01*
X118358986Y-113944147D01*
X118447497Y-113949282D01*
G37*
G36*
X116919170Y-113979151D02*
G01*
X116948335Y-114026922D01*
X116957482Y-114084775D01*
X116946579Y-114142016D01*
X116919752Y-114184018D01*
X116884166Y-114219604D01*
X116397834Y-114219604D01*
X116266382Y-114219650D01*
X116161038Y-114219905D01*
X116078912Y-114220540D01*
X116017116Y-114221727D01*
X115972761Y-114223639D01*
X115942959Y-114226448D01*
X115924821Y-114230325D01*
X115915459Y-114235444D01*
X115911984Y-114241977D01*
X115911501Y-114248599D01*
X115912275Y-114256389D01*
X115916510Y-114262642D01*
X115927075Y-114267527D01*
X115946840Y-114271213D01*
X115978673Y-114273868D01*
X116025444Y-114275662D01*
X116090022Y-114276763D01*
X116175276Y-114277339D01*
X116284075Y-114277560D01*
X116404424Y-114277595D01*
X116537159Y-114277659D01*
X116643941Y-114277966D01*
X116727815Y-114278683D01*
X116791824Y-114279980D01*
X116839009Y-114282026D01*
X116872416Y-114284991D01*
X116895087Y-114289042D01*
X116910065Y-114294350D01*
X116920393Y-114301083D01*
X116926341Y-114306590D01*
X116946480Y-114343707D01*
X116955346Y-114395892D01*
X116952559Y-114451340D01*
X116937740Y-114498247D01*
X116932768Y-114506332D01*
X116910200Y-114538554D01*
X116410850Y-114538554D01*
X116277473Y-114538598D01*
X116170241Y-114538842D01*
X116086302Y-114539451D01*
X116022807Y-114540590D01*
X115976904Y-114542426D01*
X115945743Y-114545123D01*
X115926473Y-114548847D01*
X115916243Y-114553764D01*
X115912203Y-114560039D01*
X115911501Y-114567549D01*
X115912286Y-114575405D01*
X115916570Y-114581697D01*
X115927250Y-114586598D01*
X115947223Y-114590281D01*
X115979384Y-114592921D01*
X116026631Y-114594692D01*
X116091858Y-114595765D01*
X116177963Y-114596316D01*
X116287842Y-114596518D01*
X116395220Y-114596544D01*
X116526586Y-114596607D01*
X116632092Y-114596916D01*
X116714872Y-114597650D01*
X116778059Y-114598992D01*
X116824789Y-114601120D01*
X116858195Y-114604216D01*
X116881413Y-114608460D01*
X116897577Y-114614033D01*
X116909821Y-114621114D01*
X116917137Y-114626592D01*
X116940100Y-114648981D01*
X116951544Y-114676050D01*
X116955200Y-114718369D01*
X116955337Y-114734760D01*
X116952396Y-114786804D01*
X116941579Y-114820428D01*
X116923608Y-114842441D01*
X116915121Y-114849584D01*
X116904641Y-114855473D01*
X116889482Y-114860229D01*
X116866962Y-114863972D01*
X116834398Y-114866824D01*
X116789105Y-114868905D01*
X116728401Y-114870337D01*
X116649603Y-114871239D01*
X116550026Y-114871733D01*
X116426987Y-114871939D01*
X116277804Y-114871979D01*
X116267586Y-114871978D01*
X116115163Y-114871887D01*
X115988992Y-114871555D01*
X115886328Y-114870879D01*
X115804428Y-114869757D01*
X115740548Y-114868086D01*
X115691944Y-114865761D01*
X115655874Y-114862681D01*
X115629592Y-114858741D01*
X115610355Y-114853839D01*
X115595419Y-114847871D01*
X115592840Y-114846607D01*
X115550322Y-114816693D01*
X115513005Y-114777028D01*
X115509479Y-114771997D01*
X115498525Y-114754369D01*
X115490316Y-114735935D01*
X115484455Y-114712435D01*
X115480548Y-114679606D01*
X115478202Y-114633187D01*
X115477021Y-114568918D01*
X115476610Y-114482536D01*
X115476570Y-114416577D01*
X115477129Y-114301094D01*
X115479416Y-114210733D01*
X115484344Y-114141633D01*
X115492825Y-114089932D01*
X115505773Y-114051769D01*
X115524100Y-114023282D01*
X115548720Y-114000609D01*
X115579693Y-113980391D01*
X115592761Y-113973375D01*
X115607848Y-113967560D01*
X115627706Y-113962810D01*
X115655084Y-113958991D01*
X115692733Y-113955967D01*
X115743404Y-113953605D01*
X115809847Y-113951768D01*
X115894812Y-113950321D01*
X116001051Y-113949130D01*
X116131314Y-113948059D01*
X116255900Y-113947190D01*
X116883004Y-113942985D01*
X116919170Y-113979151D01*
G37*
G36*
X121141551Y-113945934D02*
G01*
X121221167Y-113951673D01*
X121291624Y-113962595D01*
X121343816Y-113978317D01*
X121349218Y-113980916D01*
X121377136Y-113998721D01*
X121422271Y-114031388D01*
X121479631Y-114075140D01*
X121544226Y-114126196D01*
X121587357Y-114161206D01*
X121685760Y-114241239D01*
X121764479Y-114303559D01*
X121825583Y-114349626D01*
X121871140Y-114380901D01*
X121903217Y-114398845D01*
X121923883Y-114404917D01*
X121930855Y-114403848D01*
X121947275Y-114392576D01*
X121982395Y-114365597D01*
X122032634Y-114325761D01*
X122094411Y-114275915D01*
X122164145Y-114218909D01*
X122187509Y-114199659D01*
X122261263Y-114139573D01*
X122330488Y-114084656D01*
X122391039Y-114038082D01*
X122438767Y-114003027D01*
X122469524Y-113982666D01*
X122474156Y-113980206D01*
X122518157Y-113966779D01*
X122582134Y-113956290D01*
X122657171Y-113949241D01*
X122734354Y-113946135D01*
X122804765Y-113947472D01*
X122859488Y-113953755D01*
X122874686Y-113957665D01*
X122918589Y-113979489D01*
X122954553Y-114009244D01*
X122957165Y-114012391D01*
X122966323Y-114025592D01*
X122973343Y-114041462D01*
X122978508Y-114063770D01*
X122982100Y-114096283D01*
X122984401Y-114142769D01*
X122985694Y-114206997D01*
X122986262Y-114292733D01*
X122986387Y-114402098D01*
X122985639Y-114536050D01*
X122983408Y-114642631D01*
X122979712Y-114721414D01*
X122974568Y-114771974D01*
X122969881Y-114790883D01*
X122957741Y-114813441D01*
X122942019Y-114831418D01*
X122919574Y-114845286D01*
X122887269Y-114855520D01*
X122841965Y-114862592D01*
X122780523Y-114866976D01*
X122699804Y-114869146D01*
X122596670Y-114869574D01*
X122467982Y-114868734D01*
X122454543Y-114868608D01*
X122325883Y-114867368D01*
X122224389Y-114865667D01*
X122148236Y-114862439D01*
X122095598Y-114856616D01*
X122064653Y-114847129D01*
X122053576Y-114832911D01*
X122060543Y-114812894D01*
X122083729Y-114786012D01*
X122121310Y-114751195D01*
X122171463Y-114707377D01*
X122174515Y-114704715D01*
X122297746Y-114597186D01*
X122453596Y-114596865D01*
X122609446Y-114596544D01*
X122609446Y-114436214D01*
X122608728Y-114364112D01*
X122606282Y-114317379D01*
X122601672Y-114292419D01*
X122594462Y-114285634D01*
X122591324Y-114286839D01*
X122574704Y-114299826D01*
X122540582Y-114328573D01*
X122493086Y-114369532D01*
X122436345Y-114419153D01*
X122399230Y-114451919D01*
X122282740Y-114553929D01*
X122180281Y-114641207D01*
X122093174Y-114712700D01*
X122022742Y-114767352D01*
X121970308Y-114804109D01*
X121937194Y-114821916D01*
X121934011Y-114822879D01*
X121895771Y-114821540D01*
X121847944Y-114798442D01*
X121841319Y-114794151D01*
X121787009Y-114755456D01*
X121715452Y-114700245D01*
X121630625Y-114631761D01*
X121536504Y-114553245D01*
X121437067Y-114467939D01*
X121382431Y-114420077D01*
X121325229Y-114370099D01*
X121275699Y-114327781D01*
X121237870Y-114296493D01*
X121215770Y-114279602D01*
X121211988Y-114277595D01*
X121208653Y-114291097D01*
X121206582Y-114327661D01*
X121205976Y-114381374D01*
X121206698Y-114433445D01*
X121210417Y-114589296D01*
X121369892Y-114593457D01*
X121529367Y-114597619D01*
X121659846Y-114719799D01*
X121715020Y-114772425D01*
X121750770Y-114809334D01*
X121769638Y-114833730D01*
X121774171Y-114848818D01*
X121768579Y-114856768D01*
X121746154Y-114862110D01*
X121699424Y-114866301D01*
X121633054Y-114869376D01*
X121551710Y-114871366D01*
X121460059Y-114872304D01*
X121362765Y-114872223D01*
X121264494Y-114871157D01*
X121169914Y-114869137D01*
X121083688Y-114866196D01*
X121010484Y-114862368D01*
X120954966Y-114857686D01*
X120921801Y-114852181D01*
X120917776Y-114850781D01*
X120889304Y-114836540D01*
X120867101Y-114819204D01*
X120850513Y-114795333D01*
X120838889Y-114761486D01*
X120831575Y-114714223D01*
X120827920Y-114650102D01*
X120827271Y-114565683D01*
X120828975Y-114457526D01*
X120830569Y-114390966D01*
X120834326Y-114266547D01*
X120838628Y-114169239D01*
X120843613Y-114097162D01*
X120849421Y-114048435D01*
X120856191Y-114021178D01*
X120858115Y-114017391D01*
X120883000Y-113993742D01*
X120922924Y-113970434D01*
X120938816Y-113963651D01*
X120991268Y-113951540D01*
X121061882Y-113945762D01*
X121141551Y-113945934D01*
G37*
G36*
X171970301Y-100517896D02*
G01*
X173103483Y-100523252D01*
X173200738Y-100685457D01*
X173319325Y-100922687D01*
X173398919Y-101173831D01*
X173439561Y-101439043D01*
X173445326Y-101589415D01*
X173427589Y-101854584D01*
X173375492Y-102108472D01*
X173290708Y-102345091D01*
X173174908Y-102558450D01*
X173174696Y-102558774D01*
X173089880Y-102688260D01*
X171962125Y-102688260D01*
X170834371Y-102688260D01*
X170764997Y-102579491D01*
X170695910Y-102465447D01*
X170641994Y-102360682D01*
X170595102Y-102247843D01*
X170553440Y-102128880D01*
X170531460Y-102059743D01*
X170515769Y-101999928D01*
X170505288Y-101940009D01*
X170498935Y-101870557D01*
X170495631Y-101782148D01*
X170494294Y-101665355D01*
X170494076Y-101610935D01*
X170494116Y-101600576D01*
X170855604Y-101600576D01*
X170864369Y-101785272D01*
X170892985Y-101948328D01*
X170944935Y-102106171D01*
X170979722Y-102186070D01*
X171040089Y-102315772D01*
X171955608Y-102310376D01*
X172871126Y-102304981D01*
X172909972Y-102252944D01*
X172968867Y-102148028D01*
X173015531Y-102012826D01*
X173048778Y-101856989D01*
X173067422Y-101690167D01*
X173070276Y-101522011D01*
X173056154Y-101362172D01*
X173033101Y-101251329D01*
X173004211Y-101157606D01*
X172970205Y-101064086D01*
X172938257Y-100990437D01*
X172937118Y-100988173D01*
X172885248Y-100885813D01*
X171962567Y-100885813D01*
X171039887Y-100885813D01*
X170979621Y-101015299D01*
X170915073Y-101176546D01*
X170875555Y-101335099D01*
X170857591Y-101507361D01*
X170855604Y-101600576D01*
X170494116Y-101600576D01*
X170494614Y-101470271D01*
X170497664Y-101362246D01*
X170503928Y-101278106D01*
X170514111Y-101209093D01*
X170528915Y-101146453D01*
X170532344Y-101134426D01*
X170578484Y-100998394D01*
X170637672Y-100856117D01*
X170702973Y-100722854D01*
X170767455Y-100613865D01*
X170771780Y-100607507D01*
X170837119Y-100512540D01*
X171970301Y-100517896D01*
G37*
G36*
X174709721Y-100937287D02*
G01*
X175230804Y-101362835D01*
X175306621Y-101301976D01*
X175342655Y-101272833D01*
X175405723Y-101221591D01*
X175490770Y-101152367D01*
X175592741Y-101069279D01*
X175706583Y-100976442D01*
X175827239Y-100877972D01*
X175827871Y-100877457D01*
X176273303Y-100513796D01*
X176563352Y-100513805D01*
X176677450Y-100514047D01*
X176755429Y-100515283D01*
X176802606Y-100518292D01*
X176824300Y-100523855D01*
X176825825Y-100532750D01*
X176812500Y-100545756D01*
X176807641Y-100549609D01*
X176710758Y-100626168D01*
X176599478Y-100715402D01*
X176477719Y-100814051D01*
X176349398Y-100918854D01*
X176218432Y-101026548D01*
X176088740Y-101133872D01*
X175964237Y-101237565D01*
X175848843Y-101334365D01*
X175746475Y-101421010D01*
X175661049Y-101494240D01*
X175596484Y-101550791D01*
X175556697Y-101587404D01*
X175545300Y-101600576D01*
X175561791Y-101617084D01*
X175606591Y-101656622D01*
X175675896Y-101716031D01*
X175765907Y-101792150D01*
X175872822Y-101881819D01*
X175992839Y-101981879D01*
X176122159Y-102089170D01*
X176256979Y-102200531D01*
X176393498Y-102312803D01*
X176527916Y-102422825D01*
X176656430Y-102527438D01*
X176775241Y-102623481D01*
X176791248Y-102636356D01*
X176853401Y-102686314D01*
X176563352Y-102686471D01*
X176273303Y-102686628D01*
X175817512Y-102312724D01*
X175696292Y-102213376D01*
X175582454Y-102120257D01*
X175480830Y-102037303D01*
X175396249Y-101968452D01*
X175333542Y-101917642D01*
X175297539Y-101888809D01*
X175295606Y-101887296D01*
X175229492Y-101835771D01*
X174707979Y-102262015D01*
X174186466Y-102688260D01*
X173909126Y-102688260D01*
X173807350Y-102687616D01*
X173722361Y-102685854D01*
X173661742Y-102683223D01*
X173633073Y-102679973D01*
X173631786Y-102679089D01*
X173647303Y-102664423D01*
X173691531Y-102626556D01*
X173760987Y-102568375D01*
X173852189Y-102492764D01*
X173961655Y-102402608D01*
X174085900Y-102300793D01*
X174221443Y-102190205D01*
X174248140Y-102168477D01*
X174387249Y-102055186D01*
X174517336Y-101949020D01*
X174634634Y-101853070D01*
X174735374Y-101770428D01*
X174815790Y-101704184D01*
X174872114Y-101657431D01*
X174900578Y-101633259D01*
X174902156Y-101631824D01*
X174910167Y-101622061D01*
X174911987Y-101610175D01*
X174904898Y-101593659D01*
X174886182Y-101570005D01*
X174853122Y-101536708D01*
X174803000Y-101491261D01*
X174733097Y-101431156D01*
X174640696Y-101353888D01*
X174523080Y-101256948D01*
X174377530Y-101137832D01*
X174282106Y-101059933D01*
X173624393Y-100523252D01*
X173906516Y-100517496D01*
X174188639Y-100511740D01*
X174709721Y-100937287D01*
G37*
G36*
X164611029Y-100818480D02*
G01*
X164728110Y-100913978D01*
X164844043Y-101008578D01*
X164951731Y-101096486D01*
X165044075Y-101171907D01*
X165113978Y-101229046D01*
X165132425Y-101244141D01*
X165279087Y-101364214D01*
X165800308Y-100938553D01*
X166321529Y-100512893D01*
X166599659Y-100512893D01*
X166701591Y-100513514D01*
X166786745Y-100515216D01*
X166847552Y-100517759D01*
X166876441Y-100520899D01*
X166877790Y-100521773D01*
X166862271Y-100536347D01*
X166817968Y-100574247D01*
X166748255Y-100632675D01*
X166656509Y-100708830D01*
X166546108Y-100799916D01*
X166420427Y-100903133D01*
X166282844Y-101015681D01*
X166223999Y-101063694D01*
X166057102Y-101200168D01*
X165920261Y-101313063D01*
X165811057Y-101404533D01*
X165727070Y-101476735D01*
X165665882Y-101531822D01*
X165625074Y-101571952D01*
X165602225Y-101599279D01*
X165594918Y-101615957D01*
X165597286Y-101622045D01*
X165618885Y-101640352D01*
X165669022Y-101681847D01*
X165744088Y-101743574D01*
X165840476Y-101822576D01*
X165954577Y-101915898D01*
X166082782Y-102020583D01*
X166221485Y-102133674D01*
X166263386Y-102167807D01*
X166902408Y-102688260D01*
X166613193Y-102688260D01*
X166323978Y-102688260D01*
X165802534Y-102261553D01*
X165281090Y-101834847D01*
X165038371Y-102031460D01*
X164932843Y-102117149D01*
X164808517Y-102218426D01*
X164678581Y-102324531D01*
X164556218Y-102424705D01*
X164515963Y-102457735D01*
X164236272Y-102687397D01*
X163947259Y-102687828D01*
X163839270Y-102686782D01*
X163754549Y-102683538D01*
X163698672Y-102678464D01*
X163677216Y-102671927D01*
X163677928Y-102670066D01*
X163697856Y-102653357D01*
X163746363Y-102613402D01*
X163819894Y-102553108D01*
X163914893Y-102475386D01*
X164027802Y-102383143D01*
X164155066Y-102279289D01*
X164293128Y-102166733D01*
X164335404Y-102132288D01*
X164475193Y-102018102D01*
X164604445Y-101911934D01*
X164719730Y-101816646D01*
X164817617Y-101735101D01*
X164894674Y-101670160D01*
X164947471Y-101624687D01*
X164972577Y-101601543D01*
X164974202Y-101599343D01*
X164958888Y-101583792D01*
X164914756Y-101545006D01*
X164845194Y-101485816D01*
X164753592Y-101409057D01*
X164643337Y-101317562D01*
X164517819Y-101214165D01*
X164380425Y-101101699D01*
X164326049Y-101057371D01*
X164184742Y-100942283D01*
X164053614Y-100835442D01*
X163936108Y-100739659D01*
X163835669Y-100657744D01*
X163755743Y-100592506D01*
X163699773Y-100546754D01*
X163671205Y-100523299D01*
X163668260Y-100520826D01*
X163684512Y-100517976D01*
X163735058Y-100515580D01*
X163812757Y-100513840D01*
X163910468Y-100512960D01*
X163947962Y-100512893D01*
X164236296Y-100512893D01*
X164611029Y-100818480D01*
G37*
G36*
X168576316Y-100513074D02*
G01*
X169705767Y-100513255D01*
X169782343Y-100632201D01*
X169898735Y-100844430D01*
X169985505Y-101076057D01*
X170005855Y-101148554D01*
X170033253Y-101261243D01*
X170046338Y-101341909D01*
X170044435Y-101397657D01*
X170026868Y-101435592D01*
X169992962Y-101462817D01*
X169975098Y-101472097D01*
X169929129Y-101498196D01*
X169908217Y-101528676D01*
X169902695Y-101580109D01*
X169902586Y-101596404D01*
X169905962Y-101654896D01*
X169922535Y-101688676D01*
X169961972Y-101714315D01*
X169975098Y-101720711D01*
X170015405Y-101744667D01*
X170038950Y-101775050D01*
X170046875Y-101819830D01*
X170040325Y-101886980D01*
X170020444Y-101984469D01*
X170015834Y-102004573D01*
X169971900Y-102158090D01*
X169912174Y-102315693D01*
X169843302Y-102461444D01*
X169782636Y-102563953D01*
X169705767Y-102677901D01*
X168576648Y-102683034D01*
X167447529Y-102688167D01*
X167366068Y-102561609D01*
X167284686Y-102416485D01*
X167212186Y-102252150D01*
X167155302Y-102085612D01*
X167122972Y-101947599D01*
X167097605Y-101797395D01*
X167474963Y-101797395D01*
X167489483Y-101885446D01*
X167508755Y-101964742D01*
X167540884Y-102061375D01*
X167579529Y-102158653D01*
X167618349Y-102239883D01*
X167634535Y-102267287D01*
X167666021Y-102315340D01*
X168575436Y-102315340D01*
X169484851Y-102315340D01*
X169526420Y-102248007D01*
X169552273Y-102197071D01*
X169583289Y-102123031D01*
X169615245Y-102037787D01*
X169643921Y-101953243D01*
X169665094Y-101881299D01*
X169674543Y-101833858D01*
X169674690Y-101829998D01*
X169671473Y-101822795D01*
X169659682Y-101816725D01*
X169636113Y-101811692D01*
X169597556Y-101807603D01*
X169540806Y-101804362D01*
X169462655Y-101801874D01*
X169359896Y-101800044D01*
X169229324Y-101798776D01*
X169067729Y-101797977D01*
X168871907Y-101797550D01*
X168638649Y-101797400D01*
X168574827Y-101797395D01*
X167474963Y-101797395D01*
X167097605Y-101797395D01*
X166925544Y-101797395D01*
X166753483Y-101797395D01*
X166753483Y-101600576D01*
X166753483Y-101403757D01*
X166929584Y-101403757D01*
X167473309Y-101403757D01*
X168574000Y-101403757D01*
X168818862Y-101403634D01*
X169025407Y-101403207D01*
X169196752Y-101402391D01*
X169336014Y-101401102D01*
X169446310Y-101399255D01*
X169530759Y-101396764D01*
X169592476Y-101393544D01*
X169634581Y-101389511D01*
X169660189Y-101384580D01*
X169672419Y-101378665D01*
X169674690Y-101373750D01*
X169667351Y-101330215D01*
X169648081Y-101260483D01*
X169621002Y-101176559D01*
X169590234Y-101090447D01*
X169559898Y-101014151D01*
X169534115Y-100959675D01*
X169530296Y-100953146D01*
X169488839Y-100885813D01*
X168576648Y-100885813D01*
X167664456Y-100885813D01*
X167623163Y-100953146D01*
X167576020Y-101044897D01*
X167531737Y-101156231D01*
X167498098Y-101266187D01*
X167486527Y-101321101D01*
X167473309Y-101403757D01*
X166929584Y-101403757D01*
X167014900Y-101403199D01*
X167066975Y-101400022D01*
X167094002Y-101391970D01*
X167104172Y-101376788D01*
X167105685Y-101355277D01*
X167116389Y-101259519D01*
X167145981Y-101139313D01*
X167190678Y-101004894D01*
X167246699Y-100866498D01*
X167310262Y-100734360D01*
X167377586Y-100618718D01*
X167378088Y-100617950D01*
X167446865Y-100512893D01*
X168576316Y-100513074D01*
G37*
D12*
%TO.C,J1*%
X183257830Y-99693000D02*
X183257830Y-83633000D01*
X185377830Y-83633000D02*
X183257830Y-83633000D01*
X185377830Y-99693000D02*
X183257830Y-99693000D01*
X185377830Y-99693000D02*
X185377830Y-83633000D01*
X185377830Y-100693000D02*
X185377830Y-101753000D01*
X185377830Y-101753000D02*
X184317830Y-101753000D01*
%TO.C,POWER*%
X140660830Y-112250000D02*
X140660830Y-113750000D01*
X141910830Y-116250000D02*
X146410830Y-116250000D01*
X146410830Y-109750000D02*
X141910830Y-109750000D01*
X147660830Y-113750000D02*
X147660830Y-112250000D01*
D13*
%TO.C,G\u002A\u002A\u002A*%
G36*
X129176202Y-111820642D02*
G01*
X131273115Y-111821133D01*
X132155279Y-112592595D01*
X132308105Y-112726573D01*
X132452354Y-112853670D01*
X132585744Y-112971835D01*
X132705994Y-113079018D01*
X132810826Y-113173167D01*
X132897958Y-113252232D01*
X132965110Y-113314163D01*
X133010001Y-113356907D01*
X133030353Y-113378416D01*
X133031323Y-113380449D01*
X133016149Y-113396185D01*
X132976721Y-113431772D01*
X132916918Y-113483855D01*
X132840620Y-113549084D01*
X132751709Y-113624106D01*
X132677946Y-113685726D01*
X132581663Y-113765884D01*
X132494532Y-113838532D01*
X132420526Y-113900350D01*
X132363619Y-113948017D01*
X132327782Y-113978211D01*
X132317097Y-113987416D01*
X132326023Y-114002743D01*
X132358637Y-114038426D01*
X132411204Y-114090782D01*
X132479984Y-114156131D01*
X132561242Y-114230792D01*
X132595166Y-114261332D01*
X132886827Y-114522443D01*
X132886107Y-115372779D01*
X132885387Y-116223115D01*
X132490142Y-116523977D01*
X132369732Y-116615591D01*
X132244219Y-116711014D01*
X132120938Y-116804675D01*
X132007224Y-116891002D01*
X131910411Y-116964424D01*
X131859980Y-117002620D01*
X131625062Y-117180402D01*
X128846181Y-117180402D01*
X126067301Y-117180402D01*
X126067256Y-116692641D01*
X126066736Y-116533870D01*
X126065304Y-116360717D01*
X126063115Y-116184619D01*
X126060319Y-116017011D01*
X126057070Y-115869329D01*
X126055513Y-115812849D01*
X126045992Y-115493754D01*
X126173888Y-115493754D01*
X126184413Y-115984477D01*
X126187376Y-116133945D01*
X126190016Y-116288880D01*
X126192210Y-116440234D01*
X126193834Y-116578959D01*
X126194764Y-116696010D01*
X126194939Y-116754864D01*
X126194939Y-117034529D01*
X128879899Y-117033928D01*
X131564860Y-117033328D01*
X132157466Y-116581030D01*
X132750072Y-116128732D01*
X132754823Y-115355066D01*
X132759574Y-114581400D01*
X132449374Y-114284014D01*
X132139174Y-113986627D01*
X132490208Y-113694247D01*
X132586565Y-113613312D01*
X132673113Y-113539318D01*
X132746022Y-113475648D01*
X132801458Y-113425682D01*
X132835589Y-113392805D01*
X132844973Y-113381120D01*
X132832236Y-113365754D01*
X132794243Y-113328760D01*
X132733390Y-113272283D01*
X132652074Y-113198470D01*
X132552689Y-113109468D01*
X132437632Y-113007423D01*
X132309300Y-112894482D01*
X132170088Y-112772792D01*
X132033559Y-112654171D01*
X131218413Y-111947969D01*
X129157968Y-111947627D01*
X127097523Y-111947285D01*
X126650789Y-112304433D01*
X126524826Y-112405429D01*
X126424639Y-112486636D01*
X126347294Y-112550749D01*
X126289854Y-112600461D01*
X126249384Y-112638467D01*
X126222949Y-112667462D01*
X126207612Y-112690141D01*
X126200440Y-112709197D01*
X126198900Y-112719232D01*
X126198769Y-112731992D01*
X126202066Y-112745699D01*
X126210866Y-112762239D01*
X126227241Y-112783496D01*
X126253263Y-112811355D01*
X126291005Y-112847700D01*
X126342541Y-112894415D01*
X126409943Y-112953387D01*
X126495283Y-113026498D01*
X126600636Y-113115634D01*
X126728073Y-113222679D01*
X126879667Y-113349517D01*
X127033107Y-113477676D01*
X127183602Y-113603500D01*
X127325429Y-113722416D01*
X127456163Y-113832367D01*
X127573384Y-113931301D01*
X127674666Y-114017164D01*
X127757588Y-114087901D01*
X127819726Y-114141458D01*
X127858657Y-114175782D01*
X127871960Y-114188803D01*
X127857772Y-114201428D01*
X127817094Y-114234149D01*
X127752470Y-114284998D01*
X127666443Y-114352004D01*
X127561557Y-114433197D01*
X127440356Y-114526609D01*
X127305384Y-114630268D01*
X127159184Y-114742206D01*
X127022669Y-114846446D01*
X126173888Y-115493754D01*
X126045992Y-115493754D01*
X126043816Y-115420818D01*
X126743892Y-114880272D01*
X126887402Y-114769454D01*
X127025362Y-114662900D01*
X127154420Y-114563201D01*
X127271225Y-114472947D01*
X127372425Y-114394728D01*
X127454669Y-114331134D01*
X127514605Y-114284754D01*
X127547984Y-114258877D01*
X127651998Y-114178028D01*
X126850513Y-113495690D01*
X126049029Y-112813352D01*
X126053606Y-112727013D01*
X126058184Y-112640674D01*
X126568736Y-112230413D01*
X127079289Y-111820151D01*
X129176202Y-111820642D01*
G37*
G36*
X128201064Y-112239151D02*
G01*
X128340130Y-112239636D01*
X128462985Y-112240398D01*
X128565577Y-112241395D01*
X128643851Y-112242589D01*
X128693755Y-112243941D01*
X128711234Y-112245407D01*
X128697980Y-112258894D01*
X128662923Y-112288710D01*
X128613119Y-112328891D01*
X128603094Y-112336794D01*
X128548157Y-112380356D01*
X128473868Y-112439817D01*
X128389133Y-112508024D01*
X128302857Y-112577823D01*
X128284641Y-112592611D01*
X128074327Y-112763468D01*
X128794371Y-113271612D01*
X128938751Y-113373030D01*
X129074765Y-113467664D01*
X129199390Y-113553474D01*
X129309601Y-113628419D01*
X129402373Y-113690459D01*
X129474683Y-113737553D01*
X129523505Y-113767663D01*
X129545815Y-113778746D01*
X129546192Y-113778764D01*
X129569578Y-113769612D01*
X129620114Y-113744227D01*
X129693555Y-113704930D01*
X129785655Y-113654042D01*
X129892169Y-113593886D01*
X130008852Y-113526783D01*
X130038462Y-113509573D01*
X130498955Y-113241374D01*
X131119060Y-113246171D01*
X131739166Y-113250969D01*
X131100433Y-113722326D01*
X130966612Y-113821354D01*
X130842333Y-113913847D01*
X130730578Y-113997548D01*
X130634331Y-114070199D01*
X130556572Y-114129541D01*
X130500286Y-114173315D01*
X130468454Y-114199265D01*
X130462290Y-114205528D01*
X130476706Y-114218223D01*
X130517904Y-114250311D01*
X130583155Y-114299761D01*
X130669728Y-114364542D01*
X130774893Y-114442624D01*
X130895921Y-114531974D01*
X131030082Y-114630563D01*
X131174646Y-114736360D01*
X131237236Y-114782038D01*
X131385302Y-114890219D01*
X131524082Y-114992021D01*
X131650850Y-115085417D01*
X131762879Y-115168378D01*
X131857442Y-115238876D01*
X131931811Y-115294881D01*
X131983260Y-115334366D01*
X132009061Y-115355301D01*
X132011593Y-115358068D01*
X131997113Y-115371368D01*
X131957117Y-115400940D01*
X131896775Y-115443346D01*
X131821257Y-115495151D01*
X131735732Y-115552919D01*
X131645370Y-115613213D01*
X131555340Y-115672598D01*
X131470813Y-115727638D01*
X131396957Y-115774896D01*
X131338942Y-115810936D01*
X131301937Y-115832323D01*
X131291426Y-115836743D01*
X131273371Y-115826704D01*
X131227913Y-115797957D01*
X131157791Y-115752322D01*
X131065743Y-115691619D01*
X130954508Y-115617666D01*
X130826826Y-115532284D01*
X130685435Y-115437292D01*
X130533074Y-115334510D01*
X130408037Y-115249869D01*
X130249251Y-115142445D01*
X130099480Y-115041545D01*
X129961434Y-114948966D01*
X129837827Y-114866509D01*
X129731369Y-114795970D01*
X129644773Y-114739148D01*
X129580750Y-114697842D01*
X129542012Y-114673849D01*
X129531069Y-114668318D01*
X129513746Y-114678426D01*
X129468036Y-114705809D01*
X129396708Y-114748793D01*
X129302532Y-114805700D01*
X129188277Y-114874856D01*
X129056713Y-114954583D01*
X128910609Y-115043206D01*
X128752735Y-115139048D01*
X128604655Y-115229011D01*
X127690129Y-115784800D01*
X127690129Y-116282026D01*
X127690129Y-116779253D01*
X127079033Y-116779253D01*
X126467937Y-116779253D01*
X126472751Y-116201116D01*
X126477566Y-115622979D01*
X127605820Y-114910144D01*
X127789276Y-114793961D01*
X127963331Y-114683200D01*
X128125578Y-114579423D01*
X128273615Y-114484193D01*
X128405037Y-114399074D01*
X128517440Y-114325629D01*
X128608420Y-114265421D01*
X128675573Y-114220012D01*
X128716493Y-114190966D01*
X128728896Y-114179989D01*
X128713608Y-114166602D01*
X128671188Y-114133702D01*
X128604091Y-114083099D01*
X128514771Y-114016604D01*
X128405682Y-113936027D01*
X128279277Y-113843177D01*
X128138010Y-113739864D01*
X127984335Y-113627900D01*
X127820706Y-113509093D01*
X127746515Y-113455353D01*
X127578778Y-113333851D01*
X127419465Y-113218274D01*
X127271084Y-113110454D01*
X127136146Y-113012223D01*
X127017159Y-112925411D01*
X126916634Y-112851853D01*
X126837080Y-112793379D01*
X126781006Y-112751821D01*
X126750922Y-112729012D01*
X126746629Y-112725452D01*
X126744647Y-112713931D01*
X126757821Y-112694911D01*
X126789036Y-112666020D01*
X126841179Y-112624886D01*
X126917134Y-112569135D01*
X127019786Y-112496397D01*
X127056197Y-112470924D01*
X127388447Y-112238980D01*
X128049841Y-112238980D01*
X128201064Y-112239151D01*
G37*
D12*
%TO.C,D2*%
X175014000Y-94350000D02*
X175170000Y-94350000D01*
X177330000Y-94350000D02*
X177486000Y-94350000D01*
X175014484Y-94350000D02*
G75*
G02*
X175171392Y-91117665I1235516J1560000D01*
G01*
X175170000Y-93830961D02*
G75*
G02*
X175170163Y-91748870I1080000J1040961D01*
G01*
X177328608Y-91117665D02*
G75*
G02*
X177485516Y-94350000I-1078608J-1672335D01*
G01*
X177329837Y-91748870D02*
G75*
G02*
X177330000Y-93830961I-1079837J-1041130D01*
G01*
D13*
%TO.C,G\u002A\u002A\u002A*%
G36*
X115420757Y-100163289D02*
G01*
X115489136Y-100164303D01*
X115537360Y-100166252D01*
X115568473Y-100169347D01*
X115585523Y-100173801D01*
X115591556Y-100179825D01*
X115591708Y-100181242D01*
X115589176Y-100201345D01*
X115582364Y-100240585D01*
X115572450Y-100292420D01*
X115565455Y-100327080D01*
X115554352Y-100381525D01*
X115545574Y-100425489D01*
X115540259Y-100453216D01*
X115539202Y-100459791D01*
X115526721Y-100461326D01*
X115491863Y-100462678D01*
X115438501Y-100463771D01*
X115370512Y-100464534D01*
X115291769Y-100464892D01*
X115269222Y-100464910D01*
X115178517Y-100464772D01*
X115110850Y-100464171D01*
X115063007Y-100462827D01*
X115031773Y-100460459D01*
X115013933Y-100456785D01*
X115006273Y-100451526D01*
X115005578Y-100444400D01*
X115006223Y-100441938D01*
X115011831Y-100420188D01*
X115020940Y-100381544D01*
X115032047Y-100332774D01*
X115043651Y-100280645D01*
X115054250Y-100231924D01*
X115062341Y-100193378D01*
X115066424Y-100171774D01*
X115066644Y-100169700D01*
X115079115Y-100167663D01*
X115113910Y-100165875D01*
X115167098Y-100164437D01*
X115234751Y-100163448D01*
X115312938Y-100163010D01*
X115329176Y-100162998D01*
X115420757Y-100163289D01*
G37*
G36*
X124754815Y-100776144D02*
G01*
X124780339Y-100793075D01*
X124801621Y-100819646D01*
X124802770Y-100842531D01*
X124783165Y-100869910D01*
X124773757Y-100879610D01*
X124752613Y-100903403D01*
X124748670Y-100922216D01*
X124759670Y-100948692D01*
X124760967Y-100951210D01*
X124773279Y-100977514D01*
X124771905Y-100988068D01*
X124756792Y-100989974D01*
X124733713Y-100978209D01*
X124713793Y-100948731D01*
X124694519Y-100915918D01*
X124678886Y-100908379D01*
X124668115Y-100926150D01*
X124664649Y-100947313D01*
X124656759Y-100979069D01*
X124639567Y-100989871D01*
X124636906Y-100989974D01*
X124623618Y-100987283D01*
X124618588Y-100975037D01*
X124620715Y-100946982D01*
X124624785Y-100921060D01*
X124632958Y-100871958D01*
X124634973Y-100859782D01*
X124675326Y-100859782D01*
X124685777Y-100870076D01*
X124709965Y-100872023D01*
X124737147Y-100866751D01*
X124756576Y-100855389D01*
X124759287Y-100850960D01*
X124761369Y-100822735D01*
X124741176Y-100808178D01*
X124721899Y-100806202D01*
X124691722Y-100817419D01*
X124676340Y-100847391D01*
X124675326Y-100859782D01*
X124634973Y-100859782D01*
X124640542Y-100826130D01*
X124643278Y-100809483D01*
X124650110Y-100781900D01*
X124664144Y-100769788D01*
X124694061Y-100766859D01*
X124702174Y-100766822D01*
X124754815Y-100776144D01*
G37*
G36*
X124774987Y-100686010D02*
G01*
X124834130Y-100718889D01*
X124878130Y-100773062D01*
X124882070Y-100780419D01*
X124906078Y-100843900D01*
X124908033Y-100903478D01*
X124888111Y-100968176D01*
X124885827Y-100973295D01*
X124848711Y-101029498D01*
X124796937Y-101064952D01*
X124728721Y-101080707D01*
X124701579Y-101081762D01*
X124632180Y-101074290D01*
X124585958Y-101055287D01*
X124547119Y-101019249D01*
X124515121Y-100967327D01*
X124495447Y-100909851D01*
X124494791Y-100904038D01*
X124531077Y-100904038D01*
X124547382Y-100961180D01*
X124567220Y-100990793D01*
X124616800Y-101027893D01*
X124677693Y-101046118D01*
X124741974Y-101044451D01*
X124801716Y-101021878D01*
X124803127Y-101021009D01*
X124847063Y-100979055D01*
X124870451Y-100921154D01*
X124874413Y-100878398D01*
X124863999Y-100810838D01*
X124833577Y-100759910D01*
X124784371Y-100726813D01*
X124717609Y-100712741D01*
X124704220Y-100712324D01*
X124643171Y-100717252D01*
X124599289Y-100735478D01*
X124565390Y-100770492D01*
X124556533Y-100784068D01*
X124533980Y-100842154D01*
X124531077Y-100904038D01*
X124494791Y-100904038D01*
X124491841Y-100877898D01*
X124501623Y-100824770D01*
X124527745Y-100769808D01*
X124564312Y-100723108D01*
X124596361Y-100698878D01*
X124639630Y-100683522D01*
X124689822Y-100675347D01*
X124701579Y-100674935D01*
X124774987Y-100686010D01*
G37*
G36*
X115298435Y-100675464D02*
G01*
X115369555Y-100676939D01*
X115427079Y-100679197D01*
X115467126Y-100682074D01*
X115485814Y-100685405D01*
X115486695Y-100686328D01*
X115484013Y-100700917D01*
X115476293Y-100738851D01*
X115464026Y-100797811D01*
X115447702Y-100875477D01*
X115427811Y-100969529D01*
X115404843Y-101077647D01*
X115379289Y-101197513D01*
X115351639Y-101326807D01*
X115329243Y-101431263D01*
X115300319Y-101566177D01*
X115273111Y-101693402D01*
X115248109Y-101810626D01*
X115225802Y-101915535D01*
X115206682Y-102005817D01*
X115191238Y-102079157D01*
X115179961Y-102133243D01*
X115173340Y-102165762D01*
X115171723Y-102174651D01*
X115159216Y-102177575D01*
X115124292Y-102180154D01*
X115070788Y-102182250D01*
X115002539Y-102183727D01*
X114923382Y-102184448D01*
X114895998Y-102184496D01*
X114799845Y-102184147D01*
X114727299Y-102182993D01*
X114675721Y-102180875D01*
X114642471Y-102177635D01*
X114624910Y-102173112D01*
X114620339Y-102167863D01*
X114623134Y-102152316D01*
X114631178Y-102113490D01*
X114643960Y-102053720D01*
X114660970Y-101975342D01*
X114681697Y-101880689D01*
X114705630Y-101772097D01*
X114732257Y-101651901D01*
X114761069Y-101522435D01*
X114784421Y-101417899D01*
X114814517Y-101283313D01*
X114842829Y-101156545D01*
X114868848Y-101039883D01*
X114892067Y-100935612D01*
X114911978Y-100846019D01*
X114928072Y-100773391D01*
X114939841Y-100720013D01*
X114946776Y-100688172D01*
X114948504Y-100679752D01*
X114960984Y-100678305D01*
X114995835Y-100677032D01*
X115049176Y-100676003D01*
X115117127Y-100675286D01*
X115195804Y-100674951D01*
X115217600Y-100674935D01*
X115298435Y-100675464D01*
G37*
G36*
X116440480Y-100641335D02*
G01*
X116564560Y-100662945D01*
X116672467Y-100704815D01*
X116763879Y-100766796D01*
X116838477Y-100848737D01*
X116875945Y-100909127D01*
X116906155Y-100976615D01*
X116931630Y-101053538D01*
X116949439Y-101129458D01*
X116956652Y-101193937D01*
X116956682Y-101196718D01*
X116956876Y-101239380D01*
X116715725Y-101239380D01*
X116474574Y-101239380D01*
X116465521Y-101171140D01*
X116448165Y-101097540D01*
X116418850Y-101045097D01*
X116383081Y-101017346D01*
X116323233Y-101003615D01*
X116261166Y-101014500D01*
X116198760Y-101048685D01*
X116137897Y-101104856D01*
X116080458Y-101181697D01*
X116037302Y-101259070D01*
X115988415Y-101375111D01*
X115957563Y-101485731D01*
X115945128Y-101587873D01*
X115951492Y-101678482D01*
X115975662Y-101751818D01*
X116013869Y-101802741D01*
X116063985Y-101832310D01*
X116122317Y-101840289D01*
X116185175Y-101826441D01*
X116248867Y-101790528D01*
X116272685Y-101770899D01*
X116308162Y-101733797D01*
X116338873Y-101693363D01*
X116347050Y-101679784D01*
X116372149Y-101633178D01*
X116618819Y-101633178D01*
X116865490Y-101633178D01*
X116857704Y-101669277D01*
X116848556Y-101697259D01*
X116830825Y-101740953D01*
X116807724Y-101792614D01*
X116797840Y-101813484D01*
X116728314Y-101928267D01*
X116638834Y-102027254D01*
X116531521Y-102108863D01*
X116408495Y-102171508D01*
X116271877Y-102213606D01*
X116258437Y-102216445D01*
X116191520Y-102226412D01*
X116112130Y-102232695D01*
X116028567Y-102235168D01*
X115949131Y-102233705D01*
X115882121Y-102228182D01*
X115850283Y-102222622D01*
X115738838Y-102183649D01*
X115640713Y-102123705D01*
X115557266Y-102045189D01*
X115489857Y-101950499D01*
X115439844Y-101842036D01*
X115408586Y-101722199D01*
X115397443Y-101593387D01*
X115407775Y-101457999D01*
X115409872Y-101445179D01*
X115448083Y-101287542D01*
X115506622Y-101145630D01*
X115586652Y-101017226D01*
X115689336Y-100900115D01*
X115702275Y-100887627D01*
X115818172Y-100793930D01*
X115945494Y-100722721D01*
X116085774Y-100673363D01*
X116240547Y-100645221D01*
X116300545Y-100640135D01*
X116440480Y-100641335D01*
G37*
G36*
X113351956Y-100162979D02*
G01*
X113427514Y-100163263D01*
X113490835Y-100163773D01*
X113538071Y-100164519D01*
X113565372Y-100165513D01*
X113570605Y-100166279D01*
X113571669Y-100183936D01*
X113573531Y-100224265D01*
X113576057Y-100283699D01*
X113579112Y-100358673D01*
X113582561Y-100445621D01*
X113586270Y-100540979D01*
X113590103Y-100641180D01*
X113593925Y-100742659D01*
X113597601Y-100841851D01*
X113600998Y-100935189D01*
X113603979Y-101019109D01*
X113606410Y-101090045D01*
X113608156Y-101144431D01*
X113609082Y-101178702D01*
X113609194Y-101186217D01*
X113611031Y-101230902D01*
X113615660Y-101255683D01*
X113621534Y-101258414D01*
X113629484Y-101244322D01*
X113647496Y-101208938D01*
X113674384Y-101154694D01*
X113708963Y-101084020D01*
X113750050Y-100999347D01*
X113796458Y-100903106D01*
X113847002Y-100797727D01*
X113889966Y-100707752D01*
X114146454Y-100169561D01*
X114547479Y-100166089D01*
X114665103Y-100165285D01*
X114758768Y-100165178D01*
X114830762Y-100165844D01*
X114883373Y-100167358D01*
X114918889Y-100169794D01*
X114939596Y-100173228D01*
X114947783Y-100177734D01*
X114948143Y-100179216D01*
X114945296Y-100194380D01*
X114937165Y-100233172D01*
X114924187Y-100293598D01*
X114906799Y-100373665D01*
X114885437Y-100471379D01*
X114860540Y-100584746D01*
X114832544Y-100711772D01*
X114801886Y-100850464D01*
X114769004Y-100998826D01*
X114734335Y-101154867D01*
X114727213Y-101186873D01*
X114506645Y-102177933D01*
X114222200Y-102181471D01*
X114138980Y-102182062D01*
X114065367Y-102181736D01*
X114005135Y-102180579D01*
X113962058Y-102178679D01*
X113939910Y-102176122D01*
X113937756Y-102174907D01*
X113940481Y-102160276D01*
X113948256Y-102122798D01*
X113960480Y-102065265D01*
X113976553Y-101990469D01*
X113995873Y-101901201D01*
X114017841Y-101800253D01*
X114041855Y-101690417D01*
X114049788Y-101654236D01*
X114074231Y-101542076D01*
X114096628Y-101437818D01*
X114116400Y-101344270D01*
X114132970Y-101264238D01*
X114145758Y-101200529D01*
X114154184Y-101155951D01*
X114157671Y-101133310D01*
X114157655Y-101131172D01*
X114151232Y-101139964D01*
X114134496Y-101170089D01*
X114108609Y-101219266D01*
X114074734Y-101285216D01*
X114034034Y-101365660D01*
X113987671Y-101458318D01*
X113936808Y-101560910D01*
X113892197Y-101651587D01*
X113630905Y-102184496D01*
X113418894Y-102184496D01*
X113206882Y-102184496D01*
X113198210Y-101827945D01*
X113195779Y-101721306D01*
X113193578Y-101612025D01*
X113191710Y-101506251D01*
X113190279Y-101410135D01*
X113189387Y-101329826D01*
X113189139Y-101286472D01*
X113188283Y-101219686D01*
X113186192Y-101167335D01*
X113183107Y-101132959D01*
X113179271Y-101120097D01*
X113177845Y-101121240D01*
X113172404Y-101137909D01*
X113161421Y-101177268D01*
X113145625Y-101236515D01*
X113125742Y-101312845D01*
X113102502Y-101403457D01*
X113076630Y-101505547D01*
X113048855Y-101616311D01*
X113037301Y-101662713D01*
X112907652Y-102184496D01*
X112607969Y-102184496D01*
X112511763Y-102184377D01*
X112438749Y-102183861D01*
X112385865Y-102182705D01*
X112350048Y-102180672D01*
X112328239Y-102177519D01*
X112317375Y-102173007D01*
X112314394Y-102166895D01*
X112315363Y-102161525D01*
X112319134Y-102145770D01*
X112327976Y-102106973D01*
X112341359Y-102047525D01*
X112358756Y-101969816D01*
X112379637Y-101876236D01*
X112403473Y-101769174D01*
X112429736Y-101651022D01*
X112457896Y-101524170D01*
X112487425Y-101391006D01*
X112517793Y-101253922D01*
X112548472Y-101115308D01*
X112578933Y-100977554D01*
X112608646Y-100843049D01*
X112637084Y-100714185D01*
X112663716Y-100593351D01*
X112688015Y-100482937D01*
X112709451Y-100385334D01*
X112727496Y-100302931D01*
X112741619Y-100238119D01*
X112751294Y-100193288D01*
X112755989Y-100170828D01*
X112756359Y-100168676D01*
X112768844Y-100167444D01*
X112803733Y-100166336D01*
X112857178Y-100165362D01*
X112925328Y-100164535D01*
X113004335Y-100163864D01*
X113090350Y-100163362D01*
X113179525Y-100163039D01*
X113268010Y-100162908D01*
X113351956Y-100162979D01*
G37*
G36*
X123619607Y-100190684D02*
G01*
X123641736Y-100193850D01*
X123674435Y-100202057D01*
X123649796Y-100310512D01*
X123637604Y-100364154D01*
X123627018Y-100410683D01*
X123619882Y-100442002D01*
X123618742Y-100446992D01*
X123607531Y-100466698D01*
X123580816Y-100478644D01*
X123554641Y-100483667D01*
X123514127Y-100494096D01*
X123482566Y-100509719D01*
X123476179Y-100515274D01*
X123461496Y-100539980D01*
X123446766Y-100577804D01*
X123434292Y-100620355D01*
X123426377Y-100659242D01*
X123425325Y-100686077D01*
X123427680Y-100691959D01*
X123444693Y-100696550D01*
X123480557Y-100698965D01*
X123527928Y-100698752D01*
X123534164Y-100698523D01*
X123630923Y-100694625D01*
X123664973Y-100550233D01*
X123679659Y-100488241D01*
X123693001Y-100432429D01*
X123703337Y-100389730D01*
X123708303Y-100369742D01*
X123717583Y-100333644D01*
X123971114Y-100333644D01*
X124050000Y-100333973D01*
X124119572Y-100334890D01*
X124175689Y-100336289D01*
X124214212Y-100338064D01*
X124231001Y-100340109D01*
X124231307Y-100340305D01*
X124231155Y-100354900D01*
X124226004Y-100390086D01*
X124216710Y-100440862D01*
X124204128Y-100502226D01*
X124201636Y-100513754D01*
X124188516Y-100576873D01*
X124178513Y-100630688D01*
X124172500Y-100670057D01*
X124171344Y-100689836D01*
X124171683Y-100690865D01*
X124187132Y-100696183D01*
X124221191Y-100699910D01*
X124262612Y-100701189D01*
X124305847Y-100702167D01*
X124336326Y-100704724D01*
X124347160Y-100708097D01*
X124344144Y-100722734D01*
X124335900Y-100757803D01*
X124323635Y-100808282D01*
X124308554Y-100869152D01*
X124306156Y-100878743D01*
X124265151Y-101042481D01*
X124170882Y-101042481D01*
X124076613Y-101042481D01*
X123995057Y-101397312D01*
X123969810Y-101508560D01*
X123950574Y-101596840D01*
X123936908Y-101664630D01*
X123928371Y-101714412D01*
X123924521Y-101748664D01*
X123924919Y-101769866D01*
X123927329Y-101777984D01*
X123938164Y-101791506D01*
X123956807Y-101799358D01*
X123989502Y-101802983D01*
X124039147Y-101803824D01*
X124086080Y-101805322D01*
X124120754Y-101809284D01*
X124136738Y-101814909D01*
X124137135Y-101816006D01*
X124134319Y-101832703D01*
X124126611Y-101869817D01*
X124115119Y-101922205D01*
X124100953Y-101984725D01*
X124097755Y-101998604D01*
X124083207Y-102062110D01*
X124071085Y-102116074D01*
X124062489Y-102155521D01*
X124058519Y-102175476D01*
X124058375Y-102176759D01*
X124045938Y-102179228D01*
X124011388Y-102181372D01*
X123958861Y-102183054D01*
X123892497Y-102184140D01*
X123821674Y-102184496D01*
X123723249Y-102183754D01*
X123646941Y-102181047D01*
X123588644Y-102175655D01*
X123544252Y-102166860D01*
X123509657Y-102153942D01*
X123480755Y-102136180D01*
X123463016Y-102121644D01*
X123433057Y-102083715D01*
X123405786Y-102029882D01*
X123385417Y-101970449D01*
X123376164Y-101915720D01*
X123375995Y-101908837D01*
X123378777Y-101881524D01*
X123386681Y-101832267D01*
X123399004Y-101764723D01*
X123415045Y-101682548D01*
X123434100Y-101589396D01*
X123455468Y-101488924D01*
X123465530Y-101442842D01*
X123555118Y-101035917D01*
X123457284Y-101032055D01*
X123409699Y-101030709D01*
X123373671Y-101030695D01*
X123355992Y-101031994D01*
X123355322Y-101032321D01*
X123351699Y-101045581D01*
X123342977Y-101081882D01*
X123329750Y-101138636D01*
X123312609Y-101213256D01*
X123292146Y-101303152D01*
X123268954Y-101405738D01*
X123243625Y-101518425D01*
X123223032Y-101610473D01*
X123094871Y-102184496D01*
X122820958Y-102184496D01*
X122729512Y-102184362D01*
X122661128Y-102183774D01*
X122612613Y-102182460D01*
X122580777Y-102180143D01*
X122562428Y-102176549D01*
X122554376Y-102171404D01*
X122553427Y-102164431D01*
X122554179Y-102161525D01*
X122558504Y-102144786D01*
X122568047Y-102106108D01*
X122582048Y-102048656D01*
X122599748Y-101975598D01*
X122620389Y-101890097D01*
X122643212Y-101795322D01*
X122667457Y-101694437D01*
X122692367Y-101590608D01*
X122717181Y-101487001D01*
X122741141Y-101386783D01*
X122763489Y-101293118D01*
X122783465Y-101209174D01*
X122800310Y-101138115D01*
X122813266Y-101083109D01*
X122821573Y-101047320D01*
X122824473Y-101033927D01*
X122812378Y-101031811D01*
X122780218Y-101030214D01*
X122734180Y-101029404D01*
X122718576Y-101029354D01*
X122666165Y-101029916D01*
X122635200Y-101032343D01*
X122620883Y-101037750D01*
X122618417Y-101047251D01*
X122619638Y-101052326D01*
X122647640Y-101188861D01*
X122651729Y-101331067D01*
X122632192Y-101474437D01*
X122589318Y-101614467D01*
X122582656Y-101630742D01*
X122509747Y-101771214D01*
X122416739Y-101895362D01*
X122305105Y-102001822D01*
X122176321Y-102089228D01*
X122031860Y-102156218D01*
X122004060Y-102166086D01*
X121956299Y-102181154D01*
X121912558Y-102191635D01*
X121865636Y-102198522D01*
X121808338Y-102202808D01*
X121733464Y-102205486D01*
X121715274Y-102205927D01*
X121616514Y-102206642D01*
X121539631Y-102203519D01*
X121480500Y-102196324D01*
X121456439Y-102191161D01*
X121334180Y-102148059D01*
X121227714Y-102085447D01*
X121138737Y-102004991D01*
X121068949Y-101908358D01*
X121020049Y-101797214D01*
X121006979Y-101750181D01*
X120987273Y-101613071D01*
X120990081Y-101538692D01*
X121565868Y-101538692D01*
X121566640Y-101614122D01*
X121573517Y-101682764D01*
X121586250Y-101737261D01*
X121595987Y-101759101D01*
X121638990Y-101808941D01*
X121693235Y-101837109D01*
X121753944Y-101842728D01*
X121816335Y-101824921D01*
X121848781Y-101805447D01*
X121907133Y-101750129D01*
X121961381Y-101674172D01*
X122008986Y-101583143D01*
X122047405Y-101482611D01*
X122074098Y-101378142D01*
X122085973Y-101285735D01*
X122086389Y-101191930D01*
X122074091Y-101117548D01*
X122048016Y-101058485D01*
X122017323Y-101020302D01*
X121966038Y-100984970D01*
X121909349Y-100974285D01*
X121849595Y-100987812D01*
X121789119Y-101025114D01*
X121741884Y-101071671D01*
X121697319Y-101133892D01*
X121653612Y-101213230D01*
X121615094Y-101300782D01*
X121586099Y-101387643D01*
X121583644Y-101396899D01*
X121571453Y-101463832D01*
X121565868Y-101538692D01*
X120990081Y-101538692D01*
X120992538Y-101473614D01*
X121022947Y-101330635D01*
X121078670Y-101182962D01*
X121095036Y-101148310D01*
X121129257Y-101081578D01*
X121161050Y-101028891D01*
X121196692Y-100981493D01*
X121242454Y-100930626D01*
X121274776Y-100897426D01*
X121330176Y-100843245D01*
X121376635Y-100803190D01*
X121422191Y-100771367D01*
X121474884Y-100741878D01*
X121511987Y-100723473D01*
X121646677Y-100669879D01*
X121783636Y-100636676D01*
X121919932Y-100623332D01*
X122052636Y-100629314D01*
X122178816Y-100654089D01*
X122295543Y-100697124D01*
X122399887Y-100757887D01*
X122488916Y-100835843D01*
X122548247Y-100911929D01*
X122598209Y-100989230D01*
X122637035Y-100841928D01*
X122675862Y-100694625D01*
X122784529Y-100688062D01*
X122893196Y-100681499D01*
X122917510Y-100585551D01*
X122954829Y-100473351D01*
X123004863Y-100378067D01*
X123065869Y-100301991D01*
X123136104Y-100247415D01*
X123194085Y-100221877D01*
X123233994Y-100213222D01*
X123291767Y-100205284D01*
X123360860Y-100198473D01*
X123434733Y-100193197D01*
X123506843Y-100189868D01*
X123570648Y-100188894D01*
X123619607Y-100190684D01*
G37*
G36*
X118934461Y-100629314D02*
G01*
X119066813Y-100652272D01*
X119183963Y-100694965D01*
X119284781Y-100756414D01*
X119368137Y-100835642D01*
X119432898Y-100931673D01*
X119477934Y-101043528D01*
X119502114Y-101170231D01*
X119506125Y-101247609D01*
X119504693Y-101310439D01*
X119500261Y-101371796D01*
X119493690Y-101420897D01*
X119491459Y-101431503D01*
X119476084Y-101495591D01*
X119252768Y-101566795D01*
X119157835Y-101597858D01*
X119087170Y-101622751D01*
X119041005Y-101641371D01*
X119019570Y-101653614D01*
X119023099Y-101659378D01*
X119045815Y-101659111D01*
X119066214Y-101658523D01*
X119109450Y-101658072D01*
X119172107Y-101657767D01*
X119250768Y-101657616D01*
X119342018Y-101657628D01*
X119442440Y-101657811D01*
X119497634Y-101657979D01*
X119918442Y-101659432D01*
X119918442Y-101724523D01*
X119928099Y-101787141D01*
X119957478Y-101833655D01*
X120007199Y-101864533D01*
X120077878Y-101880240D01*
X120127600Y-101882584D01*
X120204628Y-101875419D01*
X120267019Y-101855489D01*
X120312581Y-101825143D01*
X120339121Y-101786728D01*
X120344447Y-101742593D01*
X120326367Y-101695086D01*
X120316131Y-101680630D01*
X120291750Y-101654807D01*
X120260360Y-101632872D01*
X120217461Y-101612785D01*
X120158552Y-101592509D01*
X120079135Y-101570004D01*
X120061866Y-101565442D01*
X119926843Y-101524926D01*
X119816028Y-101479869D01*
X119727561Y-101428859D01*
X119659585Y-101370484D01*
X119610241Y-101303333D01*
X119577671Y-101225996D01*
X119568713Y-101190915D01*
X119562128Y-101110050D01*
X119572940Y-101022014D01*
X119599646Y-100937863D01*
X119604561Y-100927035D01*
X119652388Y-100854956D01*
X119723155Y-100789448D01*
X119813962Y-100732423D01*
X119921913Y-100685793D01*
X120010324Y-100659305D01*
X120088200Y-100644676D01*
X120181719Y-100634629D01*
X120283846Y-100629229D01*
X120387547Y-100628539D01*
X120485786Y-100632626D01*
X120571529Y-100641552D01*
X120631541Y-100653595D01*
X120743559Y-100692975D01*
X120832217Y-100743184D01*
X120898443Y-100805090D01*
X120943168Y-100879561D01*
X120967284Y-100967223D01*
X120971183Y-101016065D01*
X120969666Y-101063053D01*
X120967940Y-101075210D01*
X120959304Y-101121240D01*
X120703930Y-101121240D01*
X120448556Y-101121240D01*
X120448556Y-101068941D01*
X120441449Y-101021992D01*
X120416447Y-100980909D01*
X120410714Y-100974289D01*
X120387916Y-100951386D01*
X120365139Y-100938073D01*
X120333736Y-100931186D01*
X120285059Y-100927557D01*
X120282729Y-100927440D01*
X120228532Y-100926516D01*
X120190901Y-100931340D01*
X120160486Y-100943490D01*
X120149598Y-100949902D01*
X120107164Y-100987221D01*
X120089514Y-101029500D01*
X120097327Y-101074940D01*
X120100167Y-101080828D01*
X120118307Y-101106252D01*
X120146320Y-101127786D01*
X120187829Y-101146934D01*
X120246457Y-101165201D01*
X120325827Y-101184092D01*
X120372161Y-101193784D01*
X120503285Y-101223112D01*
X120610809Y-101253927D01*
X120697388Y-101287980D01*
X120765672Y-101327021D01*
X120818317Y-101372803D01*
X120857973Y-101427075D01*
X120887295Y-101491589D01*
X120903227Y-101544308D01*
X120916687Y-101647632D01*
X120905729Y-101750836D01*
X120872026Y-101850871D01*
X120817251Y-101944690D01*
X120743075Y-102029246D01*
X120651171Y-102101490D01*
X120573785Y-102144732D01*
X120510421Y-102173471D01*
X120453824Y-102195072D01*
X120398412Y-102210518D01*
X120338604Y-102220793D01*
X120268818Y-102226882D01*
X120183473Y-102229768D01*
X120087574Y-102230439D01*
X119978519Y-102229282D01*
X119890065Y-102225154D01*
X119816634Y-102217074D01*
X119752649Y-102204060D01*
X119692533Y-102185130D01*
X119630708Y-102159302D01*
X119599463Y-102144495D01*
X119513528Y-102090153D01*
X119443951Y-102020612D01*
X119393432Y-101939836D01*
X119364673Y-101851787D01*
X119358924Y-101791597D01*
X119358800Y-101744755D01*
X119317717Y-101816951D01*
X119290011Y-101857988D01*
X119249478Y-101908667D01*
X119202734Y-101960985D01*
X119176729Y-101987600D01*
X119071022Y-102078522D01*
X118959945Y-102146718D01*
X118839498Y-102193846D01*
X118705682Y-102221570D01*
X118591140Y-102230734D01*
X118523791Y-102231696D01*
X118458380Y-102230271D01*
X118404063Y-102226768D01*
X118379029Y-102223522D01*
X118253388Y-102189093D01*
X118143834Y-102135145D01*
X118051175Y-102063509D01*
X117976214Y-101976014D01*
X117919759Y-101874487D01*
X117882614Y-101760759D01*
X117865586Y-101636658D01*
X117866732Y-101597620D01*
X118430885Y-101597620D01*
X118438914Y-101665449D01*
X118460899Y-101729421D01*
X118493976Y-101783667D01*
X118533507Y-101821344D01*
X118550689Y-101830486D01*
X118604415Y-101841477D01*
X118662758Y-101837359D01*
X118700767Y-101824522D01*
X118760546Y-101780865D01*
X118817137Y-101715901D01*
X118868360Y-101634561D01*
X118912036Y-101541771D01*
X118945987Y-101442461D01*
X118968033Y-101341558D01*
X118975995Y-101243990D01*
X118974613Y-101205169D01*
X118968100Y-101151674D01*
X118957980Y-101103195D01*
X118946949Y-101071422D01*
X118906697Y-101016695D01*
X118856254Y-100985070D01*
X118798409Y-100976830D01*
X118735954Y-100992259D01*
X118671680Y-101031640D01*
X118659127Y-101042175D01*
X118596013Y-101110932D01*
X118540076Y-101197289D01*
X118493456Y-101295191D01*
X118458291Y-101398583D01*
X118436721Y-101501411D01*
X118430885Y-101597620D01*
X117866732Y-101597620D01*
X117869481Y-101504014D01*
X117895103Y-101364655D01*
X117940331Y-101227641D01*
X117968736Y-101156832D01*
X117905687Y-101164299D01*
X117818941Y-101182794D01*
X117733910Y-101215482D01*
X117661045Y-101258056D01*
X117642252Y-101272852D01*
X117610304Y-101303252D01*
X117582667Y-101337462D01*
X117558223Y-101378523D01*
X117535859Y-101429477D01*
X117514458Y-101493364D01*
X117492905Y-101573225D01*
X117470084Y-101672101D01*
X117444882Y-101793033D01*
X117437015Y-101832425D01*
X117368520Y-102177933D01*
X117090502Y-102181476D01*
X116994370Y-102182374D01*
X116921772Y-102182213D01*
X116870009Y-102180863D01*
X116836379Y-102178198D01*
X116818181Y-102174089D01*
X116812712Y-102168410D01*
X116812713Y-102168349D01*
X116815685Y-102151751D01*
X116824044Y-102112706D01*
X116837135Y-102053999D01*
X116854301Y-101978417D01*
X116874888Y-101888745D01*
X116898242Y-101787770D01*
X116923706Y-101678277D01*
X116950625Y-101563053D01*
X116978346Y-101444883D01*
X117006211Y-101326554D01*
X117033567Y-101210853D01*
X117059758Y-101100563D01*
X117084129Y-100998473D01*
X117106024Y-100907368D01*
X117124790Y-100830034D01*
X117139770Y-100769256D01*
X117150310Y-100727822D01*
X117155753Y-100708517D01*
X117156227Y-100707488D01*
X117170350Y-100705156D01*
X117205758Y-100702028D01*
X117257556Y-100698362D01*
X117320847Y-100694416D01*
X117390735Y-100690449D01*
X117462323Y-100686719D01*
X117530714Y-100683485D01*
X117591013Y-100681006D01*
X117638323Y-100679539D01*
X117667747Y-100679343D01*
X117675075Y-100680097D01*
X117673520Y-100693074D01*
X117666592Y-100723880D01*
X117658822Y-100754306D01*
X117646162Y-100803721D01*
X117641922Y-100830224D01*
X117647482Y-100836194D01*
X117664224Y-100824011D01*
X117686827Y-100802568D01*
X117765969Y-100743271D01*
X117866322Y-100698029D01*
X117986613Y-100667340D01*
X118056230Y-100657344D01*
X118090052Y-100655379D01*
X118109593Y-100657683D01*
X118111550Y-100659776D01*
X118108563Y-100674953D01*
X118100653Y-100710988D01*
X118088877Y-100763175D01*
X118074289Y-100826810D01*
X118066907Y-100858708D01*
X118051648Y-100925473D01*
X118039078Y-100982439D01*
X118030161Y-101025076D01*
X118025860Y-101048853D01*
X118025715Y-101052233D01*
X118034640Y-101044252D01*
X118055823Y-101020218D01*
X118085286Y-100984706D01*
X118096693Y-100970569D01*
X118195230Y-100867131D01*
X118311960Y-100777624D01*
X118440776Y-100706042D01*
X118575571Y-100656380D01*
X118578013Y-100655712D01*
X118627288Y-100645350D01*
X118691794Y-100635919D01*
X118760512Y-100628922D01*
X118788039Y-100627068D01*
X118934461Y-100629314D01*
G37*
%TD*%
%LPC*%
D14*
%TO.C,EJECT*%
X147510830Y-94700000D03*
X141010830Y-94700000D03*
X147510830Y-90200000D03*
X141010830Y-90200000D03*
%TD*%
D15*
%TO.C,D1*%
X112308830Y-90279000D03*
D16*
X112308830Y-92819000D03*
X112308830Y-95359000D03*
%TD*%
D17*
%TO.C,J1*%
X184317830Y-100693000D03*
D18*
X184317830Y-98693000D03*
X184317830Y-96693000D03*
X184317830Y-94693000D03*
X184317830Y-92693000D03*
X184317830Y-90693000D03*
X184317830Y-88693000D03*
X184317830Y-86693000D03*
X184317830Y-84693000D03*
%TD*%
D14*
%TO.C,POWER*%
X140910830Y-110750000D03*
X147410830Y-110750000D03*
X140910830Y-115250000D03*
X147410830Y-115250000D03*
%TD*%
D15*
%TO.C,D2*%
X176250000Y-95330000D03*
D16*
X176250000Y-92790000D03*
X176250000Y-90250000D03*
%TD*%
%LPD*%
M02*
