%TF.GenerationSoftware,KiCad,Pcbnew,8.0.4*%
%TF.CreationDate,2024-08-22T22:42:40+01:00*%
%TF.ProjectId,XBox button board_no_LAN-HDD_all tracks front,58426f78-2062-4757-9474-6f6e20626f61,rev?*%
%TF.SameCoordinates,Original*%
%TF.FileFunction,Legend,Top*%
%TF.FilePolarity,Positive*%
%FSLAX46Y46*%
G04 Gerber Fmt 4.6, Leading zero omitted, Abs format (unit mm)*
G04 Created by KiCad (PCBNEW 8.0.4) date 2024-08-22 22:42:40*
%MOMM*%
%LPD*%
G01*
G04 APERTURE LIST*
%ADD10C,0.254000*%
%ADD11C,0.150000*%
%ADD12C,0.120000*%
%ADD13C,0.000000*%
%ADD14C,2.000000*%
%ADD15R,1.800000X1.800000*%
%ADD16C,1.800000*%
%ADD17R,2.000000X1.400000*%
%ADD18O,2.000000X1.400000*%
G04 APERTURE END LIST*
D10*
X142738030Y-90466960D02*
G75*
G02*
X141722030Y-90466960I-508000J0D01*
G01*
X141722030Y-90466960D02*
G75*
G02*
X142738030Y-90466960I508000J0D01*
G01*
X141087030Y-109913200D02*
X147284630Y-109913200D01*
X145582830Y-113012000D02*
G75*
G02*
X142788830Y-113012000I-1397000J0D01*
G01*
X142788830Y-113012000D02*
G75*
G02*
X145582830Y-113012000I1397000J0D01*
G01*
X141157020Y-95613223D02*
X147357160Y-95613223D01*
X146802030Y-90466960D02*
G75*
G02*
X145786030Y-90466960I-508000J0D01*
G01*
X145786030Y-90466960D02*
G75*
G02*
X146802030Y-90466960I508000J0D01*
G01*
X147287170Y-116113340D02*
X147287170Y-109913200D01*
X142661830Y-115044000D02*
G75*
G02*
X141645830Y-115044000I-508000J0D01*
G01*
X141645830Y-115044000D02*
G75*
G02*
X142661830Y-115044000I508000J0D01*
G01*
X141160690Y-89400160D02*
X147360830Y-89400160D01*
X141160690Y-89400160D02*
X141160690Y-95600300D01*
X142738030Y-94530960D02*
G75*
G02*
X141722030Y-94530960I-508000J0D01*
G01*
X141722030Y-94530960D02*
G75*
G02*
X142738030Y-94530960I508000J0D01*
G01*
X145659030Y-92498960D02*
G75*
G02*
X142865030Y-92498960I-1397000J0D01*
G01*
X142865030Y-92498960D02*
G75*
G02*
X145659030Y-92498960I1397000J0D01*
G01*
X146725830Y-110980000D02*
G75*
G02*
X145709830Y-110980000I-508000J0D01*
G01*
X145709830Y-110980000D02*
G75*
G02*
X146725830Y-110980000I508000J0D01*
G01*
X141087030Y-109913200D02*
X141087030Y-116110800D01*
X142661830Y-110980000D02*
G75*
G02*
X141645830Y-110980000I-508000J0D01*
G01*
X141645830Y-110980000D02*
G75*
G02*
X142661830Y-110980000I508000J0D01*
G01*
X147284630Y-116110800D02*
X141087030Y-116110800D01*
X146725830Y-115044000D02*
G75*
G02*
X145709830Y-115044000I-508000J0D01*
G01*
X145709830Y-115044000D02*
G75*
G02*
X146725830Y-115044000I508000J0D01*
G01*
X146802030Y-94530960D02*
G75*
G02*
X145786030Y-94530960I-508000J0D01*
G01*
X145786030Y-94530960D02*
G75*
G02*
X146802030Y-94530960I508000J0D01*
G01*
X147363370Y-95600300D02*
X147363370Y-89400160D01*
D11*
X142332258Y-96631009D02*
X142665591Y-96631009D01*
X142808448Y-97154819D02*
X142332258Y-97154819D01*
X142332258Y-97154819D02*
X142332258Y-96154819D01*
X142332258Y-96154819D02*
X142808448Y-96154819D01*
X143522734Y-96154819D02*
X143522734Y-96869104D01*
X143522734Y-96869104D02*
X143475115Y-97011961D01*
X143475115Y-97011961D02*
X143379877Y-97107200D01*
X143379877Y-97107200D02*
X143237020Y-97154819D01*
X143237020Y-97154819D02*
X143141782Y-97154819D01*
X143998925Y-96631009D02*
X144332258Y-96631009D01*
X144475115Y-97154819D02*
X143998925Y-97154819D01*
X143998925Y-97154819D02*
X143998925Y-96154819D01*
X143998925Y-96154819D02*
X144475115Y-96154819D01*
X145475115Y-97059580D02*
X145427496Y-97107200D01*
X145427496Y-97107200D02*
X145284639Y-97154819D01*
X145284639Y-97154819D02*
X145189401Y-97154819D01*
X145189401Y-97154819D02*
X145046544Y-97107200D01*
X145046544Y-97107200D02*
X144951306Y-97011961D01*
X144951306Y-97011961D02*
X144903687Y-96916723D01*
X144903687Y-96916723D02*
X144856068Y-96726247D01*
X144856068Y-96726247D02*
X144856068Y-96583390D01*
X144856068Y-96583390D02*
X144903687Y-96392914D01*
X144903687Y-96392914D02*
X144951306Y-96297676D01*
X144951306Y-96297676D02*
X145046544Y-96202438D01*
X145046544Y-96202438D02*
X145189401Y-96154819D01*
X145189401Y-96154819D02*
X145284639Y-96154819D01*
X145284639Y-96154819D02*
X145427496Y-96202438D01*
X145427496Y-96202438D02*
X145475115Y-96250057D01*
X145760830Y-96154819D02*
X146332258Y-96154819D01*
X146046544Y-97154819D02*
X146046544Y-96154819D01*
X183984496Y-102207819D02*
X183984496Y-102922104D01*
X183984496Y-102922104D02*
X183936877Y-103064961D01*
X183936877Y-103064961D02*
X183841639Y-103160200D01*
X183841639Y-103160200D02*
X183698782Y-103207819D01*
X183698782Y-103207819D02*
X183603544Y-103207819D01*
X184984496Y-103207819D02*
X184413068Y-103207819D01*
X184698782Y-103207819D02*
X184698782Y-102207819D01*
X184698782Y-102207819D02*
X184603544Y-102350676D01*
X184603544Y-102350676D02*
X184508306Y-102445914D01*
X184508306Y-102445914D02*
X184413068Y-102493533D01*
X141851306Y-109204819D02*
X141851306Y-108204819D01*
X141851306Y-108204819D02*
X142232258Y-108204819D01*
X142232258Y-108204819D02*
X142327496Y-108252438D01*
X142327496Y-108252438D02*
X142375115Y-108300057D01*
X142375115Y-108300057D02*
X142422734Y-108395295D01*
X142422734Y-108395295D02*
X142422734Y-108538152D01*
X142422734Y-108538152D02*
X142375115Y-108633390D01*
X142375115Y-108633390D02*
X142327496Y-108681009D01*
X142327496Y-108681009D02*
X142232258Y-108728628D01*
X142232258Y-108728628D02*
X141851306Y-108728628D01*
X143041782Y-108204819D02*
X143232258Y-108204819D01*
X143232258Y-108204819D02*
X143327496Y-108252438D01*
X143327496Y-108252438D02*
X143422734Y-108347676D01*
X143422734Y-108347676D02*
X143470353Y-108538152D01*
X143470353Y-108538152D02*
X143470353Y-108871485D01*
X143470353Y-108871485D02*
X143422734Y-109061961D01*
X143422734Y-109061961D02*
X143327496Y-109157200D01*
X143327496Y-109157200D02*
X143232258Y-109204819D01*
X143232258Y-109204819D02*
X143041782Y-109204819D01*
X143041782Y-109204819D02*
X142946544Y-109157200D01*
X142946544Y-109157200D02*
X142851306Y-109061961D01*
X142851306Y-109061961D02*
X142803687Y-108871485D01*
X142803687Y-108871485D02*
X142803687Y-108538152D01*
X142803687Y-108538152D02*
X142851306Y-108347676D01*
X142851306Y-108347676D02*
X142946544Y-108252438D01*
X142946544Y-108252438D02*
X143041782Y-108204819D01*
X143803687Y-108204819D02*
X144041782Y-109204819D01*
X144041782Y-109204819D02*
X144232258Y-108490533D01*
X144232258Y-108490533D02*
X144422734Y-109204819D01*
X144422734Y-109204819D02*
X144660830Y-108204819D01*
X145041782Y-108681009D02*
X145375115Y-108681009D01*
X145517972Y-109204819D02*
X145041782Y-109204819D01*
X145041782Y-109204819D02*
X145041782Y-108204819D01*
X145041782Y-108204819D02*
X145517972Y-108204819D01*
X146517972Y-109204819D02*
X146184639Y-108728628D01*
X145946544Y-109204819D02*
X145946544Y-108204819D01*
X145946544Y-108204819D02*
X146327496Y-108204819D01*
X146327496Y-108204819D02*
X146422734Y-108252438D01*
X146422734Y-108252438D02*
X146470353Y-108300057D01*
X146470353Y-108300057D02*
X146517972Y-108395295D01*
X146517972Y-108395295D02*
X146517972Y-108538152D01*
X146517972Y-108538152D02*
X146470353Y-108633390D01*
X146470353Y-108633390D02*
X146422734Y-108681009D01*
X146422734Y-108681009D02*
X146327496Y-108728628D01*
X146327496Y-108728628D02*
X145946544Y-108728628D01*
D12*
%TO.C,EJECT*%
X140760830Y-91700000D02*
X140760830Y-93200000D01*
X142010830Y-95700000D02*
X146510830Y-95700000D01*
X146510830Y-89200000D02*
X142010830Y-89200000D01*
X147760830Y-93200000D02*
X147760830Y-91700000D01*
%TO.C,D1*%
X111228830Y-91259000D02*
X111072830Y-91259000D01*
X113544830Y-91259000D02*
X113388830Y-91259000D01*
X111228993Y-93860130D02*
G75*
G02*
X111228830Y-91778039I1079837J1041130D01*
G01*
X111230222Y-94491335D02*
G75*
G02*
X111073314Y-91259000I1078608J1672335D01*
G01*
X113388830Y-91778039D02*
G75*
G02*
X113388667Y-93860130I-1080000J-1040961D01*
G01*
X113544346Y-91259000D02*
G75*
G02*
X113387438Y-94491335I-1235516J-1560000D01*
G01*
D13*
%TO.C,G\u002A\u002A\u002A*%
G36*
X118988336Y-113951910D02*
G01*
X119034507Y-113954282D01*
X119064988Y-113959762D01*
X119086430Y-113969597D01*
X119105483Y-113985036D01*
X119107095Y-113986543D01*
X119144492Y-114021690D01*
X119144492Y-114402167D01*
X119144159Y-114505322D01*
X119143223Y-114599652D01*
X119141773Y-114681049D01*
X119139902Y-114745407D01*
X119137702Y-114788619D01*
X119135486Y-114806112D01*
X119110352Y-114837255D01*
X119061865Y-114858172D01*
X118988486Y-114869324D01*
X118916873Y-114871560D01*
X118855575Y-114869608D01*
X118802799Y-114864788D01*
X118767218Y-114858003D01*
X118760303Y-114855260D01*
X118741294Y-114844045D01*
X118726390Y-114831340D01*
X118715090Y-114813725D01*
X118706896Y-114787779D01*
X118701310Y-114750081D01*
X118697832Y-114697212D01*
X118695964Y-114625751D01*
X118695207Y-114532277D01*
X118695063Y-114413371D01*
X118695063Y-114407830D01*
X118695063Y-114021690D01*
X118732510Y-113986543D01*
X118751683Y-113970604D01*
X118772712Y-113960368D01*
X118802249Y-113954587D01*
X118846946Y-113952013D01*
X118913454Y-113951398D01*
X118919827Y-113951396D01*
X118988336Y-113951910D01*
G37*
G36*
X119568866Y-113948970D02*
G01*
X119633366Y-113962312D01*
X119680304Y-113982483D01*
X119703975Y-114007600D01*
X119710293Y-114026722D01*
X119715000Y-114049474D01*
X119718355Y-114080295D01*
X119720617Y-114123628D01*
X119722044Y-114183912D01*
X119722894Y-114265589D01*
X119723292Y-114339210D01*
X119724401Y-114596544D01*
X119992609Y-114596544D01*
X120260816Y-114596544D01*
X120261030Y-114324712D01*
X120261968Y-114211593D01*
X120264659Y-114125515D01*
X120269216Y-114064571D01*
X120275755Y-114026852D01*
X120279530Y-114016636D01*
X120313836Y-113980621D01*
X120374174Y-113957056D01*
X120460623Y-113945915D01*
X120494241Y-113944965D01*
X120585845Y-113950206D01*
X120651922Y-113967629D01*
X120692067Y-113997112D01*
X120697920Y-114006197D01*
X120703599Y-114030927D01*
X120708720Y-114079617D01*
X120713192Y-114147234D01*
X120716920Y-114228747D01*
X120719810Y-114319123D01*
X120721771Y-114413331D01*
X120722708Y-114506338D01*
X120722528Y-114593113D01*
X120721137Y-114668623D01*
X120718443Y-114727836D01*
X120714352Y-114765720D01*
X120712165Y-114774135D01*
X120689088Y-114808631D01*
X120653518Y-114840052D01*
X120648992Y-114842945D01*
X120636261Y-114850032D01*
X120621659Y-114855858D01*
X120602394Y-114860548D01*
X120575675Y-114864223D01*
X120538711Y-114867007D01*
X120488712Y-114869023D01*
X120422886Y-114870394D01*
X120338442Y-114871243D01*
X120232591Y-114871694D01*
X120102540Y-114871868D01*
X119992609Y-114871893D01*
X119843449Y-114871840D01*
X119720494Y-114871600D01*
X119620953Y-114871050D01*
X119542034Y-114870066D01*
X119480947Y-114868526D01*
X119434900Y-114866306D01*
X119401103Y-114863284D01*
X119376766Y-114859335D01*
X119359096Y-114854338D01*
X119345303Y-114848169D01*
X119336225Y-114842945D01*
X119300678Y-114813836D01*
X119276311Y-114780785D01*
X119274610Y-114776815D01*
X119269632Y-114748663D01*
X119265746Y-114696797D01*
X119262934Y-114626481D01*
X119261181Y-114542974D01*
X119260470Y-114451540D01*
X119260784Y-114357439D01*
X119262108Y-114265933D01*
X119264425Y-114182284D01*
X119267718Y-114111752D01*
X119271971Y-114059601D01*
X119276933Y-114031737D01*
X119302224Y-113990906D01*
X119346568Y-113963469D01*
X119412777Y-113948284D01*
X119492437Y-113944147D01*
X119568866Y-113948970D01*
G37*
G36*
X114936530Y-113947452D02*
G01*
X115208362Y-113951396D01*
X115212784Y-114037242D01*
X115212363Y-114125414D01*
X115204052Y-114225311D01*
X115189378Y-114324970D01*
X115169870Y-114412431D01*
X115161200Y-114440895D01*
X115113478Y-114550673D01*
X115045670Y-114662277D01*
X114964032Y-114765413D01*
X114964013Y-114765434D01*
X114893636Y-114843132D01*
X114972847Y-114922343D01*
X115021871Y-114978364D01*
X115070710Y-115045431D01*
X115104588Y-115101519D01*
X115146740Y-115192765D01*
X115175382Y-115283639D01*
X115192081Y-115382036D01*
X115198402Y-115495853D01*
X115197931Y-115572056D01*
X115193864Y-115749113D01*
X114929281Y-115753064D01*
X114664698Y-115757016D01*
X114664698Y-115590679D01*
X114660104Y-115454215D01*
X114645853Y-115342626D01*
X114621239Y-115253207D01*
X114585557Y-115183256D01*
X114546502Y-115137550D01*
X114483545Y-115095354D01*
X114417746Y-115080130D01*
X114352741Y-115090589D01*
X114292163Y-115125438D01*
X114239648Y-115183388D01*
X114199757Y-115260690D01*
X114185849Y-115303249D01*
X114175753Y-115350781D01*
X114168583Y-115409872D01*
X114163449Y-115487108D01*
X114160799Y-115549769D01*
X114153280Y-115756362D01*
X113887071Y-115756362D01*
X113620862Y-115756362D01*
X113621114Y-115578765D01*
X113627334Y-115425264D01*
X113646620Y-115293624D01*
X113680615Y-115179054D01*
X113730962Y-115076763D01*
X113799305Y-114981961D01*
X113842171Y-114934377D01*
X113929449Y-114843485D01*
X113869033Y-114777942D01*
X113773860Y-114656952D01*
X113698305Y-114523864D01*
X113656097Y-114416633D01*
X113638355Y-114354217D01*
X113626798Y-114295086D01*
X113620060Y-114229221D01*
X113616773Y-114146604D01*
X113616384Y-114125542D01*
X113613613Y-113951396D01*
X113883465Y-113947459D01*
X114153318Y-113943522D01*
X114161407Y-114157676D01*
X114166375Y-114262090D01*
X114173175Y-114342596D01*
X114183035Y-114404274D01*
X114197182Y-114452205D01*
X114216843Y-114491471D01*
X114243244Y-114527151D01*
X114253434Y-114538771D01*
X114316967Y-114591977D01*
X114384679Y-114617659D01*
X114453547Y-114615599D01*
X114520549Y-114585580D01*
X114552208Y-114560205D01*
X114592216Y-114513298D01*
X114622485Y-114454449D01*
X114643904Y-114380005D01*
X114657366Y-114286315D01*
X114663760Y-114169728D01*
X114664588Y-114099678D01*
X114664698Y-113943507D01*
X114936530Y-113947452D01*
G37*
G36*
X118447497Y-113949282D02*
G01*
X118513467Y-113964287D01*
X118554731Y-113988564D01*
X118563870Y-114000805D01*
X118567444Y-114021329D01*
X118570897Y-114066849D01*
X118574074Y-114133365D01*
X118576819Y-114216877D01*
X118578976Y-114313386D01*
X118580388Y-114418890D01*
X118580452Y-114426221D01*
X118581210Y-114551967D01*
X118581040Y-114651477D01*
X118579842Y-114727498D01*
X118577517Y-114782778D01*
X118573966Y-114820063D01*
X118569091Y-114842102D01*
X118565199Y-114849513D01*
X118552400Y-114858861D01*
X118529149Y-114865265D01*
X118490834Y-114869192D01*
X118432844Y-114871111D01*
X118350566Y-114871491D01*
X118348967Y-114871487D01*
X118253055Y-114869793D01*
X118180851Y-114865376D01*
X118134379Y-114858395D01*
X118120242Y-114853365D01*
X118101572Y-114839496D01*
X118064251Y-114809031D01*
X118011354Y-114764580D01*
X117945954Y-114708752D01*
X117871123Y-114644156D01*
X117789937Y-114573400D01*
X117774987Y-114560300D01*
X117693921Y-114489485D01*
X117619527Y-114425026D01*
X117554695Y-114369386D01*
X117502315Y-114325029D01*
X117465280Y-114294416D01*
X117446479Y-114280011D01*
X117445112Y-114279273D01*
X117435850Y-114287129D01*
X117437303Y-114321370D01*
X117438638Y-114330015D01*
X117443435Y-114373919D01*
X117446850Y-114433427D01*
X117448100Y-114491436D01*
X117448259Y-114596544D01*
X117601392Y-114596544D01*
X117754524Y-114596544D01*
X117873224Y-114700521D01*
X117934640Y-114755137D01*
X117976064Y-114794533D01*
X117999949Y-114821844D01*
X118008748Y-114840205D01*
X118004914Y-114852752D01*
X117997235Y-114859008D01*
X117977958Y-114862320D01*
X117933679Y-114865278D01*
X117868388Y-114867765D01*
X117786076Y-114869662D01*
X117690736Y-114870851D01*
X117586358Y-114871212D01*
X117585988Y-114871212D01*
X117459400Y-114870737D01*
X117358797Y-114869469D01*
X117281173Y-114867268D01*
X117223525Y-114863993D01*
X117182848Y-114859505D01*
X117156139Y-114853665D01*
X117148573Y-114850867D01*
X117112132Y-114828654D01*
X117087456Y-114802546D01*
X117086958Y-114801645D01*
X117081565Y-114776350D01*
X117077248Y-114723521D01*
X117074064Y-114644603D01*
X117072070Y-114541040D01*
X117071323Y-114414277D01*
X117071319Y-114403067D01*
X117071319Y-114033711D01*
X117115924Y-113996178D01*
X117136822Y-113979685D01*
X117157363Y-113968166D01*
X117182856Y-113960886D01*
X117218611Y-113957111D01*
X117269936Y-113956108D01*
X117342142Y-113957143D01*
X117390268Y-113958256D01*
X117471862Y-113961855D01*
X117530821Y-113968673D01*
X117573413Y-113979642D01*
X117593236Y-113988348D01*
X117619495Y-114005437D01*
X117663739Y-114038023D01*
X117721815Y-114082882D01*
X117789566Y-114136789D01*
X117862838Y-114196520D01*
X117883191Y-114213361D01*
X118122403Y-114411966D01*
X118129652Y-114217925D01*
X118133247Y-114144559D01*
X118137965Y-114080828D01*
X118143244Y-114032774D01*
X118148522Y-114006438D01*
X118149544Y-114004283D01*
X118181906Y-113977559D01*
X118236937Y-113957644D01*
X118308767Y-113946223D01*
X118358986Y-113944147D01*
X118447497Y-113949282D01*
G37*
G36*
X116919170Y-113979151D02*
G01*
X116948335Y-114026922D01*
X116957482Y-114084775D01*
X116946579Y-114142016D01*
X116919752Y-114184018D01*
X116884166Y-114219604D01*
X116397834Y-114219604D01*
X116266382Y-114219650D01*
X116161038Y-114219905D01*
X116078912Y-114220540D01*
X116017116Y-114221727D01*
X115972761Y-114223639D01*
X115942959Y-114226448D01*
X115924821Y-114230325D01*
X115915459Y-114235444D01*
X115911984Y-114241977D01*
X115911501Y-114248599D01*
X115912275Y-114256389D01*
X115916510Y-114262642D01*
X115927075Y-114267527D01*
X115946840Y-114271213D01*
X115978673Y-114273868D01*
X116025444Y-114275662D01*
X116090022Y-114276763D01*
X116175276Y-114277339D01*
X116284075Y-114277560D01*
X116404424Y-114277595D01*
X116537159Y-114277659D01*
X116643941Y-114277966D01*
X116727815Y-114278683D01*
X116791824Y-114279980D01*
X116839009Y-114282026D01*
X116872416Y-114284991D01*
X116895087Y-114289042D01*
X116910065Y-114294350D01*
X116920393Y-114301083D01*
X116926341Y-114306590D01*
X116946480Y-114343707D01*
X116955346Y-114395892D01*
X116952559Y-114451340D01*
X116937740Y-114498247D01*
X116932768Y-114506332D01*
X116910200Y-114538554D01*
X116410850Y-114538554D01*
X116277473Y-114538598D01*
X116170241Y-114538842D01*
X116086302Y-114539451D01*
X116022807Y-114540590D01*
X115976904Y-114542426D01*
X115945743Y-114545123D01*
X115926473Y-114548847D01*
X115916243Y-114553764D01*
X115912203Y-114560039D01*
X115911501Y-114567549D01*
X115912286Y-114575405D01*
X115916570Y-114581697D01*
X115927250Y-114586598D01*
X115947223Y-114590281D01*
X115979384Y-114592921D01*
X116026631Y-114594692D01*
X116091858Y-114595765D01*
X116177963Y-114596316D01*
X116287842Y-114596518D01*
X116395220Y-114596544D01*
X116526586Y-114596607D01*
X116632092Y-114596916D01*
X116714872Y-114597650D01*
X116778059Y-114598992D01*
X116824789Y-114601120D01*
X116858195Y-114604216D01*
X116881413Y-114608460D01*
X116897577Y-114614033D01*
X116909821Y-114621114D01*
X116917137Y-114626592D01*
X116940100Y-114648981D01*
X116951544Y-114676050D01*
X116955200Y-114718369D01*
X116955337Y-114734760D01*
X116952396Y-114786804D01*
X116941579Y-114820428D01*
X116923608Y-114842441D01*
X116915121Y-114849584D01*
X116904641Y-114855473D01*
X116889482Y-114860229D01*
X116866962Y-114863972D01*
X116834398Y-114866824D01*
X116789105Y-114868905D01*
X116728401Y-114870337D01*
X116649603Y-114871239D01*
X116550026Y-114871733D01*
X116426987Y-114871939D01*
X116277804Y-114871979D01*
X116267586Y-114871978D01*
X116115163Y-114871887D01*
X115988992Y-114871555D01*
X115886328Y-114870879D01*
X115804428Y-114869757D01*
X115740548Y-114868086D01*
X115691944Y-114865761D01*
X115655874Y-114862681D01*
X115629592Y-114858741D01*
X115610355Y-114853839D01*
X115595419Y-114847871D01*
X115592840Y-114846607D01*
X115550322Y-114816693D01*
X115513005Y-114777028D01*
X115509479Y-114771997D01*
X115498525Y-114754369D01*
X115490316Y-114735935D01*
X115484455Y-114712435D01*
X115480548Y-114679606D01*
X115478202Y-114633187D01*
X115477021Y-114568918D01*
X115476610Y-114482536D01*
X115476570Y-114416577D01*
X115477129Y-114301094D01*
X115479416Y-114210733D01*
X115484344Y-114141633D01*
X115492825Y-114089932D01*
X115505773Y-114051769D01*
X115524100Y-114023282D01*
X115548720Y-114000609D01*
X115579693Y-113980391D01*
X115592761Y-113973375D01*
X115607848Y-113967560D01*
X115627706Y-113962810D01*
X115655084Y-113958991D01*
X115692733Y-113955967D01*
X115743404Y-113953605D01*
X115809847Y-113951768D01*
X115894812Y-113950321D01*
X116001051Y-113949130D01*
X116131314Y-113948059D01*
X116255900Y-113947190D01*
X116883004Y-113942985D01*
X116919170Y-113979151D01*
G37*
G36*
X121141551Y-113945934D02*
G01*
X121221167Y-113951673D01*
X121291624Y-113962595D01*
X121343816Y-113978317D01*
X121349218Y-113980916D01*
X121377136Y-113998721D01*
X121422271Y-114031388D01*
X121479631Y-114075140D01*
X121544226Y-114126196D01*
X121587357Y-114161206D01*
X121685760Y-114241239D01*
X121764479Y-114303559D01*
X121825583Y-114349626D01*
X121871140Y-114380901D01*
X121903217Y-114398845D01*
X121923883Y-114404917D01*
X121930855Y-114403848D01*
X121947275Y-114392576D01*
X121982395Y-114365597D01*
X122032634Y-114325761D01*
X122094411Y-114275915D01*
X122164145Y-114218909D01*
X122187509Y-114199659D01*
X122261263Y-114139573D01*
X122330488Y-114084656D01*
X122391039Y-114038082D01*
X122438767Y-114003027D01*
X122469524Y-113982666D01*
X122474156Y-113980206D01*
X122518157Y-113966779D01*
X122582134Y-113956290D01*
X122657171Y-113949241D01*
X122734354Y-113946135D01*
X122804765Y-113947472D01*
X122859488Y-113953755D01*
X122874686Y-113957665D01*
X122918589Y-113979489D01*
X122954553Y-114009244D01*
X122957165Y-114012391D01*
X122966323Y-114025592D01*
X122973343Y-114041462D01*
X122978508Y-114063770D01*
X122982100Y-114096283D01*
X122984401Y-114142769D01*
X122985694Y-114206997D01*
X122986262Y-114292733D01*
X122986387Y-114402098D01*
X122985639Y-114536050D01*
X122983408Y-114642631D01*
X122979712Y-114721414D01*
X122974568Y-114771974D01*
X122969881Y-114790883D01*
X122957741Y-114813441D01*
X122942019Y-114831418D01*
X122919574Y-114845286D01*
X122887269Y-114855520D01*
X122841965Y-114862592D01*
X122780523Y-114866976D01*
X122699804Y-114869146D01*
X122596670Y-114869574D01*
X122467982Y-114868734D01*
X122454543Y-114868608D01*
X122325883Y-114867368D01*
X122224389Y-114865667D01*
X122148236Y-114862439D01*
X122095598Y-114856616D01*
X122064653Y-114847129D01*
X122053576Y-114832911D01*
X122060543Y-114812894D01*
X122083729Y-114786012D01*
X122121310Y-114751195D01*
X122171463Y-114707377D01*
X122174515Y-114704715D01*
X122297746Y-114597186D01*
X122453596Y-114596865D01*
X122609446Y-114596544D01*
X122609446Y-114436214D01*
X122608728Y-114364112D01*
X122606282Y-114317379D01*
X122601672Y-114292419D01*
X122594462Y-114285634D01*
X122591324Y-114286839D01*
X122574704Y-114299826D01*
X122540582Y-114328573D01*
X122493086Y-114369532D01*
X122436345Y-114419153D01*
X122399230Y-114451919D01*
X122282740Y-114553929D01*
X122180281Y-114641207D01*
X122093174Y-114712700D01*
X122022742Y-114767352D01*
X121970308Y-114804109D01*
X121937194Y-114821916D01*
X121934011Y-114822879D01*
X121895771Y-114821540D01*
X121847944Y-114798442D01*
X121841319Y-114794151D01*
X121787009Y-114755456D01*
X121715452Y-114700245D01*
X121630625Y-114631761D01*
X121536504Y-114553245D01*
X121437067Y-114467939D01*
X121382431Y-114420077D01*
X121325229Y-114370099D01*
X121275699Y-114327781D01*
X121237870Y-114296493D01*
X121215770Y-114279602D01*
X121211988Y-114277595D01*
X121208653Y-114291097D01*
X121206582Y-114327661D01*
X121205976Y-114381374D01*
X121206698Y-114433445D01*
X121210417Y-114589296D01*
X121369892Y-114593457D01*
X121529367Y-114597619D01*
X121659846Y-114719799D01*
X121715020Y-114772425D01*
X121750770Y-114809334D01*
X121769638Y-114833730D01*
X121774171Y-114848818D01*
X121768579Y-114856768D01*
X121746154Y-114862110D01*
X121699424Y-114866301D01*
X121633054Y-114869376D01*
X121551710Y-114871366D01*
X121460059Y-114872304D01*
X121362765Y-114872223D01*
X121264494Y-114871157D01*
X121169914Y-114869137D01*
X121083688Y-114866196D01*
X121010484Y-114862368D01*
X120954966Y-114857686D01*
X120921801Y-114852181D01*
X120917776Y-114850781D01*
X120889304Y-114836540D01*
X120867101Y-114819204D01*
X120850513Y-114795333D01*
X120838889Y-114761486D01*
X120831575Y-114714223D01*
X120827920Y-114650102D01*
X120827271Y-114565683D01*
X120828975Y-114457526D01*
X120830569Y-114390966D01*
X120834326Y-114266547D01*
X120838628Y-114169239D01*
X120843613Y-114097162D01*
X120849421Y-114048435D01*
X120856191Y-114021178D01*
X120858115Y-114017391D01*
X120883000Y-113993742D01*
X120922924Y-113970434D01*
X120938816Y-113963651D01*
X120991268Y-113951540D01*
X121061882Y-113945762D01*
X121141551Y-113945934D01*
G37*
G36*
X173065513Y-105074090D02*
G01*
X174198695Y-105079446D01*
X174295950Y-105241651D01*
X174414537Y-105478881D01*
X174494131Y-105730025D01*
X174534773Y-105995237D01*
X174540538Y-106145609D01*
X174522801Y-106410778D01*
X174470704Y-106664666D01*
X174385920Y-106901285D01*
X174270120Y-107114644D01*
X174269908Y-107114968D01*
X174185092Y-107244454D01*
X173057337Y-107244454D01*
X171929583Y-107244454D01*
X171860209Y-107135685D01*
X171791122Y-107021641D01*
X171737206Y-106916876D01*
X171690314Y-106804037D01*
X171648652Y-106685074D01*
X171626672Y-106615937D01*
X171610981Y-106556122D01*
X171600500Y-106496203D01*
X171594147Y-106426751D01*
X171590843Y-106338342D01*
X171589506Y-106221549D01*
X171589288Y-106167129D01*
X171589328Y-106156770D01*
X171950816Y-106156770D01*
X171959581Y-106341466D01*
X171988197Y-106504522D01*
X172040147Y-106662365D01*
X172074934Y-106742264D01*
X172135301Y-106871966D01*
X173050820Y-106866570D01*
X173966338Y-106861175D01*
X174005184Y-106809138D01*
X174064079Y-106704222D01*
X174110743Y-106569020D01*
X174143990Y-106413183D01*
X174162634Y-106246361D01*
X174165488Y-106078205D01*
X174151366Y-105918366D01*
X174128313Y-105807523D01*
X174099423Y-105713800D01*
X174065417Y-105620280D01*
X174033469Y-105546631D01*
X174032330Y-105544367D01*
X173980460Y-105442007D01*
X173057779Y-105442007D01*
X172135099Y-105442007D01*
X172074833Y-105571493D01*
X172010285Y-105732740D01*
X171970767Y-105891293D01*
X171952803Y-106063555D01*
X171950816Y-106156770D01*
X171589328Y-106156770D01*
X171589826Y-106026465D01*
X171592876Y-105918440D01*
X171599140Y-105834300D01*
X171609323Y-105765287D01*
X171624127Y-105702647D01*
X171627556Y-105690620D01*
X171673696Y-105554588D01*
X171732884Y-105412311D01*
X171798185Y-105279048D01*
X171862667Y-105170059D01*
X171866992Y-105163701D01*
X171932331Y-105068734D01*
X173065513Y-105074090D01*
G37*
G36*
X175804933Y-105493481D02*
G01*
X176326016Y-105919029D01*
X176401833Y-105858170D01*
X176437867Y-105829027D01*
X176500935Y-105777785D01*
X176585982Y-105708561D01*
X176687953Y-105625473D01*
X176801795Y-105532636D01*
X176922451Y-105434166D01*
X176923083Y-105433651D01*
X177368515Y-105069990D01*
X177658564Y-105069999D01*
X177772662Y-105070241D01*
X177850641Y-105071477D01*
X177897818Y-105074486D01*
X177919512Y-105080049D01*
X177921037Y-105088944D01*
X177907712Y-105101950D01*
X177902853Y-105105803D01*
X177805970Y-105182362D01*
X177694690Y-105271596D01*
X177572931Y-105370245D01*
X177444610Y-105475048D01*
X177313644Y-105582742D01*
X177183952Y-105690066D01*
X177059449Y-105793759D01*
X176944055Y-105890559D01*
X176841687Y-105977204D01*
X176756261Y-106050434D01*
X176691696Y-106106985D01*
X176651909Y-106143598D01*
X176640512Y-106156770D01*
X176657003Y-106173278D01*
X176701803Y-106212816D01*
X176771108Y-106272225D01*
X176861119Y-106348344D01*
X176968034Y-106438013D01*
X177088051Y-106538073D01*
X177217371Y-106645364D01*
X177352191Y-106756725D01*
X177488710Y-106868997D01*
X177623128Y-106979019D01*
X177751642Y-107083632D01*
X177870453Y-107179675D01*
X177886460Y-107192550D01*
X177948613Y-107242508D01*
X177658564Y-107242665D01*
X177368515Y-107242822D01*
X176912724Y-106868918D01*
X176791504Y-106769570D01*
X176677666Y-106676451D01*
X176576042Y-106593497D01*
X176491461Y-106524646D01*
X176428754Y-106473836D01*
X176392751Y-106445003D01*
X176390818Y-106443490D01*
X176324704Y-106391965D01*
X175803191Y-106818209D01*
X175281678Y-107244454D01*
X175004338Y-107244454D01*
X174902562Y-107243810D01*
X174817573Y-107242048D01*
X174756954Y-107239417D01*
X174728285Y-107236167D01*
X174726998Y-107235283D01*
X174742515Y-107220617D01*
X174786743Y-107182750D01*
X174856199Y-107124569D01*
X174947401Y-107048958D01*
X175056867Y-106958802D01*
X175181112Y-106856987D01*
X175316655Y-106746399D01*
X175343352Y-106724671D01*
X175482461Y-106611380D01*
X175612548Y-106505214D01*
X175729846Y-106409264D01*
X175830586Y-106326622D01*
X175911002Y-106260378D01*
X175967326Y-106213625D01*
X175995790Y-106189453D01*
X175997368Y-106188018D01*
X176005379Y-106178255D01*
X176007199Y-106166369D01*
X176000110Y-106149853D01*
X175981394Y-106126199D01*
X175948334Y-106092902D01*
X175898212Y-106047455D01*
X175828309Y-105987350D01*
X175735908Y-105910082D01*
X175618292Y-105813142D01*
X175472742Y-105694026D01*
X175377318Y-105616127D01*
X174719605Y-105079446D01*
X175001728Y-105073690D01*
X175283851Y-105067934D01*
X175804933Y-105493481D01*
G37*
G36*
X165706241Y-105374674D02*
G01*
X165823322Y-105470172D01*
X165939255Y-105564772D01*
X166046943Y-105652680D01*
X166139287Y-105728101D01*
X166209190Y-105785240D01*
X166227637Y-105800335D01*
X166374299Y-105920408D01*
X166895520Y-105494747D01*
X167416741Y-105069087D01*
X167694871Y-105069087D01*
X167796803Y-105069708D01*
X167881957Y-105071410D01*
X167942764Y-105073953D01*
X167971653Y-105077093D01*
X167973002Y-105077967D01*
X167957483Y-105092541D01*
X167913180Y-105130441D01*
X167843467Y-105188869D01*
X167751721Y-105265024D01*
X167641320Y-105356110D01*
X167515639Y-105459327D01*
X167378056Y-105571875D01*
X167319211Y-105619888D01*
X167152314Y-105756362D01*
X167015473Y-105869257D01*
X166906269Y-105960727D01*
X166822282Y-106032929D01*
X166761094Y-106088016D01*
X166720286Y-106128146D01*
X166697437Y-106155473D01*
X166690130Y-106172151D01*
X166692498Y-106178239D01*
X166714097Y-106196546D01*
X166764234Y-106238041D01*
X166839300Y-106299768D01*
X166935688Y-106378770D01*
X167049789Y-106472092D01*
X167177994Y-106576777D01*
X167316697Y-106689868D01*
X167358598Y-106724001D01*
X167997620Y-107244454D01*
X167708405Y-107244454D01*
X167419190Y-107244454D01*
X166897746Y-106817747D01*
X166376302Y-106391041D01*
X166133583Y-106587654D01*
X166028055Y-106673343D01*
X165903729Y-106774620D01*
X165773793Y-106880725D01*
X165651430Y-106980899D01*
X165611175Y-107013929D01*
X165331484Y-107243591D01*
X165042471Y-107244022D01*
X164934482Y-107242976D01*
X164849761Y-107239732D01*
X164793884Y-107234658D01*
X164772428Y-107228121D01*
X164773140Y-107226260D01*
X164793068Y-107209551D01*
X164841575Y-107169596D01*
X164915106Y-107109302D01*
X165010105Y-107031580D01*
X165123014Y-106939337D01*
X165250278Y-106835483D01*
X165388340Y-106722927D01*
X165430616Y-106688482D01*
X165570405Y-106574296D01*
X165699657Y-106468128D01*
X165814942Y-106372840D01*
X165912829Y-106291295D01*
X165989886Y-106226354D01*
X166042683Y-106180881D01*
X166067789Y-106157737D01*
X166069414Y-106155537D01*
X166054100Y-106139986D01*
X166009968Y-106101200D01*
X165940406Y-106042010D01*
X165848804Y-105965251D01*
X165738549Y-105873756D01*
X165613031Y-105770359D01*
X165475637Y-105657893D01*
X165421261Y-105613565D01*
X165279954Y-105498477D01*
X165148826Y-105391636D01*
X165031320Y-105295853D01*
X164930881Y-105213938D01*
X164850955Y-105148700D01*
X164794985Y-105102948D01*
X164766417Y-105079493D01*
X164763472Y-105077020D01*
X164779724Y-105074170D01*
X164830270Y-105071774D01*
X164907969Y-105070034D01*
X165005680Y-105069154D01*
X165043174Y-105069087D01*
X165331508Y-105069087D01*
X165706241Y-105374674D01*
G37*
G36*
X169671528Y-105069268D02*
G01*
X170800979Y-105069449D01*
X170877555Y-105188395D01*
X170993947Y-105400624D01*
X171080717Y-105632251D01*
X171101067Y-105704748D01*
X171128465Y-105817437D01*
X171141550Y-105898103D01*
X171139647Y-105953851D01*
X171122080Y-105991786D01*
X171088174Y-106019011D01*
X171070310Y-106028291D01*
X171024341Y-106054390D01*
X171003429Y-106084870D01*
X170997907Y-106136303D01*
X170997798Y-106152598D01*
X171001174Y-106211090D01*
X171017747Y-106244870D01*
X171057184Y-106270509D01*
X171070310Y-106276905D01*
X171110617Y-106300861D01*
X171134162Y-106331244D01*
X171142087Y-106376024D01*
X171135537Y-106443174D01*
X171115656Y-106540663D01*
X171111046Y-106560767D01*
X171067112Y-106714284D01*
X171007386Y-106871887D01*
X170938514Y-107017638D01*
X170877848Y-107120147D01*
X170800979Y-107234095D01*
X169671860Y-107239228D01*
X168542741Y-107244361D01*
X168461280Y-107117803D01*
X168379898Y-106972679D01*
X168307398Y-106808344D01*
X168250514Y-106641806D01*
X168218184Y-106503793D01*
X168192817Y-106353589D01*
X168570175Y-106353589D01*
X168584695Y-106441640D01*
X168603967Y-106520936D01*
X168636096Y-106617569D01*
X168674741Y-106714847D01*
X168713561Y-106796077D01*
X168729747Y-106823481D01*
X168761233Y-106871534D01*
X169670648Y-106871534D01*
X170580063Y-106871534D01*
X170621632Y-106804201D01*
X170647485Y-106753265D01*
X170678501Y-106679225D01*
X170710457Y-106593981D01*
X170739133Y-106509437D01*
X170760306Y-106437493D01*
X170769755Y-106390052D01*
X170769902Y-106386192D01*
X170766685Y-106378989D01*
X170754894Y-106372919D01*
X170731325Y-106367886D01*
X170692768Y-106363797D01*
X170636018Y-106360556D01*
X170557867Y-106358068D01*
X170455108Y-106356238D01*
X170324536Y-106354970D01*
X170162941Y-106354171D01*
X169967119Y-106353744D01*
X169733861Y-106353594D01*
X169670039Y-106353589D01*
X168570175Y-106353589D01*
X168192817Y-106353589D01*
X168020756Y-106353589D01*
X167848695Y-106353589D01*
X167848695Y-106156770D01*
X167848695Y-105959951D01*
X168024796Y-105959951D01*
X168568521Y-105959951D01*
X169669212Y-105959951D01*
X169914074Y-105959828D01*
X170120619Y-105959401D01*
X170291964Y-105958585D01*
X170431226Y-105957296D01*
X170541522Y-105955449D01*
X170625971Y-105952958D01*
X170687688Y-105949738D01*
X170729793Y-105945705D01*
X170755401Y-105940774D01*
X170767631Y-105934859D01*
X170769902Y-105929944D01*
X170762563Y-105886409D01*
X170743293Y-105816677D01*
X170716214Y-105732753D01*
X170685446Y-105646641D01*
X170655110Y-105570345D01*
X170629327Y-105515869D01*
X170625508Y-105509340D01*
X170584051Y-105442007D01*
X169671860Y-105442007D01*
X168759668Y-105442007D01*
X168718375Y-105509340D01*
X168671232Y-105601091D01*
X168626949Y-105712425D01*
X168593310Y-105822381D01*
X168581739Y-105877295D01*
X168568521Y-105959951D01*
X168024796Y-105959951D01*
X168110112Y-105959393D01*
X168162187Y-105956216D01*
X168189214Y-105948164D01*
X168199384Y-105932982D01*
X168200897Y-105911471D01*
X168211601Y-105815713D01*
X168241193Y-105695507D01*
X168285890Y-105561088D01*
X168341911Y-105422692D01*
X168405474Y-105290554D01*
X168472798Y-105174912D01*
X168473300Y-105174144D01*
X168542077Y-105069087D01*
X169671528Y-105069268D01*
G37*
D12*
%TO.C,J1*%
X183257830Y-99693000D02*
X183257830Y-83633000D01*
X185377830Y-83633000D02*
X183257830Y-83633000D01*
X185377830Y-99693000D02*
X183257830Y-99693000D01*
X185377830Y-99693000D02*
X185377830Y-83633000D01*
X185377830Y-100693000D02*
X185377830Y-101753000D01*
X185377830Y-101753000D02*
X184317830Y-101753000D01*
%TO.C,POWER*%
X140660830Y-112250000D02*
X140660830Y-113750000D01*
X141910830Y-116250000D02*
X146410830Y-116250000D01*
X146410830Y-109750000D02*
X141910830Y-109750000D01*
X147660830Y-113750000D02*
X147660830Y-112250000D01*
D13*
%TO.C,G\u002A\u002A\u002A*%
G36*
X117776202Y-106720642D02*
G01*
X119873115Y-106721133D01*
X120755279Y-107492595D01*
X120908105Y-107626573D01*
X121052354Y-107753670D01*
X121185744Y-107871835D01*
X121305994Y-107979018D01*
X121410826Y-108073167D01*
X121497958Y-108152232D01*
X121565110Y-108214163D01*
X121610001Y-108256907D01*
X121630353Y-108278416D01*
X121631323Y-108280449D01*
X121616149Y-108296185D01*
X121576721Y-108331772D01*
X121516918Y-108383855D01*
X121440620Y-108449084D01*
X121351709Y-108524106D01*
X121277946Y-108585726D01*
X121181663Y-108665884D01*
X121094532Y-108738532D01*
X121020526Y-108800350D01*
X120963619Y-108848017D01*
X120927782Y-108878211D01*
X120917097Y-108887416D01*
X120926023Y-108902743D01*
X120958637Y-108938426D01*
X121011204Y-108990782D01*
X121079984Y-109056131D01*
X121161242Y-109130792D01*
X121195166Y-109161332D01*
X121486827Y-109422443D01*
X121486107Y-110272779D01*
X121485387Y-111123115D01*
X121090142Y-111423977D01*
X120969732Y-111515591D01*
X120844219Y-111611014D01*
X120720938Y-111704675D01*
X120607224Y-111791002D01*
X120510411Y-111864424D01*
X120459980Y-111902620D01*
X120225062Y-112080402D01*
X117446181Y-112080402D01*
X114667301Y-112080402D01*
X114667256Y-111592641D01*
X114666736Y-111433870D01*
X114665304Y-111260717D01*
X114663115Y-111084619D01*
X114660319Y-110917011D01*
X114657070Y-110769329D01*
X114655513Y-110712849D01*
X114645992Y-110393754D01*
X114773888Y-110393754D01*
X114784413Y-110884477D01*
X114787376Y-111033945D01*
X114790016Y-111188880D01*
X114792210Y-111340234D01*
X114793834Y-111478959D01*
X114794764Y-111596010D01*
X114794939Y-111654864D01*
X114794939Y-111934529D01*
X117479899Y-111933928D01*
X120164860Y-111933328D01*
X120757466Y-111481030D01*
X121350072Y-111028732D01*
X121354823Y-110255066D01*
X121359574Y-109481400D01*
X121049374Y-109184014D01*
X120739174Y-108886627D01*
X121090208Y-108594247D01*
X121186565Y-108513312D01*
X121273113Y-108439318D01*
X121346022Y-108375648D01*
X121401458Y-108325682D01*
X121435589Y-108292805D01*
X121444973Y-108281120D01*
X121432236Y-108265754D01*
X121394243Y-108228760D01*
X121333390Y-108172283D01*
X121252074Y-108098470D01*
X121152689Y-108009468D01*
X121037632Y-107907423D01*
X120909300Y-107794482D01*
X120770088Y-107672792D01*
X120633559Y-107554171D01*
X119818413Y-106847969D01*
X117757968Y-106847627D01*
X115697523Y-106847285D01*
X115250789Y-107204433D01*
X115124826Y-107305429D01*
X115024639Y-107386636D01*
X114947294Y-107450749D01*
X114889854Y-107500461D01*
X114849384Y-107538467D01*
X114822949Y-107567462D01*
X114807612Y-107590141D01*
X114800440Y-107609197D01*
X114798900Y-107619232D01*
X114798769Y-107631992D01*
X114802066Y-107645699D01*
X114810866Y-107662239D01*
X114827241Y-107683496D01*
X114853263Y-107711355D01*
X114891005Y-107747700D01*
X114942541Y-107794415D01*
X115009943Y-107853387D01*
X115095283Y-107926498D01*
X115200636Y-108015634D01*
X115328073Y-108122679D01*
X115479667Y-108249517D01*
X115633107Y-108377676D01*
X115783602Y-108503500D01*
X115925429Y-108622416D01*
X116056163Y-108732367D01*
X116173384Y-108831301D01*
X116274666Y-108917164D01*
X116357588Y-108987901D01*
X116419726Y-109041458D01*
X116458657Y-109075782D01*
X116471960Y-109088803D01*
X116457772Y-109101428D01*
X116417094Y-109134149D01*
X116352470Y-109184998D01*
X116266443Y-109252004D01*
X116161557Y-109333197D01*
X116040356Y-109426609D01*
X115905384Y-109530268D01*
X115759184Y-109642206D01*
X115622669Y-109746446D01*
X114773888Y-110393754D01*
X114645992Y-110393754D01*
X114643816Y-110320818D01*
X115343892Y-109780272D01*
X115487402Y-109669454D01*
X115625362Y-109562900D01*
X115754420Y-109463201D01*
X115871225Y-109372947D01*
X115972425Y-109294728D01*
X116054669Y-109231134D01*
X116114605Y-109184754D01*
X116147984Y-109158877D01*
X116251998Y-109078028D01*
X115450513Y-108395690D01*
X114649029Y-107713352D01*
X114653606Y-107627013D01*
X114658184Y-107540674D01*
X115168736Y-107130413D01*
X115679289Y-106720151D01*
X117776202Y-106720642D01*
G37*
G36*
X116801064Y-107139151D02*
G01*
X116940130Y-107139636D01*
X117062985Y-107140398D01*
X117165577Y-107141395D01*
X117243851Y-107142589D01*
X117293755Y-107143941D01*
X117311234Y-107145407D01*
X117297980Y-107158894D01*
X117262923Y-107188710D01*
X117213119Y-107228891D01*
X117203094Y-107236794D01*
X117148157Y-107280356D01*
X117073868Y-107339817D01*
X116989133Y-107408024D01*
X116902857Y-107477823D01*
X116884641Y-107492611D01*
X116674327Y-107663468D01*
X117394371Y-108171612D01*
X117538751Y-108273030D01*
X117674765Y-108367664D01*
X117799390Y-108453474D01*
X117909601Y-108528419D01*
X118002373Y-108590459D01*
X118074683Y-108637553D01*
X118123505Y-108667663D01*
X118145815Y-108678746D01*
X118146192Y-108678764D01*
X118169578Y-108669612D01*
X118220114Y-108644227D01*
X118293555Y-108604930D01*
X118385655Y-108554042D01*
X118492169Y-108493886D01*
X118608852Y-108426783D01*
X118638462Y-108409573D01*
X119098955Y-108141374D01*
X119719060Y-108146171D01*
X120339166Y-108150969D01*
X119700433Y-108622326D01*
X119566612Y-108721354D01*
X119442333Y-108813847D01*
X119330578Y-108897548D01*
X119234331Y-108970199D01*
X119156572Y-109029541D01*
X119100286Y-109073315D01*
X119068454Y-109099265D01*
X119062290Y-109105528D01*
X119076706Y-109118223D01*
X119117904Y-109150311D01*
X119183155Y-109199761D01*
X119269728Y-109264542D01*
X119374893Y-109342624D01*
X119495921Y-109431974D01*
X119630082Y-109530563D01*
X119774646Y-109636360D01*
X119837236Y-109682038D01*
X119985302Y-109790219D01*
X120124082Y-109892021D01*
X120250850Y-109985417D01*
X120362879Y-110068378D01*
X120457442Y-110138876D01*
X120531811Y-110194881D01*
X120583260Y-110234366D01*
X120609061Y-110255301D01*
X120611593Y-110258068D01*
X120597113Y-110271368D01*
X120557117Y-110300940D01*
X120496775Y-110343346D01*
X120421257Y-110395151D01*
X120335732Y-110452919D01*
X120245370Y-110513213D01*
X120155340Y-110572598D01*
X120070813Y-110627638D01*
X119996957Y-110674896D01*
X119938942Y-110710936D01*
X119901937Y-110732323D01*
X119891426Y-110736743D01*
X119873371Y-110726704D01*
X119827913Y-110697957D01*
X119757791Y-110652322D01*
X119665743Y-110591619D01*
X119554508Y-110517666D01*
X119426826Y-110432284D01*
X119285435Y-110337292D01*
X119133074Y-110234510D01*
X119008037Y-110149869D01*
X118849251Y-110042445D01*
X118699480Y-109941545D01*
X118561434Y-109848966D01*
X118437827Y-109766509D01*
X118331369Y-109695970D01*
X118244773Y-109639148D01*
X118180750Y-109597842D01*
X118142012Y-109573849D01*
X118131069Y-109568318D01*
X118113746Y-109578426D01*
X118068036Y-109605809D01*
X117996708Y-109648793D01*
X117902532Y-109705700D01*
X117788277Y-109774856D01*
X117656713Y-109854583D01*
X117510609Y-109943206D01*
X117352735Y-110039048D01*
X117204655Y-110129011D01*
X116290129Y-110684800D01*
X116290129Y-111182026D01*
X116290129Y-111679253D01*
X115679033Y-111679253D01*
X115067937Y-111679253D01*
X115072751Y-111101116D01*
X115077566Y-110522979D01*
X116205820Y-109810144D01*
X116389276Y-109693961D01*
X116563331Y-109583200D01*
X116725578Y-109479423D01*
X116873615Y-109384193D01*
X117005037Y-109299074D01*
X117117440Y-109225629D01*
X117208420Y-109165421D01*
X117275573Y-109120012D01*
X117316493Y-109090966D01*
X117328896Y-109079989D01*
X117313608Y-109066602D01*
X117271188Y-109033702D01*
X117204091Y-108983099D01*
X117114771Y-108916604D01*
X117005682Y-108836027D01*
X116879277Y-108743177D01*
X116738010Y-108639864D01*
X116584335Y-108527900D01*
X116420706Y-108409093D01*
X116346515Y-108355353D01*
X116178778Y-108233851D01*
X116019465Y-108118274D01*
X115871084Y-108010454D01*
X115736146Y-107912223D01*
X115617159Y-107825411D01*
X115516634Y-107751853D01*
X115437080Y-107693379D01*
X115381006Y-107651821D01*
X115350922Y-107629012D01*
X115346629Y-107625452D01*
X115344647Y-107613931D01*
X115357821Y-107594911D01*
X115389036Y-107566020D01*
X115441179Y-107524886D01*
X115517134Y-107469135D01*
X115619786Y-107396397D01*
X115656197Y-107370924D01*
X115988447Y-107138980D01*
X116649841Y-107138980D01*
X116801064Y-107139151D01*
G37*
D12*
%TO.C,D2*%
X175014000Y-94350000D02*
X175170000Y-94350000D01*
X177330000Y-94350000D02*
X177486000Y-94350000D01*
X175014484Y-94350000D02*
G75*
G02*
X175171392Y-91117665I1235516J1560000D01*
G01*
X175170000Y-93830961D02*
G75*
G02*
X175170163Y-91748870I1080000J1040961D01*
G01*
X177328608Y-91117665D02*
G75*
G02*
X177485516Y-94350000I-1078608J-1672335D01*
G01*
X177329837Y-91748870D02*
G75*
G02*
X177330000Y-93830961I-1079837J-1041130D01*
G01*
D13*
%TO.C,G\u002A\u002A\u002A*%
G36*
X113559927Y-104263289D02*
G01*
X113628306Y-104264303D01*
X113676530Y-104266252D01*
X113707643Y-104269347D01*
X113724693Y-104273801D01*
X113730726Y-104279825D01*
X113730878Y-104281242D01*
X113728346Y-104301345D01*
X113721534Y-104340585D01*
X113711620Y-104392420D01*
X113704625Y-104427080D01*
X113693522Y-104481525D01*
X113684744Y-104525489D01*
X113679429Y-104553216D01*
X113678372Y-104559791D01*
X113665891Y-104561326D01*
X113631033Y-104562678D01*
X113577671Y-104563771D01*
X113509682Y-104564534D01*
X113430939Y-104564892D01*
X113408392Y-104564910D01*
X113317687Y-104564772D01*
X113250020Y-104564171D01*
X113202177Y-104562827D01*
X113170943Y-104560459D01*
X113153103Y-104556785D01*
X113145443Y-104551526D01*
X113144748Y-104544400D01*
X113145393Y-104541938D01*
X113151001Y-104520188D01*
X113160110Y-104481544D01*
X113171217Y-104432774D01*
X113182821Y-104380645D01*
X113193420Y-104331924D01*
X113201511Y-104293378D01*
X113205594Y-104271774D01*
X113205814Y-104269700D01*
X113218285Y-104267663D01*
X113253080Y-104265875D01*
X113306268Y-104264437D01*
X113373921Y-104263448D01*
X113452108Y-104263010D01*
X113468346Y-104262998D01*
X113559927Y-104263289D01*
G37*
G36*
X122893985Y-104876144D02*
G01*
X122919509Y-104893075D01*
X122940791Y-104919646D01*
X122941940Y-104942531D01*
X122922335Y-104969910D01*
X122912927Y-104979610D01*
X122891783Y-105003403D01*
X122887840Y-105022216D01*
X122898840Y-105048692D01*
X122900137Y-105051210D01*
X122912449Y-105077514D01*
X122911075Y-105088068D01*
X122895962Y-105089974D01*
X122872883Y-105078209D01*
X122852963Y-105048731D01*
X122833689Y-105015918D01*
X122818056Y-105008379D01*
X122807285Y-105026150D01*
X122803819Y-105047313D01*
X122795929Y-105079069D01*
X122778737Y-105089871D01*
X122776076Y-105089974D01*
X122762788Y-105087283D01*
X122757758Y-105075037D01*
X122759885Y-105046982D01*
X122763955Y-105021060D01*
X122772128Y-104971958D01*
X122774143Y-104959782D01*
X122814496Y-104959782D01*
X122824947Y-104970076D01*
X122849135Y-104972023D01*
X122876317Y-104966751D01*
X122895746Y-104955389D01*
X122898457Y-104950960D01*
X122900539Y-104922735D01*
X122880346Y-104908178D01*
X122861069Y-104906202D01*
X122830892Y-104917419D01*
X122815510Y-104947391D01*
X122814496Y-104959782D01*
X122774143Y-104959782D01*
X122779712Y-104926130D01*
X122782448Y-104909483D01*
X122789280Y-104881900D01*
X122803314Y-104869788D01*
X122833231Y-104866859D01*
X122841344Y-104866822D01*
X122893985Y-104876144D01*
G37*
G36*
X122914157Y-104786010D02*
G01*
X122973300Y-104818889D01*
X123017300Y-104873062D01*
X123021240Y-104880419D01*
X123045248Y-104943900D01*
X123047203Y-105003478D01*
X123027281Y-105068176D01*
X123024997Y-105073295D01*
X122987881Y-105129498D01*
X122936107Y-105164952D01*
X122867891Y-105180707D01*
X122840749Y-105181762D01*
X122771350Y-105174290D01*
X122725128Y-105155287D01*
X122686289Y-105119249D01*
X122654291Y-105067327D01*
X122634617Y-105009851D01*
X122633961Y-105004038D01*
X122670247Y-105004038D01*
X122686552Y-105061180D01*
X122706390Y-105090793D01*
X122755970Y-105127893D01*
X122816863Y-105146118D01*
X122881144Y-105144451D01*
X122940886Y-105121878D01*
X122942297Y-105121009D01*
X122986233Y-105079055D01*
X123009621Y-105021154D01*
X123013583Y-104978398D01*
X123003169Y-104910838D01*
X122972747Y-104859910D01*
X122923541Y-104826813D01*
X122856779Y-104812741D01*
X122843390Y-104812324D01*
X122782341Y-104817252D01*
X122738459Y-104835478D01*
X122704560Y-104870492D01*
X122695703Y-104884068D01*
X122673150Y-104942154D01*
X122670247Y-105004038D01*
X122633961Y-105004038D01*
X122631011Y-104977898D01*
X122640793Y-104924770D01*
X122666915Y-104869808D01*
X122703482Y-104823108D01*
X122735531Y-104798878D01*
X122778800Y-104783522D01*
X122828992Y-104775347D01*
X122840749Y-104774935D01*
X122914157Y-104786010D01*
G37*
G36*
X113437605Y-104775464D02*
G01*
X113508725Y-104776939D01*
X113566249Y-104779197D01*
X113606296Y-104782074D01*
X113624984Y-104785405D01*
X113625865Y-104786328D01*
X113623183Y-104800917D01*
X113615463Y-104838851D01*
X113603196Y-104897811D01*
X113586872Y-104975477D01*
X113566981Y-105069529D01*
X113544013Y-105177647D01*
X113518459Y-105297513D01*
X113490809Y-105426807D01*
X113468413Y-105531263D01*
X113439489Y-105666177D01*
X113412281Y-105793402D01*
X113387279Y-105910626D01*
X113364972Y-106015535D01*
X113345852Y-106105817D01*
X113330408Y-106179157D01*
X113319131Y-106233243D01*
X113312510Y-106265762D01*
X113310893Y-106274651D01*
X113298386Y-106277575D01*
X113263462Y-106280154D01*
X113209958Y-106282250D01*
X113141709Y-106283727D01*
X113062552Y-106284448D01*
X113035168Y-106284496D01*
X112939015Y-106284147D01*
X112866469Y-106282993D01*
X112814891Y-106280875D01*
X112781641Y-106277635D01*
X112764080Y-106273112D01*
X112759509Y-106267863D01*
X112762304Y-106252316D01*
X112770348Y-106213490D01*
X112783130Y-106153720D01*
X112800140Y-106075342D01*
X112820867Y-105980689D01*
X112844800Y-105872097D01*
X112871427Y-105751901D01*
X112900239Y-105622435D01*
X112923591Y-105517899D01*
X112953687Y-105383313D01*
X112981999Y-105256545D01*
X113008018Y-105139883D01*
X113031237Y-105035612D01*
X113051148Y-104946019D01*
X113067242Y-104873391D01*
X113079011Y-104820013D01*
X113085946Y-104788172D01*
X113087674Y-104779752D01*
X113100154Y-104778305D01*
X113135005Y-104777032D01*
X113188346Y-104776003D01*
X113256297Y-104775286D01*
X113334974Y-104774951D01*
X113356770Y-104774935D01*
X113437605Y-104775464D01*
G37*
G36*
X114579650Y-104741335D02*
G01*
X114703730Y-104762945D01*
X114811637Y-104804815D01*
X114903049Y-104866796D01*
X114977647Y-104948737D01*
X115015115Y-105009127D01*
X115045325Y-105076615D01*
X115070800Y-105153538D01*
X115088609Y-105229458D01*
X115095822Y-105293937D01*
X115095852Y-105296718D01*
X115096046Y-105339380D01*
X114854895Y-105339380D01*
X114613744Y-105339380D01*
X114604691Y-105271140D01*
X114587335Y-105197540D01*
X114558020Y-105145097D01*
X114522251Y-105117346D01*
X114462403Y-105103615D01*
X114400336Y-105114500D01*
X114337930Y-105148685D01*
X114277067Y-105204856D01*
X114219628Y-105281697D01*
X114176472Y-105359070D01*
X114127585Y-105475111D01*
X114096733Y-105585731D01*
X114084298Y-105687873D01*
X114090662Y-105778482D01*
X114114832Y-105851818D01*
X114153039Y-105902741D01*
X114203155Y-105932310D01*
X114261487Y-105940289D01*
X114324345Y-105926441D01*
X114388037Y-105890528D01*
X114411855Y-105870899D01*
X114447332Y-105833797D01*
X114478043Y-105793363D01*
X114486220Y-105779784D01*
X114511319Y-105733178D01*
X114757989Y-105733178D01*
X115004660Y-105733178D01*
X114996874Y-105769277D01*
X114987726Y-105797259D01*
X114969995Y-105840953D01*
X114946894Y-105892614D01*
X114937010Y-105913484D01*
X114867484Y-106028267D01*
X114778004Y-106127254D01*
X114670691Y-106208863D01*
X114547665Y-106271508D01*
X114411047Y-106313606D01*
X114397607Y-106316445D01*
X114330690Y-106326412D01*
X114251300Y-106332695D01*
X114167737Y-106335168D01*
X114088301Y-106333705D01*
X114021291Y-106328182D01*
X113989453Y-106322622D01*
X113878008Y-106283649D01*
X113779883Y-106223705D01*
X113696436Y-106145189D01*
X113629027Y-106050499D01*
X113579014Y-105942036D01*
X113547756Y-105822199D01*
X113536613Y-105693387D01*
X113546945Y-105557999D01*
X113549042Y-105545179D01*
X113587253Y-105387542D01*
X113645792Y-105245630D01*
X113725822Y-105117226D01*
X113828506Y-105000115D01*
X113841445Y-104987627D01*
X113957342Y-104893930D01*
X114084664Y-104822721D01*
X114224944Y-104773363D01*
X114379717Y-104745221D01*
X114439715Y-104740135D01*
X114579650Y-104741335D01*
G37*
G36*
X111491126Y-104262979D02*
G01*
X111566684Y-104263263D01*
X111630005Y-104263773D01*
X111677241Y-104264519D01*
X111704542Y-104265513D01*
X111709775Y-104266279D01*
X111710839Y-104283936D01*
X111712701Y-104324265D01*
X111715227Y-104383699D01*
X111718282Y-104458673D01*
X111721731Y-104545621D01*
X111725440Y-104640979D01*
X111729273Y-104741180D01*
X111733095Y-104842659D01*
X111736771Y-104941851D01*
X111740168Y-105035189D01*
X111743149Y-105119109D01*
X111745580Y-105190045D01*
X111747326Y-105244431D01*
X111748252Y-105278702D01*
X111748364Y-105286217D01*
X111750201Y-105330902D01*
X111754830Y-105355683D01*
X111760704Y-105358414D01*
X111768654Y-105344322D01*
X111786666Y-105308938D01*
X111813554Y-105254694D01*
X111848133Y-105184020D01*
X111889220Y-105099347D01*
X111935628Y-105003106D01*
X111986172Y-104897727D01*
X112029136Y-104807752D01*
X112285624Y-104269561D01*
X112686649Y-104266089D01*
X112804273Y-104265285D01*
X112897938Y-104265178D01*
X112969932Y-104265844D01*
X113022543Y-104267358D01*
X113058059Y-104269794D01*
X113078766Y-104273228D01*
X113086953Y-104277734D01*
X113087313Y-104279216D01*
X113084466Y-104294380D01*
X113076335Y-104333172D01*
X113063357Y-104393598D01*
X113045969Y-104473665D01*
X113024607Y-104571379D01*
X112999710Y-104684746D01*
X112971714Y-104811772D01*
X112941056Y-104950464D01*
X112908174Y-105098826D01*
X112873505Y-105254867D01*
X112866383Y-105286873D01*
X112645815Y-106277933D01*
X112361370Y-106281471D01*
X112278150Y-106282062D01*
X112204537Y-106281736D01*
X112144305Y-106280579D01*
X112101228Y-106278679D01*
X112079080Y-106276122D01*
X112076926Y-106274907D01*
X112079651Y-106260276D01*
X112087426Y-106222798D01*
X112099650Y-106165265D01*
X112115723Y-106090469D01*
X112135043Y-106001201D01*
X112157011Y-105900253D01*
X112181025Y-105790417D01*
X112188958Y-105754236D01*
X112213401Y-105642076D01*
X112235798Y-105537818D01*
X112255570Y-105444270D01*
X112272140Y-105364238D01*
X112284928Y-105300529D01*
X112293354Y-105255951D01*
X112296841Y-105233310D01*
X112296825Y-105231172D01*
X112290402Y-105239964D01*
X112273666Y-105270089D01*
X112247779Y-105319266D01*
X112213904Y-105385216D01*
X112173204Y-105465660D01*
X112126841Y-105558318D01*
X112075978Y-105660910D01*
X112031367Y-105751587D01*
X111770075Y-106284496D01*
X111558064Y-106284496D01*
X111346052Y-106284496D01*
X111337380Y-105927945D01*
X111334949Y-105821306D01*
X111332748Y-105712025D01*
X111330880Y-105606251D01*
X111329449Y-105510135D01*
X111328557Y-105429826D01*
X111328309Y-105386472D01*
X111327453Y-105319686D01*
X111325362Y-105267335D01*
X111322277Y-105232959D01*
X111318441Y-105220097D01*
X111317015Y-105221240D01*
X111311574Y-105237909D01*
X111300591Y-105277268D01*
X111284795Y-105336515D01*
X111264912Y-105412845D01*
X111241672Y-105503457D01*
X111215800Y-105605547D01*
X111188025Y-105716311D01*
X111176471Y-105762713D01*
X111046822Y-106284496D01*
X110747139Y-106284496D01*
X110650933Y-106284377D01*
X110577919Y-106283861D01*
X110525035Y-106282705D01*
X110489218Y-106280672D01*
X110467409Y-106277519D01*
X110456545Y-106273007D01*
X110453564Y-106266895D01*
X110454533Y-106261525D01*
X110458304Y-106245770D01*
X110467146Y-106206973D01*
X110480529Y-106147525D01*
X110497926Y-106069816D01*
X110518807Y-105976236D01*
X110542643Y-105869174D01*
X110568906Y-105751022D01*
X110597066Y-105624170D01*
X110626595Y-105491006D01*
X110656963Y-105353922D01*
X110687642Y-105215308D01*
X110718103Y-105077554D01*
X110747816Y-104943049D01*
X110776254Y-104814185D01*
X110802886Y-104693351D01*
X110827185Y-104582937D01*
X110848621Y-104485334D01*
X110866666Y-104402931D01*
X110880789Y-104338119D01*
X110890464Y-104293288D01*
X110895159Y-104270828D01*
X110895529Y-104268676D01*
X110908014Y-104267444D01*
X110942903Y-104266336D01*
X110996348Y-104265362D01*
X111064498Y-104264535D01*
X111143505Y-104263864D01*
X111229520Y-104263362D01*
X111318695Y-104263039D01*
X111407180Y-104262908D01*
X111491126Y-104262979D01*
G37*
G36*
X121758777Y-104290684D02*
G01*
X121780906Y-104293850D01*
X121813605Y-104302057D01*
X121788966Y-104410512D01*
X121776774Y-104464154D01*
X121766188Y-104510683D01*
X121759052Y-104542002D01*
X121757912Y-104546992D01*
X121746701Y-104566698D01*
X121719986Y-104578644D01*
X121693811Y-104583667D01*
X121653297Y-104594096D01*
X121621736Y-104609719D01*
X121615349Y-104615274D01*
X121600666Y-104639980D01*
X121585936Y-104677804D01*
X121573462Y-104720355D01*
X121565547Y-104759242D01*
X121564495Y-104786077D01*
X121566850Y-104791959D01*
X121583863Y-104796550D01*
X121619727Y-104798965D01*
X121667098Y-104798752D01*
X121673334Y-104798523D01*
X121770093Y-104794625D01*
X121804143Y-104650233D01*
X121818829Y-104588241D01*
X121832171Y-104532429D01*
X121842507Y-104489730D01*
X121847473Y-104469742D01*
X121856753Y-104433644D01*
X122110284Y-104433644D01*
X122189170Y-104433973D01*
X122258742Y-104434890D01*
X122314859Y-104436289D01*
X122353382Y-104438064D01*
X122370171Y-104440109D01*
X122370477Y-104440305D01*
X122370325Y-104454900D01*
X122365174Y-104490086D01*
X122355880Y-104540862D01*
X122343298Y-104602226D01*
X122340806Y-104613754D01*
X122327686Y-104676873D01*
X122317683Y-104730688D01*
X122311670Y-104770057D01*
X122310514Y-104789836D01*
X122310853Y-104790865D01*
X122326302Y-104796183D01*
X122360361Y-104799910D01*
X122401782Y-104801189D01*
X122445017Y-104802167D01*
X122475496Y-104804724D01*
X122486330Y-104808097D01*
X122483314Y-104822734D01*
X122475070Y-104857803D01*
X122462805Y-104908282D01*
X122447724Y-104969152D01*
X122445326Y-104978743D01*
X122404321Y-105142481D01*
X122310052Y-105142481D01*
X122215783Y-105142481D01*
X122134227Y-105497312D01*
X122108980Y-105608560D01*
X122089744Y-105696840D01*
X122076078Y-105764630D01*
X122067541Y-105814412D01*
X122063691Y-105848664D01*
X122064089Y-105869866D01*
X122066499Y-105877984D01*
X122077334Y-105891506D01*
X122095977Y-105899358D01*
X122128672Y-105902983D01*
X122178317Y-105903824D01*
X122225250Y-105905322D01*
X122259924Y-105909284D01*
X122275908Y-105914909D01*
X122276305Y-105916006D01*
X122273489Y-105932703D01*
X122265781Y-105969817D01*
X122254289Y-106022205D01*
X122240123Y-106084725D01*
X122236925Y-106098604D01*
X122222377Y-106162110D01*
X122210255Y-106216074D01*
X122201659Y-106255521D01*
X122197689Y-106275476D01*
X122197545Y-106276759D01*
X122185108Y-106279228D01*
X122150558Y-106281372D01*
X122098031Y-106283054D01*
X122031667Y-106284140D01*
X121960844Y-106284496D01*
X121862419Y-106283754D01*
X121786111Y-106281047D01*
X121727814Y-106275655D01*
X121683422Y-106266860D01*
X121648827Y-106253942D01*
X121619925Y-106236180D01*
X121602186Y-106221644D01*
X121572227Y-106183715D01*
X121544956Y-106129882D01*
X121524587Y-106070449D01*
X121515334Y-106015720D01*
X121515165Y-106008837D01*
X121517947Y-105981524D01*
X121525851Y-105932267D01*
X121538174Y-105864723D01*
X121554215Y-105782548D01*
X121573270Y-105689396D01*
X121594638Y-105588924D01*
X121604700Y-105542842D01*
X121694288Y-105135917D01*
X121596454Y-105132055D01*
X121548869Y-105130709D01*
X121512841Y-105130695D01*
X121495162Y-105131994D01*
X121494492Y-105132321D01*
X121490869Y-105145581D01*
X121482147Y-105181882D01*
X121468920Y-105238636D01*
X121451779Y-105313256D01*
X121431316Y-105403152D01*
X121408124Y-105505738D01*
X121382795Y-105618425D01*
X121362202Y-105710473D01*
X121234041Y-106284496D01*
X120960128Y-106284496D01*
X120868682Y-106284362D01*
X120800298Y-106283774D01*
X120751783Y-106282460D01*
X120719947Y-106280143D01*
X120701598Y-106276549D01*
X120693546Y-106271404D01*
X120692597Y-106264431D01*
X120693349Y-106261525D01*
X120697674Y-106244786D01*
X120707217Y-106206108D01*
X120721218Y-106148656D01*
X120738918Y-106075598D01*
X120759559Y-105990097D01*
X120782382Y-105895322D01*
X120806627Y-105794437D01*
X120831537Y-105690608D01*
X120856351Y-105587001D01*
X120880311Y-105486783D01*
X120902659Y-105393118D01*
X120922635Y-105309174D01*
X120939480Y-105238115D01*
X120952436Y-105183109D01*
X120960743Y-105147320D01*
X120963643Y-105133927D01*
X120951548Y-105131811D01*
X120919388Y-105130214D01*
X120873350Y-105129404D01*
X120857746Y-105129354D01*
X120805335Y-105129916D01*
X120774370Y-105132343D01*
X120760053Y-105137750D01*
X120757587Y-105147251D01*
X120758808Y-105152326D01*
X120786810Y-105288861D01*
X120790899Y-105431067D01*
X120771362Y-105574437D01*
X120728488Y-105714467D01*
X120721826Y-105730742D01*
X120648917Y-105871214D01*
X120555909Y-105995362D01*
X120444275Y-106101822D01*
X120315491Y-106189228D01*
X120171030Y-106256218D01*
X120143230Y-106266086D01*
X120095469Y-106281154D01*
X120051728Y-106291635D01*
X120004806Y-106298522D01*
X119947508Y-106302808D01*
X119872634Y-106305486D01*
X119854444Y-106305927D01*
X119755684Y-106306642D01*
X119678801Y-106303519D01*
X119619670Y-106296324D01*
X119595609Y-106291161D01*
X119473350Y-106248059D01*
X119366884Y-106185447D01*
X119277907Y-106104991D01*
X119208119Y-106008358D01*
X119159219Y-105897214D01*
X119146149Y-105850181D01*
X119126443Y-105713071D01*
X119129251Y-105638692D01*
X119705038Y-105638692D01*
X119705810Y-105714122D01*
X119712687Y-105782764D01*
X119725420Y-105837261D01*
X119735157Y-105859101D01*
X119778160Y-105908941D01*
X119832405Y-105937109D01*
X119893114Y-105942728D01*
X119955505Y-105924921D01*
X119987951Y-105905447D01*
X120046303Y-105850129D01*
X120100551Y-105774172D01*
X120148156Y-105683143D01*
X120186575Y-105582611D01*
X120213268Y-105478142D01*
X120225143Y-105385735D01*
X120225559Y-105291930D01*
X120213261Y-105217548D01*
X120187186Y-105158485D01*
X120156493Y-105120302D01*
X120105208Y-105084970D01*
X120048519Y-105074285D01*
X119988765Y-105087812D01*
X119928289Y-105125114D01*
X119881054Y-105171671D01*
X119836489Y-105233892D01*
X119792782Y-105313230D01*
X119754264Y-105400782D01*
X119725269Y-105487643D01*
X119722814Y-105496899D01*
X119710623Y-105563832D01*
X119705038Y-105638692D01*
X119129251Y-105638692D01*
X119131708Y-105573614D01*
X119162117Y-105430635D01*
X119217840Y-105282962D01*
X119234206Y-105248310D01*
X119268427Y-105181578D01*
X119300220Y-105128891D01*
X119335862Y-105081493D01*
X119381624Y-105030626D01*
X119413946Y-104997426D01*
X119469346Y-104943245D01*
X119515805Y-104903190D01*
X119561361Y-104871367D01*
X119614054Y-104841878D01*
X119651157Y-104823473D01*
X119785847Y-104769879D01*
X119922806Y-104736676D01*
X120059102Y-104723332D01*
X120191806Y-104729314D01*
X120317986Y-104754089D01*
X120434713Y-104797124D01*
X120539057Y-104857887D01*
X120628086Y-104935843D01*
X120687417Y-105011929D01*
X120737379Y-105089230D01*
X120776205Y-104941928D01*
X120815032Y-104794625D01*
X120923699Y-104788062D01*
X121032366Y-104781499D01*
X121056680Y-104685551D01*
X121093999Y-104573351D01*
X121144033Y-104478067D01*
X121205039Y-104401991D01*
X121275274Y-104347415D01*
X121333255Y-104321877D01*
X121373164Y-104313222D01*
X121430937Y-104305284D01*
X121500030Y-104298473D01*
X121573903Y-104293197D01*
X121646013Y-104289868D01*
X121709818Y-104288894D01*
X121758777Y-104290684D01*
G37*
G36*
X117073631Y-104729314D02*
G01*
X117205983Y-104752272D01*
X117323133Y-104794965D01*
X117423951Y-104856414D01*
X117507307Y-104935642D01*
X117572068Y-105031673D01*
X117617104Y-105143528D01*
X117641284Y-105270231D01*
X117645295Y-105347609D01*
X117643863Y-105410439D01*
X117639431Y-105471796D01*
X117632860Y-105520897D01*
X117630629Y-105531503D01*
X117615254Y-105595591D01*
X117391938Y-105666795D01*
X117297005Y-105697858D01*
X117226340Y-105722751D01*
X117180175Y-105741371D01*
X117158740Y-105753614D01*
X117162269Y-105759378D01*
X117184985Y-105759111D01*
X117205384Y-105758523D01*
X117248620Y-105758072D01*
X117311277Y-105757767D01*
X117389938Y-105757616D01*
X117481188Y-105757628D01*
X117581610Y-105757811D01*
X117636804Y-105757979D01*
X118057612Y-105759432D01*
X118057612Y-105824523D01*
X118067269Y-105887141D01*
X118096648Y-105933655D01*
X118146369Y-105964533D01*
X118217048Y-105980240D01*
X118266770Y-105982584D01*
X118343798Y-105975419D01*
X118406189Y-105955489D01*
X118451751Y-105925143D01*
X118478291Y-105886728D01*
X118483617Y-105842593D01*
X118465537Y-105795086D01*
X118455301Y-105780630D01*
X118430920Y-105754807D01*
X118399530Y-105732872D01*
X118356631Y-105712785D01*
X118297722Y-105692509D01*
X118218305Y-105670004D01*
X118201036Y-105665442D01*
X118066013Y-105624926D01*
X117955198Y-105579869D01*
X117866731Y-105528859D01*
X117798755Y-105470484D01*
X117749411Y-105403333D01*
X117716841Y-105325996D01*
X117707883Y-105290915D01*
X117701298Y-105210050D01*
X117712110Y-105122014D01*
X117738816Y-105037863D01*
X117743731Y-105027035D01*
X117791558Y-104954956D01*
X117862325Y-104889448D01*
X117953132Y-104832423D01*
X118061083Y-104785793D01*
X118149494Y-104759305D01*
X118227370Y-104744676D01*
X118320889Y-104734629D01*
X118423016Y-104729229D01*
X118526717Y-104728539D01*
X118624956Y-104732626D01*
X118710699Y-104741552D01*
X118770711Y-104753595D01*
X118882729Y-104792975D01*
X118971387Y-104843184D01*
X119037613Y-104905090D01*
X119082338Y-104979561D01*
X119106454Y-105067223D01*
X119110353Y-105116065D01*
X119108836Y-105163053D01*
X119107110Y-105175210D01*
X119098474Y-105221240D01*
X118843100Y-105221240D01*
X118587726Y-105221240D01*
X118587726Y-105168941D01*
X118580619Y-105121992D01*
X118555617Y-105080909D01*
X118549884Y-105074289D01*
X118527086Y-105051386D01*
X118504309Y-105038073D01*
X118472906Y-105031186D01*
X118424229Y-105027557D01*
X118421899Y-105027440D01*
X118367702Y-105026516D01*
X118330071Y-105031340D01*
X118299656Y-105043490D01*
X118288768Y-105049902D01*
X118246334Y-105087221D01*
X118228684Y-105129500D01*
X118236497Y-105174940D01*
X118239337Y-105180828D01*
X118257477Y-105206252D01*
X118285490Y-105227786D01*
X118326999Y-105246934D01*
X118385627Y-105265201D01*
X118464997Y-105284092D01*
X118511331Y-105293784D01*
X118642455Y-105323112D01*
X118749979Y-105353927D01*
X118836558Y-105387980D01*
X118904842Y-105427021D01*
X118957487Y-105472803D01*
X118997143Y-105527075D01*
X119026465Y-105591589D01*
X119042397Y-105644308D01*
X119055857Y-105747632D01*
X119044899Y-105850836D01*
X119011196Y-105950871D01*
X118956421Y-106044690D01*
X118882245Y-106129246D01*
X118790341Y-106201490D01*
X118712955Y-106244732D01*
X118649591Y-106273471D01*
X118592994Y-106295072D01*
X118537582Y-106310518D01*
X118477774Y-106320793D01*
X118407988Y-106326882D01*
X118322643Y-106329768D01*
X118226744Y-106330439D01*
X118117689Y-106329282D01*
X118029235Y-106325154D01*
X117955804Y-106317074D01*
X117891819Y-106304060D01*
X117831703Y-106285130D01*
X117769878Y-106259302D01*
X117738633Y-106244495D01*
X117652698Y-106190153D01*
X117583121Y-106120612D01*
X117532602Y-106039836D01*
X117503843Y-105951787D01*
X117498094Y-105891597D01*
X117497970Y-105844755D01*
X117456887Y-105916951D01*
X117429181Y-105957988D01*
X117388648Y-106008667D01*
X117341904Y-106060985D01*
X117315899Y-106087600D01*
X117210192Y-106178522D01*
X117099115Y-106246718D01*
X116978668Y-106293846D01*
X116844852Y-106321570D01*
X116730310Y-106330734D01*
X116662961Y-106331696D01*
X116597550Y-106330271D01*
X116543233Y-106326768D01*
X116518199Y-106323522D01*
X116392558Y-106289093D01*
X116283004Y-106235145D01*
X116190345Y-106163509D01*
X116115384Y-106076014D01*
X116058929Y-105974487D01*
X116021784Y-105860759D01*
X116004756Y-105736658D01*
X116005902Y-105697620D01*
X116570055Y-105697620D01*
X116578084Y-105765449D01*
X116600069Y-105829421D01*
X116633146Y-105883667D01*
X116672677Y-105921344D01*
X116689859Y-105930486D01*
X116743585Y-105941477D01*
X116801928Y-105937359D01*
X116839937Y-105924522D01*
X116899716Y-105880865D01*
X116956307Y-105815901D01*
X117007530Y-105734561D01*
X117051206Y-105641771D01*
X117085157Y-105542461D01*
X117107203Y-105441558D01*
X117115165Y-105343990D01*
X117113783Y-105305169D01*
X117107270Y-105251674D01*
X117097150Y-105203195D01*
X117086119Y-105171422D01*
X117045867Y-105116695D01*
X116995424Y-105085070D01*
X116937579Y-105076830D01*
X116875124Y-105092259D01*
X116810850Y-105131640D01*
X116798297Y-105142175D01*
X116735183Y-105210932D01*
X116679246Y-105297289D01*
X116632626Y-105395191D01*
X116597461Y-105498583D01*
X116575891Y-105601411D01*
X116570055Y-105697620D01*
X116005902Y-105697620D01*
X116008651Y-105604014D01*
X116034273Y-105464655D01*
X116079501Y-105327641D01*
X116107906Y-105256832D01*
X116044857Y-105264299D01*
X115958111Y-105282794D01*
X115873080Y-105315482D01*
X115800215Y-105358056D01*
X115781422Y-105372852D01*
X115749474Y-105403252D01*
X115721837Y-105437462D01*
X115697393Y-105478523D01*
X115675029Y-105529477D01*
X115653628Y-105593364D01*
X115632075Y-105673225D01*
X115609254Y-105772101D01*
X115584052Y-105893033D01*
X115576185Y-105932425D01*
X115507690Y-106277933D01*
X115229672Y-106281476D01*
X115133540Y-106282374D01*
X115060942Y-106282213D01*
X115009179Y-106280863D01*
X114975549Y-106278198D01*
X114957351Y-106274089D01*
X114951882Y-106268410D01*
X114951883Y-106268349D01*
X114954855Y-106251751D01*
X114963214Y-106212706D01*
X114976305Y-106153999D01*
X114993471Y-106078417D01*
X115014058Y-105988745D01*
X115037412Y-105887770D01*
X115062876Y-105778277D01*
X115089795Y-105663053D01*
X115117516Y-105544883D01*
X115145381Y-105426554D01*
X115172737Y-105310853D01*
X115198928Y-105200563D01*
X115223299Y-105098473D01*
X115245194Y-105007368D01*
X115263960Y-104930034D01*
X115278940Y-104869256D01*
X115289480Y-104827822D01*
X115294923Y-104808517D01*
X115295397Y-104807488D01*
X115309520Y-104805156D01*
X115344928Y-104802028D01*
X115396726Y-104798362D01*
X115460017Y-104794416D01*
X115529905Y-104790449D01*
X115601493Y-104786719D01*
X115669884Y-104783485D01*
X115730183Y-104781006D01*
X115777493Y-104779539D01*
X115806917Y-104779343D01*
X115814245Y-104780097D01*
X115812690Y-104793074D01*
X115805762Y-104823880D01*
X115797992Y-104854306D01*
X115785332Y-104903721D01*
X115781092Y-104930224D01*
X115786652Y-104936194D01*
X115803394Y-104924011D01*
X115825997Y-104902568D01*
X115905139Y-104843271D01*
X116005492Y-104798029D01*
X116125783Y-104767340D01*
X116195400Y-104757344D01*
X116229222Y-104755379D01*
X116248763Y-104757683D01*
X116250720Y-104759776D01*
X116247733Y-104774953D01*
X116239823Y-104810988D01*
X116228047Y-104863175D01*
X116213459Y-104926810D01*
X116206077Y-104958708D01*
X116190818Y-105025473D01*
X116178248Y-105082439D01*
X116169331Y-105125076D01*
X116165030Y-105148853D01*
X116164885Y-105152233D01*
X116173810Y-105144252D01*
X116194993Y-105120218D01*
X116224456Y-105084706D01*
X116235863Y-105070569D01*
X116334400Y-104967131D01*
X116451130Y-104877624D01*
X116579946Y-104806042D01*
X116714741Y-104756380D01*
X116717183Y-104755712D01*
X116766458Y-104745350D01*
X116830964Y-104735919D01*
X116899682Y-104728922D01*
X116927209Y-104727068D01*
X117073631Y-104729314D01*
G37*
%TD*%
%LPC*%
D14*
%TO.C,EJECT*%
X147510830Y-94700000D03*
X141010830Y-94700000D03*
X147510830Y-90200000D03*
X141010830Y-90200000D03*
%TD*%
D15*
%TO.C,D1*%
X112308830Y-90279000D03*
D16*
X112308830Y-92819000D03*
X112308830Y-95359000D03*
%TD*%
D17*
%TO.C,J1*%
X184317830Y-100693000D03*
D18*
X184317830Y-98693000D03*
X184317830Y-96693000D03*
X184317830Y-94693000D03*
X184317830Y-92693000D03*
X184317830Y-90693000D03*
X184317830Y-88693000D03*
X184317830Y-86693000D03*
X184317830Y-84693000D03*
%TD*%
D14*
%TO.C,POWER*%
X140910830Y-110750000D03*
X147410830Y-110750000D03*
X140910830Y-115250000D03*
X147410830Y-115250000D03*
%TD*%
D15*
%TO.C,D2*%
X176250000Y-95330000D03*
D16*
X176250000Y-92790000D03*
X176250000Y-90250000D03*
%TD*%
%LPD*%
M02*
