%TF.GenerationSoftware,KiCad,Pcbnew,8.0.3*%
%TF.CreationDate,2024-07-06T19:28:03+01:00*%
%TF.ProjectId,XBox button board_no_LAN-HDD_all tracks front,58426f78-2062-4757-9474-6f6e20626f61,rev?*%
%TF.SameCoordinates,Original*%
%TF.FileFunction,Copper,L1,Top*%
%TF.FilePolarity,Positive*%
%FSLAX46Y46*%
G04 Gerber Fmt 4.6, Leading zero omitted, Abs format (unit mm)*
G04 Created by KiCad (PCBNEW 8.0.3) date 2024-07-06 19:28:03*
%MOMM*%
%LPD*%
G01*
G04 APERTURE LIST*
%TA.AperFunction,ComponentPad*%
%ADD10C,2.000000*%
%TD*%
%TA.AperFunction,ComponentPad*%
%ADD11R,1.800000X1.800000*%
%TD*%
%TA.AperFunction,ComponentPad*%
%ADD12C,1.800000*%
%TD*%
%TA.AperFunction,ComponentPad*%
%ADD13R,2.000000X1.400000*%
%TD*%
%TA.AperFunction,ComponentPad*%
%ADD14O,2.000000X1.400000*%
%TD*%
%TA.AperFunction,Conductor*%
%ADD15C,0.300000*%
%TD*%
G04 APERTURE END LIST*
D10*
%TO.P,EJECT,1,1*%
%TO.N,GND*%
X147510830Y-94700000D03*
X141010830Y-94700000D03*
%TO.P,EJECT,2,2*%
%TO.N,Net-(J1-Pin_4)*%
X147510830Y-90200000D03*
X141010830Y-90200000D03*
%TD*%
D11*
%TO.P,D1,1,A1*%
%TO.N,Net-(D1-A1)*%
X112308830Y-90279000D03*
D12*
%TO.P,D1,2,K*%
%TO.N,GND*%
X112308830Y-92819000D03*
%TO.P,D1,3,A2*%
%TO.N,Net-(D1-A2)*%
X112308830Y-95359000D03*
%TD*%
D13*
%TO.P,J1,1,Pin_1*%
%TO.N,GND*%
X184317830Y-100693000D03*
D14*
%TO.P,J1,2,Pin_2*%
%TO.N,Net-(J1-Pin_2)*%
X184317830Y-98693000D03*
%TO.P,J1,3,Pin_3*%
%TO.N,GND*%
X184317830Y-96693000D03*
%TO.P,J1,4,Pin_4*%
%TO.N,Net-(J1-Pin_4)*%
X184317830Y-94693000D03*
%TO.P,J1,5,Pin_5*%
%TO.N,Net-(D1-A1)*%
X184317830Y-92693000D03*
%TO.P,J1,6,Pin_6*%
%TO.N,Net-(D1-A2)*%
X184317830Y-90693000D03*
%TO.P,J1,7,Pin_7*%
%TO.N,Net-(D2-A2)*%
X184317830Y-88693000D03*
%TO.P,J1,8,Pin_8*%
%TO.N,Net-(D2-A1)*%
X184317830Y-86693000D03*
%TO.P,J1,9,Pin_9*%
%TO.N,unconnected-(J1-Pin_9-Pad9)*%
X184317830Y-84693000D03*
%TD*%
D10*
%TO.P,POWER,1,1*%
%TO.N,GND*%
X140910830Y-110750000D03*
X147410830Y-110750000D03*
%TO.P,POWER,2,2*%
%TO.N,Net-(J1-Pin_2)*%
X140910830Y-115250000D03*
X147410830Y-115250000D03*
%TD*%
D11*
%TO.P,D2,1,A1*%
%TO.N,Net-(D2-A1)*%
X176250000Y-95330000D03*
D12*
%TO.P,D2,2,K*%
%TO.N,GND*%
X176250000Y-92790000D03*
%TO.P,D2,3,A2*%
%TO.N,Net-(D2-A2)*%
X176250000Y-90250000D03*
%TD*%
D15*
%TO.N,Net-(D1-A1)*%
X110958830Y-95918189D02*
X110958830Y-91629000D01*
X178409358Y-99750000D02*
X114790641Y-99750000D01*
X180617830Y-92693000D02*
X180560830Y-92750000D01*
X110958830Y-91629000D02*
X112308830Y-90279000D01*
X114790641Y-99750000D02*
X110958830Y-95918189D01*
X184317830Y-92693000D02*
X180617830Y-92693000D01*
X180560830Y-97598528D02*
X178409358Y-99750000D01*
X180560830Y-92750000D02*
X180560830Y-97598528D01*
%TO.N,Net-(D1-A2)*%
X179960830Y-97350000D02*
X178160830Y-99150000D01*
X180917830Y-90693000D02*
X179960830Y-91650000D01*
X184317830Y-90693000D02*
X180917830Y-90693000D01*
X179960830Y-91650000D02*
X179960830Y-97350000D01*
X178160830Y-99150000D02*
X116099830Y-99150000D01*
X116099830Y-99150000D02*
X112308830Y-95359000D01*
%TO.N,Net-(D2-A1)*%
X175671213Y-95908787D02*
X176250000Y-95330000D01*
X184317830Y-86693000D02*
X174217830Y-86693000D01*
X175500870Y-96100000D02*
X176130592Y-95470278D01*
X175661491Y-96058787D02*
X176250000Y-95470278D01*
X170698169Y-90212661D02*
X170698169Y-94848169D01*
X171758787Y-95908787D02*
X175671213Y-95908787D01*
X174217830Y-86693000D02*
X170698169Y-90212661D01*
X170698169Y-94848169D02*
X171758787Y-95908787D01*
%TO.N,Net-(J1-Pin_4)*%
X184317830Y-94693000D02*
X186160830Y-92850000D01*
X169862302Y-90200000D02*
X147510830Y-90200000D01*
X186160830Y-92850000D02*
X186160830Y-83050000D01*
X178160830Y-85700000D02*
X174362302Y-85700000D01*
X181360830Y-82500000D02*
X178160830Y-85700000D01*
X141010830Y-90200000D02*
X147510830Y-90200000D01*
X186160830Y-83050000D02*
X185610830Y-82500000D01*
X174362302Y-85700000D02*
X169862302Y-90200000D01*
X185610830Y-82500000D02*
X181360830Y-82500000D01*
%TO.N,Net-(J1-Pin_2)*%
X186660830Y-101450000D02*
X186292830Y-101818000D01*
X186353830Y-98693000D02*
X186660830Y-99000000D01*
X163992830Y-101818000D02*
X160810830Y-105000000D01*
X160810830Y-113800000D02*
X159360830Y-115250000D01*
X140910830Y-115250000D02*
X147410830Y-115250000D01*
X160810830Y-105000000D02*
X160810830Y-113800000D01*
X159360830Y-115250000D02*
X147410830Y-115250000D01*
X186292830Y-101818000D02*
X163992830Y-101818000D01*
X186660830Y-99000000D02*
X186660830Y-101450000D01*
X184317830Y-98693000D02*
X186353830Y-98693000D01*
%TO.N,Net-(D2-A2)*%
X184317830Y-88693000D02*
X183642830Y-89368000D01*
X183642830Y-89368000D02*
X177132000Y-89368000D01*
X177132000Y-89368000D02*
X176250000Y-90250000D01*
%TD*%
%TA.AperFunction,Conductor*%
%TO.N,GND*%
G36*
X183010404Y-87363185D02*
G01*
X183043682Y-87394613D01*
X183078168Y-87442079D01*
X183102141Y-87475074D01*
X183232386Y-87605319D01*
X183265871Y-87666642D01*
X183260887Y-87736334D01*
X183232386Y-87780681D01*
X183102142Y-87910924D01*
X183102142Y-87910925D01*
X183102140Y-87910927D01*
X183083737Y-87936257D01*
X182991070Y-88063800D01*
X182905284Y-88232163D01*
X182846889Y-88411881D01*
X182817331Y-88598504D01*
X182816961Y-88603217D01*
X182792083Y-88668508D01*
X182735856Y-88709984D01*
X182693342Y-88717500D01*
X177067929Y-88717500D01*
X176942261Y-88742497D01*
X176942255Y-88742499D01*
X176823870Y-88791535D01*
X176717334Y-88862720D01*
X176713261Y-88866063D01*
X176648948Y-88893369D01*
X176600165Y-88888113D01*
X176599951Y-88888960D01*
X176594987Y-88887703D01*
X176539836Y-88878500D01*
X176366049Y-88849500D01*
X176133951Y-88849500D01*
X176088164Y-88857140D01*
X175905015Y-88887702D01*
X175685504Y-88963061D01*
X175685495Y-88963064D01*
X175481371Y-89073531D01*
X175481365Y-89073535D01*
X175298222Y-89216081D01*
X175298219Y-89216084D01*
X175141016Y-89386852D01*
X175014075Y-89581151D01*
X174920842Y-89793699D01*
X174863866Y-90018691D01*
X174863864Y-90018702D01*
X174844700Y-90249993D01*
X174844700Y-90250006D01*
X174863864Y-90481297D01*
X174863866Y-90481308D01*
X174920842Y-90706300D01*
X175014075Y-90918848D01*
X175141016Y-91113147D01*
X175141019Y-91113151D01*
X175141021Y-91113153D01*
X175298216Y-91283913D01*
X175474777Y-91421335D01*
X175476225Y-91422462D01*
X175517038Y-91479173D01*
X175520713Y-91548946D01*
X175486082Y-91609629D01*
X175476225Y-91618170D01*
X175451201Y-91637646D01*
X175451200Y-91637647D01*
X176161415Y-92347861D01*
X176076306Y-92370667D01*
X175973694Y-92429910D01*
X175889910Y-92513694D01*
X175830667Y-92616306D01*
X175807861Y-92701415D01*
X175098811Y-91992365D01*
X175014516Y-92121390D01*
X174921317Y-92333864D01*
X174864361Y-92558781D01*
X174845202Y-92789994D01*
X174845202Y-92790005D01*
X174864361Y-93021218D01*
X174921317Y-93246135D01*
X175014515Y-93458606D01*
X175098812Y-93587633D01*
X175807861Y-92878584D01*
X175830667Y-92963694D01*
X175889910Y-93066306D01*
X175973694Y-93150090D01*
X176076306Y-93209333D01*
X176161414Y-93232138D01*
X175500371Y-93893181D01*
X175439048Y-93926666D01*
X175412691Y-93929500D01*
X175302130Y-93929500D01*
X175302123Y-93929501D01*
X175242516Y-93935908D01*
X175107671Y-93986202D01*
X175107664Y-93986206D01*
X174992455Y-94072452D01*
X174992452Y-94072455D01*
X174906206Y-94187664D01*
X174906202Y-94187671D01*
X174855908Y-94322517D01*
X174849501Y-94382116D01*
X174849501Y-94382123D01*
X174849500Y-94382135D01*
X174849500Y-95134287D01*
X174829815Y-95201326D01*
X174777011Y-95247081D01*
X174725500Y-95258287D01*
X174018944Y-95258287D01*
X173951905Y-95238602D01*
X173906150Y-95185798D01*
X173896206Y-95116640D01*
X173916488Y-95064438D01*
X174026805Y-94902634D01*
X174137389Y-94673004D01*
X174212513Y-94429458D01*
X174250500Y-94177435D01*
X174250500Y-94050000D01*
X174250500Y-94010118D01*
X174250500Y-91510118D01*
X174250500Y-91422565D01*
X174212513Y-91170542D01*
X174137389Y-90926996D01*
X174107961Y-90865888D01*
X174026809Y-90697373D01*
X174026808Y-90697372D01*
X174026807Y-90697371D01*
X174026805Y-90697366D01*
X173883232Y-90486783D01*
X173709877Y-90299950D01*
X173510612Y-90141041D01*
X173289888Y-90013607D01*
X173052637Y-89920492D01*
X173052630Y-89920490D01*
X172804154Y-89863777D01*
X172550005Y-89844732D01*
X172549995Y-89844732D01*
X172295844Y-89863777D01*
X172289360Y-89865257D01*
X172219621Y-89860981D01*
X172163265Y-89819681D01*
X172138183Y-89754468D01*
X172152340Y-89686048D01*
X172174086Y-89656688D01*
X174450957Y-87379819D01*
X174512280Y-87346334D01*
X174538638Y-87343500D01*
X182943365Y-87343500D01*
X183010404Y-87363185D01*
G37*
%TD.AperFunction*%
%TA.AperFunction,Conductor*%
G36*
X188946334Y-78160493D02*
G01*
X189013371Y-78180179D01*
X189059125Y-78232984D01*
X189070330Y-78284493D01*
X189070330Y-103416500D01*
X189050645Y-103483539D01*
X188997841Y-103529294D01*
X188946330Y-103540500D01*
X165184040Y-103540500D01*
X165183741Y-103540528D01*
X165102724Y-103540528D01*
X164838450Y-103572614D01*
X164838449Y-103572614D01*
X164579992Y-103636314D01*
X164331071Y-103730713D01*
X164095350Y-103854426D01*
X164095338Y-103854433D01*
X163876266Y-104005645D01*
X163677000Y-104182177D01*
X163500469Y-104381437D01*
X163456734Y-104444798D01*
X163349238Y-104600530D01*
X163225529Y-104836235D01*
X163131126Y-105085154D01*
X163067418Y-105343627D01*
X163035330Y-105607892D01*
X163035330Y-118275500D01*
X163015645Y-118342539D01*
X162962841Y-118388294D01*
X162911330Y-118399500D01*
X125374644Y-118399500D01*
X125307605Y-118379815D01*
X125261850Y-118327011D01*
X125250644Y-118275445D01*
X125251376Y-116628827D01*
X125253989Y-110749994D01*
X139405689Y-110749994D01*
X139405689Y-110750005D01*
X139426215Y-110997729D01*
X139426217Y-110997738D01*
X139487242Y-111238717D01*
X139587096Y-111466364D01*
X139687394Y-111619882D01*
X140387042Y-110920234D01*
X140398312Y-110962292D01*
X140470720Y-111087708D01*
X140573122Y-111190110D01*
X140698538Y-111262518D01*
X140740595Y-111273787D01*
X140040772Y-111973609D01*
X140087598Y-112010055D01*
X140087600Y-112010056D01*
X140306215Y-112128364D01*
X140306226Y-112128369D01*
X140541336Y-112209083D01*
X140786537Y-112250000D01*
X141035123Y-112250000D01*
X141280323Y-112209083D01*
X141515433Y-112128369D01*
X141515444Y-112128364D01*
X141734058Y-112010057D01*
X141734061Y-112010055D01*
X141780886Y-111973609D01*
X141081064Y-111273787D01*
X141123122Y-111262518D01*
X141248538Y-111190110D01*
X141350940Y-111087708D01*
X141423348Y-110962292D01*
X141434617Y-110920234D01*
X142134264Y-111619882D01*
X142234561Y-111466369D01*
X142334417Y-111238717D01*
X142395442Y-110997738D01*
X142395444Y-110997729D01*
X142415971Y-110750005D01*
X142415971Y-110749994D01*
X145905689Y-110749994D01*
X145905689Y-110750005D01*
X145926215Y-110997729D01*
X145926217Y-110997738D01*
X145987242Y-111238717D01*
X146087096Y-111466364D01*
X146187394Y-111619882D01*
X146887042Y-110920234D01*
X146898312Y-110962292D01*
X146970720Y-111087708D01*
X147073122Y-111190110D01*
X147198538Y-111262518D01*
X147240595Y-111273787D01*
X146540772Y-111973609D01*
X146587598Y-112010055D01*
X146587600Y-112010056D01*
X146806215Y-112128364D01*
X146806226Y-112128369D01*
X147041336Y-112209083D01*
X147286537Y-112250000D01*
X147535123Y-112250000D01*
X147780323Y-112209083D01*
X148015433Y-112128369D01*
X148015444Y-112128364D01*
X148234058Y-112010057D01*
X148234061Y-112010055D01*
X148280886Y-111973609D01*
X147581064Y-111273787D01*
X147623122Y-111262518D01*
X147748538Y-111190110D01*
X147850940Y-111087708D01*
X147923348Y-110962292D01*
X147934617Y-110920234D01*
X148634264Y-111619882D01*
X148734561Y-111466369D01*
X148834417Y-111238717D01*
X148895442Y-110997738D01*
X148895444Y-110997729D01*
X148915971Y-110750005D01*
X148915971Y-110749994D01*
X148895444Y-110502270D01*
X148895442Y-110502261D01*
X148834417Y-110261282D01*
X148734561Y-110033630D01*
X148634264Y-109880116D01*
X147934617Y-110579764D01*
X147923348Y-110537708D01*
X147850940Y-110412292D01*
X147748538Y-110309890D01*
X147623122Y-110237482D01*
X147581065Y-110226212D01*
X148280887Y-109526390D01*
X148280886Y-109526389D01*
X148234059Y-109489943D01*
X148015444Y-109371635D01*
X148015433Y-109371630D01*
X147780323Y-109290916D01*
X147535123Y-109250000D01*
X147286537Y-109250000D01*
X147041336Y-109290916D01*
X146806226Y-109371630D01*
X146806220Y-109371632D01*
X146587591Y-109489949D01*
X146540772Y-109526388D01*
X146540772Y-109526390D01*
X147240595Y-110226212D01*
X147198538Y-110237482D01*
X147073122Y-110309890D01*
X146970720Y-110412292D01*
X146898312Y-110537708D01*
X146887042Y-110579764D01*
X146187394Y-109880116D01*
X146087097Y-110033632D01*
X145987242Y-110261282D01*
X145926217Y-110502261D01*
X145926215Y-110502270D01*
X145905689Y-110749994D01*
X142415971Y-110749994D01*
X142395444Y-110502270D01*
X142395442Y-110502261D01*
X142334417Y-110261282D01*
X142234561Y-110033630D01*
X142134264Y-109880116D01*
X141434617Y-110579764D01*
X141423348Y-110537708D01*
X141350940Y-110412292D01*
X141248538Y-110309890D01*
X141123122Y-110237482D01*
X141081065Y-110226212D01*
X141780887Y-109526390D01*
X141780886Y-109526389D01*
X141734059Y-109489943D01*
X141515444Y-109371635D01*
X141515433Y-109371630D01*
X141280323Y-109290916D01*
X141035123Y-109250000D01*
X140786537Y-109250000D01*
X140541336Y-109290916D01*
X140306226Y-109371630D01*
X140306220Y-109371632D01*
X140087591Y-109489949D01*
X140040772Y-109526388D01*
X140040772Y-109526390D01*
X140740595Y-110226212D01*
X140698538Y-110237482D01*
X140573122Y-110309890D01*
X140470720Y-110412292D01*
X140398312Y-110537708D01*
X140387042Y-110579764D01*
X139687394Y-109880116D01*
X139587097Y-110033632D01*
X139487242Y-110261282D01*
X139426217Y-110502261D01*
X139426215Y-110502270D01*
X139405689Y-110749994D01*
X125253989Y-110749994D01*
X125256518Y-105061196D01*
X125256516Y-105061192D01*
X125256522Y-105049366D01*
X125256520Y-105049351D01*
X125256554Y-104967892D01*
X125224546Y-104703450D01*
X125221696Y-104691873D01*
X125160880Y-104444802D01*
X125160879Y-104444801D01*
X125160879Y-104444798D01*
X125066482Y-104195712D01*
X124942734Y-103959830D01*
X124869995Y-103854426D01*
X124791439Y-103740592D01*
X124791438Y-103740591D01*
X124614811Y-103541203D01*
X124415421Y-103364569D01*
X124196185Y-103213275D01*
X123960303Y-103089523D01*
X123711224Y-102995127D01*
X123452570Y-102931457D01*
X123452564Y-102931456D01*
X123188134Y-102899447D01*
X123188129Y-102899447D01*
X123187559Y-102899447D01*
X123109275Y-102899478D01*
X123109264Y-102899477D01*
X123064268Y-102899495D01*
X123064269Y-102899496D01*
X123054943Y-102899500D01*
X123015061Y-102899516D01*
X123015061Y-102899517D01*
X123015059Y-102899517D01*
X122632436Y-102899683D01*
X109585384Y-102905358D01*
X109518336Y-102885703D01*
X109472558Y-102832919D01*
X109461330Y-102781358D01*
X109461330Y-91564928D01*
X110308330Y-91564928D01*
X110308330Y-95982258D01*
X110319007Y-96035930D01*
X110319007Y-96035933D01*
X110333327Y-96107925D01*
X110333329Y-96107933D01*
X110371464Y-96200000D01*
X110382365Y-96226316D01*
X110426921Y-96293000D01*
X110453556Y-96332862D01*
X114375967Y-100255273D01*
X114375970Y-100255275D01*
X114375972Y-100255277D01*
X114482514Y-100326465D01*
X114600897Y-100375501D01*
X114600901Y-100375501D01*
X114600902Y-100375502D01*
X114726569Y-100400500D01*
X114726572Y-100400500D01*
X178473429Y-100400500D01*
X178557973Y-100383682D01*
X178599102Y-100375501D01*
X178717485Y-100326465D01*
X178824027Y-100255277D01*
X181066107Y-98013197D01*
X181137295Y-97906655D01*
X181186331Y-97788272D01*
X181196733Y-97735981D01*
X181211330Y-97662599D01*
X181211330Y-93467500D01*
X181231015Y-93400461D01*
X181283819Y-93354706D01*
X181335330Y-93343500D01*
X182943365Y-93343500D01*
X183010404Y-93363185D01*
X183043682Y-93394613D01*
X183076616Y-93439943D01*
X183102141Y-93475074D01*
X183232386Y-93605319D01*
X183265871Y-93666642D01*
X183260887Y-93736334D01*
X183232386Y-93780681D01*
X183102142Y-93910924D01*
X183102142Y-93910925D01*
X183102140Y-93910927D01*
X183067576Y-93958500D01*
X182991070Y-94063800D01*
X182905284Y-94232163D01*
X182846889Y-94411881D01*
X182817330Y-94598513D01*
X182817330Y-94787486D01*
X182846889Y-94974118D01*
X182905284Y-95153836D01*
X182958505Y-95258287D01*
X182991070Y-95322199D01*
X183102140Y-95475073D01*
X183102142Y-95475075D01*
X183232739Y-95605672D01*
X183266224Y-95666995D01*
X183261240Y-95736687D01*
X183232739Y-95781034D01*
X183102519Y-95911253D01*
X183102515Y-95911258D01*
X182991500Y-96064059D01*
X182905744Y-96232362D01*
X182847378Y-96411997D01*
X182842468Y-96443000D01*
X184002144Y-96443000D01*
X183997750Y-96447394D01*
X183945089Y-96538606D01*
X183917830Y-96640339D01*
X183917830Y-96745661D01*
X183945089Y-96847394D01*
X183997750Y-96938606D01*
X184002144Y-96943000D01*
X182842468Y-96943000D01*
X182847378Y-96974002D01*
X182905744Y-97153637D01*
X182991500Y-97321940D01*
X183102515Y-97474741D01*
X183102519Y-97474746D01*
X183232739Y-97604966D01*
X183266224Y-97666289D01*
X183261240Y-97735981D01*
X183232739Y-97780328D01*
X183102142Y-97910924D01*
X183102142Y-97910925D01*
X183102140Y-97910927D01*
X183054440Y-97976579D01*
X182991070Y-98063800D01*
X182905284Y-98232163D01*
X182846889Y-98411881D01*
X182817330Y-98598513D01*
X182817330Y-98787486D01*
X182846889Y-98974118D01*
X182905284Y-99153836D01*
X182991070Y-99322199D01*
X183056082Y-99411680D01*
X183079562Y-99477485D01*
X183063737Y-99545539D01*
X183030076Y-99583831D01*
X182960639Y-99635812D01*
X182874479Y-99750906D01*
X182874475Y-99750913D01*
X182824233Y-99885620D01*
X182824231Y-99885627D01*
X182817830Y-99945155D01*
X182817830Y-100443000D01*
X184002144Y-100443000D01*
X183997750Y-100447394D01*
X183945089Y-100538606D01*
X183917830Y-100640339D01*
X183917830Y-100745661D01*
X183945089Y-100847394D01*
X183997750Y-100938606D01*
X184002144Y-100943000D01*
X182817830Y-100943000D01*
X182817830Y-101043500D01*
X182798145Y-101110539D01*
X182745341Y-101156294D01*
X182693830Y-101167500D01*
X163928759Y-101167500D01*
X163803091Y-101192497D01*
X163803081Y-101192500D01*
X163754050Y-101212810D01*
X163684711Y-101241530D01*
X163684693Y-101241540D01*
X163578162Y-101312721D01*
X163578155Y-101312727D01*
X160305556Y-104585326D01*
X160234364Y-104691874D01*
X160185329Y-104810255D01*
X160185327Y-104810261D01*
X160160330Y-104935928D01*
X160160330Y-113479192D01*
X160140645Y-113546231D01*
X160124011Y-113566873D01*
X159127703Y-114563181D01*
X159066380Y-114596666D01*
X159040022Y-114599500D01*
X148844667Y-114599500D01*
X148777628Y-114579815D01*
X148738268Y-114537384D01*
X148737808Y-114537686D01*
X148736044Y-114534987D01*
X148735616Y-114534525D01*
X148735003Y-114533393D01*
X148598996Y-114325217D01*
X148577387Y-114301744D01*
X148430574Y-114142262D01*
X148234339Y-113989526D01*
X148234337Y-113989525D01*
X148234336Y-113989524D01*
X148015641Y-113871172D01*
X148015632Y-113871169D01*
X147780446Y-113790429D01*
X147535165Y-113749500D01*
X147286495Y-113749500D01*
X147041213Y-113790429D01*
X146806027Y-113871169D01*
X146806018Y-113871172D01*
X146587323Y-113989524D01*
X146391087Y-114142261D01*
X146222663Y-114325217D01*
X146086656Y-114533393D01*
X146086044Y-114534525D01*
X146085672Y-114534898D01*
X146083852Y-114537686D01*
X146083278Y-114537311D01*
X146036821Y-114584112D01*
X145976993Y-114599500D01*
X142344667Y-114599500D01*
X142277628Y-114579815D01*
X142238268Y-114537384D01*
X142237808Y-114537686D01*
X142236044Y-114534987D01*
X142235616Y-114534525D01*
X142235003Y-114533393D01*
X142098996Y-114325217D01*
X142077387Y-114301744D01*
X141930574Y-114142262D01*
X141734339Y-113989526D01*
X141734337Y-113989525D01*
X141734336Y-113989524D01*
X141515641Y-113871172D01*
X141515632Y-113871169D01*
X141280446Y-113790429D01*
X141035165Y-113749500D01*
X140786495Y-113749500D01*
X140541213Y-113790429D01*
X140306027Y-113871169D01*
X140306018Y-113871172D01*
X140087323Y-113989524D01*
X139891087Y-114142261D01*
X139722663Y-114325217D01*
X139586656Y-114533393D01*
X139486766Y-114761118D01*
X139425722Y-115002175D01*
X139425720Y-115002187D01*
X139405187Y-115249994D01*
X139405187Y-115250005D01*
X139425720Y-115497812D01*
X139425722Y-115497824D01*
X139486766Y-115738881D01*
X139586656Y-115966606D01*
X139722663Y-116174782D01*
X139722666Y-116174785D01*
X139891086Y-116357738D01*
X140087321Y-116510474D01*
X140306020Y-116628828D01*
X140541216Y-116709571D01*
X140786495Y-116750500D01*
X141035165Y-116750500D01*
X141280444Y-116709571D01*
X141515640Y-116628828D01*
X141734339Y-116510474D01*
X141930574Y-116357738D01*
X142098994Y-116174785D01*
X142235003Y-115966607D01*
X142235005Y-115966601D01*
X142235616Y-115965475D01*
X142235987Y-115965101D01*
X142237808Y-115962314D01*
X142238381Y-115962688D01*
X142284839Y-115915888D01*
X142344667Y-115900500D01*
X145976993Y-115900500D01*
X146044032Y-115920185D01*
X146083391Y-115962615D01*
X146083852Y-115962314D01*
X146085615Y-115965012D01*
X146086044Y-115965475D01*
X146086656Y-115966606D01*
X146222663Y-116174782D01*
X146222666Y-116174785D01*
X146391086Y-116357738D01*
X146587321Y-116510474D01*
X146806020Y-116628828D01*
X147041216Y-116709571D01*
X147286495Y-116750500D01*
X147535165Y-116750500D01*
X147780444Y-116709571D01*
X148015640Y-116628828D01*
X148234339Y-116510474D01*
X148430574Y-116357738D01*
X148598994Y-116174785D01*
X148735003Y-115966607D01*
X148735005Y-115966601D01*
X148735616Y-115965475D01*
X148735987Y-115965101D01*
X148737808Y-115962314D01*
X148738381Y-115962688D01*
X148784839Y-115915888D01*
X148844667Y-115900500D01*
X159424901Y-115900500D01*
X159509445Y-115883682D01*
X159550574Y-115875501D01*
X159668957Y-115826465D01*
X159775499Y-115755277D01*
X161316107Y-114214669D01*
X161387296Y-114108126D01*
X161436331Y-113989743D01*
X161461330Y-113864069D01*
X161461330Y-113735931D01*
X161461330Y-105320808D01*
X161481015Y-105253769D01*
X161497649Y-105233127D01*
X164225957Y-102504819D01*
X164287280Y-102471334D01*
X164313638Y-102468500D01*
X186356901Y-102468500D01*
X186441445Y-102451682D01*
X186482574Y-102443501D01*
X186600957Y-102394465D01*
X186707499Y-102323277D01*
X187166107Y-101864669D01*
X187237296Y-101758126D01*
X187286331Y-101639743D01*
X187311330Y-101514069D01*
X187311330Y-101385931D01*
X187311330Y-98935931D01*
X187311330Y-98935928D01*
X187286332Y-98810261D01*
X187286331Y-98810260D01*
X187286331Y-98810256D01*
X187255296Y-98735331D01*
X187237296Y-98691874D01*
X187166107Y-98585331D01*
X187166102Y-98585325D01*
X186768503Y-98187726D01*
X186768499Y-98187723D01*
X186661957Y-98116535D01*
X186543574Y-98067499D01*
X186524983Y-98063801D01*
X186524978Y-98063800D01*
X186417901Y-98042500D01*
X186417899Y-98042500D01*
X185692295Y-98042500D01*
X185625256Y-98022815D01*
X185591977Y-97991386D01*
X185533520Y-97910927D01*
X185402921Y-97780328D01*
X185369436Y-97719005D01*
X185374420Y-97649313D01*
X185402921Y-97604966D01*
X185533140Y-97474746D01*
X185533144Y-97474741D01*
X185644159Y-97321940D01*
X185729915Y-97153637D01*
X185788281Y-96974002D01*
X185793192Y-96943000D01*
X184633516Y-96943000D01*
X184637910Y-96938606D01*
X184690571Y-96847394D01*
X184717830Y-96745661D01*
X184717830Y-96640339D01*
X184690571Y-96538606D01*
X184637910Y-96447394D01*
X184633516Y-96443000D01*
X185793192Y-96443000D01*
X185788281Y-96411997D01*
X185729915Y-96232362D01*
X185644159Y-96064059D01*
X185533144Y-95911258D01*
X185533140Y-95911253D01*
X185402921Y-95781034D01*
X185369436Y-95719711D01*
X185374420Y-95650019D01*
X185402921Y-95605672D01*
X185438711Y-95569882D01*
X185533520Y-95475073D01*
X185644590Y-95322199D01*
X185730377Y-95153832D01*
X185788770Y-94974118D01*
X185798571Y-94912238D01*
X185818330Y-94787486D01*
X185818330Y-94598513D01*
X185788770Y-94411881D01*
X185759733Y-94322516D01*
X185746066Y-94280456D01*
X185744072Y-94210617D01*
X185776317Y-94154458D01*
X186194442Y-93736334D01*
X186666107Y-93264669D01*
X186737296Y-93158126D01*
X186786331Y-93039743D01*
X186794013Y-93001127D01*
X186811330Y-92914069D01*
X186811330Y-82985931D01*
X186811330Y-82985928D01*
X186786332Y-82860261D01*
X186786331Y-82860260D01*
X186786331Y-82860256D01*
X186737295Y-82741873D01*
X186702464Y-82689744D01*
X186702464Y-82689743D01*
X186666109Y-82635334D01*
X186666103Y-82635326D01*
X186025503Y-81994726D01*
X186025499Y-81994723D01*
X185918957Y-81923535D01*
X185800574Y-81874499D01*
X185800568Y-81874497D01*
X185674901Y-81849500D01*
X185674899Y-81849500D01*
X181296761Y-81849500D01*
X181296759Y-81849500D01*
X181171091Y-81874497D01*
X181171085Y-81874499D01*
X181052700Y-81923535D01*
X180946161Y-81994722D01*
X180946154Y-81994728D01*
X177927703Y-85013181D01*
X177866380Y-85046666D01*
X177840022Y-85049500D01*
X174298231Y-85049500D01*
X174172563Y-85074497D01*
X174172557Y-85074499D01*
X174054176Y-85123534D01*
X173947628Y-85194726D01*
X173947627Y-85194727D01*
X169629175Y-89513181D01*
X169567852Y-89546666D01*
X169541494Y-89549500D01*
X148944667Y-89549500D01*
X148877628Y-89529815D01*
X148838268Y-89487384D01*
X148837808Y-89487686D01*
X148836044Y-89484987D01*
X148835616Y-89484525D01*
X148835003Y-89483393D01*
X148698996Y-89275217D01*
X148571453Y-89136669D01*
X148530574Y-89092262D01*
X148334339Y-88939526D01*
X148334337Y-88939525D01*
X148334336Y-88939524D01*
X148115641Y-88821172D01*
X148115632Y-88821169D01*
X147880446Y-88740429D01*
X147635165Y-88699500D01*
X147386495Y-88699500D01*
X147141213Y-88740429D01*
X146906027Y-88821169D01*
X146906018Y-88821172D01*
X146687323Y-88939524D01*
X146491087Y-89092261D01*
X146322663Y-89275217D01*
X146186656Y-89483393D01*
X146186044Y-89484525D01*
X146185672Y-89484898D01*
X146183852Y-89487686D01*
X146183278Y-89487311D01*
X146136821Y-89534112D01*
X146076993Y-89549500D01*
X142444667Y-89549500D01*
X142377628Y-89529815D01*
X142338268Y-89487384D01*
X142337808Y-89487686D01*
X142336044Y-89484987D01*
X142335616Y-89484525D01*
X142335003Y-89483393D01*
X142198996Y-89275217D01*
X142071453Y-89136669D01*
X142030574Y-89092262D01*
X141834339Y-88939526D01*
X141834337Y-88939525D01*
X141834336Y-88939524D01*
X141615641Y-88821172D01*
X141615632Y-88821169D01*
X141380446Y-88740429D01*
X141135165Y-88699500D01*
X140886495Y-88699500D01*
X140641213Y-88740429D01*
X140406027Y-88821169D01*
X140406018Y-88821172D01*
X140187323Y-88939524D01*
X139991087Y-89092261D01*
X139822663Y-89275217D01*
X139686656Y-89483393D01*
X139586766Y-89711118D01*
X139525722Y-89952175D01*
X139525720Y-89952187D01*
X139505187Y-90199994D01*
X139505187Y-90200005D01*
X139525720Y-90447812D01*
X139525722Y-90447824D01*
X139586766Y-90688881D01*
X139686656Y-90916606D01*
X139822663Y-91124782D01*
X139822666Y-91124785D01*
X139991086Y-91307738D01*
X140187321Y-91460474D01*
X140221874Y-91479173D01*
X140380340Y-91564931D01*
X140406020Y-91578828D01*
X140641216Y-91659571D01*
X140886495Y-91700500D01*
X141135165Y-91700500D01*
X141380444Y-91659571D01*
X141615640Y-91578828D01*
X141834339Y-91460474D01*
X142030574Y-91307738D01*
X142198994Y-91124785D01*
X142335003Y-90916607D01*
X142335005Y-90916601D01*
X142335616Y-90915475D01*
X142335987Y-90915101D01*
X142337808Y-90912314D01*
X142338381Y-90912688D01*
X142384839Y-90865888D01*
X142444667Y-90850500D01*
X146076993Y-90850500D01*
X146144032Y-90870185D01*
X146183391Y-90912615D01*
X146183852Y-90912314D01*
X146185615Y-90915012D01*
X146186044Y-90915475D01*
X146186656Y-90916606D01*
X146322663Y-91124782D01*
X146322666Y-91124785D01*
X146491086Y-91307738D01*
X146687321Y-91460474D01*
X146721874Y-91479173D01*
X146880340Y-91564931D01*
X146906020Y-91578828D01*
X147141216Y-91659571D01*
X147386495Y-91700500D01*
X147635165Y-91700500D01*
X147880444Y-91659571D01*
X148115640Y-91578828D01*
X148334339Y-91460474D01*
X148530574Y-91307738D01*
X148698994Y-91124785D01*
X148835003Y-90916607D01*
X148835005Y-90916601D01*
X148835616Y-90915475D01*
X148835987Y-90915101D01*
X148837808Y-90912314D01*
X148838381Y-90912688D01*
X148884839Y-90865888D01*
X148944667Y-90850500D01*
X169923669Y-90850500D01*
X169990708Y-90870185D01*
X170036463Y-90922989D01*
X170047669Y-90974500D01*
X170047669Y-94912239D01*
X170069477Y-95021869D01*
X170069477Y-95021871D01*
X170072666Y-95037905D01*
X170072670Y-95037918D01*
X170121701Y-95156292D01*
X170192895Y-95262842D01*
X171344114Y-96414061D01*
X171431317Y-96472328D01*
X171431322Y-96472331D01*
X171431323Y-96472332D01*
X171431322Y-96472332D01*
X171450658Y-96485251D01*
X171450659Y-96485251D01*
X171450660Y-96485252D01*
X171569043Y-96534288D01*
X171569047Y-96534288D01*
X171569048Y-96534289D01*
X171694715Y-96559287D01*
X171694718Y-96559287D01*
X174913434Y-96559287D01*
X174980473Y-96578972D01*
X174987745Y-96584021D01*
X175107664Y-96673793D01*
X175107671Y-96673797D01*
X175242516Y-96724091D01*
X175288329Y-96729016D01*
X175302108Y-96730498D01*
X175302118Y-96730499D01*
X175302127Y-96730500D01*
X175324044Y-96730499D01*
X175348234Y-96732881D01*
X175408971Y-96744963D01*
X175436800Y-96750499D01*
X175436801Y-96750499D01*
X175564940Y-96750499D01*
X175653503Y-96732882D01*
X175677695Y-96730499D01*
X177197871Y-96730499D01*
X177197872Y-96730499D01*
X177257483Y-96724091D01*
X177392331Y-96673796D01*
X177507546Y-96587546D01*
X177593796Y-96472331D01*
X177644091Y-96337483D01*
X177650500Y-96277873D01*
X177650499Y-94382128D01*
X177644091Y-94322517D01*
X177602543Y-94211122D01*
X177593797Y-94187671D01*
X177593793Y-94187664D01*
X177507547Y-94072455D01*
X177507544Y-94072452D01*
X177392335Y-93986206D01*
X177392328Y-93986202D01*
X177257482Y-93935908D01*
X177257483Y-93935908D01*
X177197883Y-93929501D01*
X177197881Y-93929500D01*
X177197873Y-93929500D01*
X177197865Y-93929500D01*
X177087308Y-93929500D01*
X177020269Y-93909815D01*
X176999627Y-93893181D01*
X176338585Y-93232137D01*
X176423694Y-93209333D01*
X176526306Y-93150090D01*
X176610090Y-93066306D01*
X176669333Y-92963694D01*
X176692138Y-92878585D01*
X177401186Y-93587633D01*
X177485482Y-93458611D01*
X177578682Y-93246135D01*
X177635638Y-93021218D01*
X177654798Y-92790005D01*
X177654798Y-92789994D01*
X177635638Y-92558781D01*
X177578682Y-92333864D01*
X177485484Y-92121393D01*
X177401186Y-91992365D01*
X176692137Y-92701414D01*
X176669333Y-92616306D01*
X176610090Y-92513694D01*
X176526306Y-92429910D01*
X176423694Y-92370667D01*
X176338584Y-92347861D01*
X177048797Y-91637647D01*
X177048797Y-91637646D01*
X177023773Y-91618169D01*
X176982961Y-91561459D01*
X176979286Y-91491686D01*
X177013918Y-91431003D01*
X177023760Y-91422473D01*
X177201784Y-91283913D01*
X177358979Y-91113153D01*
X177485924Y-90918849D01*
X177579157Y-90706300D01*
X177636134Y-90481305D01*
X177636135Y-90481297D01*
X177655300Y-90250006D01*
X177655300Y-90250004D01*
X177647241Y-90152739D01*
X177661323Y-90084303D01*
X177710169Y-90034344D01*
X177770818Y-90018500D01*
X180373021Y-90018500D01*
X180440060Y-90038185D01*
X180485815Y-90090989D01*
X180495759Y-90160147D01*
X180466734Y-90223703D01*
X180460702Y-90230181D01*
X179455557Y-91235325D01*
X179455551Y-91235332D01*
X179398398Y-91320869D01*
X179398399Y-91320870D01*
X179398397Y-91320873D01*
X179384365Y-91341873D01*
X179384363Y-91341875D01*
X179384363Y-91341877D01*
X179335329Y-91460255D01*
X179335327Y-91460261D01*
X179310330Y-91585928D01*
X179310330Y-97029192D01*
X179290645Y-97096231D01*
X179274011Y-97116873D01*
X177927703Y-98463181D01*
X177866380Y-98496666D01*
X177840022Y-98499500D01*
X116420638Y-98499500D01*
X116353599Y-98479815D01*
X116332957Y-98463181D01*
X113697323Y-95827547D01*
X113663838Y-95766224D01*
X113664799Y-95709425D01*
X113694961Y-95590317D01*
X113694961Y-95590316D01*
X113694964Y-95590305D01*
X113694965Y-95590297D01*
X113714130Y-95359006D01*
X113714130Y-95358993D01*
X113694965Y-95127702D01*
X113694963Y-95127691D01*
X113637987Y-94902699D01*
X113544754Y-94690151D01*
X113417813Y-94495852D01*
X113417810Y-94495849D01*
X113417809Y-94495847D01*
X113260614Y-94325087D01*
X113082603Y-94186536D01*
X113041791Y-94129826D01*
X113038116Y-94060053D01*
X113072747Y-93999370D01*
X113082602Y-93990831D01*
X113107627Y-93971352D01*
X113107628Y-93971351D01*
X112397415Y-93261138D01*
X112482524Y-93238333D01*
X112585136Y-93179090D01*
X112668920Y-93095306D01*
X112728163Y-92992694D01*
X112750968Y-92907585D01*
X113460016Y-93616633D01*
X113544312Y-93487611D01*
X113637512Y-93275135D01*
X113694468Y-93050218D01*
X113713628Y-92819005D01*
X113713628Y-92818994D01*
X113694468Y-92587781D01*
X113637512Y-92362864D01*
X113544314Y-92150393D01*
X113460016Y-92021365D01*
X112750967Y-92730414D01*
X112728163Y-92645306D01*
X112668920Y-92542694D01*
X112585136Y-92458910D01*
X112482524Y-92399667D01*
X112397414Y-92376861D01*
X113058458Y-91715818D01*
X113119781Y-91682333D01*
X113146139Y-91679499D01*
X113256701Y-91679499D01*
X113256702Y-91679499D01*
X113316313Y-91673091D01*
X113451161Y-91622796D01*
X113566376Y-91536546D01*
X113614277Y-91472559D01*
X114299500Y-91472559D01*
X114299500Y-94227440D01*
X114314219Y-94325086D01*
X114337487Y-94479458D01*
X114337488Y-94479460D01*
X114337489Y-94479466D01*
X114412612Y-94723007D01*
X114523190Y-94952626D01*
X114523191Y-94952627D01*
X114523193Y-94952630D01*
X114523195Y-94952634D01*
X114666768Y-95163217D01*
X114840123Y-95350050D01*
X115039388Y-95508959D01*
X115260112Y-95636393D01*
X115497363Y-95729508D01*
X115745843Y-95786222D01*
X115818459Y-95791663D01*
X115999995Y-95805268D01*
X116000000Y-95805268D01*
X116000005Y-95805268D01*
X116158848Y-95793364D01*
X116254157Y-95786222D01*
X116502637Y-95729508D01*
X116739888Y-95636393D01*
X116960612Y-95508959D01*
X117159877Y-95350050D01*
X117333232Y-95163217D01*
X117476805Y-94952634D01*
X117587389Y-94723004D01*
X117594487Y-94699994D01*
X139505689Y-94699994D01*
X139505689Y-94700005D01*
X139526215Y-94947729D01*
X139526217Y-94947738D01*
X139587242Y-95188717D01*
X139687096Y-95416364D01*
X139787394Y-95569882D01*
X140487042Y-94870234D01*
X140498312Y-94912292D01*
X140570720Y-95037708D01*
X140673122Y-95140110D01*
X140798538Y-95212518D01*
X140840595Y-95223787D01*
X140140772Y-95923609D01*
X140187598Y-95960055D01*
X140187600Y-95960056D01*
X140406215Y-96078364D01*
X140406226Y-96078369D01*
X140641336Y-96159083D01*
X140886537Y-96200000D01*
X141135123Y-96200000D01*
X141380323Y-96159083D01*
X141615433Y-96078369D01*
X141615444Y-96078364D01*
X141834058Y-95960057D01*
X141834061Y-95960055D01*
X141880886Y-95923609D01*
X141181064Y-95223787D01*
X141223122Y-95212518D01*
X141348538Y-95140110D01*
X141450940Y-95037708D01*
X141523348Y-94912292D01*
X141534617Y-94870235D01*
X142234264Y-95569882D01*
X142334561Y-95416369D01*
X142434417Y-95188717D01*
X142495442Y-94947738D01*
X142495444Y-94947729D01*
X142515971Y-94700005D01*
X142515971Y-94699994D01*
X146005689Y-94699994D01*
X146005689Y-94700005D01*
X146026215Y-94947729D01*
X146026217Y-94947738D01*
X146087242Y-95188717D01*
X146187096Y-95416364D01*
X146287394Y-95569882D01*
X146987042Y-94870234D01*
X146998312Y-94912292D01*
X147070720Y-95037708D01*
X147173122Y-95140110D01*
X147298538Y-95212518D01*
X147340595Y-95223787D01*
X146640772Y-95923609D01*
X146687598Y-95960055D01*
X146687600Y-95960056D01*
X146906215Y-96078364D01*
X146906226Y-96078369D01*
X147141336Y-96159083D01*
X147386537Y-96200000D01*
X147635123Y-96200000D01*
X147880323Y-96159083D01*
X148115433Y-96078369D01*
X148115444Y-96078364D01*
X148334058Y-95960057D01*
X148334061Y-95960055D01*
X148380886Y-95923609D01*
X147681064Y-95223787D01*
X147723122Y-95212518D01*
X147848538Y-95140110D01*
X147950940Y-95037708D01*
X148023348Y-94912292D01*
X148034617Y-94870235D01*
X148734264Y-95569882D01*
X148834561Y-95416369D01*
X148934417Y-95188717D01*
X148995442Y-94947738D01*
X148995444Y-94947729D01*
X149015971Y-94700005D01*
X149015971Y-94699994D01*
X148995444Y-94452270D01*
X148995442Y-94452261D01*
X148934417Y-94211282D01*
X148834561Y-93983630D01*
X148734264Y-93830116D01*
X148034617Y-94529764D01*
X148023348Y-94487708D01*
X147950940Y-94362292D01*
X147848538Y-94259890D01*
X147723122Y-94187482D01*
X147681065Y-94176212D01*
X148380887Y-93476390D01*
X148380886Y-93476389D01*
X148334059Y-93439943D01*
X148115444Y-93321635D01*
X148115433Y-93321630D01*
X147880323Y-93240916D01*
X147635123Y-93200000D01*
X147386537Y-93200000D01*
X147141336Y-93240916D01*
X146906226Y-93321630D01*
X146906220Y-93321632D01*
X146687591Y-93439949D01*
X146640772Y-93476388D01*
X146640772Y-93476390D01*
X147340595Y-94176212D01*
X147298538Y-94187482D01*
X147173122Y-94259890D01*
X147070720Y-94362292D01*
X146998312Y-94487708D01*
X146987042Y-94529764D01*
X146287394Y-93830116D01*
X146187097Y-93983632D01*
X146087242Y-94211282D01*
X146026217Y-94452261D01*
X146026215Y-94452270D01*
X146005689Y-94699994D01*
X142515971Y-94699994D01*
X142495444Y-94452270D01*
X142495442Y-94452261D01*
X142434417Y-94211282D01*
X142334561Y-93983630D01*
X142234264Y-93830116D01*
X141534617Y-94529764D01*
X141523348Y-94487708D01*
X141450940Y-94362292D01*
X141348538Y-94259890D01*
X141223122Y-94187482D01*
X141181065Y-94176212D01*
X141880887Y-93476390D01*
X141880886Y-93476389D01*
X141834059Y-93439943D01*
X141615444Y-93321635D01*
X141615433Y-93321630D01*
X141380323Y-93240916D01*
X141135123Y-93200000D01*
X140886537Y-93200000D01*
X140641336Y-93240916D01*
X140406226Y-93321630D01*
X140406220Y-93321632D01*
X140187591Y-93439949D01*
X140140772Y-93476388D01*
X140140772Y-93476390D01*
X140840595Y-94176212D01*
X140798538Y-94187482D01*
X140673122Y-94259890D01*
X140570720Y-94362292D01*
X140498312Y-94487708D01*
X140487042Y-94529764D01*
X139787394Y-93830116D01*
X139687097Y-93983632D01*
X139587242Y-94211282D01*
X139526217Y-94452261D01*
X139526215Y-94452270D01*
X139505689Y-94699994D01*
X117594487Y-94699994D01*
X117662513Y-94479458D01*
X117700500Y-94227435D01*
X117700500Y-94100000D01*
X117700500Y-94060118D01*
X117700500Y-91560118D01*
X117700500Y-91472565D01*
X117662513Y-91220542D01*
X117587389Y-90976996D01*
X117503034Y-90801831D01*
X117476809Y-90747373D01*
X117476808Y-90747372D01*
X117476807Y-90747371D01*
X117476805Y-90747366D01*
X117333232Y-90536783D01*
X117159877Y-90349950D01*
X116960612Y-90191041D01*
X116739888Y-90063607D01*
X116502637Y-89970492D01*
X116502630Y-89970490D01*
X116254154Y-89913777D01*
X116000005Y-89894732D01*
X115999995Y-89894732D01*
X115745845Y-89913777D01*
X115497369Y-89970490D01*
X115497362Y-89970492D01*
X115260109Y-90063608D01*
X115039388Y-90191041D01*
X114840123Y-90349950D01*
X114840121Y-90349952D01*
X114666768Y-90536782D01*
X114523191Y-90747372D01*
X114523190Y-90747373D01*
X114412612Y-90976992D01*
X114337489Y-91220533D01*
X114337488Y-91220538D01*
X114337487Y-91220542D01*
X114335259Y-91235325D01*
X114299500Y-91472559D01*
X113614277Y-91472559D01*
X113652626Y-91421331D01*
X113702921Y-91286483D01*
X113709330Y-91226873D01*
X113709329Y-89331128D01*
X113702921Y-89271517D01*
X113652626Y-89136669D01*
X113652625Y-89136668D01*
X113652623Y-89136664D01*
X113566377Y-89021455D01*
X113566374Y-89021452D01*
X113451165Y-88935206D01*
X113451158Y-88935202D01*
X113316312Y-88884908D01*
X113316313Y-88884908D01*
X113256713Y-88878501D01*
X113256711Y-88878500D01*
X113256703Y-88878500D01*
X113256694Y-88878500D01*
X111360959Y-88878500D01*
X111360953Y-88878501D01*
X111301346Y-88884908D01*
X111166501Y-88935202D01*
X111166494Y-88935206D01*
X111051285Y-89021452D01*
X111051282Y-89021455D01*
X110965036Y-89136664D01*
X110965032Y-89136671D01*
X110914738Y-89271517D01*
X110908331Y-89331116D01*
X110908331Y-89331123D01*
X110908330Y-89331135D01*
X110908330Y-90708191D01*
X110888645Y-90775230D01*
X110872011Y-90795872D01*
X110453555Y-91214328D01*
X110453549Y-91214336D01*
X110383951Y-91318498D01*
X110383946Y-91318506D01*
X110382365Y-91320870D01*
X110382362Y-91320876D01*
X110333330Y-91439251D01*
X110333327Y-91439261D01*
X110308330Y-91564928D01*
X109461330Y-91564928D01*
X109461330Y-87936257D01*
X109481015Y-87869218D01*
X109533819Y-87823463D01*
X109585235Y-87812257D01*
X121098383Y-87803655D01*
X121100426Y-87803851D01*
X121111152Y-87803800D01*
X121111153Y-87803801D01*
X121129340Y-87803715D01*
X121151035Y-87803616D01*
X121151035Y-87803617D01*
X121151253Y-87803616D01*
X121190129Y-87803587D01*
X121190130Y-87803586D01*
X121201058Y-87803578D01*
X121202910Y-87803389D01*
X121288006Y-87803019D01*
X121559818Y-87768896D01*
X121825576Y-87702423D01*
X122081444Y-87604559D01*
X122323730Y-87476716D01*
X122548935Y-87320740D01*
X122753810Y-87138882D01*
X122935397Y-86933767D01*
X122935407Y-86933753D01*
X123091069Y-86708367D01*
X123091070Y-86708364D01*
X123091076Y-86708356D01*
X123218599Y-86465902D01*
X123316126Y-86209904D01*
X123382248Y-85944059D01*
X123416012Y-85672202D01*
X123416270Y-85587216D01*
X123416405Y-85585882D01*
X123416415Y-85567362D01*
X123416431Y-85534907D01*
X123416564Y-85495348D01*
X123416563Y-85495347D01*
X123416601Y-85484212D01*
X123416457Y-85482722D01*
X123416526Y-85347790D01*
X123419268Y-79935729D01*
X123438987Y-79868701D01*
X123491814Y-79822973D01*
X123543266Y-79811793D01*
X165577268Y-79811501D01*
X165644306Y-79831185D01*
X165690061Y-79883989D01*
X165701266Y-79935906D01*
X165692029Y-82764606D01*
X165692023Y-82765542D01*
X165690143Y-82939297D01*
X165690144Y-82939312D01*
X165724325Y-83287682D01*
X165724326Y-83287684D01*
X165796182Y-83630280D01*
X165796184Y-83630287D01*
X165796185Y-83630290D01*
X165904864Y-83963052D01*
X166026535Y-84232168D01*
X166049078Y-84282030D01*
X166074587Y-84325214D01*
X166227113Y-84583430D01*
X166227117Y-84583435D01*
X166227120Y-84583440D01*
X166436856Y-84863685D01*
X166436858Y-84863687D01*
X166436862Y-84863692D01*
X166675838Y-85119488D01*
X166941207Y-85347788D01*
X167229824Y-85545883D01*
X167465184Y-85672202D01*
X167538269Y-85711427D01*
X167554239Y-85717873D01*
X167862879Y-85842454D01*
X167880265Y-85847354D01*
X168199801Y-85937411D01*
X168199807Y-85937412D01*
X168199813Y-85937414D01*
X168545073Y-85995180D01*
X168894566Y-86015067D01*
X168894566Y-86015066D01*
X168894567Y-86015067D01*
X168938264Y-86012788D01*
X169244151Y-85996840D01*
X169589681Y-85940714D01*
X169927062Y-85847355D01*
X170252293Y-85717870D01*
X170561518Y-85553793D01*
X170851072Y-85357071D01*
X171117523Y-85130034D01*
X171357711Y-84875375D01*
X171568788Y-84596112D01*
X171748254Y-84295557D01*
X171893980Y-83977272D01*
X172004238Y-83645030D01*
X172077721Y-83302770D01*
X172077722Y-83302756D01*
X172077724Y-83302748D01*
X172110329Y-82985931D01*
X172113559Y-82954551D01*
X172112500Y-82780470D01*
X172112499Y-82779715D01*
X172112504Y-82741873D01*
X172113141Y-78284182D01*
X172132835Y-78217147D01*
X172185646Y-78171399D01*
X172237142Y-78160201D01*
X188946334Y-78160493D01*
G37*
%TD.AperFunction*%
%TD*%
M02*
